%TF.GenerationSoftware,KiCad,Pcbnew,(5.99.0-11763-gc80efb0f98)*%
%TF.CreationDate,2021-08-26T10:07:41+03:00*%
%TF.ProjectId,E500_MCBB,45353030-5f4d-4434-9242-2e6b69636164,rev?*%
%TF.SameCoordinates,Original*%
%TF.FileFunction,Copper,L2,Bot*%
%TF.FilePolarity,Positive*%
%FSLAX46Y46*%
G04 Gerber Fmt 4.6, Leading zero omitted, Abs format (unit mm)*
G04 Created by KiCad (PCBNEW (5.99.0-11763-gc80efb0f98)) date 2021-08-26 10:07:41*
%MOMM*%
%LPD*%
G01*
G04 APERTURE LIST*
G04 Aperture macros list*
%AMRoundRect*
0 Rectangle with rounded corners*
0 $1 Rounding radius*
0 $2 $3 $4 $5 $6 $7 $8 $9 X,Y pos of 4 corners*
0 Add a 4 corners polygon primitive as box body*
4,1,4,$2,$3,$4,$5,$6,$7,$8,$9,$2,$3,0*
0 Add four circle primitives for the rounded corners*
1,1,$1+$1,$2,$3*
1,1,$1+$1,$4,$5*
1,1,$1+$1,$6,$7*
1,1,$1+$1,$8,$9*
0 Add four rect primitives between the rounded corners*
20,1,$1+$1,$2,$3,$4,$5,0*
20,1,$1+$1,$4,$5,$6,$7,0*
20,1,$1+$1,$6,$7,$8,$9,0*
20,1,$1+$1,$8,$9,$2,$3,0*%
G04 Aperture macros list end*
%ADD10C,0.300000*%
%TA.AperFunction,NonConductor*%
%ADD11C,0.300000*%
%TD*%
%TA.AperFunction,ComponentPad*%
%ADD12C,0.600000*%
%TD*%
%TA.AperFunction,ConnectorPad*%
%ADD13RoundRect,0.400000X-0.400000X-1.850000X0.400000X-1.850000X0.400000X1.850000X-0.400000X1.850000X0*%
%TD*%
%TA.AperFunction,ViaPad*%
%ADD14C,0.600000*%
%TD*%
%TA.AperFunction,Conductor*%
%ADD15C,0.400000*%
%TD*%
G04 APERTURE END LIST*
D10*
D11*
X140738285Y-81340571D02*
X141238285Y-80626285D01*
X141595428Y-81340571D02*
X141595428Y-79840571D01*
X141024000Y-79840571D01*
X140881142Y-79912000D01*
X140809714Y-79983428D01*
X140738285Y-80126285D01*
X140738285Y-80340571D01*
X140809714Y-80483428D01*
X140881142Y-80554857D01*
X141024000Y-80626285D01*
X141595428Y-80626285D01*
X140095428Y-80554857D02*
X139595428Y-80554857D01*
X139381142Y-81340571D02*
X140095428Y-81340571D01*
X140095428Y-79840571D01*
X139381142Y-79840571D01*
X138952571Y-79840571D02*
X138452571Y-81340571D01*
X137952571Y-79840571D01*
X135524000Y-81340571D02*
X136381142Y-81340571D01*
X135952571Y-81340571D02*
X135952571Y-79840571D01*
X136095428Y-80054857D01*
X136238285Y-80197714D01*
X136381142Y-80269142D01*
X134881142Y-81197714D02*
X134809714Y-81269142D01*
X134881142Y-81340571D01*
X134952571Y-81269142D01*
X134881142Y-81197714D01*
X134881142Y-81340571D01*
X133881142Y-79840571D02*
X133738285Y-79840571D01*
X133595428Y-79912000D01*
X133524000Y-79983428D01*
X133452571Y-80126285D01*
X133381142Y-80412000D01*
X133381142Y-80769142D01*
X133452571Y-81054857D01*
X133524000Y-81197714D01*
X133595428Y-81269142D01*
X133738285Y-81340571D01*
X133881142Y-81340571D01*
X134024000Y-81269142D01*
X134095428Y-81197714D01*
X134166857Y-81054857D01*
X134238285Y-80769142D01*
X134238285Y-80412000D01*
X134166857Y-80126285D01*
X134095428Y-79983428D01*
X134024000Y-79912000D01*
X133881142Y-79840571D01*
D10*
D11*
X181211428Y-81086571D02*
X181211428Y-79586571D01*
X181211428Y-80158000D02*
X181068571Y-80086571D01*
X180782857Y-80086571D01*
X180640000Y-80158000D01*
X180568571Y-80229428D01*
X180497142Y-80372285D01*
X180497142Y-80800857D01*
X180568571Y-80943714D01*
X180640000Y-81015142D01*
X180782857Y-81086571D01*
X181068571Y-81086571D01*
X181211428Y-81015142D01*
X179997142Y-80086571D02*
X179640000Y-81086571D01*
X179282857Y-80086571D02*
X179640000Y-81086571D01*
X179782857Y-81443714D01*
X179854285Y-81515142D01*
X179997142Y-81586571D01*
X177568571Y-81086571D02*
X177568571Y-79586571D01*
X177568571Y-80300857D02*
X176711428Y-80300857D01*
X176711428Y-81086571D02*
X176711428Y-79586571D01*
X176140000Y-79586571D02*
X175782857Y-81086571D01*
X175497142Y-80015142D01*
X175211428Y-81086571D01*
X174854285Y-79586571D01*
X173425714Y-81086571D02*
X173925714Y-80372285D01*
X174282857Y-81086571D02*
X174282857Y-79586571D01*
X173711428Y-79586571D01*
X173568571Y-79658000D01*
X173497142Y-79729428D01*
X173425714Y-79872285D01*
X173425714Y-80086571D01*
X173497142Y-80229428D01*
X173568571Y-80300857D01*
X173711428Y-80372285D01*
X174282857Y-80372285D01*
X172497142Y-79586571D02*
X172354285Y-79586571D01*
X172211428Y-79658000D01*
X172140000Y-79729428D01*
X172068571Y-79872285D01*
X171997142Y-80158000D01*
X171997142Y-80515142D01*
X172068571Y-80800857D01*
X172140000Y-80943714D01*
X172211428Y-81015142D01*
X172354285Y-81086571D01*
X172497142Y-81086571D01*
X172640000Y-81015142D01*
X172711428Y-80943714D01*
X172782857Y-80800857D01*
X172854285Y-80515142D01*
X172854285Y-80158000D01*
X172782857Y-79872285D01*
X172711428Y-79729428D01*
X172640000Y-79658000D01*
X172497142Y-79586571D01*
D12*
%TO.P,U1,35,GND*%
%TO.N,/GND*%
X179980000Y-87035000D03*
X178630000Y-87035000D03*
X179800000Y-78135000D03*
%TO.P,U1,34,OE*%
%TO.N,unconnected-(U1-Pad34)*%
X177260000Y-78135000D03*
%TO.P,U1,33,NC*%
%TO.N,unconnected-(U1-Pad33)*%
X175990000Y-78135000D03*
%TO.P,U1,32,~{CE6}*%
%TO.N,/~{CE6}*%
X174720000Y-78135000D03*
%TO.P,U1,31,CERAM*%
%TO.N,/CERAM*%
X173450000Y-78135000D03*
%TO.P,U1,30,D7*%
%TO.N,/D7*%
X172180000Y-78135000D03*
%TO.P,U1,29,D6*%
%TO.N,/D6*%
X170910000Y-78135000D03*
%TO.P,U1,28,D5*%
%TO.N,/D5*%
X169640000Y-78135000D03*
%TO.P,U1,27,D4*%
%TO.N,/D4*%
X168370000Y-78135000D03*
%TO.P,U1,26,D3*%
%TO.N,/D3*%
X167100000Y-78135000D03*
%TO.P,U1,25,D2*%
%TO.N,/D2*%
X165830000Y-78135000D03*
%TO.P,U1,24,D1*%
%TO.N,/D1*%
X164560000Y-78135000D03*
%TO.P,U1,23,D0*%
%TO.N,/D0*%
X163290000Y-78135000D03*
%TO.P,U1,22,VCC2*%
%TO.N,unconnected-(U1-Pad22)*%
X162020000Y-78135000D03*
%TO.P,U1,21,A17*%
%TO.N,/A17*%
X160750000Y-78135000D03*
%TO.P,U1,20,A16*%
%TO.N,/A16*%
X159480000Y-78135000D03*
%TO.P,U1,19,A15*%
%TO.N,/A15*%
X158210000Y-78135000D03*
%TO.P,U1,18,A14*%
%TO.N,/A14*%
X156940000Y-78135000D03*
%TO.P,U1,17,A13*%
%TO.N,/A13*%
X155670000Y-78135000D03*
%TO.P,U1,16,A12*%
%TO.N,/A12*%
X154400000Y-78135000D03*
%TO.P,U1,15,A11*%
%TO.N,/A11*%
X153130000Y-78135000D03*
%TO.P,U1,14,A10*%
%TO.N,/A10*%
X151860000Y-78135000D03*
%TO.P,U1,13,A9*%
%TO.N,/A9*%
X150590000Y-78135000D03*
%TO.P,U1,12,A8*%
%TO.N,/A8*%
X149320000Y-78135000D03*
%TO.P,U1,11,A7*%
%TO.N,/A7*%
X148050000Y-78135000D03*
%TO.P,U1,10,A6*%
%TO.N,/A6*%
X146780000Y-78135000D03*
%TO.P,U1,9,A5*%
%TO.N,/A5*%
X145510000Y-78135000D03*
%TO.P,U1,8,A4*%
%TO.N,/A4*%
X144240000Y-78135000D03*
%TO.P,U1,7,A3*%
%TO.N,/A3*%
X142970000Y-78135000D03*
%TO.P,U1,6,A2*%
%TO.N,/A2*%
X141700000Y-78135000D03*
%TO.P,U1,5,A1*%
%TO.N,/A1*%
X140430000Y-78135000D03*
%TO.P,U1,4,A0*%
%TO.N,/A0*%
X139160000Y-78135000D03*
%TO.P,U1,3,R/W*%
%TO.N,/R_W*%
X137890000Y-78135000D03*
%TO.P,U1,2,VCC*%
%TO.N,/VCC*%
X136620000Y-78135000D03*
%TO.P,U1,1,VCC*%
X135230000Y-87035000D03*
X134080000Y-78135000D03*
X133930000Y-87025000D03*
%TD*%
%TO.P,SP1,1,1*%
%TO.N,/VCC*%
X133460000Y-94505000D03*
X133460000Y-91330000D03*
D13*
X133460000Y-92870000D03*
%TD*%
D12*
%TO.P,SP2,1,1*%
%TO.N,/R_W*%
X137270000Y-91330000D03*
D13*
X137270000Y-92870000D03*
D12*
X137270000Y-94505000D03*
%TD*%
%TO.P,SP3,1,1*%
%TO.N,/A0*%
X133460000Y-102760000D03*
D13*
X133460000Y-104300000D03*
D12*
X133460000Y-105935000D03*
%TD*%
%TO.P,SP4,1,1*%
%TO.N,/A1*%
X136000000Y-102760000D03*
D13*
X136000000Y-104300000D03*
D12*
X136000000Y-105935000D03*
%TD*%
D13*
%TO.P,SP5,1,1*%
%TO.N,/A2*%
X138540000Y-104300000D03*
D12*
X138540000Y-102760000D03*
X138540000Y-105935000D03*
%TD*%
%TO.P,SP6,1,1*%
%TO.N,/A3*%
X141080000Y-105935000D03*
D13*
X141080000Y-104300000D03*
D12*
X141080000Y-102760000D03*
%TD*%
%TO.P,SP7,1,1*%
%TO.N,/A4*%
X143620000Y-105935000D03*
X143620000Y-102760000D03*
D13*
X143620000Y-104300000D03*
%TD*%
D12*
%TO.P,SP8,1,1*%
%TO.N,/A5*%
X146160000Y-102760000D03*
X146160000Y-105935000D03*
D13*
X146160000Y-104300000D03*
%TD*%
D12*
%TO.P,SP9,1,1*%
%TO.N,/A6*%
X148700000Y-105935000D03*
D13*
X148700000Y-104300000D03*
D12*
X148700000Y-102760000D03*
%TD*%
%TO.P,SP10,1,1*%
%TO.N,/A7*%
X151240000Y-105935000D03*
D13*
X151240000Y-104300000D03*
D12*
X151240000Y-102760000D03*
%TD*%
D13*
%TO.P,SP11,1,1*%
%TO.N,/A8*%
X153780000Y-104300000D03*
D12*
X153780000Y-105935000D03*
X153780000Y-102760000D03*
%TD*%
%TO.P,SP12,1,1*%
%TO.N,/A9*%
X133460000Y-111650000D03*
X133460000Y-114825000D03*
D13*
X133460000Y-113190000D03*
%TD*%
%TO.P,SP13,1,1*%
%TO.N,/A10*%
X136000000Y-113190000D03*
D12*
X136000000Y-111650000D03*
X136000000Y-114825000D03*
%TD*%
D13*
%TO.P,SP14,1,1*%
%TO.N,/A11*%
X138540000Y-113190000D03*
D12*
X138540000Y-111650000D03*
X138540000Y-114825000D03*
%TD*%
D13*
%TO.P,SP15,1,1*%
%TO.N,/A12*%
X141080000Y-113190000D03*
D12*
X141080000Y-114825000D03*
X141080000Y-111650000D03*
%TD*%
D13*
%TO.P,SP16,1,1*%
%TO.N,/A13*%
X143620000Y-113190000D03*
D12*
X143620000Y-111650000D03*
X143620000Y-114825000D03*
%TD*%
%TO.P,SP17,1,1*%
%TO.N,/A14*%
X146160000Y-111650000D03*
X146160000Y-114825000D03*
D13*
X146160000Y-113190000D03*
%TD*%
D12*
%TO.P,SP18,1,1*%
%TO.N,/A15*%
X148700000Y-111650000D03*
X148700000Y-114825000D03*
D13*
X148700000Y-113190000D03*
%TD*%
D12*
%TO.P,SP19,1,1*%
%TO.N,/A16*%
X151240000Y-111650000D03*
X151240000Y-114825000D03*
D13*
X151240000Y-113190000D03*
%TD*%
%TO.P,SP20,1,1*%
%TO.N,/A17*%
X153780000Y-113190000D03*
D12*
X153780000Y-111650000D03*
X153780000Y-114825000D03*
%TD*%
D13*
%TO.P,SP21,1,1*%
%TO.N,/D0*%
X158860000Y-104300000D03*
D12*
X158860000Y-105935000D03*
X158860000Y-102760000D03*
%TD*%
D13*
%TO.P,SP22,1,1*%
%TO.N,/D1*%
X161400000Y-104300000D03*
D12*
X161400000Y-105935000D03*
X161400000Y-102760000D03*
%TD*%
%TO.P,SP23,1,1*%
%TO.N,/D2*%
X163940000Y-105935000D03*
D13*
X163940000Y-104300000D03*
D12*
X163940000Y-102760000D03*
%TD*%
%TO.P,SP24,1,1*%
%TO.N,/D3*%
X166480000Y-102760000D03*
D13*
X166480000Y-104300000D03*
D12*
X166480000Y-105935000D03*
%TD*%
%TO.P,SP25,1,1*%
%TO.N,/D4*%
X169020000Y-105935000D03*
D13*
X169020000Y-104300000D03*
D12*
X169020000Y-102760000D03*
%TD*%
%TO.P,SP26,1,1*%
%TO.N,/D5*%
X171560000Y-102760000D03*
X171560000Y-105935000D03*
D13*
X171560000Y-104300000D03*
%TD*%
D12*
%TO.P,SP27,1,1*%
%TO.N,/D6*%
X174100000Y-102760000D03*
X174100000Y-105935000D03*
D13*
X174100000Y-104300000D03*
%TD*%
D12*
%TO.P,SP28,1,1*%
%TO.N,/D7*%
X176640000Y-102760000D03*
D13*
X176640000Y-104300000D03*
D12*
X176640000Y-105935000D03*
%TD*%
%TO.P,SP29,1,1*%
%TO.N,/CERAM*%
X174100000Y-91330000D03*
X174100000Y-94505000D03*
D13*
X174100000Y-92870000D03*
%TD*%
%TO.P,SP30,1,1*%
%TO.N,/~{CE6}*%
X177910000Y-92870000D03*
D12*
X177910000Y-91330000D03*
X177910000Y-94505000D03*
%TD*%
%TO.P,SP31,1,1*%
%TO.N,/GND*%
X158860000Y-114825000D03*
D13*
X158860000Y-113190000D03*
D12*
X158860000Y-111650000D03*
%TD*%
%TO.P,SP32,1,1*%
%TO.N,/GND*%
X181720000Y-105935000D03*
D13*
X181720000Y-104300000D03*
D12*
X181720000Y-102760000D03*
%TD*%
D14*
%TO.N,/GND*%
X138260000Y-90100000D03*
%TO.N,/A9*%
X150569440Y-88642680D03*
%TO.N,/A10*%
X151803880Y-88637600D03*
%TO.N,/A11*%
X153109440Y-88591880D03*
%TO.N,/A12*%
X154389600Y-88584260D03*
%TO.N,/A13*%
X155646900Y-88652840D03*
%TO.N,/A14*%
X156939760Y-88655380D03*
%TO.N,/A15*%
X158171660Y-88645220D03*
%TO.N,/A16*%
X159436580Y-88635060D03*
%TO.N,/GND*%
X166861000Y-118508000D03*
X158606000Y-108983000D03*
X131047000Y-117619000D03*
X172068000Y-115460000D03*
X182228000Y-117619000D03*
X181720000Y-89425000D03*
X157463000Y-95267000D03*
X182228000Y-111142000D03*
X131047000Y-107840000D03*
X181720000Y-97553000D03*
X131174000Y-88917000D03*
X134984000Y-117746000D03*
X179053000Y-108856000D03*
X168004000Y-108729000D03*
X156320000Y-114063000D03*
X132063000Y-97172000D03*
%TD*%
D15*
%TO.N,/A9*%
X137200010Y-102012110D02*
X137200010Y-106868590D01*
X137200010Y-106868590D02*
X133460000Y-110608600D01*
X133460000Y-110608600D02*
X133460000Y-114190000D01*
X150569440Y-88642680D02*
X137200010Y-102012110D01*
%TO.N,/A10*%
X139740010Y-100701470D02*
X139740010Y-106518070D01*
X139740010Y-106518070D02*
X136000000Y-110258080D01*
X136000000Y-110258080D02*
X136000000Y-111650000D01*
X151803880Y-88637600D02*
X139740010Y-100701470D01*
%TO.N,/A11*%
X142280010Y-106481378D02*
X138540000Y-110221388D01*
X142280010Y-99421310D02*
X142280010Y-106481378D01*
X153109440Y-88591880D02*
X142280010Y-99421310D01*
X138540000Y-110221388D02*
X138540000Y-114190000D01*
%TO.N,/A12*%
X144959990Y-98013870D02*
X144959990Y-106484770D01*
X141080000Y-110364760D02*
X141080000Y-114190000D01*
X144959990Y-106484770D02*
X141080000Y-110364760D01*
X154389600Y-88584260D02*
X144959990Y-98013870D01*
%TO.N,/A13*%
X147360010Y-96939730D02*
X147360010Y-106538390D01*
X155646900Y-88652840D02*
X147360010Y-96939730D01*
X147360010Y-106538390D02*
X143620000Y-110278400D01*
X143620000Y-110278400D02*
X143620000Y-114190000D01*
%TO.N,/A14*%
X149900010Y-95695130D02*
X149900010Y-106487590D01*
X149900010Y-106487590D02*
X146160000Y-110227600D01*
X146160000Y-110227600D02*
X146160000Y-114190000D01*
X156939760Y-88655380D02*
X149900010Y-95695130D01*
%TO.N,/A15*%
X152440010Y-106584110D02*
X148700000Y-110324120D01*
X148700000Y-110324120D02*
X148700000Y-114190000D01*
X152440010Y-94376870D02*
X152440010Y-106584110D01*
X158171660Y-88645220D02*
X152440010Y-94376870D01*
%TO.N,/A16*%
X159436580Y-88635060D02*
X154980010Y-93091630D01*
X154980010Y-93091630D02*
X154980010Y-106481378D01*
X154980010Y-106481378D02*
X151240000Y-110221388D01*
X151240000Y-110221388D02*
X151240000Y-114190000D01*
%TD*%
%TA.AperFunction,Conductor*%
%TO.N,/GND*%
G36*
X133636670Y-77718907D02*
G01*
X133672634Y-77768407D01*
X133672634Y-77829593D01*
X133661563Y-77852648D01*
X133657377Y-77857388D01*
X133596447Y-77987163D01*
X133574391Y-78128823D01*
X133575306Y-78135820D01*
X133575306Y-78135821D01*
X133576814Y-78147354D01*
X133592980Y-78270979D01*
X133595821Y-78277435D01*
X133595821Y-78277436D01*
X133603586Y-78295082D01*
X133650720Y-78402203D01*
X133668187Y-78422982D01*
X133726032Y-78491798D01*
X133749002Y-78548508D01*
X133734251Y-78607889D01*
X133687415Y-78647259D01*
X133650249Y-78654500D01*
X132595429Y-78654500D01*
X132595429Y-82669500D01*
X142452572Y-82669500D01*
X142452572Y-78654500D01*
X142128052Y-78654500D01*
X142069861Y-78635593D01*
X142033897Y-78586093D01*
X142033897Y-78524907D01*
X142054654Y-78489064D01*
X142114468Y-78422982D01*
X142119200Y-78417754D01*
X142181710Y-78288733D01*
X142184041Y-78274881D01*
X142204862Y-78151124D01*
X142204862Y-78151120D01*
X142205496Y-78147354D01*
X142205647Y-78135000D01*
X142185323Y-77993082D01*
X142125984Y-77862572D01*
X142121380Y-77857229D01*
X142118253Y-77852339D01*
X142102829Y-77793129D01*
X142125154Y-77736162D01*
X142176699Y-77703197D01*
X142201655Y-77700000D01*
X142468479Y-77700000D01*
X142526670Y-77718907D01*
X142562634Y-77768407D01*
X142562634Y-77829593D01*
X142551563Y-77852648D01*
X142547377Y-77857388D01*
X142486447Y-77987163D01*
X142464391Y-78128823D01*
X142465306Y-78135820D01*
X142465306Y-78135821D01*
X142466814Y-78147354D01*
X142482980Y-78270979D01*
X142485821Y-78277435D01*
X142485821Y-78277436D01*
X142493586Y-78295082D01*
X142540720Y-78402203D01*
X142552469Y-78416180D01*
X142628431Y-78506549D01*
X142628434Y-78506551D01*
X142632970Y-78511948D01*
X142638841Y-78515856D01*
X142638842Y-78515857D01*
X142648628Y-78522371D01*
X142752313Y-78591390D01*
X142852920Y-78622821D01*
X142882425Y-78632039D01*
X142882426Y-78632039D01*
X142889157Y-78634142D01*
X142960828Y-78635456D01*
X143025445Y-78636641D01*
X143025447Y-78636641D01*
X143032499Y-78636770D01*
X143039302Y-78634915D01*
X143039304Y-78634915D01*
X143135619Y-78608656D01*
X143170817Y-78599060D01*
X143292991Y-78524045D01*
X143300403Y-78515857D01*
X143384468Y-78422982D01*
X143389200Y-78417754D01*
X143451710Y-78288733D01*
X143454041Y-78274881D01*
X143474862Y-78151124D01*
X143474862Y-78151120D01*
X143475496Y-78147354D01*
X143475647Y-78135000D01*
X143455323Y-77993082D01*
X143395984Y-77862572D01*
X143391380Y-77857229D01*
X143388253Y-77852339D01*
X143372829Y-77793129D01*
X143395154Y-77736162D01*
X143446699Y-77703197D01*
X143471655Y-77700000D01*
X143738479Y-77700000D01*
X143796670Y-77718907D01*
X143832634Y-77768407D01*
X143832634Y-77829593D01*
X143821563Y-77852648D01*
X143817377Y-77857388D01*
X143756447Y-77987163D01*
X143734391Y-78128823D01*
X143735306Y-78135820D01*
X143735306Y-78135821D01*
X143736814Y-78147354D01*
X143752980Y-78270979D01*
X143755821Y-78277435D01*
X143755821Y-78277436D01*
X143763586Y-78295082D01*
X143810720Y-78402203D01*
X143822469Y-78416180D01*
X143898431Y-78506549D01*
X143898434Y-78506551D01*
X143902970Y-78511948D01*
X143908841Y-78515856D01*
X143908842Y-78515857D01*
X143918628Y-78522371D01*
X144022313Y-78591390D01*
X144122920Y-78622821D01*
X144152425Y-78632039D01*
X144152426Y-78632039D01*
X144159157Y-78634142D01*
X144230828Y-78635456D01*
X144295445Y-78636641D01*
X144295447Y-78636641D01*
X144302499Y-78636770D01*
X144309302Y-78634915D01*
X144309304Y-78634915D01*
X144405619Y-78608656D01*
X144440817Y-78599060D01*
X144562991Y-78524045D01*
X144570403Y-78515857D01*
X144654468Y-78422982D01*
X144659200Y-78417754D01*
X144721710Y-78288733D01*
X144724041Y-78274881D01*
X144744862Y-78151124D01*
X144744862Y-78151120D01*
X144745496Y-78147354D01*
X144745647Y-78135000D01*
X144725323Y-77993082D01*
X144665984Y-77862572D01*
X144661380Y-77857229D01*
X144658253Y-77852339D01*
X144642829Y-77793129D01*
X144665154Y-77736162D01*
X144716699Y-77703197D01*
X144741655Y-77700000D01*
X145008479Y-77700000D01*
X145066670Y-77718907D01*
X145102634Y-77768407D01*
X145102634Y-77829593D01*
X145091563Y-77852648D01*
X145087377Y-77857388D01*
X145026447Y-77987163D01*
X145004391Y-78128823D01*
X145005306Y-78135820D01*
X145005306Y-78135821D01*
X145006814Y-78147354D01*
X145022980Y-78270979D01*
X145025821Y-78277435D01*
X145025821Y-78277436D01*
X145033586Y-78295082D01*
X145080720Y-78402203D01*
X145092469Y-78416180D01*
X145168431Y-78506549D01*
X145168434Y-78506551D01*
X145172970Y-78511948D01*
X145178841Y-78515856D01*
X145178842Y-78515857D01*
X145188628Y-78522371D01*
X145292313Y-78591390D01*
X145392920Y-78622821D01*
X145422425Y-78632039D01*
X145422426Y-78632039D01*
X145429157Y-78634142D01*
X145500828Y-78635456D01*
X145565445Y-78636641D01*
X145565447Y-78636641D01*
X145572499Y-78636770D01*
X145579302Y-78634915D01*
X145579304Y-78634915D01*
X145675619Y-78608656D01*
X145710817Y-78599060D01*
X145832991Y-78524045D01*
X145840403Y-78515857D01*
X145924468Y-78422982D01*
X145929200Y-78417754D01*
X145991710Y-78288733D01*
X145994041Y-78274881D01*
X146014862Y-78151124D01*
X146014862Y-78151120D01*
X146015496Y-78147354D01*
X146015647Y-78135000D01*
X145995323Y-77993082D01*
X145935984Y-77862572D01*
X145931380Y-77857229D01*
X145928253Y-77852339D01*
X145912829Y-77793129D01*
X145935154Y-77736162D01*
X145986699Y-77703197D01*
X146011655Y-77700000D01*
X146278479Y-77700000D01*
X146336670Y-77718907D01*
X146372634Y-77768407D01*
X146372634Y-77829593D01*
X146361563Y-77852648D01*
X146357377Y-77857388D01*
X146296447Y-77987163D01*
X146274391Y-78128823D01*
X146275306Y-78135820D01*
X146275306Y-78135821D01*
X146276814Y-78147354D01*
X146292980Y-78270979D01*
X146295821Y-78277435D01*
X146295821Y-78277436D01*
X146303586Y-78295082D01*
X146350720Y-78402203D01*
X146362469Y-78416180D01*
X146438431Y-78506549D01*
X146438434Y-78506551D01*
X146442970Y-78511948D01*
X146448841Y-78515856D01*
X146448842Y-78515857D01*
X146458628Y-78522371D01*
X146562313Y-78591390D01*
X146662920Y-78622821D01*
X146692425Y-78632039D01*
X146692426Y-78632039D01*
X146699157Y-78634142D01*
X146770828Y-78635456D01*
X146835445Y-78636641D01*
X146835447Y-78636641D01*
X146842499Y-78636770D01*
X146849302Y-78634915D01*
X146849304Y-78634915D01*
X146945619Y-78608656D01*
X146980817Y-78599060D01*
X147102991Y-78524045D01*
X147110403Y-78515857D01*
X147194468Y-78422982D01*
X147199200Y-78417754D01*
X147261710Y-78288733D01*
X147264041Y-78274881D01*
X147284862Y-78151124D01*
X147284862Y-78151120D01*
X147285496Y-78147354D01*
X147285647Y-78135000D01*
X147265323Y-77993082D01*
X147205984Y-77862572D01*
X147201380Y-77857229D01*
X147198253Y-77852339D01*
X147182829Y-77793129D01*
X147205154Y-77736162D01*
X147256699Y-77703197D01*
X147281655Y-77700000D01*
X147548479Y-77700000D01*
X147606670Y-77718907D01*
X147642634Y-77768407D01*
X147642634Y-77829593D01*
X147631563Y-77852648D01*
X147627377Y-77857388D01*
X147566447Y-77987163D01*
X147544391Y-78128823D01*
X147545306Y-78135820D01*
X147545306Y-78135821D01*
X147546814Y-78147354D01*
X147562980Y-78270979D01*
X147565821Y-78277435D01*
X147565821Y-78277436D01*
X147573586Y-78295082D01*
X147620720Y-78402203D01*
X147632469Y-78416180D01*
X147708431Y-78506549D01*
X147708434Y-78506551D01*
X147712970Y-78511948D01*
X147718841Y-78515856D01*
X147718842Y-78515857D01*
X147728628Y-78522371D01*
X147832313Y-78591390D01*
X147932920Y-78622821D01*
X147962425Y-78632039D01*
X147962426Y-78632039D01*
X147969157Y-78634142D01*
X148040828Y-78635456D01*
X148105445Y-78636641D01*
X148105447Y-78636641D01*
X148112499Y-78636770D01*
X148119302Y-78634915D01*
X148119304Y-78634915D01*
X148215619Y-78608656D01*
X148250817Y-78599060D01*
X148372991Y-78524045D01*
X148380403Y-78515857D01*
X148464468Y-78422982D01*
X148469200Y-78417754D01*
X148531710Y-78288733D01*
X148534041Y-78274881D01*
X148554862Y-78151124D01*
X148554862Y-78151120D01*
X148555496Y-78147354D01*
X148555647Y-78135000D01*
X148535323Y-77993082D01*
X148475984Y-77862572D01*
X148471380Y-77857229D01*
X148468253Y-77852339D01*
X148452829Y-77793129D01*
X148475154Y-77736162D01*
X148526699Y-77703197D01*
X148551655Y-77700000D01*
X148818479Y-77700000D01*
X148876670Y-77718907D01*
X148912634Y-77768407D01*
X148912634Y-77829593D01*
X148901563Y-77852648D01*
X148897377Y-77857388D01*
X148836447Y-77987163D01*
X148814391Y-78128823D01*
X148815306Y-78135820D01*
X148815306Y-78135821D01*
X148816814Y-78147354D01*
X148832980Y-78270979D01*
X148835821Y-78277435D01*
X148835821Y-78277436D01*
X148843586Y-78295082D01*
X148890720Y-78402203D01*
X148902469Y-78416180D01*
X148978431Y-78506549D01*
X148978434Y-78506551D01*
X148982970Y-78511948D01*
X148988841Y-78515856D01*
X148988842Y-78515857D01*
X148998628Y-78522371D01*
X149102313Y-78591390D01*
X149202920Y-78622821D01*
X149232425Y-78632039D01*
X149232426Y-78632039D01*
X149239157Y-78634142D01*
X149310828Y-78635456D01*
X149375445Y-78636641D01*
X149375447Y-78636641D01*
X149382499Y-78636770D01*
X149389302Y-78634915D01*
X149389304Y-78634915D01*
X149485619Y-78608656D01*
X149520817Y-78599060D01*
X149642991Y-78524045D01*
X149650403Y-78515857D01*
X149734468Y-78422982D01*
X149739200Y-78417754D01*
X149801710Y-78288733D01*
X149804041Y-78274881D01*
X149824862Y-78151124D01*
X149824862Y-78151120D01*
X149825496Y-78147354D01*
X149825647Y-78135000D01*
X149805323Y-77993082D01*
X149745984Y-77862572D01*
X149741380Y-77857229D01*
X149738253Y-77852339D01*
X149722829Y-77793129D01*
X149745154Y-77736162D01*
X149796699Y-77703197D01*
X149821655Y-77700000D01*
X150088479Y-77700000D01*
X150146670Y-77718907D01*
X150182634Y-77768407D01*
X150182634Y-77829593D01*
X150171563Y-77852648D01*
X150167377Y-77857388D01*
X150106447Y-77987163D01*
X150084391Y-78128823D01*
X150085306Y-78135820D01*
X150085306Y-78135821D01*
X150086814Y-78147354D01*
X150102980Y-78270979D01*
X150105821Y-78277435D01*
X150105821Y-78277436D01*
X150113586Y-78295082D01*
X150160720Y-78402203D01*
X150172469Y-78416180D01*
X150248431Y-78506549D01*
X150248434Y-78506551D01*
X150252970Y-78511948D01*
X150258841Y-78515856D01*
X150258842Y-78515857D01*
X150268628Y-78522371D01*
X150372313Y-78591390D01*
X150472920Y-78622821D01*
X150502425Y-78632039D01*
X150502426Y-78632039D01*
X150509157Y-78634142D01*
X150580828Y-78635456D01*
X150645445Y-78636641D01*
X150645447Y-78636641D01*
X150652499Y-78636770D01*
X150659302Y-78634915D01*
X150659304Y-78634915D01*
X150755619Y-78608656D01*
X150790817Y-78599060D01*
X150912991Y-78524045D01*
X150920403Y-78515857D01*
X151004468Y-78422982D01*
X151009200Y-78417754D01*
X151071710Y-78288733D01*
X151074041Y-78274881D01*
X151094862Y-78151124D01*
X151094862Y-78151120D01*
X151095496Y-78147354D01*
X151095647Y-78135000D01*
X151075323Y-77993082D01*
X151015984Y-77862572D01*
X151011380Y-77857229D01*
X151008253Y-77852339D01*
X150992829Y-77793129D01*
X151015154Y-77736162D01*
X151066699Y-77703197D01*
X151091655Y-77700000D01*
X151358479Y-77700000D01*
X151416670Y-77718907D01*
X151452634Y-77768407D01*
X151452634Y-77829593D01*
X151441563Y-77852648D01*
X151437377Y-77857388D01*
X151376447Y-77987163D01*
X151354391Y-78128823D01*
X151355306Y-78135820D01*
X151355306Y-78135821D01*
X151356814Y-78147354D01*
X151372980Y-78270979D01*
X151375821Y-78277435D01*
X151375821Y-78277436D01*
X151383586Y-78295082D01*
X151430720Y-78402203D01*
X151442469Y-78416180D01*
X151518431Y-78506549D01*
X151518434Y-78506551D01*
X151522970Y-78511948D01*
X151528841Y-78515856D01*
X151528842Y-78515857D01*
X151538628Y-78522371D01*
X151642313Y-78591390D01*
X151742920Y-78622821D01*
X151772425Y-78632039D01*
X151772426Y-78632039D01*
X151779157Y-78634142D01*
X151850828Y-78635456D01*
X151915445Y-78636641D01*
X151915447Y-78636641D01*
X151922499Y-78636770D01*
X151929302Y-78634915D01*
X151929304Y-78634915D01*
X152025619Y-78608656D01*
X152060817Y-78599060D01*
X152182991Y-78524045D01*
X152190403Y-78515857D01*
X152274468Y-78422982D01*
X152279200Y-78417754D01*
X152341710Y-78288733D01*
X152344041Y-78274881D01*
X152364862Y-78151124D01*
X152364862Y-78151120D01*
X152365496Y-78147354D01*
X152365647Y-78135000D01*
X152345323Y-77993082D01*
X152285984Y-77862572D01*
X152281380Y-77857229D01*
X152278253Y-77852339D01*
X152262829Y-77793129D01*
X152285154Y-77736162D01*
X152336699Y-77703197D01*
X152361655Y-77700000D01*
X152628479Y-77700000D01*
X152686670Y-77718907D01*
X152722634Y-77768407D01*
X152722634Y-77829593D01*
X152711563Y-77852648D01*
X152707377Y-77857388D01*
X152646447Y-77987163D01*
X152624391Y-78128823D01*
X152625306Y-78135820D01*
X152625306Y-78135821D01*
X152626814Y-78147354D01*
X152642980Y-78270979D01*
X152645821Y-78277435D01*
X152645821Y-78277436D01*
X152653586Y-78295082D01*
X152700720Y-78402203D01*
X152712469Y-78416180D01*
X152788431Y-78506549D01*
X152788434Y-78506551D01*
X152792970Y-78511948D01*
X152798841Y-78515856D01*
X152798842Y-78515857D01*
X152808628Y-78522371D01*
X152912313Y-78591390D01*
X153012920Y-78622821D01*
X153042425Y-78632039D01*
X153042426Y-78632039D01*
X153049157Y-78634142D01*
X153120828Y-78635456D01*
X153185445Y-78636641D01*
X153185447Y-78636641D01*
X153192499Y-78636770D01*
X153199302Y-78634915D01*
X153199304Y-78634915D01*
X153295619Y-78608656D01*
X153330817Y-78599060D01*
X153452991Y-78524045D01*
X153460403Y-78515857D01*
X153544468Y-78422982D01*
X153549200Y-78417754D01*
X153611710Y-78288733D01*
X153614041Y-78274881D01*
X153634862Y-78151124D01*
X153634862Y-78151120D01*
X153635496Y-78147354D01*
X153635647Y-78135000D01*
X153615323Y-77993082D01*
X153555984Y-77862572D01*
X153551380Y-77857229D01*
X153548253Y-77852339D01*
X153532829Y-77793129D01*
X153555154Y-77736162D01*
X153606699Y-77703197D01*
X153631655Y-77700000D01*
X153898479Y-77700000D01*
X153956670Y-77718907D01*
X153992634Y-77768407D01*
X153992634Y-77829593D01*
X153981563Y-77852648D01*
X153977377Y-77857388D01*
X153916447Y-77987163D01*
X153894391Y-78128823D01*
X153895306Y-78135820D01*
X153895306Y-78135821D01*
X153896814Y-78147354D01*
X153912980Y-78270979D01*
X153915821Y-78277435D01*
X153915821Y-78277436D01*
X153923586Y-78295082D01*
X153970720Y-78402203D01*
X153982469Y-78416180D01*
X154058431Y-78506549D01*
X154058434Y-78506551D01*
X154062970Y-78511948D01*
X154068841Y-78515856D01*
X154068842Y-78515857D01*
X154078628Y-78522371D01*
X154182313Y-78591390D01*
X154282920Y-78622821D01*
X154312425Y-78632039D01*
X154312426Y-78632039D01*
X154319157Y-78634142D01*
X154390828Y-78635456D01*
X154455445Y-78636641D01*
X154455447Y-78636641D01*
X154462499Y-78636770D01*
X154469302Y-78634915D01*
X154469304Y-78634915D01*
X154565619Y-78608656D01*
X154600817Y-78599060D01*
X154722991Y-78524045D01*
X154730403Y-78515857D01*
X154814468Y-78422982D01*
X154819200Y-78417754D01*
X154881710Y-78288733D01*
X154884041Y-78274881D01*
X154904862Y-78151124D01*
X154904862Y-78151120D01*
X154905496Y-78147354D01*
X154905647Y-78135000D01*
X154885323Y-77993082D01*
X154825984Y-77862572D01*
X154821380Y-77857229D01*
X154818253Y-77852339D01*
X154802829Y-77793129D01*
X154825154Y-77736162D01*
X154876699Y-77703197D01*
X154901655Y-77700000D01*
X155168479Y-77700000D01*
X155226670Y-77718907D01*
X155262634Y-77768407D01*
X155262634Y-77829593D01*
X155251563Y-77852648D01*
X155247377Y-77857388D01*
X155186447Y-77987163D01*
X155164391Y-78128823D01*
X155165306Y-78135820D01*
X155165306Y-78135821D01*
X155166814Y-78147354D01*
X155182980Y-78270979D01*
X155185821Y-78277435D01*
X155185821Y-78277436D01*
X155193586Y-78295082D01*
X155240720Y-78402203D01*
X155252469Y-78416180D01*
X155328431Y-78506549D01*
X155328434Y-78506551D01*
X155332970Y-78511948D01*
X155338841Y-78515856D01*
X155338842Y-78515857D01*
X155348628Y-78522371D01*
X155452313Y-78591390D01*
X155552920Y-78622821D01*
X155582425Y-78632039D01*
X155582426Y-78632039D01*
X155589157Y-78634142D01*
X155660828Y-78635456D01*
X155725445Y-78636641D01*
X155725447Y-78636641D01*
X155732499Y-78636770D01*
X155739302Y-78634915D01*
X155739304Y-78634915D01*
X155835619Y-78608656D01*
X155870817Y-78599060D01*
X155992991Y-78524045D01*
X156000403Y-78515857D01*
X156084468Y-78422982D01*
X156089200Y-78417754D01*
X156151710Y-78288733D01*
X156154041Y-78274881D01*
X156174862Y-78151124D01*
X156174862Y-78151120D01*
X156175496Y-78147354D01*
X156175647Y-78135000D01*
X156155323Y-77993082D01*
X156095984Y-77862572D01*
X156091380Y-77857229D01*
X156088253Y-77852339D01*
X156072829Y-77793129D01*
X156095154Y-77736162D01*
X156146699Y-77703197D01*
X156171655Y-77700000D01*
X156438479Y-77700000D01*
X156496670Y-77718907D01*
X156532634Y-77768407D01*
X156532634Y-77829593D01*
X156521563Y-77852648D01*
X156517377Y-77857388D01*
X156456447Y-77987163D01*
X156434391Y-78128823D01*
X156435306Y-78135820D01*
X156435306Y-78135821D01*
X156436814Y-78147354D01*
X156452980Y-78270979D01*
X156455821Y-78277435D01*
X156455821Y-78277436D01*
X156463586Y-78295082D01*
X156510720Y-78402203D01*
X156522469Y-78416180D01*
X156598431Y-78506549D01*
X156598434Y-78506551D01*
X156602970Y-78511948D01*
X156608841Y-78515856D01*
X156608842Y-78515857D01*
X156618628Y-78522371D01*
X156722313Y-78591390D01*
X156822920Y-78622821D01*
X156852425Y-78632039D01*
X156852426Y-78632039D01*
X156859157Y-78634142D01*
X156930828Y-78635456D01*
X156995445Y-78636641D01*
X156995447Y-78636641D01*
X157002499Y-78636770D01*
X157009302Y-78634915D01*
X157009304Y-78634915D01*
X157105619Y-78608656D01*
X157140817Y-78599060D01*
X157262991Y-78524045D01*
X157270403Y-78515857D01*
X157354468Y-78422982D01*
X157359200Y-78417754D01*
X157421710Y-78288733D01*
X157424041Y-78274881D01*
X157444862Y-78151124D01*
X157444862Y-78151120D01*
X157445496Y-78147354D01*
X157445647Y-78135000D01*
X157425323Y-77993082D01*
X157365984Y-77862572D01*
X157361380Y-77857229D01*
X157358253Y-77852339D01*
X157342829Y-77793129D01*
X157365154Y-77736162D01*
X157416699Y-77703197D01*
X157441655Y-77700000D01*
X157708479Y-77700000D01*
X157766670Y-77718907D01*
X157802634Y-77768407D01*
X157802634Y-77829593D01*
X157791563Y-77852648D01*
X157787377Y-77857388D01*
X157726447Y-77987163D01*
X157704391Y-78128823D01*
X157705306Y-78135820D01*
X157705306Y-78135821D01*
X157706814Y-78147354D01*
X157722980Y-78270979D01*
X157725821Y-78277435D01*
X157725821Y-78277436D01*
X157733586Y-78295082D01*
X157780720Y-78402203D01*
X157792469Y-78416180D01*
X157868431Y-78506549D01*
X157868434Y-78506551D01*
X157872970Y-78511948D01*
X157878841Y-78515856D01*
X157878842Y-78515857D01*
X157888628Y-78522371D01*
X157992313Y-78591390D01*
X158092920Y-78622821D01*
X158122425Y-78632039D01*
X158122426Y-78632039D01*
X158129157Y-78634142D01*
X158200828Y-78635456D01*
X158265445Y-78636641D01*
X158265447Y-78636641D01*
X158272499Y-78636770D01*
X158279302Y-78634915D01*
X158279304Y-78634915D01*
X158375619Y-78608656D01*
X158410817Y-78599060D01*
X158532991Y-78524045D01*
X158540403Y-78515857D01*
X158624468Y-78422982D01*
X158629200Y-78417754D01*
X158691710Y-78288733D01*
X158694041Y-78274881D01*
X158714862Y-78151124D01*
X158714862Y-78151120D01*
X158715496Y-78147354D01*
X158715647Y-78135000D01*
X158695323Y-77993082D01*
X158635984Y-77862572D01*
X158631380Y-77857229D01*
X158628253Y-77852339D01*
X158612829Y-77793129D01*
X158635154Y-77736162D01*
X158686699Y-77703197D01*
X158711655Y-77700000D01*
X158978479Y-77700000D01*
X159036670Y-77718907D01*
X159072634Y-77768407D01*
X159072634Y-77829593D01*
X159061563Y-77852648D01*
X159057377Y-77857388D01*
X158996447Y-77987163D01*
X158974391Y-78128823D01*
X158975306Y-78135820D01*
X158975306Y-78135821D01*
X158976814Y-78147354D01*
X158992980Y-78270979D01*
X158995821Y-78277435D01*
X158995821Y-78277436D01*
X159003586Y-78295082D01*
X159050720Y-78402203D01*
X159062469Y-78416180D01*
X159138431Y-78506549D01*
X159138434Y-78506551D01*
X159142970Y-78511948D01*
X159148841Y-78515856D01*
X159148842Y-78515857D01*
X159158628Y-78522371D01*
X159262313Y-78591390D01*
X159362920Y-78622821D01*
X159392425Y-78632039D01*
X159392426Y-78632039D01*
X159399157Y-78634142D01*
X159470828Y-78635456D01*
X159535445Y-78636641D01*
X159535447Y-78636641D01*
X159542499Y-78636770D01*
X159549302Y-78634915D01*
X159549304Y-78634915D01*
X159645619Y-78608656D01*
X159680817Y-78599060D01*
X159802991Y-78524045D01*
X159810403Y-78515857D01*
X159894468Y-78422982D01*
X159899200Y-78417754D01*
X159961710Y-78288733D01*
X159964041Y-78274881D01*
X159984862Y-78151124D01*
X159984862Y-78151120D01*
X159985496Y-78147354D01*
X159985647Y-78135000D01*
X159965323Y-77993082D01*
X159905984Y-77862572D01*
X159901380Y-77857229D01*
X159898253Y-77852339D01*
X159882829Y-77793129D01*
X159905154Y-77736162D01*
X159956699Y-77703197D01*
X159981655Y-77700000D01*
X160248479Y-77700000D01*
X160306670Y-77718907D01*
X160342634Y-77768407D01*
X160342634Y-77829593D01*
X160331563Y-77852648D01*
X160327377Y-77857388D01*
X160266447Y-77987163D01*
X160244391Y-78128823D01*
X160245306Y-78135820D01*
X160245306Y-78135821D01*
X160246814Y-78147354D01*
X160262980Y-78270979D01*
X160265821Y-78277435D01*
X160265821Y-78277436D01*
X160273586Y-78295082D01*
X160320720Y-78402203D01*
X160332469Y-78416180D01*
X160408431Y-78506549D01*
X160408434Y-78506551D01*
X160412970Y-78511948D01*
X160418841Y-78515856D01*
X160418842Y-78515857D01*
X160428628Y-78522371D01*
X160532313Y-78591390D01*
X160632920Y-78622821D01*
X160662425Y-78632039D01*
X160662426Y-78632039D01*
X160669157Y-78634142D01*
X160740828Y-78635456D01*
X160805445Y-78636641D01*
X160805447Y-78636641D01*
X160812499Y-78636770D01*
X160819302Y-78634915D01*
X160819304Y-78634915D01*
X160915619Y-78608656D01*
X160950817Y-78599060D01*
X161072991Y-78524045D01*
X161080403Y-78515857D01*
X161164468Y-78422982D01*
X161169200Y-78417754D01*
X161231710Y-78288733D01*
X161234041Y-78274881D01*
X161254862Y-78151124D01*
X161254862Y-78151120D01*
X161255496Y-78147354D01*
X161255647Y-78135000D01*
X161235323Y-77993082D01*
X161175984Y-77862572D01*
X161171380Y-77857229D01*
X161168253Y-77852339D01*
X161152829Y-77793129D01*
X161175154Y-77736162D01*
X161226699Y-77703197D01*
X161251655Y-77700000D01*
X161518479Y-77700000D01*
X161576670Y-77718907D01*
X161612634Y-77768407D01*
X161612634Y-77829593D01*
X161601563Y-77852648D01*
X161597377Y-77857388D01*
X161536447Y-77987163D01*
X161514391Y-78128823D01*
X161515306Y-78135820D01*
X161515306Y-78135821D01*
X161516814Y-78147354D01*
X161532980Y-78270979D01*
X161535821Y-78277435D01*
X161535821Y-78277436D01*
X161543586Y-78295082D01*
X161590720Y-78402203D01*
X161602469Y-78416180D01*
X161678431Y-78506549D01*
X161678434Y-78506551D01*
X161682970Y-78511948D01*
X161688841Y-78515856D01*
X161688842Y-78515857D01*
X161698628Y-78522371D01*
X161802313Y-78591390D01*
X161902920Y-78622821D01*
X161932425Y-78632039D01*
X161932426Y-78632039D01*
X161939157Y-78634142D01*
X162010828Y-78635456D01*
X162075445Y-78636641D01*
X162075447Y-78636641D01*
X162082499Y-78636770D01*
X162089302Y-78634915D01*
X162089304Y-78634915D01*
X162185619Y-78608656D01*
X162220817Y-78599060D01*
X162342991Y-78524045D01*
X162350403Y-78515857D01*
X162434468Y-78422982D01*
X162439200Y-78417754D01*
X162501710Y-78288733D01*
X162504041Y-78274881D01*
X162524862Y-78151124D01*
X162524862Y-78151120D01*
X162525496Y-78147354D01*
X162525647Y-78135000D01*
X162505323Y-77993082D01*
X162445984Y-77862572D01*
X162441380Y-77857229D01*
X162438253Y-77852339D01*
X162422829Y-77793129D01*
X162445154Y-77736162D01*
X162496699Y-77703197D01*
X162521655Y-77700000D01*
X162788479Y-77700000D01*
X162846670Y-77718907D01*
X162882634Y-77768407D01*
X162882634Y-77829593D01*
X162871563Y-77852648D01*
X162867377Y-77857388D01*
X162806447Y-77987163D01*
X162784391Y-78128823D01*
X162785306Y-78135820D01*
X162785306Y-78135821D01*
X162786814Y-78147354D01*
X162802980Y-78270979D01*
X162805821Y-78277435D01*
X162805821Y-78277436D01*
X162813586Y-78295082D01*
X162860720Y-78402203D01*
X162872469Y-78416180D01*
X162948431Y-78506549D01*
X162948434Y-78506551D01*
X162952970Y-78511948D01*
X162958841Y-78515856D01*
X162958842Y-78515857D01*
X162968628Y-78522371D01*
X163072313Y-78591390D01*
X163172920Y-78622821D01*
X163202425Y-78632039D01*
X163202426Y-78632039D01*
X163209157Y-78634142D01*
X163280828Y-78635456D01*
X163345445Y-78636641D01*
X163345447Y-78636641D01*
X163352499Y-78636770D01*
X163359302Y-78634915D01*
X163359304Y-78634915D01*
X163455619Y-78608656D01*
X163490817Y-78599060D01*
X163612991Y-78524045D01*
X163620403Y-78515857D01*
X163704468Y-78422982D01*
X163709200Y-78417754D01*
X163771710Y-78288733D01*
X163774041Y-78274881D01*
X163794862Y-78151124D01*
X163794862Y-78151120D01*
X163795496Y-78147354D01*
X163795647Y-78135000D01*
X163775323Y-77993082D01*
X163715984Y-77862572D01*
X163711380Y-77857229D01*
X163708253Y-77852339D01*
X163692829Y-77793129D01*
X163715154Y-77736162D01*
X163766699Y-77703197D01*
X163791655Y-77700000D01*
X164058479Y-77700000D01*
X164116670Y-77718907D01*
X164152634Y-77768407D01*
X164152634Y-77829593D01*
X164141563Y-77852648D01*
X164137377Y-77857388D01*
X164076447Y-77987163D01*
X164054391Y-78128823D01*
X164055306Y-78135820D01*
X164055306Y-78135821D01*
X164056814Y-78147354D01*
X164072980Y-78270979D01*
X164075821Y-78277435D01*
X164075821Y-78277436D01*
X164083586Y-78295082D01*
X164130720Y-78402203D01*
X164142469Y-78416180D01*
X164218431Y-78506549D01*
X164218434Y-78506551D01*
X164222970Y-78511948D01*
X164228841Y-78515856D01*
X164228842Y-78515857D01*
X164238628Y-78522371D01*
X164342313Y-78591390D01*
X164442920Y-78622821D01*
X164472425Y-78632039D01*
X164472426Y-78632039D01*
X164479157Y-78634142D01*
X164550828Y-78635456D01*
X164615445Y-78636641D01*
X164615447Y-78636641D01*
X164622499Y-78636770D01*
X164629302Y-78634915D01*
X164629304Y-78634915D01*
X164725619Y-78608656D01*
X164760817Y-78599060D01*
X164882991Y-78524045D01*
X164890403Y-78515857D01*
X164974468Y-78422982D01*
X164979200Y-78417754D01*
X165041710Y-78288733D01*
X165044041Y-78274881D01*
X165064862Y-78151124D01*
X165064862Y-78151120D01*
X165065496Y-78147354D01*
X165065647Y-78135000D01*
X165045323Y-77993082D01*
X164985984Y-77862572D01*
X164981380Y-77857229D01*
X164978253Y-77852339D01*
X164962829Y-77793129D01*
X164985154Y-77736162D01*
X165036699Y-77703197D01*
X165061655Y-77700000D01*
X165328479Y-77700000D01*
X165386670Y-77718907D01*
X165422634Y-77768407D01*
X165422634Y-77829593D01*
X165411563Y-77852648D01*
X165407377Y-77857388D01*
X165346447Y-77987163D01*
X165324391Y-78128823D01*
X165325306Y-78135820D01*
X165325306Y-78135821D01*
X165326814Y-78147354D01*
X165342980Y-78270979D01*
X165345821Y-78277435D01*
X165345821Y-78277436D01*
X165353586Y-78295082D01*
X165400720Y-78402203D01*
X165412469Y-78416180D01*
X165488431Y-78506549D01*
X165488434Y-78506551D01*
X165492970Y-78511948D01*
X165498841Y-78515856D01*
X165498842Y-78515857D01*
X165508628Y-78522371D01*
X165612313Y-78591390D01*
X165712920Y-78622821D01*
X165742425Y-78632039D01*
X165742426Y-78632039D01*
X165749157Y-78634142D01*
X165820828Y-78635456D01*
X165885445Y-78636641D01*
X165885447Y-78636641D01*
X165892499Y-78636770D01*
X165899302Y-78634915D01*
X165899304Y-78634915D01*
X165995619Y-78608656D01*
X166030817Y-78599060D01*
X166152991Y-78524045D01*
X166160403Y-78515857D01*
X166244468Y-78422982D01*
X166249200Y-78417754D01*
X166311710Y-78288733D01*
X166314041Y-78274881D01*
X166334862Y-78151124D01*
X166334862Y-78151120D01*
X166335496Y-78147354D01*
X166335647Y-78135000D01*
X166315323Y-77993082D01*
X166255984Y-77862572D01*
X166251380Y-77857229D01*
X166248253Y-77852339D01*
X166232829Y-77793129D01*
X166255154Y-77736162D01*
X166306699Y-77703197D01*
X166331655Y-77700000D01*
X166598479Y-77700000D01*
X166656670Y-77718907D01*
X166692634Y-77768407D01*
X166692634Y-77829593D01*
X166681563Y-77852648D01*
X166677377Y-77857388D01*
X166616447Y-77987163D01*
X166594391Y-78128823D01*
X166595306Y-78135820D01*
X166595306Y-78135821D01*
X166596814Y-78147354D01*
X166612980Y-78270979D01*
X166615821Y-78277435D01*
X166615821Y-78277436D01*
X166623586Y-78295082D01*
X166670720Y-78402203D01*
X166682469Y-78416180D01*
X166758431Y-78506549D01*
X166758434Y-78506551D01*
X166762970Y-78511948D01*
X166768841Y-78515856D01*
X166768842Y-78515857D01*
X166778628Y-78522371D01*
X166882313Y-78591390D01*
X166982920Y-78622821D01*
X167012425Y-78632039D01*
X167012426Y-78632039D01*
X167019157Y-78634142D01*
X167090828Y-78635456D01*
X167155445Y-78636641D01*
X167155447Y-78636641D01*
X167162499Y-78636770D01*
X167169302Y-78634915D01*
X167169304Y-78634915D01*
X167265619Y-78608656D01*
X167300817Y-78599060D01*
X167422991Y-78524045D01*
X167430403Y-78515857D01*
X167514468Y-78422982D01*
X167519200Y-78417754D01*
X167581710Y-78288733D01*
X167584041Y-78274881D01*
X167604862Y-78151124D01*
X167604862Y-78151120D01*
X167605496Y-78147354D01*
X167605647Y-78135000D01*
X167585323Y-77993082D01*
X167525984Y-77862572D01*
X167521380Y-77857229D01*
X167518253Y-77852339D01*
X167502829Y-77793129D01*
X167525154Y-77736162D01*
X167576699Y-77703197D01*
X167601655Y-77700000D01*
X167868479Y-77700000D01*
X167926670Y-77718907D01*
X167962634Y-77768407D01*
X167962634Y-77829593D01*
X167951563Y-77852648D01*
X167947377Y-77857388D01*
X167886447Y-77987163D01*
X167864391Y-78128823D01*
X167865306Y-78135820D01*
X167865306Y-78135821D01*
X167866814Y-78147354D01*
X167882980Y-78270979D01*
X167885821Y-78277435D01*
X167885821Y-78277436D01*
X167893586Y-78295082D01*
X167940720Y-78402203D01*
X167952469Y-78416180D01*
X168028431Y-78506549D01*
X168028434Y-78506551D01*
X168032970Y-78511948D01*
X168038841Y-78515856D01*
X168038842Y-78515857D01*
X168048628Y-78522371D01*
X168152313Y-78591390D01*
X168252920Y-78622821D01*
X168282425Y-78632039D01*
X168282426Y-78632039D01*
X168289157Y-78634142D01*
X168360828Y-78635456D01*
X168425445Y-78636641D01*
X168425447Y-78636641D01*
X168432499Y-78636770D01*
X168439302Y-78634915D01*
X168439304Y-78634915D01*
X168535619Y-78608656D01*
X168570817Y-78599060D01*
X168692991Y-78524045D01*
X168700403Y-78515857D01*
X168784468Y-78422982D01*
X168789200Y-78417754D01*
X168851710Y-78288733D01*
X168854041Y-78274881D01*
X168874862Y-78151124D01*
X168874862Y-78151120D01*
X168875496Y-78147354D01*
X168875647Y-78135000D01*
X168855323Y-77993082D01*
X168795984Y-77862572D01*
X168791380Y-77857229D01*
X168788253Y-77852339D01*
X168772829Y-77793129D01*
X168795154Y-77736162D01*
X168846699Y-77703197D01*
X168871655Y-77700000D01*
X169138479Y-77700000D01*
X169196670Y-77718907D01*
X169232634Y-77768407D01*
X169232634Y-77829593D01*
X169221563Y-77852648D01*
X169217377Y-77857388D01*
X169156447Y-77987163D01*
X169134391Y-78128823D01*
X169135306Y-78135820D01*
X169135306Y-78135821D01*
X169136814Y-78147354D01*
X169152980Y-78270979D01*
X169155821Y-78277435D01*
X169155821Y-78277436D01*
X169163586Y-78295082D01*
X169210720Y-78402203D01*
X169222469Y-78416180D01*
X169298431Y-78506549D01*
X169298434Y-78506551D01*
X169302970Y-78511948D01*
X169308841Y-78515856D01*
X169308842Y-78515857D01*
X169318628Y-78522371D01*
X169422313Y-78591390D01*
X169522920Y-78622821D01*
X169552425Y-78632039D01*
X169552426Y-78632039D01*
X169559157Y-78634142D01*
X169630828Y-78635456D01*
X169695445Y-78636641D01*
X169695447Y-78636641D01*
X169702499Y-78636770D01*
X169709302Y-78634915D01*
X169709304Y-78634915D01*
X169805619Y-78608656D01*
X169840817Y-78599060D01*
X169962991Y-78524045D01*
X169970403Y-78515857D01*
X170054468Y-78422982D01*
X170059200Y-78417754D01*
X170121710Y-78288733D01*
X170124041Y-78274881D01*
X170144862Y-78151124D01*
X170144862Y-78151120D01*
X170145496Y-78147354D01*
X170145647Y-78135000D01*
X170125323Y-77993082D01*
X170065984Y-77862572D01*
X170061380Y-77857229D01*
X170058253Y-77852339D01*
X170042829Y-77793129D01*
X170065154Y-77736162D01*
X170116699Y-77703197D01*
X170141655Y-77700000D01*
X170408479Y-77700000D01*
X170466670Y-77718907D01*
X170502634Y-77768407D01*
X170502634Y-77829593D01*
X170491563Y-77852648D01*
X170487377Y-77857388D01*
X170426447Y-77987163D01*
X170404391Y-78128823D01*
X170405306Y-78135820D01*
X170405306Y-78135821D01*
X170406814Y-78147354D01*
X170422980Y-78270979D01*
X170425821Y-78277435D01*
X170425821Y-78277436D01*
X170433586Y-78295082D01*
X170480720Y-78402203D01*
X170492469Y-78416180D01*
X170568431Y-78506549D01*
X170568434Y-78506551D01*
X170572970Y-78511948D01*
X170578841Y-78515856D01*
X170578842Y-78515857D01*
X170588628Y-78522371D01*
X170692313Y-78591390D01*
X170792920Y-78622821D01*
X170822425Y-78632039D01*
X170822426Y-78632039D01*
X170829157Y-78634142D01*
X170900828Y-78635456D01*
X170965445Y-78636641D01*
X170965447Y-78636641D01*
X170972499Y-78636770D01*
X170979302Y-78634915D01*
X170979304Y-78634915D01*
X171086389Y-78605720D01*
X171147504Y-78608656D01*
X171195221Y-78646953D01*
X171211429Y-78701234D01*
X171211429Y-82415500D01*
X182068572Y-82415500D01*
X182068572Y-78400500D01*
X180483616Y-78400500D01*
X180425425Y-78381593D01*
X180389461Y-78332093D01*
X180385463Y-78288578D01*
X180404835Y-78141434D01*
X180405682Y-78135000D01*
X180385044Y-77978238D01*
X180337134Y-77862572D01*
X180326494Y-77836886D01*
X180321693Y-77775889D01*
X180353663Y-77723720D01*
X180410190Y-77700305D01*
X180417958Y-77700000D01*
X182906040Y-77700000D01*
X182928227Y-77702518D01*
X182939642Y-77705143D01*
X182950516Y-77702682D01*
X182961665Y-77702702D01*
X182961663Y-77703716D01*
X182971524Y-77703105D01*
X183027538Y-77708622D01*
X183086370Y-77714416D01*
X183105400Y-77718202D01*
X183164609Y-77736162D01*
X183236817Y-77758066D01*
X183254745Y-77765492D01*
X183374670Y-77829593D01*
X183375856Y-77830227D01*
X183391991Y-77841008D01*
X183417053Y-77861575D01*
X183498152Y-77928131D01*
X183511869Y-77941848D01*
X183559647Y-78000066D01*
X183598992Y-78048009D01*
X183609772Y-78064143D01*
X183652208Y-78143533D01*
X183674507Y-78185252D01*
X183681934Y-78203183D01*
X183721798Y-78334598D01*
X183725584Y-78353630D01*
X183731900Y-78417754D01*
X183736897Y-78468493D01*
X183737374Y-78478371D01*
X183737356Y-78488775D01*
X183734857Y-78499642D01*
X183737559Y-78511583D01*
X183740000Y-78533432D01*
X183740000Y-118466040D01*
X183737482Y-118488227D01*
X183734857Y-118499642D01*
X183737318Y-118510516D01*
X183737298Y-118521665D01*
X183736284Y-118521663D01*
X183736895Y-118531524D01*
X183725584Y-118646368D01*
X183721798Y-118665402D01*
X183681934Y-118796817D01*
X183674508Y-118814745D01*
X183609773Y-118935856D01*
X183598992Y-118951991D01*
X183511869Y-119058152D01*
X183498152Y-119071869D01*
X183417053Y-119138425D01*
X183391991Y-119158992D01*
X183375857Y-119169772D01*
X183254745Y-119234508D01*
X183236817Y-119241934D01*
X183171110Y-119261866D01*
X183105400Y-119281798D01*
X183086370Y-119285584D01*
X182971501Y-119296897D01*
X182961629Y-119297374D01*
X182951225Y-119297356D01*
X182940358Y-119294857D01*
X182928417Y-119297559D01*
X182906568Y-119300000D01*
X130973960Y-119300000D01*
X130951773Y-119297482D01*
X130940358Y-119294857D01*
X130929484Y-119297318D01*
X130918335Y-119297298D01*
X130918337Y-119296284D01*
X130908476Y-119296895D01*
X130852462Y-119291378D01*
X130793630Y-119285584D01*
X130774600Y-119281798D01*
X130708890Y-119261866D01*
X130643183Y-119241934D01*
X130625255Y-119234508D01*
X130504143Y-119169772D01*
X130488009Y-119158992D01*
X130462947Y-119138425D01*
X130381848Y-119071869D01*
X130368131Y-119058152D01*
X130281008Y-118951991D01*
X130270227Y-118935856D01*
X130205492Y-118814745D01*
X130198066Y-118796817D01*
X130158202Y-118665402D01*
X130154416Y-118646368D01*
X130143103Y-118531507D01*
X130142626Y-118521629D01*
X130142644Y-118511225D01*
X130145143Y-118500358D01*
X130142441Y-118488417D01*
X130140000Y-118466568D01*
X130140000Y-111300639D01*
X132459500Y-111300639D01*
X132459501Y-115079360D01*
X132459924Y-115082571D01*
X132459924Y-115082576D01*
X132470548Y-115163275D01*
X132474956Y-115196762D01*
X132477438Y-115202754D01*
X132477439Y-115202758D01*
X132518859Y-115302753D01*
X132535464Y-115342841D01*
X132631718Y-115468282D01*
X132757159Y-115564536D01*
X132903238Y-115625044D01*
X133020639Y-115640500D01*
X133459932Y-115640500D01*
X133899360Y-115640499D01*
X133902571Y-115640076D01*
X133902576Y-115640076D01*
X133984329Y-115629314D01*
X134016762Y-115625044D01*
X134022754Y-115622562D01*
X134022758Y-115622561D01*
X134122753Y-115581141D01*
X134162841Y-115564536D01*
X134288282Y-115468282D01*
X134384536Y-115342841D01*
X134445044Y-115196762D01*
X134460500Y-115079361D01*
X134460499Y-111300640D01*
X134458020Y-111281804D01*
X134445891Y-111189673D01*
X134445044Y-111183238D01*
X134442562Y-111177246D01*
X134442561Y-111177242D01*
X134387019Y-111043154D01*
X134384536Y-111037159D01*
X134288282Y-110911718D01*
X134162841Y-110815464D01*
X134082074Y-110782009D01*
X134056969Y-110771610D01*
X134010443Y-110731873D01*
X133996160Y-110672378D01*
X134019575Y-110615850D01*
X134024851Y-110610142D01*
X137505494Y-107129499D01*
X137505497Y-107129495D01*
X137528060Y-107106932D01*
X137539011Y-107085439D01*
X137547123Y-107072200D01*
X137561306Y-107052679D01*
X137563712Y-107045274D01*
X137563714Y-107045270D01*
X137568761Y-107029735D01*
X137574704Y-107015389D01*
X137585656Y-106993894D01*
X137589429Y-106970071D01*
X137593055Y-106954965D01*
X137600510Y-106932023D01*
X137600510Y-106693701D01*
X137619417Y-106635510D01*
X137668917Y-106599546D01*
X137730103Y-106599546D01*
X137759778Y-106615159D01*
X137837159Y-106674536D01*
X137935017Y-106715070D01*
X137967732Y-106728621D01*
X137983238Y-106735044D01*
X138100639Y-106750500D01*
X138111885Y-106750500D01*
X138702181Y-106750499D01*
X138760371Y-106769406D01*
X138796335Y-106818906D01*
X138796335Y-106880092D01*
X138772184Y-106919503D01*
X135694516Y-109997171D01*
X135694513Y-109997175D01*
X135671950Y-110019738D01*
X135660998Y-110041234D01*
X135652884Y-110054473D01*
X135638704Y-110073990D01*
X135636296Y-110081401D01*
X135631248Y-110096937D01*
X135625305Y-110111283D01*
X135614354Y-110132776D01*
X135613136Y-110140469D01*
X135613135Y-110140471D01*
X135610581Y-110156599D01*
X135606956Y-110171700D01*
X135599500Y-110194647D01*
X135599500Y-110647564D01*
X135580593Y-110705755D01*
X135531093Y-110741719D01*
X135513421Y-110745717D01*
X135443238Y-110754956D01*
X135437246Y-110757438D01*
X135437242Y-110757439D01*
X135377926Y-110782009D01*
X135297159Y-110815464D01*
X135171718Y-110911718D01*
X135075464Y-111037159D01*
X135014956Y-111183238D01*
X134999500Y-111300639D01*
X134999501Y-115079360D01*
X134999924Y-115082571D01*
X134999924Y-115082576D01*
X135010548Y-115163275D01*
X135014956Y-115196762D01*
X135017438Y-115202754D01*
X135017439Y-115202758D01*
X135058859Y-115302753D01*
X135075464Y-115342841D01*
X135171718Y-115468282D01*
X135297159Y-115564536D01*
X135443238Y-115625044D01*
X135560639Y-115640500D01*
X135999932Y-115640500D01*
X136439360Y-115640499D01*
X136442571Y-115640076D01*
X136442576Y-115640076D01*
X136524329Y-115629314D01*
X136556762Y-115625044D01*
X136562754Y-115622562D01*
X136562758Y-115622561D01*
X136662753Y-115581141D01*
X136702841Y-115564536D01*
X136828282Y-115468282D01*
X136924536Y-115342841D01*
X136985044Y-115196762D01*
X137000500Y-115079361D01*
X137000499Y-111300640D01*
X136998020Y-111281804D01*
X136985891Y-111189673D01*
X136985044Y-111183238D01*
X136982562Y-111177246D01*
X136982561Y-111177242D01*
X136927019Y-111043154D01*
X136924536Y-111037159D01*
X136828282Y-110911718D01*
X136702841Y-110815464D01*
X136556762Y-110754956D01*
X136510230Y-110748830D01*
X136486578Y-110745716D01*
X136431353Y-110719375D01*
X136402158Y-110665604D01*
X136400500Y-110647563D01*
X136400500Y-110464981D01*
X136419407Y-110406790D01*
X136429496Y-110394977D01*
X140045494Y-106778979D01*
X140045497Y-106778975D01*
X140068060Y-106756412D01*
X140073226Y-106746274D01*
X140079011Y-106734919D01*
X140087123Y-106721680D01*
X140101306Y-106702159D01*
X140103712Y-106694754D01*
X140103714Y-106694750D01*
X140108761Y-106679215D01*
X140114704Y-106664869D01*
X140125656Y-106643374D01*
X140125688Y-106643174D01*
X140159392Y-106596784D01*
X140217583Y-106577876D01*
X140277850Y-106598334D01*
X140325788Y-106635118D01*
X140377159Y-106674536D01*
X140475017Y-106715070D01*
X140507732Y-106728621D01*
X140523238Y-106735044D01*
X140640639Y-106750500D01*
X140651394Y-106750500D01*
X141205489Y-106750499D01*
X141263679Y-106769406D01*
X141299643Y-106818906D01*
X141299643Y-106880092D01*
X141275492Y-106919503D01*
X138234516Y-109960479D01*
X138234513Y-109960483D01*
X138211950Y-109983046D01*
X138200998Y-110004542D01*
X138192884Y-110017781D01*
X138178704Y-110037298D01*
X138176296Y-110044709D01*
X138171248Y-110060245D01*
X138165305Y-110074591D01*
X138154354Y-110096084D01*
X138153136Y-110103777D01*
X138153135Y-110103779D01*
X138150581Y-110119907D01*
X138146956Y-110135008D01*
X138139500Y-110157955D01*
X138139500Y-110647564D01*
X138120593Y-110705755D01*
X138071093Y-110741719D01*
X138053421Y-110745717D01*
X137983238Y-110754956D01*
X137977246Y-110757438D01*
X137977242Y-110757439D01*
X137917926Y-110782009D01*
X137837159Y-110815464D01*
X137711718Y-110911718D01*
X137615464Y-111037159D01*
X137554956Y-111183238D01*
X137539500Y-111300639D01*
X137539501Y-115079360D01*
X137539924Y-115082571D01*
X137539924Y-115082576D01*
X137550548Y-115163275D01*
X137554956Y-115196762D01*
X137557438Y-115202754D01*
X137557439Y-115202758D01*
X137598859Y-115302753D01*
X137615464Y-115342841D01*
X137711718Y-115468282D01*
X137837159Y-115564536D01*
X137983238Y-115625044D01*
X138100639Y-115640500D01*
X138539932Y-115640500D01*
X138979360Y-115640499D01*
X138982571Y-115640076D01*
X138982576Y-115640076D01*
X139064329Y-115629314D01*
X139096762Y-115625044D01*
X139102754Y-115622562D01*
X139102758Y-115622561D01*
X139202753Y-115581141D01*
X139242841Y-115564536D01*
X139368282Y-115468282D01*
X139464536Y-115342841D01*
X139525044Y-115196762D01*
X139540500Y-115079361D01*
X139540499Y-111300640D01*
X139538020Y-111281804D01*
X139525891Y-111189673D01*
X139525044Y-111183238D01*
X139522562Y-111177246D01*
X139522561Y-111177242D01*
X139467019Y-111043154D01*
X139464536Y-111037159D01*
X139368282Y-110911718D01*
X139242841Y-110815464D01*
X139096762Y-110754956D01*
X139050230Y-110748830D01*
X139026578Y-110745716D01*
X138971353Y-110719375D01*
X138942158Y-110665604D01*
X138940500Y-110647563D01*
X138940500Y-110428289D01*
X138959407Y-110370098D01*
X138969496Y-110358285D01*
X142585494Y-106742287D01*
X142585497Y-106742283D01*
X142608060Y-106719720D01*
X142616734Y-106702697D01*
X142619011Y-106698227D01*
X142627123Y-106684988D01*
X142641306Y-106665467D01*
X142643712Y-106658062D01*
X142643714Y-106658058D01*
X142648761Y-106642523D01*
X142654708Y-106628168D01*
X142657453Y-106622781D01*
X142700718Y-106579517D01*
X142761151Y-106569947D01*
X142805928Y-106589186D01*
X142865788Y-106635118D01*
X142917159Y-106674536D01*
X143015017Y-106715070D01*
X143047732Y-106728621D01*
X143063238Y-106735044D01*
X143180639Y-106750500D01*
X143197031Y-106750500D01*
X143888862Y-106750499D01*
X143947052Y-106769406D01*
X143983016Y-106818906D01*
X143983016Y-106880092D01*
X143958865Y-106919503D01*
X140774516Y-110103851D01*
X140774513Y-110103855D01*
X140751950Y-110126418D01*
X140740998Y-110147914D01*
X140732884Y-110161153D01*
X140718704Y-110180670D01*
X140716296Y-110188081D01*
X140711248Y-110203617D01*
X140705305Y-110217963D01*
X140694354Y-110239456D01*
X140693136Y-110247149D01*
X140693135Y-110247151D01*
X140690581Y-110263279D01*
X140686956Y-110278380D01*
X140679500Y-110301327D01*
X140679500Y-110647564D01*
X140660593Y-110705755D01*
X140611093Y-110741719D01*
X140593421Y-110745717D01*
X140523238Y-110754956D01*
X140517246Y-110757438D01*
X140517242Y-110757439D01*
X140457926Y-110782009D01*
X140377159Y-110815464D01*
X140251718Y-110911718D01*
X140155464Y-111037159D01*
X140094956Y-111183238D01*
X140079500Y-111300639D01*
X140079501Y-115079360D01*
X140079924Y-115082571D01*
X140079924Y-115082576D01*
X140090548Y-115163275D01*
X140094956Y-115196762D01*
X140097438Y-115202754D01*
X140097439Y-115202758D01*
X140138859Y-115302753D01*
X140155464Y-115342841D01*
X140251718Y-115468282D01*
X140377159Y-115564536D01*
X140523238Y-115625044D01*
X140640639Y-115640500D01*
X141079932Y-115640500D01*
X141519360Y-115640499D01*
X141522571Y-115640076D01*
X141522576Y-115640076D01*
X141604329Y-115629314D01*
X141636762Y-115625044D01*
X141642754Y-115622562D01*
X141642758Y-115622561D01*
X141742753Y-115581141D01*
X141782841Y-115564536D01*
X141908282Y-115468282D01*
X142004536Y-115342841D01*
X142065044Y-115196762D01*
X142080500Y-115079361D01*
X142080499Y-111300640D01*
X142078020Y-111281804D01*
X142065891Y-111189673D01*
X142065044Y-111183238D01*
X142062562Y-111177246D01*
X142062561Y-111177242D01*
X142007019Y-111043154D01*
X142004536Y-111037159D01*
X141908282Y-110911718D01*
X141782841Y-110815464D01*
X141636762Y-110754956D01*
X141590230Y-110748830D01*
X141566578Y-110745716D01*
X141511353Y-110719375D01*
X141482158Y-110665604D01*
X141480500Y-110647563D01*
X141480500Y-110571661D01*
X141499407Y-110513470D01*
X141509496Y-110501657D01*
X145265473Y-106745679D01*
X145288040Y-106723112D01*
X145298994Y-106701614D01*
X145307128Y-106688346D01*
X145307567Y-106687742D01*
X145357083Y-106651803D01*
X145418269Y-106651832D01*
X145447901Y-106667432D01*
X145452012Y-106670587D01*
X145452014Y-106670588D01*
X145457159Y-106674536D01*
X145603238Y-106735044D01*
X145720639Y-106750500D01*
X145732156Y-106750500D01*
X146342501Y-106750499D01*
X146400691Y-106769406D01*
X146436655Y-106818906D01*
X146436655Y-106880092D01*
X146412504Y-106919503D01*
X143314516Y-110017491D01*
X143314513Y-110017495D01*
X143291950Y-110040058D01*
X143280998Y-110061554D01*
X143272884Y-110074793D01*
X143258704Y-110094310D01*
X143256296Y-110101721D01*
X143251248Y-110117257D01*
X143245305Y-110131603D01*
X143234354Y-110153096D01*
X143233136Y-110160789D01*
X143233135Y-110160791D01*
X143230581Y-110176919D01*
X143226956Y-110192020D01*
X143219500Y-110214967D01*
X143219500Y-110647564D01*
X143200593Y-110705755D01*
X143151093Y-110741719D01*
X143133421Y-110745717D01*
X143063238Y-110754956D01*
X143057246Y-110757438D01*
X143057242Y-110757439D01*
X142997926Y-110782009D01*
X142917159Y-110815464D01*
X142791718Y-110911718D01*
X142695464Y-111037159D01*
X142634956Y-111183238D01*
X142619500Y-111300639D01*
X142619501Y-115079360D01*
X142619924Y-115082571D01*
X142619924Y-115082576D01*
X142630548Y-115163275D01*
X142634956Y-115196762D01*
X142637438Y-115202754D01*
X142637439Y-115202758D01*
X142678859Y-115302753D01*
X142695464Y-115342841D01*
X142791718Y-115468282D01*
X142917159Y-115564536D01*
X143063238Y-115625044D01*
X143180639Y-115640500D01*
X143619932Y-115640500D01*
X144059360Y-115640499D01*
X144062571Y-115640076D01*
X144062576Y-115640076D01*
X144144329Y-115629314D01*
X144176762Y-115625044D01*
X144182754Y-115622562D01*
X144182758Y-115622561D01*
X144282753Y-115581141D01*
X144322841Y-115564536D01*
X144448282Y-115468282D01*
X144544536Y-115342841D01*
X144605044Y-115196762D01*
X144620500Y-115079361D01*
X144620499Y-111300640D01*
X144618020Y-111281804D01*
X144605891Y-111189673D01*
X144605044Y-111183238D01*
X144602562Y-111177246D01*
X144602561Y-111177242D01*
X144547019Y-111043154D01*
X144544536Y-111037159D01*
X144448282Y-110911718D01*
X144322841Y-110815464D01*
X144176762Y-110754956D01*
X144130230Y-110748830D01*
X144106578Y-110745716D01*
X144051353Y-110719375D01*
X144022158Y-110665604D01*
X144020500Y-110647563D01*
X144020500Y-110485301D01*
X144039407Y-110427110D01*
X144049496Y-110415297D01*
X147665494Y-106799299D01*
X147665497Y-106799295D01*
X147688060Y-106776732D01*
X147695609Y-106761917D01*
X147699011Y-106755239D01*
X147707123Y-106742000D01*
X147721306Y-106722479D01*
X147723712Y-106715074D01*
X147723714Y-106715070D01*
X147728761Y-106699535D01*
X147734704Y-106685189D01*
X147745656Y-106663694D01*
X147746875Y-106655998D01*
X147748714Y-106650338D01*
X147784678Y-106600838D01*
X147842868Y-106581931D01*
X147903135Y-106602389D01*
X147997159Y-106674536D01*
X148095017Y-106715070D01*
X148127732Y-106728621D01*
X148143238Y-106735044D01*
X148260639Y-106750500D01*
X148271477Y-106750500D01*
X148831701Y-106750499D01*
X148889891Y-106769406D01*
X148925855Y-106818906D01*
X148925855Y-106880092D01*
X148901704Y-106919503D01*
X145854516Y-109966691D01*
X145854513Y-109966695D01*
X145831950Y-109989258D01*
X145820998Y-110010754D01*
X145812884Y-110023993D01*
X145798704Y-110043510D01*
X145796296Y-110050921D01*
X145791248Y-110066457D01*
X145785305Y-110080803D01*
X145774354Y-110102296D01*
X145773136Y-110109989D01*
X145773135Y-110109991D01*
X145770581Y-110126119D01*
X145766956Y-110141220D01*
X145759500Y-110164167D01*
X145759500Y-110647564D01*
X145740593Y-110705755D01*
X145691093Y-110741719D01*
X145673421Y-110745717D01*
X145603238Y-110754956D01*
X145597246Y-110757438D01*
X145597242Y-110757439D01*
X145537926Y-110782009D01*
X145457159Y-110815464D01*
X145331718Y-110911718D01*
X145235464Y-111037159D01*
X145174956Y-111183238D01*
X145159500Y-111300639D01*
X145159501Y-115079360D01*
X145159924Y-115082571D01*
X145159924Y-115082576D01*
X145170548Y-115163275D01*
X145174956Y-115196762D01*
X145177438Y-115202754D01*
X145177439Y-115202758D01*
X145218859Y-115302753D01*
X145235464Y-115342841D01*
X145331718Y-115468282D01*
X145457159Y-115564536D01*
X145603238Y-115625044D01*
X145720639Y-115640500D01*
X146159932Y-115640500D01*
X146599360Y-115640499D01*
X146602571Y-115640076D01*
X146602576Y-115640076D01*
X146684329Y-115629314D01*
X146716762Y-115625044D01*
X146722754Y-115622562D01*
X146722758Y-115622561D01*
X146822753Y-115581141D01*
X146862841Y-115564536D01*
X146988282Y-115468282D01*
X147084536Y-115342841D01*
X147145044Y-115196762D01*
X147160500Y-115079361D01*
X147160499Y-111300640D01*
X147158020Y-111281804D01*
X147145891Y-111189673D01*
X147145044Y-111183238D01*
X147142562Y-111177246D01*
X147142561Y-111177242D01*
X147087019Y-111043154D01*
X147084536Y-111037159D01*
X146988282Y-110911718D01*
X146862841Y-110815464D01*
X146716762Y-110754956D01*
X146670230Y-110748830D01*
X146646578Y-110745716D01*
X146591353Y-110719375D01*
X146562158Y-110665604D01*
X146560500Y-110647563D01*
X146560500Y-110434501D01*
X146579407Y-110376310D01*
X146589496Y-110364497D01*
X150205494Y-106748499D01*
X150205497Y-106748495D01*
X150228060Y-106725932D01*
X150232941Y-106716354D01*
X150239011Y-106704439D01*
X150247123Y-106691200D01*
X150261306Y-106671679D01*
X150263712Y-106664274D01*
X150263714Y-106664270D01*
X150268761Y-106648735D01*
X150274706Y-106634385D01*
X150279730Y-106624524D01*
X150322997Y-106581262D01*
X150383429Y-106571694D01*
X150428204Y-106590932D01*
X150537159Y-106674536D01*
X150635017Y-106715070D01*
X150667732Y-106728621D01*
X150683238Y-106735044D01*
X150800639Y-106750500D01*
X150813923Y-106750500D01*
X151468221Y-106750499D01*
X151526411Y-106769406D01*
X151562375Y-106818906D01*
X151562375Y-106880092D01*
X151538224Y-106919503D01*
X148394516Y-110063211D01*
X148394513Y-110063215D01*
X148371950Y-110085778D01*
X148360998Y-110107274D01*
X148352884Y-110120513D01*
X148338704Y-110140030D01*
X148336296Y-110147441D01*
X148331248Y-110162977D01*
X148325305Y-110177323D01*
X148314354Y-110198816D01*
X148313136Y-110206509D01*
X148313135Y-110206511D01*
X148310581Y-110222639D01*
X148306956Y-110237740D01*
X148299500Y-110260687D01*
X148299500Y-110647564D01*
X148280593Y-110705755D01*
X148231093Y-110741719D01*
X148213421Y-110745717D01*
X148143238Y-110754956D01*
X148137246Y-110757438D01*
X148137242Y-110757439D01*
X148077926Y-110782009D01*
X147997159Y-110815464D01*
X147871718Y-110911718D01*
X147775464Y-111037159D01*
X147714956Y-111183238D01*
X147699500Y-111300639D01*
X147699501Y-115079360D01*
X147699924Y-115082571D01*
X147699924Y-115082576D01*
X147710548Y-115163275D01*
X147714956Y-115196762D01*
X147717438Y-115202754D01*
X147717439Y-115202758D01*
X147758859Y-115302753D01*
X147775464Y-115342841D01*
X147871718Y-115468282D01*
X147997159Y-115564536D01*
X148143238Y-115625044D01*
X148260639Y-115640500D01*
X148699932Y-115640500D01*
X149139360Y-115640499D01*
X149142571Y-115640076D01*
X149142576Y-115640076D01*
X149224329Y-115629314D01*
X149256762Y-115625044D01*
X149262754Y-115622562D01*
X149262758Y-115622561D01*
X149362753Y-115581141D01*
X149402841Y-115564536D01*
X149528282Y-115468282D01*
X149624536Y-115342841D01*
X149685044Y-115196762D01*
X149700500Y-115079361D01*
X149700499Y-111300640D01*
X149698020Y-111281804D01*
X149685891Y-111189673D01*
X149685044Y-111183238D01*
X149682562Y-111177246D01*
X149682561Y-111177242D01*
X149627019Y-111043154D01*
X149624536Y-111037159D01*
X149528282Y-110911718D01*
X149402841Y-110815464D01*
X149256762Y-110754956D01*
X149210230Y-110748830D01*
X149186578Y-110745716D01*
X149131353Y-110719375D01*
X149102158Y-110665604D01*
X149100500Y-110647563D01*
X149100500Y-110531021D01*
X149119407Y-110472830D01*
X149129496Y-110461017D01*
X152745494Y-106845019D01*
X152745497Y-106845015D01*
X152768060Y-106822452D01*
X152779011Y-106800959D01*
X152787123Y-106787720D01*
X152801306Y-106768199D01*
X152803712Y-106760794D01*
X152803714Y-106760790D01*
X152808761Y-106745255D01*
X152814704Y-106730909D01*
X152825656Y-106709414D01*
X152827544Y-106697497D01*
X152829429Y-106685591D01*
X152833055Y-106670488D01*
X152837428Y-106657028D01*
X152873390Y-106607527D01*
X152931580Y-106588618D01*
X152991849Y-106609076D01*
X153077159Y-106674536D01*
X153175017Y-106715070D01*
X153207732Y-106728621D01*
X153223238Y-106735044D01*
X153340639Y-106750500D01*
X153351394Y-106750500D01*
X153905489Y-106750499D01*
X153963679Y-106769406D01*
X153999643Y-106818906D01*
X153999643Y-106880092D01*
X153975492Y-106919503D01*
X150934516Y-109960479D01*
X150934513Y-109960483D01*
X150911950Y-109983046D01*
X150900998Y-110004542D01*
X150892884Y-110017781D01*
X150878704Y-110037298D01*
X150876296Y-110044709D01*
X150871248Y-110060245D01*
X150865305Y-110074591D01*
X150854354Y-110096084D01*
X150853136Y-110103777D01*
X150853135Y-110103779D01*
X150850581Y-110119907D01*
X150846956Y-110135008D01*
X150839500Y-110157955D01*
X150839500Y-110647564D01*
X150820593Y-110705755D01*
X150771093Y-110741719D01*
X150753421Y-110745717D01*
X150683238Y-110754956D01*
X150677246Y-110757438D01*
X150677242Y-110757439D01*
X150617926Y-110782009D01*
X150537159Y-110815464D01*
X150411718Y-110911718D01*
X150315464Y-111037159D01*
X150254956Y-111183238D01*
X150239500Y-111300639D01*
X150239501Y-115079360D01*
X150239924Y-115082571D01*
X150239924Y-115082576D01*
X150250548Y-115163275D01*
X150254956Y-115196762D01*
X150257438Y-115202754D01*
X150257439Y-115202758D01*
X150298859Y-115302753D01*
X150315464Y-115342841D01*
X150411718Y-115468282D01*
X150537159Y-115564536D01*
X150683238Y-115625044D01*
X150800639Y-115640500D01*
X151239932Y-115640500D01*
X151679360Y-115640499D01*
X151682571Y-115640076D01*
X151682576Y-115640076D01*
X151764329Y-115629314D01*
X151796762Y-115625044D01*
X151802754Y-115622562D01*
X151802758Y-115622561D01*
X151902753Y-115581141D01*
X151942841Y-115564536D01*
X152068282Y-115468282D01*
X152164536Y-115342841D01*
X152225044Y-115196762D01*
X152240500Y-115079361D01*
X152240499Y-111300640D01*
X152240499Y-111300639D01*
X152779500Y-111300639D01*
X152779501Y-115079360D01*
X152779924Y-115082571D01*
X152779924Y-115082576D01*
X152790548Y-115163275D01*
X152794956Y-115196762D01*
X152797438Y-115202754D01*
X152797439Y-115202758D01*
X152838859Y-115302753D01*
X152855464Y-115342841D01*
X152951718Y-115468282D01*
X153077159Y-115564536D01*
X153223238Y-115625044D01*
X153340639Y-115640500D01*
X153779932Y-115640500D01*
X154219360Y-115640499D01*
X154222571Y-115640076D01*
X154222576Y-115640076D01*
X154304329Y-115629314D01*
X154336762Y-115625044D01*
X154342754Y-115622562D01*
X154342758Y-115622561D01*
X154442753Y-115581141D01*
X154482841Y-115564536D01*
X154608282Y-115468282D01*
X154704536Y-115342841D01*
X154765044Y-115196762D01*
X154780500Y-115079361D01*
X154780500Y-113348243D01*
X157760000Y-113348243D01*
X157760000Y-115093687D01*
X157760207Y-115098196D01*
X157766187Y-115163275D01*
X157768237Y-115173511D01*
X157815547Y-115324481D01*
X157820424Y-115335281D01*
X157902009Y-115469992D01*
X157909318Y-115479315D01*
X158020685Y-115590682D01*
X158030008Y-115597991D01*
X158164719Y-115679576D01*
X158175519Y-115684453D01*
X158326489Y-115731763D01*
X158336725Y-115733813D01*
X158401804Y-115739793D01*
X158406313Y-115740000D01*
X158694320Y-115740000D01*
X158707005Y-115735878D01*
X158710000Y-115731757D01*
X158710000Y-113355680D01*
X158707583Y-113348243D01*
X159010000Y-113348243D01*
X159010000Y-115724320D01*
X159014122Y-115737005D01*
X159018243Y-115740000D01*
X159313687Y-115740000D01*
X159318196Y-115739793D01*
X159383275Y-115733813D01*
X159393511Y-115731763D01*
X159544481Y-115684453D01*
X159555281Y-115679576D01*
X159689992Y-115597991D01*
X159699315Y-115590682D01*
X159810682Y-115479315D01*
X159817991Y-115469992D01*
X159899576Y-115335281D01*
X159904453Y-115324481D01*
X159951763Y-115173511D01*
X159953813Y-115163275D01*
X159959793Y-115098196D01*
X159960000Y-115093687D01*
X159960000Y-113355680D01*
X159955878Y-113342995D01*
X159951757Y-113340000D01*
X159025680Y-113340000D01*
X159012995Y-113344122D01*
X159010000Y-113348243D01*
X158707583Y-113348243D01*
X158705878Y-113342995D01*
X158701757Y-113340000D01*
X157775680Y-113340000D01*
X157762995Y-113344122D01*
X157760000Y-113348243D01*
X154780500Y-113348243D01*
X154780499Y-111300640D01*
X154778613Y-111286313D01*
X157760000Y-111286313D01*
X157760000Y-113024320D01*
X157764122Y-113037005D01*
X157768243Y-113040000D01*
X158694320Y-113040000D01*
X158707005Y-113035878D01*
X158710000Y-113031757D01*
X158710000Y-110655680D01*
X158707583Y-110648243D01*
X159010000Y-110648243D01*
X159010000Y-113024320D01*
X159014122Y-113037005D01*
X159018243Y-113040000D01*
X159944320Y-113040000D01*
X159957005Y-113035878D01*
X159960000Y-113031757D01*
X159960000Y-111286313D01*
X159959793Y-111281804D01*
X159953813Y-111216725D01*
X159951763Y-111206489D01*
X159904453Y-111055519D01*
X159899576Y-111044719D01*
X159817991Y-110910008D01*
X159810682Y-110900685D01*
X159699315Y-110789318D01*
X159689992Y-110782009D01*
X159555281Y-110700424D01*
X159544481Y-110695547D01*
X159393511Y-110648237D01*
X159383275Y-110646187D01*
X159318196Y-110640207D01*
X159313687Y-110640000D01*
X159025680Y-110640000D01*
X159012995Y-110644122D01*
X159010000Y-110648243D01*
X158707583Y-110648243D01*
X158705878Y-110642995D01*
X158701757Y-110640000D01*
X158406313Y-110640000D01*
X158401804Y-110640207D01*
X158336725Y-110646187D01*
X158326489Y-110648237D01*
X158175519Y-110695547D01*
X158164719Y-110700424D01*
X158030008Y-110782009D01*
X158020685Y-110789318D01*
X157909318Y-110900685D01*
X157902009Y-110910008D01*
X157820424Y-111044719D01*
X157815547Y-111055519D01*
X157768237Y-111206489D01*
X157766187Y-111216725D01*
X157760207Y-111281804D01*
X157760000Y-111286313D01*
X154778613Y-111286313D01*
X154778020Y-111281804D01*
X154765891Y-111189673D01*
X154765044Y-111183238D01*
X154762562Y-111177246D01*
X154762561Y-111177242D01*
X154707019Y-111043154D01*
X154704536Y-111037159D01*
X154608282Y-110911718D01*
X154482841Y-110815464D01*
X154336762Y-110754956D01*
X154219361Y-110739500D01*
X153780068Y-110739500D01*
X153340640Y-110739501D01*
X153337429Y-110739924D01*
X153337424Y-110739924D01*
X153255671Y-110750686D01*
X153223238Y-110754956D01*
X153217246Y-110757438D01*
X153217242Y-110757439D01*
X153157926Y-110782009D01*
X153077159Y-110815464D01*
X152951718Y-110911718D01*
X152855464Y-111037159D01*
X152794956Y-111183238D01*
X152779500Y-111300639D01*
X152240499Y-111300639D01*
X152238020Y-111281804D01*
X152225891Y-111189673D01*
X152225044Y-111183238D01*
X152222562Y-111177246D01*
X152222561Y-111177242D01*
X152167019Y-111043154D01*
X152164536Y-111037159D01*
X152068282Y-110911718D01*
X151942841Y-110815464D01*
X151796762Y-110754956D01*
X151750230Y-110748830D01*
X151726578Y-110745716D01*
X151671353Y-110719375D01*
X151642158Y-110665604D01*
X151640500Y-110647563D01*
X151640500Y-110428289D01*
X151659407Y-110370098D01*
X151669496Y-110358285D01*
X155285494Y-106742287D01*
X155285497Y-106742283D01*
X155308060Y-106719720D01*
X155316734Y-106702697D01*
X155319011Y-106698227D01*
X155327123Y-106684988D01*
X155341306Y-106665467D01*
X155343712Y-106658062D01*
X155343714Y-106658058D01*
X155348761Y-106642523D01*
X155354704Y-106628177D01*
X155365656Y-106606682D01*
X155368151Y-106590932D01*
X155369429Y-106582859D01*
X155373055Y-106567753D01*
X155380510Y-106544811D01*
X155380510Y-102410639D01*
X157859500Y-102410639D01*
X157859501Y-106189360D01*
X157859924Y-106192571D01*
X157859924Y-106192576D01*
X157870548Y-106273275D01*
X157874956Y-106306762D01*
X157877438Y-106312754D01*
X157877439Y-106312758D01*
X157918859Y-106412753D01*
X157935464Y-106452841D01*
X158031718Y-106578282D01*
X158157159Y-106674536D01*
X158255017Y-106715070D01*
X158287732Y-106728621D01*
X158303238Y-106735044D01*
X158420639Y-106750500D01*
X158859932Y-106750500D01*
X159299360Y-106750499D01*
X159302571Y-106750076D01*
X159302576Y-106750076D01*
X159384329Y-106739314D01*
X159416762Y-106735044D01*
X159422754Y-106732562D01*
X159422758Y-106732561D01*
X159529522Y-106688337D01*
X159562841Y-106674536D01*
X159688282Y-106578282D01*
X159784536Y-106452841D01*
X159845044Y-106306762D01*
X159860500Y-106189361D01*
X159860499Y-102410640D01*
X159860499Y-102410639D01*
X160399500Y-102410639D01*
X160399501Y-106189360D01*
X160399924Y-106192571D01*
X160399924Y-106192576D01*
X160410548Y-106273275D01*
X160414956Y-106306762D01*
X160417438Y-106312754D01*
X160417439Y-106312758D01*
X160458859Y-106412753D01*
X160475464Y-106452841D01*
X160571718Y-106578282D01*
X160697159Y-106674536D01*
X160795017Y-106715070D01*
X160827732Y-106728621D01*
X160843238Y-106735044D01*
X160960639Y-106750500D01*
X161399932Y-106750500D01*
X161839360Y-106750499D01*
X161842571Y-106750076D01*
X161842576Y-106750076D01*
X161924329Y-106739314D01*
X161956762Y-106735044D01*
X161962754Y-106732562D01*
X161962758Y-106732561D01*
X162069522Y-106688337D01*
X162102841Y-106674536D01*
X162228282Y-106578282D01*
X162324536Y-106452841D01*
X162385044Y-106306762D01*
X162400500Y-106189361D01*
X162400499Y-102410640D01*
X162400499Y-102410639D01*
X162939500Y-102410639D01*
X162939501Y-106189360D01*
X162939924Y-106192571D01*
X162939924Y-106192576D01*
X162950548Y-106273275D01*
X162954956Y-106306762D01*
X162957438Y-106312754D01*
X162957439Y-106312758D01*
X162998859Y-106412753D01*
X163015464Y-106452841D01*
X163111718Y-106578282D01*
X163237159Y-106674536D01*
X163335017Y-106715070D01*
X163367732Y-106728621D01*
X163383238Y-106735044D01*
X163500639Y-106750500D01*
X163939932Y-106750500D01*
X164379360Y-106750499D01*
X164382571Y-106750076D01*
X164382576Y-106750076D01*
X164464329Y-106739314D01*
X164496762Y-106735044D01*
X164502754Y-106732562D01*
X164502758Y-106732561D01*
X164609522Y-106688337D01*
X164642841Y-106674536D01*
X164768282Y-106578282D01*
X164864536Y-106452841D01*
X164925044Y-106306762D01*
X164940500Y-106189361D01*
X164940499Y-102410640D01*
X164940499Y-102410639D01*
X165479500Y-102410639D01*
X165479501Y-106189360D01*
X165479924Y-106192571D01*
X165479924Y-106192576D01*
X165490548Y-106273275D01*
X165494956Y-106306762D01*
X165497438Y-106312754D01*
X165497439Y-106312758D01*
X165538859Y-106412753D01*
X165555464Y-106452841D01*
X165651718Y-106578282D01*
X165777159Y-106674536D01*
X165875017Y-106715070D01*
X165907732Y-106728621D01*
X165923238Y-106735044D01*
X166040639Y-106750500D01*
X166479932Y-106750500D01*
X166919360Y-106750499D01*
X166922571Y-106750076D01*
X166922576Y-106750076D01*
X167004329Y-106739314D01*
X167036762Y-106735044D01*
X167042754Y-106732562D01*
X167042758Y-106732561D01*
X167149522Y-106688337D01*
X167182841Y-106674536D01*
X167308282Y-106578282D01*
X167404536Y-106452841D01*
X167465044Y-106306762D01*
X167480500Y-106189361D01*
X167480499Y-102410640D01*
X167480499Y-102410639D01*
X168019500Y-102410639D01*
X168019501Y-106189360D01*
X168019924Y-106192571D01*
X168019924Y-106192576D01*
X168030548Y-106273275D01*
X168034956Y-106306762D01*
X168037438Y-106312754D01*
X168037439Y-106312758D01*
X168078859Y-106412753D01*
X168095464Y-106452841D01*
X168191718Y-106578282D01*
X168317159Y-106674536D01*
X168415017Y-106715070D01*
X168447732Y-106728621D01*
X168463238Y-106735044D01*
X168580639Y-106750500D01*
X169019932Y-106750500D01*
X169459360Y-106750499D01*
X169462571Y-106750076D01*
X169462576Y-106750076D01*
X169544329Y-106739314D01*
X169576762Y-106735044D01*
X169582754Y-106732562D01*
X169582758Y-106732561D01*
X169689522Y-106688337D01*
X169722841Y-106674536D01*
X169848282Y-106578282D01*
X169944536Y-106452841D01*
X170005044Y-106306762D01*
X170020500Y-106189361D01*
X170020499Y-102410640D01*
X170020499Y-102410639D01*
X170559500Y-102410639D01*
X170559501Y-106189360D01*
X170559924Y-106192571D01*
X170559924Y-106192576D01*
X170570548Y-106273275D01*
X170574956Y-106306762D01*
X170577438Y-106312754D01*
X170577439Y-106312758D01*
X170618859Y-106412753D01*
X170635464Y-106452841D01*
X170731718Y-106578282D01*
X170857159Y-106674536D01*
X170955017Y-106715070D01*
X170987732Y-106728621D01*
X171003238Y-106735044D01*
X171120639Y-106750500D01*
X171559932Y-106750500D01*
X171999360Y-106750499D01*
X172002571Y-106750076D01*
X172002576Y-106750076D01*
X172084329Y-106739314D01*
X172116762Y-106735044D01*
X172122754Y-106732562D01*
X172122758Y-106732561D01*
X172229522Y-106688337D01*
X172262841Y-106674536D01*
X172388282Y-106578282D01*
X172484536Y-106452841D01*
X172545044Y-106306762D01*
X172560500Y-106189361D01*
X172560499Y-102410640D01*
X172560499Y-102410639D01*
X173099500Y-102410639D01*
X173099501Y-106189360D01*
X173099924Y-106192571D01*
X173099924Y-106192576D01*
X173110548Y-106273275D01*
X173114956Y-106306762D01*
X173117438Y-106312754D01*
X173117439Y-106312758D01*
X173158859Y-106412753D01*
X173175464Y-106452841D01*
X173271718Y-106578282D01*
X173397159Y-106674536D01*
X173495017Y-106715070D01*
X173527732Y-106728621D01*
X173543238Y-106735044D01*
X173660639Y-106750500D01*
X174099932Y-106750500D01*
X174539360Y-106750499D01*
X174542571Y-106750076D01*
X174542576Y-106750076D01*
X174624329Y-106739314D01*
X174656762Y-106735044D01*
X174662754Y-106732562D01*
X174662758Y-106732561D01*
X174769522Y-106688337D01*
X174802841Y-106674536D01*
X174928282Y-106578282D01*
X175024536Y-106452841D01*
X175085044Y-106306762D01*
X175100500Y-106189361D01*
X175100499Y-102410640D01*
X175100499Y-102410639D01*
X175639500Y-102410639D01*
X175639501Y-106189360D01*
X175639924Y-106192571D01*
X175639924Y-106192576D01*
X175650548Y-106273275D01*
X175654956Y-106306762D01*
X175657438Y-106312754D01*
X175657439Y-106312758D01*
X175698859Y-106412753D01*
X175715464Y-106452841D01*
X175811718Y-106578282D01*
X175937159Y-106674536D01*
X176035017Y-106715070D01*
X176067732Y-106728621D01*
X176083238Y-106735044D01*
X176200639Y-106750500D01*
X176639932Y-106750500D01*
X177079360Y-106750499D01*
X177082571Y-106750076D01*
X177082576Y-106750076D01*
X177164329Y-106739314D01*
X177196762Y-106735044D01*
X177202754Y-106732562D01*
X177202758Y-106732561D01*
X177309522Y-106688337D01*
X177342841Y-106674536D01*
X177468282Y-106578282D01*
X177564536Y-106452841D01*
X177625044Y-106306762D01*
X177640500Y-106189361D01*
X177640500Y-104458243D01*
X180620000Y-104458243D01*
X180620000Y-106203687D01*
X180620207Y-106208196D01*
X180626187Y-106273275D01*
X180628237Y-106283511D01*
X180675547Y-106434481D01*
X180680424Y-106445281D01*
X180762009Y-106579992D01*
X180769318Y-106589315D01*
X180880685Y-106700682D01*
X180890008Y-106707991D01*
X181024719Y-106789576D01*
X181035519Y-106794453D01*
X181186489Y-106841763D01*
X181196725Y-106843813D01*
X181261804Y-106849793D01*
X181266313Y-106850000D01*
X181554320Y-106850000D01*
X181567005Y-106845878D01*
X181570000Y-106841757D01*
X181570000Y-104465680D01*
X181567583Y-104458243D01*
X181870000Y-104458243D01*
X181870000Y-106834320D01*
X181874122Y-106847005D01*
X181878243Y-106850000D01*
X182173687Y-106850000D01*
X182178196Y-106849793D01*
X182243275Y-106843813D01*
X182253511Y-106841763D01*
X182404481Y-106794453D01*
X182415281Y-106789576D01*
X182549992Y-106707991D01*
X182559315Y-106700682D01*
X182670682Y-106589315D01*
X182677991Y-106579992D01*
X182759576Y-106445281D01*
X182764453Y-106434481D01*
X182811763Y-106283511D01*
X182813813Y-106273275D01*
X182819793Y-106208196D01*
X182820000Y-106203687D01*
X182820000Y-104465680D01*
X182815878Y-104452995D01*
X182811757Y-104450000D01*
X181885680Y-104450000D01*
X181872995Y-104454122D01*
X181870000Y-104458243D01*
X181567583Y-104458243D01*
X181565878Y-104452995D01*
X181561757Y-104450000D01*
X180635680Y-104450000D01*
X180622995Y-104454122D01*
X180620000Y-104458243D01*
X177640500Y-104458243D01*
X177640499Y-102410640D01*
X177638613Y-102396313D01*
X180620000Y-102396313D01*
X180620000Y-104134320D01*
X180624122Y-104147005D01*
X180628243Y-104150000D01*
X181554320Y-104150000D01*
X181567005Y-104145878D01*
X181570000Y-104141757D01*
X181570000Y-101765680D01*
X181567583Y-101758243D01*
X181870000Y-101758243D01*
X181870000Y-104134320D01*
X181874122Y-104147005D01*
X181878243Y-104150000D01*
X182804320Y-104150000D01*
X182817005Y-104145878D01*
X182820000Y-104141757D01*
X182820000Y-102396313D01*
X182819793Y-102391804D01*
X182813813Y-102326725D01*
X182811763Y-102316489D01*
X182764453Y-102165519D01*
X182759576Y-102154719D01*
X182677991Y-102020008D01*
X182670682Y-102010685D01*
X182559315Y-101899318D01*
X182549992Y-101892009D01*
X182415281Y-101810424D01*
X182404481Y-101805547D01*
X182253511Y-101758237D01*
X182243275Y-101756187D01*
X182178196Y-101750207D01*
X182173687Y-101750000D01*
X181885680Y-101750000D01*
X181872995Y-101754122D01*
X181870000Y-101758243D01*
X181567583Y-101758243D01*
X181565878Y-101752995D01*
X181561757Y-101750000D01*
X181266313Y-101750000D01*
X181261804Y-101750207D01*
X181196725Y-101756187D01*
X181186489Y-101758237D01*
X181035519Y-101805547D01*
X181024719Y-101810424D01*
X180890008Y-101892009D01*
X180880685Y-101899318D01*
X180769318Y-102010685D01*
X180762009Y-102020008D01*
X180680424Y-102154719D01*
X180675547Y-102165519D01*
X180628237Y-102316489D01*
X180626187Y-102326725D01*
X180620207Y-102391804D01*
X180620000Y-102396313D01*
X177638613Y-102396313D01*
X177638020Y-102391804D01*
X177625891Y-102299673D01*
X177625044Y-102293238D01*
X177622562Y-102287246D01*
X177622561Y-102287242D01*
X177567019Y-102153154D01*
X177564536Y-102147159D01*
X177468282Y-102021718D01*
X177342841Y-101925464D01*
X177196762Y-101864956D01*
X177079361Y-101849500D01*
X176640068Y-101849500D01*
X176200640Y-101849501D01*
X176197429Y-101849924D01*
X176197424Y-101849924D01*
X176115671Y-101860686D01*
X176083238Y-101864956D01*
X176077246Y-101867438D01*
X176077242Y-101867439D01*
X176017926Y-101892009D01*
X175937159Y-101925464D01*
X175811718Y-102021718D01*
X175715464Y-102147159D01*
X175654956Y-102293238D01*
X175639500Y-102410639D01*
X175100499Y-102410639D01*
X175098020Y-102391804D01*
X175085891Y-102299673D01*
X175085044Y-102293238D01*
X175082562Y-102287246D01*
X175082561Y-102287242D01*
X175027019Y-102153154D01*
X175024536Y-102147159D01*
X174928282Y-102021718D01*
X174802841Y-101925464D01*
X174656762Y-101864956D01*
X174539361Y-101849500D01*
X174100068Y-101849500D01*
X173660640Y-101849501D01*
X173657429Y-101849924D01*
X173657424Y-101849924D01*
X173575671Y-101860686D01*
X173543238Y-101864956D01*
X173537246Y-101867438D01*
X173537242Y-101867439D01*
X173477926Y-101892009D01*
X173397159Y-101925464D01*
X173271718Y-102021718D01*
X173175464Y-102147159D01*
X173114956Y-102293238D01*
X173099500Y-102410639D01*
X172560499Y-102410639D01*
X172558020Y-102391804D01*
X172545891Y-102299673D01*
X172545044Y-102293238D01*
X172542562Y-102287246D01*
X172542561Y-102287242D01*
X172487019Y-102153154D01*
X172484536Y-102147159D01*
X172388282Y-102021718D01*
X172262841Y-101925464D01*
X172116762Y-101864956D01*
X171999361Y-101849500D01*
X171560068Y-101849500D01*
X171120640Y-101849501D01*
X171117429Y-101849924D01*
X171117424Y-101849924D01*
X171035671Y-101860686D01*
X171003238Y-101864956D01*
X170997246Y-101867438D01*
X170997242Y-101867439D01*
X170937926Y-101892009D01*
X170857159Y-101925464D01*
X170731718Y-102021718D01*
X170635464Y-102147159D01*
X170574956Y-102293238D01*
X170559500Y-102410639D01*
X170020499Y-102410639D01*
X170018020Y-102391804D01*
X170005891Y-102299673D01*
X170005044Y-102293238D01*
X170002562Y-102287246D01*
X170002561Y-102287242D01*
X169947019Y-102153154D01*
X169944536Y-102147159D01*
X169848282Y-102021718D01*
X169722841Y-101925464D01*
X169576762Y-101864956D01*
X169459361Y-101849500D01*
X169020068Y-101849500D01*
X168580640Y-101849501D01*
X168577429Y-101849924D01*
X168577424Y-101849924D01*
X168495671Y-101860686D01*
X168463238Y-101864956D01*
X168457246Y-101867438D01*
X168457242Y-101867439D01*
X168397926Y-101892009D01*
X168317159Y-101925464D01*
X168191718Y-102021718D01*
X168095464Y-102147159D01*
X168034956Y-102293238D01*
X168019500Y-102410639D01*
X167480499Y-102410639D01*
X167478020Y-102391804D01*
X167465891Y-102299673D01*
X167465044Y-102293238D01*
X167462562Y-102287246D01*
X167462561Y-102287242D01*
X167407019Y-102153154D01*
X167404536Y-102147159D01*
X167308282Y-102021718D01*
X167182841Y-101925464D01*
X167036762Y-101864956D01*
X166919361Y-101849500D01*
X166480068Y-101849500D01*
X166040640Y-101849501D01*
X166037429Y-101849924D01*
X166037424Y-101849924D01*
X165955671Y-101860686D01*
X165923238Y-101864956D01*
X165917246Y-101867438D01*
X165917242Y-101867439D01*
X165857926Y-101892009D01*
X165777159Y-101925464D01*
X165651718Y-102021718D01*
X165555464Y-102147159D01*
X165494956Y-102293238D01*
X165479500Y-102410639D01*
X164940499Y-102410639D01*
X164938020Y-102391804D01*
X164925891Y-102299673D01*
X164925044Y-102293238D01*
X164922562Y-102287246D01*
X164922561Y-102287242D01*
X164867019Y-102153154D01*
X164864536Y-102147159D01*
X164768282Y-102021718D01*
X164642841Y-101925464D01*
X164496762Y-101864956D01*
X164379361Y-101849500D01*
X163940068Y-101849500D01*
X163500640Y-101849501D01*
X163497429Y-101849924D01*
X163497424Y-101849924D01*
X163415671Y-101860686D01*
X163383238Y-101864956D01*
X163377246Y-101867438D01*
X163377242Y-101867439D01*
X163317926Y-101892009D01*
X163237159Y-101925464D01*
X163111718Y-102021718D01*
X163015464Y-102147159D01*
X162954956Y-102293238D01*
X162939500Y-102410639D01*
X162400499Y-102410639D01*
X162398020Y-102391804D01*
X162385891Y-102299673D01*
X162385044Y-102293238D01*
X162382562Y-102287246D01*
X162382561Y-102287242D01*
X162327019Y-102153154D01*
X162324536Y-102147159D01*
X162228282Y-102021718D01*
X162102841Y-101925464D01*
X161956762Y-101864956D01*
X161839361Y-101849500D01*
X161400068Y-101849500D01*
X160960640Y-101849501D01*
X160957429Y-101849924D01*
X160957424Y-101849924D01*
X160875671Y-101860686D01*
X160843238Y-101864956D01*
X160837246Y-101867438D01*
X160837242Y-101867439D01*
X160777926Y-101892009D01*
X160697159Y-101925464D01*
X160571718Y-102021718D01*
X160475464Y-102147159D01*
X160414956Y-102293238D01*
X160399500Y-102410639D01*
X159860499Y-102410639D01*
X159858020Y-102391804D01*
X159845891Y-102299673D01*
X159845044Y-102293238D01*
X159842562Y-102287246D01*
X159842561Y-102287242D01*
X159787019Y-102153154D01*
X159784536Y-102147159D01*
X159688282Y-102021718D01*
X159562841Y-101925464D01*
X159416762Y-101864956D01*
X159299361Y-101849500D01*
X158860068Y-101849500D01*
X158420640Y-101849501D01*
X158417429Y-101849924D01*
X158417424Y-101849924D01*
X158335671Y-101860686D01*
X158303238Y-101864956D01*
X158297246Y-101867438D01*
X158297242Y-101867439D01*
X158237926Y-101892009D01*
X158157159Y-101925464D01*
X158031718Y-102021718D01*
X157935464Y-102147159D01*
X157874956Y-102293238D01*
X157859500Y-102410639D01*
X155380510Y-102410639D01*
X155380510Y-93298531D01*
X155399417Y-93240340D01*
X155409506Y-93228527D01*
X157657394Y-90980639D01*
X173099500Y-90980639D01*
X173099501Y-94759360D01*
X173114956Y-94876762D01*
X173117438Y-94882754D01*
X173117439Y-94882758D01*
X173158859Y-94982753D01*
X173175464Y-95022841D01*
X173271718Y-95148282D01*
X173397159Y-95244536D01*
X173543238Y-95305044D01*
X173660639Y-95320500D01*
X174099932Y-95320500D01*
X174539360Y-95320499D01*
X174542571Y-95320076D01*
X174542576Y-95320076D01*
X174624329Y-95309314D01*
X174656762Y-95305044D01*
X174662754Y-95302562D01*
X174662758Y-95302561D01*
X174762753Y-95261141D01*
X174802841Y-95244536D01*
X174928282Y-95148282D01*
X175024536Y-95022841D01*
X175085044Y-94876762D01*
X175100500Y-94759361D01*
X175100499Y-90980640D01*
X175100499Y-90980639D01*
X176909500Y-90980639D01*
X176909501Y-94759360D01*
X176924956Y-94876762D01*
X176927438Y-94882754D01*
X176927439Y-94882758D01*
X176968859Y-94982753D01*
X176985464Y-95022841D01*
X177081718Y-95148282D01*
X177207159Y-95244536D01*
X177353238Y-95305044D01*
X177470639Y-95320500D01*
X177909932Y-95320500D01*
X178349360Y-95320499D01*
X178352571Y-95320076D01*
X178352576Y-95320076D01*
X178434329Y-95309314D01*
X178466762Y-95305044D01*
X178472754Y-95302562D01*
X178472758Y-95302561D01*
X178572753Y-95261141D01*
X178612841Y-95244536D01*
X178738282Y-95148282D01*
X178834536Y-95022841D01*
X178895044Y-94876762D01*
X178910500Y-94759361D01*
X178910499Y-90980640D01*
X178895044Y-90863238D01*
X178892562Y-90857246D01*
X178892561Y-90857242D01*
X178837019Y-90723154D01*
X178834536Y-90717159D01*
X178738282Y-90591718D01*
X178612841Y-90495464D01*
X178466762Y-90434956D01*
X178349361Y-90419500D01*
X177910068Y-90419500D01*
X177470640Y-90419501D01*
X177467429Y-90419924D01*
X177467424Y-90419924D01*
X177385671Y-90430686D01*
X177353238Y-90434956D01*
X177347246Y-90437438D01*
X177347242Y-90437439D01*
X177247247Y-90478859D01*
X177207159Y-90495464D01*
X177081718Y-90591718D01*
X176985464Y-90717159D01*
X176924956Y-90863238D01*
X176909500Y-90980639D01*
X175100499Y-90980639D01*
X175085044Y-90863238D01*
X175082562Y-90857246D01*
X175082561Y-90857242D01*
X175027019Y-90723154D01*
X175024536Y-90717159D01*
X174928282Y-90591718D01*
X174802841Y-90495464D01*
X174656762Y-90434956D01*
X174539361Y-90419500D01*
X174100068Y-90419500D01*
X173660640Y-90419501D01*
X173657429Y-90419924D01*
X173657424Y-90419924D01*
X173575671Y-90430686D01*
X173543238Y-90434956D01*
X173537246Y-90437438D01*
X173537242Y-90437439D01*
X173437247Y-90478859D01*
X173397159Y-90495464D01*
X173271718Y-90591718D01*
X173175464Y-90717159D01*
X173114956Y-90863238D01*
X173099500Y-90980639D01*
X157657394Y-90980639D01*
X159483406Y-89154627D01*
X159527370Y-89129117D01*
X159637397Y-89099120D01*
X159759571Y-89024105D01*
X159805553Y-88973305D01*
X159851048Y-88923042D01*
X159855780Y-88917814D01*
X159918290Y-88788793D01*
X159933705Y-88697173D01*
X159941442Y-88651184D01*
X159941442Y-88651180D01*
X159942076Y-88647414D01*
X159942227Y-88635060D01*
X159921903Y-88493142D01*
X159869372Y-88377606D01*
X159865485Y-88369056D01*
X159865484Y-88369055D01*
X159862564Y-88362632D01*
X159780151Y-88266987D01*
X159773585Y-88259367D01*
X159773584Y-88259366D01*
X159768980Y-88254023D01*
X159648675Y-88176045D01*
X159511319Y-88134967D01*
X159428077Y-88134458D01*
X159375007Y-88134134D01*
X159375006Y-88134134D01*
X159367956Y-88134091D01*
X159361179Y-88136028D01*
X159361178Y-88136028D01*
X159236889Y-88171550D01*
X159236887Y-88171551D01*
X159230109Y-88173488D01*
X159108860Y-88249990D01*
X159104193Y-88255274D01*
X159104191Y-88255276D01*
X159018624Y-88352163D01*
X159018622Y-88352165D01*
X159013957Y-88357448D01*
X159010961Y-88363830D01*
X159010960Y-88363831D01*
X159007314Y-88371596D01*
X158953027Y-88487223D01*
X158949832Y-88507746D01*
X158946012Y-88532279D01*
X158918195Y-88587052D01*
X158840143Y-88665104D01*
X158785626Y-88692881D01*
X158725194Y-88683310D01*
X158681929Y-88640045D01*
X158672139Y-88609134D01*
X158670432Y-88597214D01*
X158656983Y-88503302D01*
X158605184Y-88389376D01*
X158600565Y-88379216D01*
X158600564Y-88379215D01*
X158597644Y-88372792D01*
X158513894Y-88275596D01*
X158508665Y-88269527D01*
X158508664Y-88269526D01*
X158504060Y-88264183D01*
X158383755Y-88186205D01*
X158246399Y-88145127D01*
X158161625Y-88144609D01*
X158110087Y-88144294D01*
X158110086Y-88144294D01*
X158103036Y-88144251D01*
X158096259Y-88146188D01*
X158096258Y-88146188D01*
X157971969Y-88181710D01*
X157971967Y-88181711D01*
X157965189Y-88183648D01*
X157843940Y-88260150D01*
X157839273Y-88265434D01*
X157839271Y-88265436D01*
X157753704Y-88362323D01*
X157753702Y-88362325D01*
X157749037Y-88367608D01*
X157746041Y-88373990D01*
X157746040Y-88373991D01*
X157741833Y-88382952D01*
X157688107Y-88497383D01*
X157681091Y-88542443D01*
X157653276Y-88597212D01*
X157604104Y-88646383D01*
X157549590Y-88674159D01*
X157489158Y-88664588D01*
X157445893Y-88621323D01*
X157436103Y-88590412D01*
X157428347Y-88536253D01*
X157425083Y-88513462D01*
X157365744Y-88382952D01*
X157272160Y-88274343D01*
X157151855Y-88196365D01*
X157014499Y-88155287D01*
X156929725Y-88154769D01*
X156878187Y-88154454D01*
X156878186Y-88154454D01*
X156871136Y-88154411D01*
X156864359Y-88156348D01*
X156864358Y-88156348D01*
X156740069Y-88191870D01*
X156740067Y-88191871D01*
X156733289Y-88193808D01*
X156612040Y-88270310D01*
X156607373Y-88275594D01*
X156607371Y-88275596D01*
X156521804Y-88372483D01*
X156521802Y-88372485D01*
X156517137Y-88377768D01*
X156514141Y-88384150D01*
X156514140Y-88384151D01*
X156511687Y-88389376D01*
X156456207Y-88507543D01*
X156454198Y-88520447D01*
X156449192Y-88552599D01*
X156421375Y-88607372D01*
X156320474Y-88708273D01*
X156265957Y-88736050D01*
X156205525Y-88726479D01*
X156162260Y-88683214D01*
X156152470Y-88652303D01*
X156146288Y-88609134D01*
X156132223Y-88510922D01*
X156101586Y-88443540D01*
X156075805Y-88386836D01*
X156075804Y-88386835D01*
X156072884Y-88380412D01*
X156004771Y-88301363D01*
X155983905Y-88277147D01*
X155983904Y-88277146D01*
X155979300Y-88271803D01*
X155858995Y-88193825D01*
X155721639Y-88152747D01*
X155638397Y-88152238D01*
X155585327Y-88151914D01*
X155585326Y-88151914D01*
X155578276Y-88151871D01*
X155571499Y-88153808D01*
X155571498Y-88153808D01*
X155447209Y-88189330D01*
X155447207Y-88189331D01*
X155440429Y-88191268D01*
X155319180Y-88267770D01*
X155314513Y-88273054D01*
X155314511Y-88273056D01*
X155228944Y-88369943D01*
X155228942Y-88369945D01*
X155224277Y-88375228D01*
X155221281Y-88381610D01*
X155221280Y-88381611D01*
X155218827Y-88386836D01*
X155163347Y-88505003D01*
X155162262Y-88511972D01*
X155162261Y-88511975D01*
X155156332Y-88550059D01*
X155128515Y-88604833D01*
X155063952Y-88669396D01*
X155009435Y-88697173D01*
X154949003Y-88687602D01*
X154905738Y-88644337D01*
X154896525Y-88596631D01*
X154895096Y-88596614D01*
X154895200Y-88588086D01*
X154895247Y-88584260D01*
X154874923Y-88442342D01*
X154846765Y-88380412D01*
X154818505Y-88318256D01*
X154818504Y-88318255D01*
X154815584Y-88311832D01*
X154722000Y-88203223D01*
X154601695Y-88125245D01*
X154464339Y-88084167D01*
X154381097Y-88083658D01*
X154328027Y-88083334D01*
X154328026Y-88083334D01*
X154320976Y-88083291D01*
X154314199Y-88085228D01*
X154314198Y-88085228D01*
X154189909Y-88120750D01*
X154189907Y-88120751D01*
X154183129Y-88122688D01*
X154061880Y-88199190D01*
X154057213Y-88204474D01*
X154057211Y-88204476D01*
X153971644Y-88301363D01*
X153971642Y-88301365D01*
X153966977Y-88306648D01*
X153963981Y-88313030D01*
X153963980Y-88313031D01*
X153957949Y-88325876D01*
X153906047Y-88436423D01*
X153904962Y-88443392D01*
X153904961Y-88443395D01*
X153899032Y-88481479D01*
X153871215Y-88536253D01*
X153780151Y-88627317D01*
X153725634Y-88655094D01*
X153665202Y-88645523D01*
X153621937Y-88602258D01*
X153612147Y-88571348D01*
X153599548Y-88483376D01*
X153594763Y-88449962D01*
X153567216Y-88389376D01*
X153538345Y-88325876D01*
X153538344Y-88325875D01*
X153535424Y-88319452D01*
X153441840Y-88210843D01*
X153321535Y-88132865D01*
X153184179Y-88091787D01*
X153100937Y-88091278D01*
X153047867Y-88090954D01*
X153047866Y-88090954D01*
X153040816Y-88090911D01*
X153034039Y-88092848D01*
X153034038Y-88092848D01*
X152909749Y-88128370D01*
X152909747Y-88128371D01*
X152902969Y-88130308D01*
X152868794Y-88151871D01*
X152792192Y-88200203D01*
X152781720Y-88206810D01*
X152777053Y-88212094D01*
X152777051Y-88212096D01*
X152691484Y-88308983D01*
X152691482Y-88308985D01*
X152686817Y-88314268D01*
X152625887Y-88444043D01*
X152620058Y-88481479D01*
X152618872Y-88489099D01*
X152591055Y-88543872D01*
X152473000Y-88661927D01*
X152418483Y-88689704D01*
X152358051Y-88680133D01*
X152314786Y-88636868D01*
X152304996Y-88605958D01*
X152294444Y-88532279D01*
X152289203Y-88495682D01*
X152236793Y-88380412D01*
X152232785Y-88371596D01*
X152232784Y-88371595D01*
X152229864Y-88365172D01*
X152156205Y-88279687D01*
X152140885Y-88261907D01*
X152140884Y-88261906D01*
X152136280Y-88256563D01*
X152015975Y-88178585D01*
X151878619Y-88137507D01*
X151793845Y-88136989D01*
X151742307Y-88136674D01*
X151742306Y-88136674D01*
X151735256Y-88136631D01*
X151728479Y-88138568D01*
X151728478Y-88138568D01*
X151604189Y-88174090D01*
X151604187Y-88174091D01*
X151597409Y-88176028D01*
X151476160Y-88252530D01*
X151471493Y-88257814D01*
X151471491Y-88257816D01*
X151385924Y-88354703D01*
X151385922Y-88354705D01*
X151381257Y-88359988D01*
X151378261Y-88366370D01*
X151378260Y-88366371D01*
X151374178Y-88375066D01*
X151320327Y-88489763D01*
X151313707Y-88532279D01*
X151313312Y-88534819D01*
X151285495Y-88589592D01*
X151234741Y-88640346D01*
X151180224Y-88668123D01*
X151119792Y-88658552D01*
X151076527Y-88615287D01*
X151066737Y-88584376D01*
X151066721Y-88584260D01*
X151054763Y-88500762D01*
X151002964Y-88386836D01*
X150998345Y-88376676D01*
X150998344Y-88376675D01*
X150995424Y-88370252D01*
X150911674Y-88273056D01*
X150906445Y-88266987D01*
X150906444Y-88266986D01*
X150901840Y-88261643D01*
X150781535Y-88183665D01*
X150644179Y-88142587D01*
X150560937Y-88142078D01*
X150507867Y-88141754D01*
X150507866Y-88141754D01*
X150500816Y-88141711D01*
X150494039Y-88143648D01*
X150494038Y-88143648D01*
X150369749Y-88179170D01*
X150369747Y-88179171D01*
X150362969Y-88181108D01*
X150241720Y-88257610D01*
X150237053Y-88262894D01*
X150237051Y-88262896D01*
X150151484Y-88359783D01*
X150151482Y-88359785D01*
X150146817Y-88365068D01*
X150143821Y-88371450D01*
X150143820Y-88371451D01*
X150142123Y-88375066D01*
X150085887Y-88494843D01*
X150084802Y-88501812D01*
X150084801Y-88501815D01*
X150078872Y-88539899D01*
X150051055Y-88594673D01*
X136894526Y-101751201D01*
X136894523Y-101751205D01*
X136871960Y-101773768D01*
X136861008Y-101795264D01*
X136852894Y-101808503D01*
X136838714Y-101828020D01*
X136836306Y-101835431D01*
X136831258Y-101850967D01*
X136825315Y-101865313D01*
X136820210Y-101875333D01*
X136776946Y-101918596D01*
X136716514Y-101928167D01*
X136694116Y-101921850D01*
X136562759Y-101867440D01*
X136556762Y-101864956D01*
X136439361Y-101849500D01*
X136000068Y-101849500D01*
X135560640Y-101849501D01*
X135557429Y-101849924D01*
X135557424Y-101849924D01*
X135475671Y-101860686D01*
X135443238Y-101864956D01*
X135437246Y-101867438D01*
X135437242Y-101867439D01*
X135377926Y-101892009D01*
X135297159Y-101925464D01*
X135171718Y-102021718D01*
X135075464Y-102147159D01*
X135014956Y-102293238D01*
X134999500Y-102410639D01*
X134999501Y-106189360D01*
X134999924Y-106192571D01*
X134999924Y-106192576D01*
X135010548Y-106273275D01*
X135014956Y-106306762D01*
X135017438Y-106312754D01*
X135017439Y-106312758D01*
X135058859Y-106412753D01*
X135075464Y-106452841D01*
X135171718Y-106578282D01*
X135297159Y-106674536D01*
X135395017Y-106715070D01*
X135427732Y-106728621D01*
X135443238Y-106735044D01*
X135560639Y-106750500D01*
X135999932Y-106750500D01*
X136439360Y-106750499D01*
X136442572Y-106750076D01*
X136442575Y-106750076D01*
X136501741Y-106742287D01*
X136509914Y-106741211D01*
X136570074Y-106752362D01*
X136612191Y-106796744D01*
X136620177Y-106857406D01*
X136592839Y-106909368D01*
X133154516Y-110347691D01*
X133154513Y-110347695D01*
X133131950Y-110370258D01*
X133120998Y-110391754D01*
X133112884Y-110404993D01*
X133098704Y-110424510D01*
X133096296Y-110431921D01*
X133091248Y-110447457D01*
X133085305Y-110461803D01*
X133074354Y-110483296D01*
X133073136Y-110490989D01*
X133073135Y-110490991D01*
X133070581Y-110507119D01*
X133066956Y-110522220D01*
X133059500Y-110545167D01*
X133059500Y-110647564D01*
X133040593Y-110705755D01*
X132991093Y-110741719D01*
X132973421Y-110745717D01*
X132903238Y-110754956D01*
X132897246Y-110757438D01*
X132897242Y-110757439D01*
X132837926Y-110782009D01*
X132757159Y-110815464D01*
X132631718Y-110911718D01*
X132535464Y-111037159D01*
X132474956Y-111183238D01*
X132459500Y-111300639D01*
X130140000Y-111300639D01*
X130140000Y-102410639D01*
X132459500Y-102410639D01*
X132459501Y-106189360D01*
X132459924Y-106192571D01*
X132459924Y-106192576D01*
X132470548Y-106273275D01*
X132474956Y-106306762D01*
X132477438Y-106312754D01*
X132477439Y-106312758D01*
X132518859Y-106412753D01*
X132535464Y-106452841D01*
X132631718Y-106578282D01*
X132757159Y-106674536D01*
X132855017Y-106715070D01*
X132887732Y-106728621D01*
X132903238Y-106735044D01*
X133020639Y-106750500D01*
X133459932Y-106750500D01*
X133899360Y-106750499D01*
X133902571Y-106750076D01*
X133902576Y-106750076D01*
X133984329Y-106739314D01*
X134016762Y-106735044D01*
X134022754Y-106732562D01*
X134022758Y-106732561D01*
X134129522Y-106688337D01*
X134162841Y-106674536D01*
X134288282Y-106578282D01*
X134384536Y-106452841D01*
X134445044Y-106306762D01*
X134460500Y-106189361D01*
X134460499Y-102410640D01*
X134458020Y-102391804D01*
X134445891Y-102299673D01*
X134445044Y-102293238D01*
X134442562Y-102287246D01*
X134442561Y-102287242D01*
X134387019Y-102153154D01*
X134384536Y-102147159D01*
X134288282Y-102021718D01*
X134162841Y-101925464D01*
X134016762Y-101864956D01*
X133899361Y-101849500D01*
X133460068Y-101849500D01*
X133020640Y-101849501D01*
X133017429Y-101849924D01*
X133017424Y-101849924D01*
X132935671Y-101860686D01*
X132903238Y-101864956D01*
X132897246Y-101867438D01*
X132897242Y-101867439D01*
X132837926Y-101892009D01*
X132757159Y-101925464D01*
X132631718Y-102021718D01*
X132535464Y-102147159D01*
X132474956Y-102293238D01*
X132459500Y-102410639D01*
X130140000Y-102410639D01*
X130140000Y-90980639D01*
X132459500Y-90980639D01*
X132459501Y-94759360D01*
X132474956Y-94876762D01*
X132477438Y-94882754D01*
X132477439Y-94882758D01*
X132518859Y-94982753D01*
X132535464Y-95022841D01*
X132631718Y-95148282D01*
X132757159Y-95244536D01*
X132903238Y-95305044D01*
X133020639Y-95320500D01*
X133459932Y-95320500D01*
X133899360Y-95320499D01*
X133902571Y-95320076D01*
X133902576Y-95320076D01*
X133984329Y-95309314D01*
X134016762Y-95305044D01*
X134022754Y-95302562D01*
X134022758Y-95302561D01*
X134122753Y-95261141D01*
X134162841Y-95244536D01*
X134288282Y-95148282D01*
X134384536Y-95022841D01*
X134445044Y-94876762D01*
X134460500Y-94759361D01*
X134460499Y-90980640D01*
X134460499Y-90980639D01*
X136269500Y-90980639D01*
X136269501Y-94759360D01*
X136284956Y-94876762D01*
X136287438Y-94882754D01*
X136287439Y-94882758D01*
X136328859Y-94982753D01*
X136345464Y-95022841D01*
X136441718Y-95148282D01*
X136567159Y-95244536D01*
X136713238Y-95305044D01*
X136830639Y-95320500D01*
X137269932Y-95320500D01*
X137709360Y-95320499D01*
X137712571Y-95320076D01*
X137712576Y-95320076D01*
X137794329Y-95309314D01*
X137826762Y-95305044D01*
X137832754Y-95302562D01*
X137832758Y-95302561D01*
X137932753Y-95261141D01*
X137972841Y-95244536D01*
X138098282Y-95148282D01*
X138194536Y-95022841D01*
X138255044Y-94876762D01*
X138270500Y-94759361D01*
X138270499Y-90980640D01*
X138255044Y-90863238D01*
X138252562Y-90857246D01*
X138252561Y-90857242D01*
X138197019Y-90723154D01*
X138194536Y-90717159D01*
X138098282Y-90591718D01*
X137972841Y-90495464D01*
X137826762Y-90434956D01*
X137709361Y-90419500D01*
X137270068Y-90419500D01*
X136830640Y-90419501D01*
X136827429Y-90419924D01*
X136827424Y-90419924D01*
X136745671Y-90430686D01*
X136713238Y-90434956D01*
X136707246Y-90437438D01*
X136707242Y-90437439D01*
X136607247Y-90478859D01*
X136567159Y-90495464D01*
X136441718Y-90591718D01*
X136345464Y-90717159D01*
X136284956Y-90863238D01*
X136269500Y-90980639D01*
X134460499Y-90980639D01*
X134445044Y-90863238D01*
X134442562Y-90857246D01*
X134442561Y-90857242D01*
X134387019Y-90723154D01*
X134384536Y-90717159D01*
X134288282Y-90591718D01*
X134162841Y-90495464D01*
X134016762Y-90434956D01*
X133899361Y-90419500D01*
X133460068Y-90419500D01*
X133020640Y-90419501D01*
X133017429Y-90419924D01*
X133017424Y-90419924D01*
X132935671Y-90430686D01*
X132903238Y-90434956D01*
X132897246Y-90437438D01*
X132897242Y-90437439D01*
X132797247Y-90478859D01*
X132757159Y-90495464D01*
X132631718Y-90591718D01*
X132535464Y-90717159D01*
X132474956Y-90863238D01*
X132459500Y-90980639D01*
X130140000Y-90980639D01*
X130140000Y-87018823D01*
X133424391Y-87018823D01*
X133425306Y-87025820D01*
X133425306Y-87025821D01*
X133426506Y-87035000D01*
X133442980Y-87160979D01*
X133445821Y-87167435D01*
X133445821Y-87167436D01*
X133459164Y-87197759D01*
X133500720Y-87292203D01*
X133539083Y-87337841D01*
X133588431Y-87396549D01*
X133588434Y-87396551D01*
X133592970Y-87401948D01*
X133598841Y-87405856D01*
X133598842Y-87405857D01*
X133611143Y-87414045D01*
X133712313Y-87481390D01*
X133812920Y-87512821D01*
X133842425Y-87522039D01*
X133842426Y-87522039D01*
X133849157Y-87524142D01*
X133920828Y-87525456D01*
X133985445Y-87526641D01*
X133985447Y-87526641D01*
X133992499Y-87526770D01*
X133999302Y-87524915D01*
X133999304Y-87524915D01*
X134087337Y-87500914D01*
X134130817Y-87489060D01*
X134252991Y-87414045D01*
X134260403Y-87405857D01*
X134344468Y-87312982D01*
X134349200Y-87307754D01*
X134402492Y-87197759D01*
X134408634Y-87185082D01*
X134411710Y-87178733D01*
X134415875Y-87153982D01*
X134434862Y-87041124D01*
X134434862Y-87041120D01*
X134435496Y-87037354D01*
X134435600Y-87028823D01*
X134724391Y-87028823D01*
X134725306Y-87035820D01*
X134725306Y-87035821D01*
X134726814Y-87047354D01*
X134742980Y-87170979D01*
X134745821Y-87177435D01*
X134745821Y-87177436D01*
X134753586Y-87195082D01*
X134800720Y-87302203D01*
X134830677Y-87337841D01*
X134888431Y-87406549D01*
X134888434Y-87406551D01*
X134892970Y-87411948D01*
X134898841Y-87415856D01*
X134898842Y-87415857D01*
X134911143Y-87424045D01*
X135012313Y-87491390D01*
X135110417Y-87522039D01*
X135142425Y-87532039D01*
X135142426Y-87532039D01*
X135149157Y-87534142D01*
X135220828Y-87535456D01*
X135285445Y-87536641D01*
X135285447Y-87536641D01*
X135292499Y-87536770D01*
X135299302Y-87534915D01*
X135299304Y-87534915D01*
X135374503Y-87514413D01*
X135430817Y-87499060D01*
X135552991Y-87424045D01*
X135560403Y-87415857D01*
X135644468Y-87322982D01*
X135649200Y-87317754D01*
X135711710Y-87188733D01*
X135713393Y-87178733D01*
X135734862Y-87051124D01*
X135734862Y-87051120D01*
X135735496Y-87047354D01*
X135735647Y-87035000D01*
X178024318Y-87035000D01*
X178044956Y-87191762D01*
X178105464Y-87337841D01*
X178201718Y-87463282D01*
X178327159Y-87559536D01*
X178473238Y-87620044D01*
X178630000Y-87640682D01*
X178786762Y-87620044D01*
X178932841Y-87559536D01*
X179058282Y-87463282D01*
X179154536Y-87337841D01*
X179213536Y-87195403D01*
X179253273Y-87148878D01*
X179312768Y-87134594D01*
X179369295Y-87158009D01*
X179396464Y-87195403D01*
X179455464Y-87337841D01*
X179551718Y-87463282D01*
X179677159Y-87559536D01*
X179823238Y-87620044D01*
X179980000Y-87640682D01*
X180136762Y-87620044D01*
X180282841Y-87559536D01*
X180408282Y-87463282D01*
X180504536Y-87337841D01*
X180565044Y-87191762D01*
X180585682Y-87035000D01*
X180584366Y-87025000D01*
X180570690Y-86921122D01*
X180565044Y-86878238D01*
X180504536Y-86732159D01*
X180408282Y-86606718D01*
X180282841Y-86510464D01*
X180136762Y-86449956D01*
X179980000Y-86429318D01*
X179823238Y-86449956D01*
X179677159Y-86510464D01*
X179551718Y-86606718D01*
X179455464Y-86732159D01*
X179452981Y-86738154D01*
X179396464Y-86874597D01*
X179356727Y-86921122D01*
X179297232Y-86935406D01*
X179240705Y-86911991D01*
X179213536Y-86874597D01*
X179157019Y-86738154D01*
X179154536Y-86732159D01*
X179058282Y-86606718D01*
X178932841Y-86510464D01*
X178786762Y-86449956D01*
X178630000Y-86429318D01*
X178473238Y-86449956D01*
X178327159Y-86510464D01*
X178201718Y-86606718D01*
X178105464Y-86732159D01*
X178044956Y-86878238D01*
X178039310Y-86921122D01*
X178025635Y-87025000D01*
X178024318Y-87035000D01*
X135735647Y-87035000D01*
X135715323Y-86893082D01*
X135655984Y-86762572D01*
X135562400Y-86653963D01*
X135442095Y-86575985D01*
X135304739Y-86534907D01*
X135221497Y-86534398D01*
X135168427Y-86534074D01*
X135168426Y-86534074D01*
X135161376Y-86534031D01*
X135154599Y-86535968D01*
X135154598Y-86535968D01*
X135030309Y-86571490D01*
X135030307Y-86571491D01*
X135023529Y-86573428D01*
X134902280Y-86649930D01*
X134897613Y-86655214D01*
X134897611Y-86655216D01*
X134812044Y-86752103D01*
X134812042Y-86752105D01*
X134807377Y-86757388D01*
X134746447Y-86887163D01*
X134745362Y-86894132D01*
X134745361Y-86894135D01*
X134730680Y-86988430D01*
X134724391Y-87028823D01*
X134435600Y-87028823D01*
X134435647Y-87025000D01*
X134415323Y-86883082D01*
X134355984Y-86752572D01*
X134295582Y-86682472D01*
X134267005Y-86649307D01*
X134267004Y-86649306D01*
X134262400Y-86643963D01*
X134142095Y-86565985D01*
X134004739Y-86524907D01*
X133921497Y-86524398D01*
X133868427Y-86524074D01*
X133868426Y-86524074D01*
X133861376Y-86524031D01*
X133854599Y-86525968D01*
X133854598Y-86525968D01*
X133730309Y-86561490D01*
X133730307Y-86561491D01*
X133723529Y-86563428D01*
X133602280Y-86639930D01*
X133597613Y-86645214D01*
X133597611Y-86645216D01*
X133512044Y-86742103D01*
X133512042Y-86742105D01*
X133507377Y-86747388D01*
X133446447Y-86877163D01*
X133445362Y-86884132D01*
X133445361Y-86884135D01*
X133437379Y-86935406D01*
X133424391Y-87018823D01*
X130140000Y-87018823D01*
X130140000Y-78533960D01*
X130142518Y-78511773D01*
X130142562Y-78511583D01*
X130145143Y-78500358D01*
X130142682Y-78489484D01*
X130142702Y-78478335D01*
X130143716Y-78478337D01*
X130143105Y-78468476D01*
X130148726Y-78411409D01*
X130154416Y-78353630D01*
X130158202Y-78334598D01*
X130198066Y-78203183D01*
X130205493Y-78185252D01*
X130227793Y-78143533D01*
X130270228Y-78064143D01*
X130281008Y-78048009D01*
X130320353Y-78000066D01*
X130368131Y-77941848D01*
X130381848Y-77928131D01*
X130462947Y-77861575D01*
X130488009Y-77841008D01*
X130504144Y-77830227D01*
X130505330Y-77829593D01*
X130625255Y-77765492D01*
X130643183Y-77758066D01*
X130715391Y-77736162D01*
X130774600Y-77718202D01*
X130793630Y-77714416D01*
X130908499Y-77703103D01*
X130918371Y-77702626D01*
X130928775Y-77702644D01*
X130939642Y-77705143D01*
X130951583Y-77702441D01*
X130973432Y-77700000D01*
X133578479Y-77700000D01*
X133636670Y-77718907D01*
G37*
%TD.AperFunction*%
%TD*%
M02*
