%TF.GenerationSoftware,KiCad,Pcbnew,(5.99.0-11763-gc80efb0f98)*%
%TF.CreationDate,2021-08-26T10:07:41+03:00*%
%TF.ProjectId,E500_MCBB,45353030-5f4d-4434-9242-2e6b69636164,rev?*%
%TF.SameCoordinates,Original*%
%TF.FileFunction,Soldermask,Bot*%
%TF.FilePolarity,Negative*%
%FSLAX46Y46*%
G04 Gerber Fmt 4.6, Leading zero omitted, Abs format (unit mm)*
G04 Created by KiCad (PCBNEW (5.99.0-11763-gc80efb0f98)) date 2021-08-26 10:07:41*
%MOMM*%
%LPD*%
G01*
G04 APERTURE LIST*
G04 Aperture macros list*
%AMRoundRect*
0 Rectangle with rounded corners*
0 $1 Rounding radius*
0 $2 $3 $4 $5 $6 $7 $8 $9 X,Y pos of 4 corners*
0 Add a 4 corners polygon primitive as box body*
4,1,4,$2,$3,$4,$5,$6,$7,$8,$9,$2,$3,0*
0 Add four circle primitives for the rounded corners*
1,1,$1+$1,$2,$3*
1,1,$1+$1,$4,$5*
1,1,$1+$1,$6,$7*
1,1,$1+$1,$8,$9*
0 Add four rect primitives between the rounded corners*
20,1,$1+$1,$2,$3,$4,$5,0*
20,1,$1+$1,$4,$5,$6,$7,0*
20,1,$1+$1,$6,$7,$8,$9,0*
20,1,$1+$1,$8,$9,$2,$3,0*%
G04 Aperture macros list end*
%ADD10C,0.250000*%
%ADD11C,0.010000*%
%ADD12C,0.600000*%
%ADD13RoundRect,0.400000X-0.400000X-1.850000X0.400000X-1.850000X0.400000X1.850000X-0.400000X1.850000X0*%
G04 APERTURE END LIST*
D10*
X176935142Y-118170571D02*
X176935142Y-116670571D01*
X176935142Y-117242000D02*
X176792285Y-117170571D01*
X176506571Y-117170571D01*
X176363714Y-117242000D01*
X176292285Y-117313428D01*
X176220857Y-117456285D01*
X176220857Y-117884857D01*
X176292285Y-118027714D01*
X176363714Y-118099142D01*
X176506571Y-118170571D01*
X176792285Y-118170571D01*
X176935142Y-118099142D01*
X175720857Y-117170571D02*
X175363714Y-118170571D01*
X175006571Y-117170571D02*
X175363714Y-118170571D01*
X175506571Y-118527714D01*
X175578000Y-118599142D01*
X175720857Y-118670571D01*
X173292285Y-118170571D02*
X173292285Y-116670571D01*
X173292285Y-117384857D02*
X172435142Y-117384857D01*
X172435142Y-118170571D02*
X172435142Y-116670571D01*
X171863714Y-116670571D02*
X171506571Y-118170571D01*
X171220857Y-117099142D01*
X170935142Y-118170571D01*
X170578000Y-116670571D01*
X169149428Y-118170571D02*
X169649428Y-117456285D01*
X170006571Y-118170571D02*
X170006571Y-116670571D01*
X169435142Y-116670571D01*
X169292285Y-116742000D01*
X169220857Y-116813428D01*
X169149428Y-116956285D01*
X169149428Y-117170571D01*
X169220857Y-117313428D01*
X169292285Y-117384857D01*
X169435142Y-117456285D01*
X170006571Y-117456285D01*
X168220857Y-116670571D02*
X168078000Y-116670571D01*
X167935142Y-116742000D01*
X167863714Y-116813428D01*
X167792285Y-116956285D01*
X167720857Y-117242000D01*
X167720857Y-117599142D01*
X167792285Y-117884857D01*
X167863714Y-118027714D01*
X167935142Y-118099142D01*
X168078000Y-118170571D01*
X168220857Y-118170571D01*
X168363714Y-118099142D01*
X168435142Y-118027714D01*
X168506571Y-117884857D01*
X168578000Y-117599142D01*
X168578000Y-117242000D01*
X168506571Y-116956285D01*
X168435142Y-116813428D01*
X168363714Y-116742000D01*
X168220857Y-116670571D01*
X164792285Y-117170571D02*
X165935142Y-117599142D01*
X164792285Y-118027714D01*
X163506571Y-118099142D02*
X163649428Y-118170571D01*
X163935142Y-118170571D01*
X164078000Y-118099142D01*
X164149428Y-117956285D01*
X164149428Y-117384857D01*
X164078000Y-117242000D01*
X163935142Y-117170571D01*
X163649428Y-117170571D01*
X163506571Y-117242000D01*
X163435142Y-117384857D01*
X163435142Y-117527714D01*
X164149428Y-117670571D01*
X162935142Y-117170571D02*
X162578000Y-118170571D01*
X162220857Y-117170571D01*
X161649428Y-118170571D02*
X161649428Y-117170571D01*
X161649428Y-116670571D02*
X161720857Y-116742000D01*
X161649428Y-116813428D01*
X161578000Y-116742000D01*
X161649428Y-116670571D01*
X161649428Y-116813428D01*
X160720857Y-118170571D02*
X160863714Y-118099142D01*
X160935142Y-117956285D01*
X160935142Y-116670571D01*
X160149428Y-118170571D02*
X160149428Y-116670571D01*
X159506571Y-118170571D02*
X159506571Y-117384857D01*
X159578000Y-117242000D01*
X159720857Y-117170571D01*
X159935142Y-117170571D01*
X160078000Y-117242000D01*
X160149428Y-117313428D01*
X158149428Y-118170571D02*
X158149428Y-117384857D01*
X158220857Y-117242000D01*
X158363714Y-117170571D01*
X158649428Y-117170571D01*
X158792285Y-117242000D01*
X158149428Y-118099142D02*
X158292285Y-118170571D01*
X158649428Y-118170571D01*
X158792285Y-118099142D01*
X158863714Y-117956285D01*
X158863714Y-117813428D01*
X158792285Y-117670571D01*
X158649428Y-117599142D01*
X158292285Y-117599142D01*
X158149428Y-117527714D01*
X157435142Y-118170571D02*
X157435142Y-117170571D01*
X157435142Y-117456285D02*
X157363714Y-117313428D01*
X157292285Y-117242000D01*
X157149428Y-117170571D01*
X157006571Y-117170571D01*
X155863714Y-118170571D02*
X155863714Y-116670571D01*
X155863714Y-118099142D02*
X156006571Y-118170571D01*
X156292285Y-118170571D01*
X156435142Y-118099142D01*
X156506571Y-118027714D01*
X156578000Y-117884857D01*
X156578000Y-117456285D01*
X156506571Y-117313428D01*
X156435142Y-117242000D01*
X156292285Y-117170571D01*
X156006571Y-117170571D01*
X155863714Y-117242000D01*
X155292285Y-117170571D02*
X155006571Y-118170571D01*
X154720857Y-117456285D01*
X154435142Y-118170571D01*
X154149428Y-117170571D01*
X152935142Y-118170571D02*
X152935142Y-117384857D01*
X153006571Y-117242000D01*
X153149428Y-117170571D01*
X153435142Y-117170571D01*
X153578000Y-117242000D01*
X152935142Y-118099142D02*
X153078000Y-118170571D01*
X153435142Y-118170571D01*
X153578000Y-118099142D01*
X153649428Y-117956285D01*
X153649428Y-117813428D01*
X153578000Y-117670571D01*
X153435142Y-117599142D01*
X153078000Y-117599142D01*
X152935142Y-117527714D01*
X152220857Y-118170571D02*
X152220857Y-117170571D01*
X152220857Y-117456285D02*
X152149428Y-117313428D01*
X152078000Y-117242000D01*
X151935142Y-117170571D01*
X151792285Y-117170571D01*
X150720857Y-118099142D02*
X150863714Y-118170571D01*
X151149428Y-118170571D01*
X151292285Y-118099142D01*
X151363714Y-117956285D01*
X151363714Y-117384857D01*
X151292285Y-117242000D01*
X151149428Y-117170571D01*
X150863714Y-117170571D01*
X150720857Y-117242000D01*
X150649428Y-117384857D01*
X150649428Y-117527714D01*
X151363714Y-117670571D01*
X149078000Y-117456285D02*
X149149428Y-117384857D01*
X149292285Y-117313428D01*
X149435142Y-117313428D01*
X149578000Y-117384857D01*
X149649428Y-117456285D01*
X149720857Y-117599142D01*
X149720857Y-117742000D01*
X149649428Y-117884857D01*
X149578000Y-117956285D01*
X149435142Y-118027714D01*
X149292285Y-118027714D01*
X149149428Y-117956285D01*
X149078000Y-117884857D01*
X149078000Y-117313428D02*
X149078000Y-117884857D01*
X149006571Y-117956285D01*
X148935142Y-117956285D01*
X148792285Y-117884857D01*
X148720857Y-117742000D01*
X148720857Y-117384857D01*
X148863714Y-117170571D01*
X149078000Y-117027714D01*
X149363714Y-116956285D01*
X149649428Y-117027714D01*
X149863714Y-117170571D01*
X150006571Y-117384857D01*
X150078000Y-117670571D01*
X150006571Y-117956285D01*
X149863714Y-118170571D01*
X149649428Y-118313428D01*
X149363714Y-118384857D01*
X149078000Y-118313428D01*
X148863714Y-118170571D01*
X148078000Y-118170571D02*
X148078000Y-117170571D01*
X148078000Y-117313428D02*
X148006571Y-117242000D01*
X147863714Y-117170571D01*
X147649428Y-117170571D01*
X147506571Y-117242000D01*
X147435142Y-117384857D01*
X147435142Y-118170571D01*
X147435142Y-117384857D02*
X147363714Y-117242000D01*
X147220857Y-117170571D01*
X147006571Y-117170571D01*
X146863714Y-117242000D01*
X146792285Y-117384857D01*
X146792285Y-118170571D01*
X145435142Y-118170571D02*
X145435142Y-117384857D01*
X145506571Y-117242000D01*
X145649428Y-117170571D01*
X145935142Y-117170571D01*
X146078000Y-117242000D01*
X145435142Y-118099142D02*
X145578000Y-118170571D01*
X145935142Y-118170571D01*
X146078000Y-118099142D01*
X146149428Y-117956285D01*
X146149428Y-117813428D01*
X146078000Y-117670571D01*
X145935142Y-117599142D01*
X145578000Y-117599142D01*
X145435142Y-117527714D01*
X144720857Y-118170571D02*
X144720857Y-117170571D01*
X144720857Y-116670571D02*
X144792285Y-116742000D01*
X144720857Y-116813428D01*
X144649428Y-116742000D01*
X144720857Y-116670571D01*
X144720857Y-116813428D01*
X143792285Y-118170571D02*
X143935142Y-118099142D01*
X144006571Y-117956285D01*
X144006571Y-116670571D01*
X143220857Y-118027714D02*
X143149428Y-118099142D01*
X143220857Y-118170571D01*
X143292285Y-118099142D01*
X143220857Y-118027714D01*
X143220857Y-118170571D01*
X141863714Y-118099142D02*
X142006571Y-118170571D01*
X142292285Y-118170571D01*
X142435142Y-118099142D01*
X142506571Y-118027714D01*
X142578000Y-117884857D01*
X142578000Y-117456285D01*
X142506571Y-117313428D01*
X142435142Y-117242000D01*
X142292285Y-117170571D01*
X142006571Y-117170571D01*
X141863714Y-117242000D01*
X141006571Y-118170571D02*
X141149428Y-118099142D01*
X141220857Y-118027714D01*
X141292285Y-117884857D01*
X141292285Y-117456285D01*
X141220857Y-117313428D01*
X141149428Y-117242000D01*
X141006571Y-117170571D01*
X140792285Y-117170571D01*
X140649428Y-117242000D01*
X140578000Y-117313428D01*
X140506571Y-117456285D01*
X140506571Y-117884857D01*
X140578000Y-118027714D01*
X140649428Y-118099142D01*
X140792285Y-118170571D01*
X141006571Y-118170571D01*
X139863714Y-118170571D02*
X139863714Y-117170571D01*
X139863714Y-117313428D02*
X139792285Y-117242000D01*
X139649428Y-117170571D01*
X139435142Y-117170571D01*
X139292285Y-117242000D01*
X139220857Y-117384857D01*
X139220857Y-118170571D01*
X139220857Y-117384857D02*
X139149428Y-117242000D01*
X139006571Y-117170571D01*
X138792285Y-117170571D01*
X138649428Y-117242000D01*
X138578000Y-117384857D01*
X138578000Y-118170571D01*
X137863714Y-117170571D02*
X136720857Y-117599142D01*
X137863714Y-118027714D01*
D11*
%TO.C,G\u002A\u002A\u002A*%
X166528395Y-111389997D02*
X166501563Y-111394680D01*
X166501563Y-111394680D02*
X166354256Y-111425829D01*
X166354256Y-111425829D02*
X166211887Y-111465042D01*
X166211887Y-111465042D02*
X166076897Y-111511241D01*
X166076897Y-111511241D02*
X165951727Y-111563343D01*
X165951727Y-111563343D02*
X165838816Y-111620270D01*
X165838816Y-111620270D02*
X165740605Y-111680941D01*
X165740605Y-111680941D02*
X165659535Y-111744275D01*
X165659535Y-111744275D02*
X165617434Y-111786083D01*
X165617434Y-111786083D02*
X165570521Y-111844734D01*
X165570521Y-111844734D02*
X165540244Y-111899825D01*
X165540244Y-111899825D02*
X165524189Y-111957042D01*
X165524189Y-111957042D02*
X165519903Y-112015770D01*
X165519903Y-112015770D02*
X165520855Y-112057573D01*
X165520855Y-112057573D02*
X165524835Y-112084901D01*
X165524835Y-112084901D02*
X165533526Y-112104413D01*
X165533526Y-112104413D02*
X165546373Y-112120365D01*
X165546373Y-112120365D02*
X165578813Y-112147258D01*
X165578813Y-112147258D02*
X165617459Y-112167784D01*
X165617459Y-112167784D02*
X165653406Y-112177445D01*
X165653406Y-112177445D02*
X165659851Y-112177671D01*
X165659851Y-112177671D02*
X165682751Y-112173234D01*
X165682751Y-112173234D02*
X165710483Y-112163381D01*
X165710483Y-112163381D02*
X165750401Y-112140526D01*
X165750401Y-112140526D02*
X165792117Y-112105167D01*
X165792117Y-112105167D02*
X165838283Y-112054818D01*
X165838283Y-112054818D02*
X165874283Y-112009824D01*
X165874283Y-112009824D02*
X165982078Y-111885468D01*
X165982078Y-111885468D02*
X166107268Y-111769375D01*
X166107268Y-111769375D02*
X166246948Y-111663779D01*
X166246948Y-111663779D02*
X166398213Y-111570913D01*
X166398213Y-111570913D02*
X166531033Y-111504855D01*
X166531033Y-111504855D02*
X166576257Y-111484221D01*
X166576257Y-111484221D02*
X166605340Y-111469262D01*
X166605340Y-111469262D02*
X166621669Y-111457461D01*
X166621669Y-111457461D02*
X166628629Y-111446299D01*
X166628629Y-111446299D02*
X166629607Y-111433259D01*
X166629607Y-111433259D02*
X166629496Y-111431624D01*
X166629496Y-111431624D02*
X166626027Y-111406816D01*
X166626027Y-111406816D02*
X166617723Y-111391271D01*
X166617723Y-111391271D02*
X166601043Y-111383968D01*
X166601043Y-111383968D02*
X166572447Y-111383884D01*
X166572447Y-111383884D02*
X166528395Y-111389997D01*
X166528395Y-111389997D02*
X166528395Y-111389997D01*
G36*
X166601043Y-111383968D02*
G01*
X166617723Y-111391271D01*
X166626027Y-111406816D01*
X166629496Y-111431624D01*
X166629607Y-111433259D01*
X166628629Y-111446299D01*
X166621669Y-111457461D01*
X166605340Y-111469262D01*
X166576257Y-111484221D01*
X166531033Y-111504855D01*
X166398213Y-111570913D01*
X166246948Y-111663779D01*
X166107268Y-111769375D01*
X165982078Y-111885468D01*
X165874283Y-112009824D01*
X165838283Y-112054818D01*
X165792117Y-112105167D01*
X165750401Y-112140526D01*
X165710483Y-112163381D01*
X165682751Y-112173234D01*
X165659851Y-112177671D01*
X165653406Y-112177445D01*
X165617459Y-112167784D01*
X165578813Y-112147258D01*
X165546373Y-112120365D01*
X165533526Y-112104413D01*
X165524835Y-112084901D01*
X165520855Y-112057573D01*
X165519903Y-112015770D01*
X165524189Y-111957042D01*
X165540244Y-111899825D01*
X165570521Y-111844734D01*
X165617434Y-111786083D01*
X165659535Y-111744275D01*
X165740605Y-111680941D01*
X165838816Y-111620270D01*
X165951727Y-111563343D01*
X166076897Y-111511241D01*
X166211887Y-111465042D01*
X166354256Y-111425829D01*
X166501563Y-111394680D01*
X166528395Y-111389997D01*
X166572447Y-111383884D01*
X166601043Y-111383968D01*
G37*
X166601043Y-111383968D02*
X166617723Y-111391271D01*
X166626027Y-111406816D01*
X166629496Y-111431624D01*
X166629607Y-111433259D01*
X166628629Y-111446299D01*
X166621669Y-111457461D01*
X166605340Y-111469262D01*
X166576257Y-111484221D01*
X166531033Y-111504855D01*
X166398213Y-111570913D01*
X166246948Y-111663779D01*
X166107268Y-111769375D01*
X165982078Y-111885468D01*
X165874283Y-112009824D01*
X165838283Y-112054818D01*
X165792117Y-112105167D01*
X165750401Y-112140526D01*
X165710483Y-112163381D01*
X165682751Y-112173234D01*
X165659851Y-112177671D01*
X165653406Y-112177445D01*
X165617459Y-112167784D01*
X165578813Y-112147258D01*
X165546373Y-112120365D01*
X165533526Y-112104413D01*
X165524835Y-112084901D01*
X165520855Y-112057573D01*
X165519903Y-112015770D01*
X165524189Y-111957042D01*
X165540244Y-111899825D01*
X165570521Y-111844734D01*
X165617434Y-111786083D01*
X165659535Y-111744275D01*
X165740605Y-111680941D01*
X165838816Y-111620270D01*
X165951727Y-111563343D01*
X166076897Y-111511241D01*
X166211887Y-111465042D01*
X166354256Y-111425829D01*
X166501563Y-111394680D01*
X166528395Y-111389997D01*
X166572447Y-111383884D01*
X166601043Y-111383968D01*
X176117827Y-112655670D02*
X175966021Y-112746470D01*
X175966021Y-112746470D02*
X175829426Y-112842574D01*
X175829426Y-112842574D02*
X175702091Y-112948540D01*
X175702091Y-112948540D02*
X175578065Y-113068927D01*
X175578065Y-113068927D02*
X175577484Y-113069531D01*
X175577484Y-113069531D02*
X175484916Y-113174260D01*
X175484916Y-113174260D02*
X175412924Y-113274805D01*
X175412924Y-113274805D02*
X175361378Y-113371410D01*
X175361378Y-113371410D02*
X175330150Y-113464322D01*
X175330150Y-113464322D02*
X175319107Y-113553785D01*
X175319107Y-113553785D02*
X175319085Y-113556925D01*
X175319085Y-113556925D02*
X175324232Y-113624309D01*
X175324232Y-113624309D02*
X175339574Y-113677967D01*
X175339574Y-113677967D02*
X175364273Y-113715639D01*
X175364273Y-113715639D02*
X175383174Y-113729597D01*
X175383174Y-113729597D02*
X175426713Y-113742403D01*
X175426713Y-113742403D02*
X175475856Y-113742511D01*
X175475856Y-113742511D02*
X175519662Y-113730001D01*
X175519662Y-113730001D02*
X175522317Y-113728616D01*
X175522317Y-113728616D02*
X175547296Y-113708360D01*
X175547296Y-113708360D02*
X175572803Y-113673561D01*
X175572803Y-113673561D02*
X175599934Y-113622341D01*
X175599934Y-113622341D02*
X175629787Y-113552819D01*
X175629787Y-113552819D02*
X175639749Y-113527301D01*
X175639749Y-113527301D02*
X175707773Y-113372740D01*
X175707773Y-113372740D02*
X175791819Y-113223576D01*
X175791819Y-113223576D02*
X175893999Y-113076196D01*
X175893999Y-113076196D02*
X175932659Y-113026586D01*
X175932659Y-113026586D02*
X175983750Y-112966094D01*
X175983750Y-112966094D02*
X176042124Y-112902467D01*
X176042124Y-112902467D02*
X176103543Y-112839920D01*
X176103543Y-112839920D02*
X176163765Y-112782664D01*
X176163765Y-112782664D02*
X176218550Y-112734912D01*
X176218550Y-112734912D02*
X176253230Y-112708078D01*
X176253230Y-112708078D02*
X176280239Y-112687709D01*
X176280239Y-112687709D02*
X176298494Y-112671917D01*
X176298494Y-112671917D02*
X176303522Y-112665404D01*
X176303522Y-112665404D02*
X176296573Y-112654656D01*
X176296573Y-112654656D02*
X176279002Y-112635224D01*
X176279002Y-112635224D02*
X176268702Y-112624940D01*
X176268702Y-112624940D02*
X176233883Y-112591192D01*
X176233883Y-112591192D02*
X176117827Y-112655670D01*
X176117827Y-112655670D02*
X176117827Y-112655670D01*
G36*
X176268702Y-112624940D02*
G01*
X176279002Y-112635224D01*
X176296573Y-112654656D01*
X176303522Y-112665404D01*
X176298494Y-112671917D01*
X176280239Y-112687709D01*
X176253230Y-112708078D01*
X176218550Y-112734912D01*
X176163765Y-112782664D01*
X176103543Y-112839920D01*
X176042124Y-112902467D01*
X175983750Y-112966094D01*
X175932659Y-113026586D01*
X175893999Y-113076196D01*
X175791819Y-113223576D01*
X175707773Y-113372740D01*
X175639749Y-113527301D01*
X175629787Y-113552819D01*
X175599934Y-113622341D01*
X175572803Y-113673561D01*
X175547296Y-113708360D01*
X175522317Y-113728616D01*
X175519662Y-113730001D01*
X175475856Y-113742511D01*
X175426713Y-113742403D01*
X175383174Y-113729597D01*
X175364273Y-113715639D01*
X175339574Y-113677967D01*
X175324232Y-113624309D01*
X175319085Y-113556925D01*
X175319107Y-113553785D01*
X175330150Y-113464322D01*
X175361378Y-113371410D01*
X175412924Y-113274805D01*
X175484916Y-113174260D01*
X175577484Y-113069531D01*
X175578065Y-113068927D01*
X175702091Y-112948540D01*
X175829426Y-112842574D01*
X175966021Y-112746470D01*
X176117827Y-112655670D01*
X176233883Y-112591192D01*
X176268702Y-112624940D01*
G37*
X176268702Y-112624940D02*
X176279002Y-112635224D01*
X176296573Y-112654656D01*
X176303522Y-112665404D01*
X176298494Y-112671917D01*
X176280239Y-112687709D01*
X176253230Y-112708078D01*
X176218550Y-112734912D01*
X176163765Y-112782664D01*
X176103543Y-112839920D01*
X176042124Y-112902467D01*
X175983750Y-112966094D01*
X175932659Y-113026586D01*
X175893999Y-113076196D01*
X175791819Y-113223576D01*
X175707773Y-113372740D01*
X175639749Y-113527301D01*
X175629787Y-113552819D01*
X175599934Y-113622341D01*
X175572803Y-113673561D01*
X175547296Y-113708360D01*
X175522317Y-113728616D01*
X175519662Y-113730001D01*
X175475856Y-113742511D01*
X175426713Y-113742403D01*
X175383174Y-113729597D01*
X175364273Y-113715639D01*
X175339574Y-113677967D01*
X175324232Y-113624309D01*
X175319085Y-113556925D01*
X175319107Y-113553785D01*
X175330150Y-113464322D01*
X175361378Y-113371410D01*
X175412924Y-113274805D01*
X175484916Y-113174260D01*
X175577484Y-113069531D01*
X175578065Y-113068927D01*
X175702091Y-112948540D01*
X175829426Y-112842574D01*
X175966021Y-112746470D01*
X176117827Y-112655670D01*
X176233883Y-112591192D01*
X176268702Y-112624940D01*
X177067761Y-111091669D02*
X176989091Y-111107303D01*
X176989091Y-111107303D02*
X176912103Y-111131303D01*
X176912103Y-111131303D02*
X176841482Y-111162624D01*
X176841482Y-111162624D02*
X176781914Y-111200220D01*
X176781914Y-111200220D02*
X176760538Y-111218362D01*
X176760538Y-111218362D02*
X176721712Y-111260952D01*
X176721712Y-111260952D02*
X176701088Y-111300918D01*
X176701088Y-111300918D02*
X176698098Y-111342658D01*
X176698098Y-111342658D02*
X176712172Y-111390567D01*
X176712172Y-111390567D02*
X176732897Y-111431969D01*
X176732897Y-111431969D02*
X176770526Y-111499256D01*
X176770526Y-111499256D02*
X176782079Y-111733021D01*
X176782079Y-111733021D02*
X176785251Y-111801015D01*
X176785251Y-111801015D02*
X176787716Y-111861530D01*
X176787716Y-111861530D02*
X176789377Y-111911498D01*
X176789377Y-111911498D02*
X176790140Y-111947851D01*
X176790140Y-111947851D02*
X176789908Y-111967522D01*
X176789908Y-111967522D02*
X176789448Y-111970119D01*
X176789448Y-111970119D02*
X176777729Y-111970588D01*
X176777729Y-111970588D02*
X176748236Y-111969416D01*
X176748236Y-111969416D02*
X176704286Y-111966861D01*
X176704286Y-111966861D02*
X176649196Y-111963183D01*
X176649196Y-111963183D02*
X176586282Y-111958639D01*
X176586282Y-111958639D02*
X176518862Y-111953489D01*
X176518862Y-111953489D02*
X176450251Y-111947990D01*
X176450251Y-111947990D02*
X176383767Y-111942403D01*
X176383767Y-111942403D02*
X176322726Y-111936984D01*
X176322726Y-111936984D02*
X176270445Y-111931994D01*
X176270445Y-111931994D02*
X176230239Y-111927690D01*
X176230239Y-111927690D02*
X176208232Y-111924795D01*
X176208232Y-111924795D02*
X176125351Y-111908495D01*
X176125351Y-111908495D02*
X176060576Y-111888179D01*
X176060576Y-111888179D02*
X176011044Y-111862805D01*
X176011044Y-111862805D02*
X175986622Y-111843974D01*
X175986622Y-111843974D02*
X175962849Y-111824691D01*
X175962849Y-111824691D02*
X175939953Y-111813121D01*
X175939953Y-111813121D02*
X175913460Y-111809023D01*
X175913460Y-111809023D02*
X175878896Y-111812154D01*
X175878896Y-111812154D02*
X175831787Y-111822273D01*
X175831787Y-111822273D02*
X175789304Y-111833288D01*
X175789304Y-111833288D02*
X175698230Y-111861399D01*
X175698230Y-111861399D02*
X175621324Y-111892680D01*
X175621324Y-111892680D02*
X175559499Y-111926204D01*
X175559499Y-111926204D02*
X175513666Y-111961044D01*
X175513666Y-111961044D02*
X175484738Y-111996271D01*
X175484738Y-111996271D02*
X175473627Y-112030960D01*
X175473627Y-112030960D02*
X175481245Y-112064182D01*
X175481245Y-112064182D02*
X175508504Y-112095011D01*
X175508504Y-112095011D02*
X175522309Y-112104720D01*
X175522309Y-112104720D02*
X175538508Y-112113907D01*
X175538508Y-112113907D02*
X175555491Y-112119812D01*
X175555491Y-112119812D02*
X175577720Y-112122855D01*
X175577720Y-112122855D02*
X175609658Y-112123461D01*
X175609658Y-112123461D02*
X175655768Y-112122051D01*
X175655768Y-112122051D02*
X175689432Y-112120539D01*
X175689432Y-112120539D02*
X175757392Y-112116956D01*
X175757392Y-112116956D02*
X175833947Y-112112328D01*
X175833947Y-112112328D02*
X175907847Y-112107358D01*
X175907847Y-112107358D02*
X175948832Y-112104301D01*
X175948832Y-112104301D02*
X175994151Y-112102073D01*
X175994151Y-112102073D02*
X176056708Y-112100905D01*
X176056708Y-112100905D02*
X176132596Y-112100713D01*
X176132596Y-112100713D02*
X176217908Y-112101411D01*
X176217908Y-112101411D02*
X176308738Y-112102915D01*
X176308738Y-112102915D02*
X176401179Y-112105142D01*
X176401179Y-112105142D02*
X176491324Y-112108005D01*
X176491324Y-112108005D02*
X176575267Y-112111422D01*
X176575267Y-112111422D02*
X176649101Y-112115307D01*
X176649101Y-112115307D02*
X176708919Y-112119576D01*
X176708919Y-112119576D02*
X176725255Y-112121088D01*
X176725255Y-112121088D02*
X176792299Y-112127800D01*
X176792299Y-112127800D02*
X176787330Y-112912614D01*
X176787330Y-112912614D02*
X176786295Y-113066205D01*
X176786295Y-113066205D02*
X176785240Y-113200147D01*
X176785240Y-113200147D02*
X176784128Y-113315964D01*
X176784128Y-113315964D02*
X176782922Y-113415182D01*
X176782922Y-113415182D02*
X176781584Y-113499326D01*
X176781584Y-113499326D02*
X176780076Y-113569922D01*
X176780076Y-113569922D02*
X176778360Y-113628495D01*
X176778360Y-113628495D02*
X176776400Y-113676571D01*
X176776400Y-113676571D02*
X176774157Y-113715675D01*
X176774157Y-113715675D02*
X176771594Y-113747333D01*
X176771594Y-113747333D02*
X176768674Y-113773070D01*
X176768674Y-113773070D02*
X176765659Y-113792717D01*
X176765659Y-113792717D02*
X176754007Y-113870830D01*
X176754007Y-113870830D02*
X176749635Y-113934803D01*
X176749635Y-113934803D02*
X176752615Y-113990406D01*
X176752615Y-113990406D02*
X176763023Y-114043411D01*
X176763023Y-114043411D02*
X176769129Y-114064685D01*
X176769129Y-114064685D02*
X176798827Y-114138801D01*
X176798827Y-114138801D02*
X176837415Y-114200480D01*
X176837415Y-114200480D02*
X176882468Y-114246159D01*
X176882468Y-114246159D02*
X176901160Y-114258804D01*
X176901160Y-114258804D02*
X176947432Y-114279899D01*
X176947432Y-114279899D02*
X176985736Y-114282962D01*
X176985736Y-114282962D02*
X177019323Y-114267918D01*
X177019323Y-114267918D02*
X177033188Y-114255801D01*
X177033188Y-114255801D02*
X177052883Y-114229684D01*
X177052883Y-114229684D02*
X177073353Y-114192620D01*
X177073353Y-114192620D02*
X177086047Y-114163158D01*
X177086047Y-114163158D02*
X177106627Y-114116591D01*
X177106627Y-114116591D02*
X177132480Y-114077665D01*
X177132480Y-114077665D02*
X177168157Y-114040805D01*
X177168157Y-114040805D02*
X177218208Y-114000438D01*
X177218208Y-114000438D02*
X177219884Y-113999186D01*
X177219884Y-113999186D02*
X177264681Y-113968337D01*
X177264681Y-113968337D02*
X177323731Y-113931426D01*
X177323731Y-113931426D02*
X177392072Y-113891291D01*
X177392072Y-113891291D02*
X177464740Y-113850767D01*
X177464740Y-113850767D02*
X177536775Y-113812691D01*
X177536775Y-113812691D02*
X177603212Y-113779900D01*
X177603212Y-113779900D02*
X177604820Y-113779144D01*
X177604820Y-113779144D02*
X177646799Y-113759321D01*
X177646799Y-113759321D02*
X177681004Y-113742978D01*
X177681004Y-113742978D02*
X177703310Y-113732096D01*
X177703310Y-113732096D02*
X177709779Y-113728691D01*
X177709779Y-113728691D02*
X177710607Y-113716816D01*
X177710607Y-113716816D02*
X177704569Y-113694780D01*
X177704569Y-113694780D02*
X177694714Y-113670161D01*
X177694714Y-113670161D02*
X177684095Y-113650538D01*
X177684095Y-113650538D02*
X177675761Y-113643493D01*
X177675761Y-113643493D02*
X177675517Y-113643580D01*
X177675517Y-113643580D02*
X177660017Y-113649179D01*
X177660017Y-113649179D02*
X177627967Y-113659982D01*
X177627967Y-113659982D02*
X177583014Y-113674816D01*
X177583014Y-113674816D02*
X177528800Y-113692505D01*
X177528800Y-113692505D02*
X177468970Y-113711879D01*
X177468970Y-113711879D02*
X177407168Y-113731763D01*
X177407168Y-113731763D02*
X177347039Y-113750984D01*
X177347039Y-113750984D02*
X177292226Y-113768369D01*
X177292226Y-113768369D02*
X177246373Y-113782745D01*
X177246373Y-113782745D02*
X177213125Y-113792938D01*
X177213125Y-113792938D02*
X177198186Y-113797257D01*
X177198186Y-113797257D02*
X177157920Y-113804831D01*
X177157920Y-113804831D02*
X177115582Y-113808482D01*
X177115582Y-113808482D02*
X177111081Y-113808539D01*
X177111081Y-113808539D02*
X177088465Y-113807670D01*
X177088465Y-113807670D02*
X177070673Y-113803436D01*
X177070673Y-113803436D02*
X177056985Y-113793505D01*
X177056985Y-113793505D02*
X177046681Y-113775541D01*
X177046681Y-113775541D02*
X177039040Y-113747208D01*
X177039040Y-113747208D02*
X177033341Y-113706173D01*
X177033341Y-113706173D02*
X177028864Y-113650099D01*
X177028864Y-113650099D02*
X177024888Y-113576653D01*
X177024888Y-113576653D02*
X177022342Y-113520990D01*
X177022342Y-113520990D02*
X177020473Y-113467838D01*
X177020473Y-113467838D02*
X177018890Y-113400592D01*
X177018890Y-113400592D02*
X177017586Y-113321389D01*
X177017586Y-113321389D02*
X177016554Y-113232368D01*
X177016554Y-113232368D02*
X177015790Y-113135666D01*
X177015790Y-113135666D02*
X177015286Y-113033421D01*
X177015286Y-113033421D02*
X177015037Y-112927770D01*
X177015037Y-112927770D02*
X177015037Y-112820851D01*
X177015037Y-112820851D02*
X177015278Y-112714803D01*
X177015278Y-112714803D02*
X177015757Y-112611762D01*
X177015757Y-112611762D02*
X177016465Y-112513866D01*
X177016465Y-112513866D02*
X177017398Y-112423254D01*
X177017398Y-112423254D02*
X177018548Y-112342062D01*
X177018548Y-112342062D02*
X177019910Y-112272429D01*
X177019910Y-112272429D02*
X177021479Y-112216493D01*
X177021479Y-112216493D02*
X177023247Y-112176390D01*
X177023247Y-112176390D02*
X177025208Y-112154259D01*
X177025208Y-112154259D02*
X177026256Y-112150605D01*
X177026256Y-112150605D02*
X177039588Y-112148573D01*
X177039588Y-112148573D02*
X177070950Y-112148929D01*
X177070950Y-112148929D02*
X177117364Y-112151385D01*
X177117364Y-112151385D02*
X177175855Y-112155652D01*
X177175855Y-112155652D02*
X177243446Y-112161443D01*
X177243446Y-112161443D02*
X177317161Y-112168469D01*
X177317161Y-112168469D02*
X177394023Y-112176442D01*
X177394023Y-112176442D02*
X177471055Y-112185073D01*
X177471055Y-112185073D02*
X177545282Y-112194075D01*
X177545282Y-112194075D02*
X177613727Y-112203158D01*
X177613727Y-112203158D02*
X177673414Y-112212036D01*
X177673414Y-112212036D02*
X177691754Y-112215053D01*
X177691754Y-112215053D02*
X177747904Y-112227109D01*
X177747904Y-112227109D02*
X177809331Y-112244177D01*
X177809331Y-112244177D02*
X177863236Y-112262679D01*
X177863236Y-112262679D02*
X177865805Y-112263699D01*
X177865805Y-112263699D02*
X177915635Y-112281912D01*
X177915635Y-112281912D02*
X177953833Y-112291158D01*
X177953833Y-112291158D02*
X177987193Y-112292905D01*
X177987193Y-112292905D02*
X177997411Y-112292173D01*
X177997411Y-112292173D02*
X178061659Y-112278014D01*
X178061659Y-112278014D02*
X178125424Y-112249693D01*
X178125424Y-112249693D02*
X178185728Y-112210140D01*
X178185728Y-112210140D02*
X178239597Y-112162286D01*
X178239597Y-112162286D02*
X178284055Y-112109061D01*
X178284055Y-112109061D02*
X178316126Y-112053394D01*
X178316126Y-112053394D02*
X178332836Y-111998217D01*
X178332836Y-111998217D02*
X178333744Y-111960966D01*
X178333744Y-111960966D02*
X178326414Y-111925021D01*
X178326414Y-111925021D02*
X178314709Y-111893631D01*
X178314709Y-111893631D02*
X178310973Y-111887076D01*
X178310973Y-111887076D02*
X178293382Y-111869585D01*
X178293382Y-111869585D02*
X178273194Y-111861015D01*
X178273194Y-111861015D02*
X178257109Y-111862852D01*
X178257109Y-111862852D02*
X178251667Y-111873923D01*
X178251667Y-111873923D02*
X178243723Y-111894504D01*
X178243723Y-111894504D02*
X178223144Y-111921841D01*
X178223144Y-111921841D02*
X178194805Y-111950788D01*
X178194805Y-111950788D02*
X178163586Y-111976195D01*
X178163586Y-111976195D02*
X178142420Y-111989225D01*
X178142420Y-111989225D02*
X178109034Y-112004865D01*
X178109034Y-112004865D02*
X178074375Y-112017769D01*
X178074375Y-112017769D02*
X178036568Y-112027994D01*
X178036568Y-112027994D02*
X177993739Y-112035594D01*
X177993739Y-112035594D02*
X177944011Y-112040628D01*
X177944011Y-112040628D02*
X177885511Y-112043150D01*
X177885511Y-112043150D02*
X177816362Y-112043216D01*
X177816362Y-112043216D02*
X177734690Y-112040884D01*
X177734690Y-112040884D02*
X177638619Y-112036208D01*
X177638619Y-112036208D02*
X177526275Y-112029246D01*
X177526275Y-112029246D02*
X177395782Y-112020052D01*
X177395782Y-112020052D02*
X177314651Y-112013994D01*
X177314651Y-112013994D02*
X177247102Y-112008719D01*
X177247102Y-112008719D02*
X177184315Y-112003528D01*
X177184315Y-112003528D02*
X177130285Y-111998774D01*
X177130285Y-111998774D02*
X177089010Y-111994810D01*
X177089010Y-111994810D02*
X177064485Y-111991988D01*
X177064485Y-111991988D02*
X177063192Y-111991795D01*
X177063192Y-111991795D02*
X177023488Y-111985645D01*
X177023488Y-111985645D02*
X177023715Y-111888639D01*
X177023715Y-111888639D02*
X177024822Y-111823476D01*
X177024822Y-111823476D02*
X177027641Y-111750012D01*
X177027641Y-111750012D02*
X177031832Y-111673136D01*
X177031832Y-111673136D02*
X177037055Y-111597738D01*
X177037055Y-111597738D02*
X177042970Y-111528708D01*
X177042970Y-111528708D02*
X177049237Y-111470934D01*
X177049237Y-111470934D02*
X177055517Y-111429306D01*
X177055517Y-111429306D02*
X177055691Y-111428416D01*
X177055691Y-111428416D02*
X177075196Y-111357935D01*
X177075196Y-111357935D02*
X177103703Y-111305258D01*
X177103703Y-111305258D02*
X177143400Y-111268635D01*
X177143400Y-111268635D02*
X177196472Y-111246319D01*
X177196472Y-111246319D02*
X177265105Y-111236558D01*
X177265105Y-111236558D02*
X177296433Y-111235777D01*
X177296433Y-111235777D02*
X177339467Y-111235532D01*
X177339467Y-111235532D02*
X177365201Y-111234042D01*
X177365201Y-111234042D02*
X177377507Y-111230170D01*
X177377507Y-111230170D02*
X177380260Y-111222781D01*
X177380260Y-111222781D02*
X177377702Y-111211954D01*
X177377702Y-111211954D02*
X177357877Y-111175959D01*
X177357877Y-111175959D02*
X177322928Y-111140529D01*
X177322928Y-111140529D02*
X177278369Y-111110973D01*
X177278369Y-111110973D02*
X177267006Y-111105411D01*
X177267006Y-111105411D02*
X177211403Y-111089678D01*
X177211403Y-111089678D02*
X177143426Y-111085446D01*
X177143426Y-111085446D02*
X177067761Y-111091669D01*
X177067761Y-111091669D02*
X177067761Y-111091669D01*
G36*
X177211403Y-111089678D02*
G01*
X177267006Y-111105411D01*
X177278369Y-111110973D01*
X177322928Y-111140529D01*
X177357877Y-111175959D01*
X177377702Y-111211954D01*
X177380260Y-111222781D01*
X177377507Y-111230170D01*
X177365201Y-111234042D01*
X177339467Y-111235532D01*
X177296433Y-111235777D01*
X177265105Y-111236558D01*
X177196472Y-111246319D01*
X177143400Y-111268635D01*
X177103703Y-111305258D01*
X177075196Y-111357935D01*
X177055691Y-111428416D01*
X177055517Y-111429306D01*
X177049237Y-111470934D01*
X177042970Y-111528708D01*
X177037055Y-111597738D01*
X177031832Y-111673136D01*
X177027641Y-111750012D01*
X177024822Y-111823476D01*
X177023715Y-111888639D01*
X177023488Y-111985645D01*
X177063192Y-111991795D01*
X177064485Y-111991988D01*
X177089010Y-111994810D01*
X177130285Y-111998774D01*
X177184315Y-112003528D01*
X177247102Y-112008719D01*
X177314651Y-112013994D01*
X177395782Y-112020052D01*
X177526275Y-112029246D01*
X177638619Y-112036208D01*
X177734690Y-112040884D01*
X177816362Y-112043216D01*
X177885511Y-112043150D01*
X177944011Y-112040628D01*
X177993739Y-112035594D01*
X178036568Y-112027994D01*
X178074375Y-112017769D01*
X178109034Y-112004865D01*
X178142420Y-111989225D01*
X178163586Y-111976195D01*
X178194805Y-111950788D01*
X178223144Y-111921841D01*
X178243723Y-111894504D01*
X178251667Y-111873923D01*
X178257109Y-111862852D01*
X178273194Y-111861015D01*
X178293382Y-111869585D01*
X178310973Y-111887076D01*
X178314709Y-111893631D01*
X178326414Y-111925021D01*
X178333744Y-111960966D01*
X178332836Y-111998217D01*
X178316126Y-112053394D01*
X178284055Y-112109061D01*
X178239597Y-112162286D01*
X178185728Y-112210140D01*
X178125424Y-112249693D01*
X178061659Y-112278014D01*
X177997411Y-112292173D01*
X177987193Y-112292905D01*
X177953833Y-112291158D01*
X177915635Y-112281912D01*
X177865805Y-112263699D01*
X177863236Y-112262679D01*
X177809331Y-112244177D01*
X177747904Y-112227109D01*
X177691754Y-112215053D01*
X177673414Y-112212036D01*
X177613727Y-112203158D01*
X177545282Y-112194075D01*
X177471055Y-112185073D01*
X177394023Y-112176442D01*
X177317161Y-112168469D01*
X177243446Y-112161443D01*
X177175855Y-112155652D01*
X177117364Y-112151385D01*
X177070950Y-112148929D01*
X177039588Y-112148573D01*
X177026256Y-112150605D01*
X177025208Y-112154259D01*
X177023247Y-112176390D01*
X177021479Y-112216493D01*
X177019910Y-112272429D01*
X177018548Y-112342062D01*
X177017398Y-112423254D01*
X177016465Y-112513866D01*
X177015757Y-112611762D01*
X177015278Y-112714803D01*
X177015037Y-112820851D01*
X177015037Y-112927770D01*
X177015286Y-113033421D01*
X177015790Y-113135666D01*
X177016554Y-113232368D01*
X177017586Y-113321389D01*
X177018890Y-113400592D01*
X177020473Y-113467838D01*
X177022342Y-113520990D01*
X177024888Y-113576653D01*
X177028864Y-113650099D01*
X177033341Y-113706173D01*
X177039040Y-113747208D01*
X177046681Y-113775541D01*
X177056985Y-113793505D01*
X177070673Y-113803436D01*
X177088465Y-113807670D01*
X177111081Y-113808539D01*
X177115582Y-113808482D01*
X177157920Y-113804831D01*
X177198186Y-113797257D01*
X177213125Y-113792938D01*
X177246373Y-113782745D01*
X177292226Y-113768369D01*
X177347039Y-113750984D01*
X177407168Y-113731763D01*
X177468970Y-113711879D01*
X177528800Y-113692505D01*
X177583014Y-113674816D01*
X177627967Y-113659982D01*
X177660017Y-113649179D01*
X177675517Y-113643580D01*
X177675761Y-113643493D01*
X177684095Y-113650538D01*
X177694714Y-113670161D01*
X177704569Y-113694780D01*
X177710607Y-113716816D01*
X177709779Y-113728691D01*
X177703310Y-113732096D01*
X177681004Y-113742978D01*
X177646799Y-113759321D01*
X177604820Y-113779144D01*
X177603212Y-113779900D01*
X177536775Y-113812691D01*
X177464740Y-113850767D01*
X177392072Y-113891291D01*
X177323731Y-113931426D01*
X177264681Y-113968337D01*
X177219884Y-113999186D01*
X177218208Y-114000438D01*
X177168157Y-114040805D01*
X177132480Y-114077665D01*
X177106627Y-114116591D01*
X177086047Y-114163158D01*
X177073353Y-114192620D01*
X177052883Y-114229684D01*
X177033188Y-114255801D01*
X177019323Y-114267918D01*
X176985736Y-114282962D01*
X176947432Y-114279899D01*
X176901160Y-114258804D01*
X176882468Y-114246159D01*
X176837415Y-114200480D01*
X176798827Y-114138801D01*
X176769129Y-114064685D01*
X176763023Y-114043411D01*
X176752615Y-113990406D01*
X176749635Y-113934803D01*
X176754007Y-113870830D01*
X176765659Y-113792717D01*
X176768674Y-113773070D01*
X176771594Y-113747333D01*
X176774157Y-113715675D01*
X176776400Y-113676571D01*
X176778360Y-113628495D01*
X176780076Y-113569922D01*
X176781584Y-113499326D01*
X176782922Y-113415182D01*
X176784128Y-113315964D01*
X176785240Y-113200147D01*
X176786295Y-113066205D01*
X176787330Y-112912614D01*
X176792299Y-112127800D01*
X176725255Y-112121088D01*
X176708919Y-112119576D01*
X176649101Y-112115307D01*
X176575267Y-112111422D01*
X176491324Y-112108005D01*
X176401179Y-112105142D01*
X176308738Y-112102915D01*
X176217908Y-112101411D01*
X176132596Y-112100713D01*
X176056708Y-112100905D01*
X175994151Y-112102073D01*
X175948832Y-112104301D01*
X175907847Y-112107358D01*
X175833947Y-112112328D01*
X175757392Y-112116956D01*
X175689432Y-112120539D01*
X175655768Y-112122051D01*
X175609658Y-112123461D01*
X175577720Y-112122855D01*
X175555491Y-112119812D01*
X175538508Y-112113907D01*
X175522309Y-112104720D01*
X175508504Y-112095011D01*
X175481245Y-112064182D01*
X175473627Y-112030960D01*
X175484738Y-111996271D01*
X175513666Y-111961044D01*
X175559499Y-111926204D01*
X175621324Y-111892680D01*
X175698230Y-111861399D01*
X175789304Y-111833288D01*
X175831787Y-111822273D01*
X175878896Y-111812154D01*
X175913460Y-111809023D01*
X175939953Y-111813121D01*
X175962849Y-111824691D01*
X175986622Y-111843974D01*
X176011044Y-111862805D01*
X176060576Y-111888179D01*
X176125351Y-111908495D01*
X176208232Y-111924795D01*
X176230239Y-111927690D01*
X176270445Y-111931994D01*
X176322726Y-111936984D01*
X176383767Y-111942403D01*
X176450251Y-111947990D01*
X176518862Y-111953489D01*
X176586282Y-111958639D01*
X176649196Y-111963183D01*
X176704286Y-111966861D01*
X176748236Y-111969416D01*
X176777729Y-111970588D01*
X176789448Y-111970119D01*
X176789908Y-111967522D01*
X176790140Y-111947851D01*
X176789377Y-111911498D01*
X176787716Y-111861530D01*
X176785251Y-111801015D01*
X176782079Y-111733021D01*
X176770526Y-111499256D01*
X176732897Y-111431969D01*
X176712172Y-111390567D01*
X176698098Y-111342658D01*
X176701088Y-111300918D01*
X176721712Y-111260952D01*
X176760538Y-111218362D01*
X176781914Y-111200220D01*
X176841482Y-111162624D01*
X176912103Y-111131303D01*
X176989091Y-111107303D01*
X177067761Y-111091669D01*
X177143426Y-111085446D01*
X177211403Y-111089678D01*
G37*
X177211403Y-111089678D02*
X177267006Y-111105411D01*
X177278369Y-111110973D01*
X177322928Y-111140529D01*
X177357877Y-111175959D01*
X177377702Y-111211954D01*
X177380260Y-111222781D01*
X177377507Y-111230170D01*
X177365201Y-111234042D01*
X177339467Y-111235532D01*
X177296433Y-111235777D01*
X177265105Y-111236558D01*
X177196472Y-111246319D01*
X177143400Y-111268635D01*
X177103703Y-111305258D01*
X177075196Y-111357935D01*
X177055691Y-111428416D01*
X177055517Y-111429306D01*
X177049237Y-111470934D01*
X177042970Y-111528708D01*
X177037055Y-111597738D01*
X177031832Y-111673136D01*
X177027641Y-111750012D01*
X177024822Y-111823476D01*
X177023715Y-111888639D01*
X177023488Y-111985645D01*
X177063192Y-111991795D01*
X177064485Y-111991988D01*
X177089010Y-111994810D01*
X177130285Y-111998774D01*
X177184315Y-112003528D01*
X177247102Y-112008719D01*
X177314651Y-112013994D01*
X177395782Y-112020052D01*
X177526275Y-112029246D01*
X177638619Y-112036208D01*
X177734690Y-112040884D01*
X177816362Y-112043216D01*
X177885511Y-112043150D01*
X177944011Y-112040628D01*
X177993739Y-112035594D01*
X178036568Y-112027994D01*
X178074375Y-112017769D01*
X178109034Y-112004865D01*
X178142420Y-111989225D01*
X178163586Y-111976195D01*
X178194805Y-111950788D01*
X178223144Y-111921841D01*
X178243723Y-111894504D01*
X178251667Y-111873923D01*
X178257109Y-111862852D01*
X178273194Y-111861015D01*
X178293382Y-111869585D01*
X178310973Y-111887076D01*
X178314709Y-111893631D01*
X178326414Y-111925021D01*
X178333744Y-111960966D01*
X178332836Y-111998217D01*
X178316126Y-112053394D01*
X178284055Y-112109061D01*
X178239597Y-112162286D01*
X178185728Y-112210140D01*
X178125424Y-112249693D01*
X178061659Y-112278014D01*
X177997411Y-112292173D01*
X177987193Y-112292905D01*
X177953833Y-112291158D01*
X177915635Y-112281912D01*
X177865805Y-112263699D01*
X177863236Y-112262679D01*
X177809331Y-112244177D01*
X177747904Y-112227109D01*
X177691754Y-112215053D01*
X177673414Y-112212036D01*
X177613727Y-112203158D01*
X177545282Y-112194075D01*
X177471055Y-112185073D01*
X177394023Y-112176442D01*
X177317161Y-112168469D01*
X177243446Y-112161443D01*
X177175855Y-112155652D01*
X177117364Y-112151385D01*
X177070950Y-112148929D01*
X177039588Y-112148573D01*
X177026256Y-112150605D01*
X177025208Y-112154259D01*
X177023247Y-112176390D01*
X177021479Y-112216493D01*
X177019910Y-112272429D01*
X177018548Y-112342062D01*
X177017398Y-112423254D01*
X177016465Y-112513866D01*
X177015757Y-112611762D01*
X177015278Y-112714803D01*
X177015037Y-112820851D01*
X177015037Y-112927770D01*
X177015286Y-113033421D01*
X177015790Y-113135666D01*
X177016554Y-113232368D01*
X177017586Y-113321389D01*
X177018890Y-113400592D01*
X177020473Y-113467838D01*
X177022342Y-113520990D01*
X177024888Y-113576653D01*
X177028864Y-113650099D01*
X177033341Y-113706173D01*
X177039040Y-113747208D01*
X177046681Y-113775541D01*
X177056985Y-113793505D01*
X177070673Y-113803436D01*
X177088465Y-113807670D01*
X177111081Y-113808539D01*
X177115582Y-113808482D01*
X177157920Y-113804831D01*
X177198186Y-113797257D01*
X177213125Y-113792938D01*
X177246373Y-113782745D01*
X177292226Y-113768369D01*
X177347039Y-113750984D01*
X177407168Y-113731763D01*
X177468970Y-113711879D01*
X177528800Y-113692505D01*
X177583014Y-113674816D01*
X177627967Y-113659982D01*
X177660017Y-113649179D01*
X177675517Y-113643580D01*
X177675761Y-113643493D01*
X177684095Y-113650538D01*
X177694714Y-113670161D01*
X177704569Y-113694780D01*
X177710607Y-113716816D01*
X177709779Y-113728691D01*
X177703310Y-113732096D01*
X177681004Y-113742978D01*
X177646799Y-113759321D01*
X177604820Y-113779144D01*
X177603212Y-113779900D01*
X177536775Y-113812691D01*
X177464740Y-113850767D01*
X177392072Y-113891291D01*
X177323731Y-113931426D01*
X177264681Y-113968337D01*
X177219884Y-113999186D01*
X177218208Y-114000438D01*
X177168157Y-114040805D01*
X177132480Y-114077665D01*
X177106627Y-114116591D01*
X177086047Y-114163158D01*
X177073353Y-114192620D01*
X177052883Y-114229684D01*
X177033188Y-114255801D01*
X177019323Y-114267918D01*
X176985736Y-114282962D01*
X176947432Y-114279899D01*
X176901160Y-114258804D01*
X176882468Y-114246159D01*
X176837415Y-114200480D01*
X176798827Y-114138801D01*
X176769129Y-114064685D01*
X176763023Y-114043411D01*
X176752615Y-113990406D01*
X176749635Y-113934803D01*
X176754007Y-113870830D01*
X176765659Y-113792717D01*
X176768674Y-113773070D01*
X176771594Y-113747333D01*
X176774157Y-113715675D01*
X176776400Y-113676571D01*
X176778360Y-113628495D01*
X176780076Y-113569922D01*
X176781584Y-113499326D01*
X176782922Y-113415182D01*
X176784128Y-113315964D01*
X176785240Y-113200147D01*
X176786295Y-113066205D01*
X176787330Y-112912614D01*
X176792299Y-112127800D01*
X176725255Y-112121088D01*
X176708919Y-112119576D01*
X176649101Y-112115307D01*
X176575267Y-112111422D01*
X176491324Y-112108005D01*
X176401179Y-112105142D01*
X176308738Y-112102915D01*
X176217908Y-112101411D01*
X176132596Y-112100713D01*
X176056708Y-112100905D01*
X175994151Y-112102073D01*
X175948832Y-112104301D01*
X175907847Y-112107358D01*
X175833947Y-112112328D01*
X175757392Y-112116956D01*
X175689432Y-112120539D01*
X175655768Y-112122051D01*
X175609658Y-112123461D01*
X175577720Y-112122855D01*
X175555491Y-112119812D01*
X175538508Y-112113907D01*
X175522309Y-112104720D01*
X175508504Y-112095011D01*
X175481245Y-112064182D01*
X175473627Y-112030960D01*
X175484738Y-111996271D01*
X175513666Y-111961044D01*
X175559499Y-111926204D01*
X175621324Y-111892680D01*
X175698230Y-111861399D01*
X175789304Y-111833288D01*
X175831787Y-111822273D01*
X175878896Y-111812154D01*
X175913460Y-111809023D01*
X175939953Y-111813121D01*
X175962849Y-111824691D01*
X175986622Y-111843974D01*
X176011044Y-111862805D01*
X176060576Y-111888179D01*
X176125351Y-111908495D01*
X176208232Y-111924795D01*
X176230239Y-111927690D01*
X176270445Y-111931994D01*
X176322726Y-111936984D01*
X176383767Y-111942403D01*
X176450251Y-111947990D01*
X176518862Y-111953489D01*
X176586282Y-111958639D01*
X176649196Y-111963183D01*
X176704286Y-111966861D01*
X176748236Y-111969416D01*
X176777729Y-111970588D01*
X176789448Y-111970119D01*
X176789908Y-111967522D01*
X176790140Y-111947851D01*
X176789377Y-111911498D01*
X176787716Y-111861530D01*
X176785251Y-111801015D01*
X176782079Y-111733021D01*
X176770526Y-111499256D01*
X176732897Y-111431969D01*
X176712172Y-111390567D01*
X176698098Y-111342658D01*
X176701088Y-111300918D01*
X176721712Y-111260952D01*
X176760538Y-111218362D01*
X176781914Y-111200220D01*
X176841482Y-111162624D01*
X176912103Y-111131303D01*
X176989091Y-111107303D01*
X177067761Y-111091669D01*
X177143426Y-111085446D01*
X177211403Y-111089678D01*
X170398461Y-111519860D02*
X170385667Y-111541169D01*
X170385667Y-111541169D02*
X170385139Y-111542417D01*
X170385139Y-111542417D02*
X170366319Y-111572355D01*
X170366319Y-111572355D02*
X170334629Y-111607742D01*
X170334629Y-111607742D02*
X170295541Y-111643443D01*
X170295541Y-111643443D02*
X170254525Y-111674321D01*
X170254525Y-111674321D02*
X170227645Y-111690290D01*
X170227645Y-111690290D02*
X170196011Y-111705548D01*
X170196011Y-111705548D02*
X170165417Y-111717783D01*
X170165417Y-111717783D02*
X170133184Y-111727263D01*
X170133184Y-111727263D02*
X170096634Y-111734254D01*
X170096634Y-111734254D02*
X170053090Y-111739024D01*
X170053090Y-111739024D02*
X169999873Y-111741841D01*
X169999873Y-111741841D02*
X169934305Y-111742972D01*
X169934305Y-111742972D02*
X169853709Y-111742683D01*
X169853709Y-111742683D02*
X169755407Y-111741244D01*
X169755407Y-111741244D02*
X169723238Y-111740649D01*
X169723238Y-111740649D02*
X169499407Y-111734761D01*
X169499407Y-111734761D02*
X169261172Y-111725477D01*
X169261172Y-111725477D02*
X169014975Y-111713119D01*
X169014975Y-111713119D02*
X168767259Y-111698009D01*
X168767259Y-111698009D02*
X168531264Y-111681002D01*
X168531264Y-111681002D02*
X168444485Y-111673954D01*
X168444485Y-111673954D02*
X168375769Y-111667401D01*
X168375769Y-111667401D02*
X168322038Y-111660591D01*
X168322038Y-111660591D02*
X168280216Y-111652769D01*
X168280216Y-111652769D02*
X168247227Y-111643185D01*
X168247227Y-111643185D02*
X168219995Y-111631085D01*
X168219995Y-111631085D02*
X168195441Y-111615716D01*
X168195441Y-111615716D02*
X168170491Y-111596327D01*
X168170491Y-111596327D02*
X168164432Y-111591270D01*
X168164432Y-111591270D02*
X168125817Y-111562934D01*
X168125817Y-111562934D02*
X168092517Y-111550692D01*
X168092517Y-111550692D02*
X168057401Y-111553508D01*
X168057401Y-111553508D02*
X168015063Y-111569553D01*
X168015063Y-111569553D02*
X167962534Y-111597466D01*
X167962534Y-111597466D02*
X167909447Y-111632414D01*
X167909447Y-111632414D02*
X167859032Y-111671489D01*
X167859032Y-111671489D02*
X167814519Y-111711788D01*
X167814519Y-111711788D02*
X167779136Y-111750404D01*
X167779136Y-111750404D02*
X167756112Y-111784433D01*
X167756112Y-111784433D02*
X167748624Y-111809259D01*
X167748624Y-111809259D02*
X167758761Y-111844226D01*
X167758761Y-111844226D02*
X167787401Y-111875384D01*
X167787401Y-111875384D02*
X167826528Y-111897565D01*
X167826528Y-111897565D02*
X167865389Y-111920198D01*
X167865389Y-111920198D02*
X167890766Y-111952476D01*
X167890766Y-111952476D02*
X167906670Y-111998094D01*
X167906670Y-111998094D02*
X167910049Y-112018591D01*
X167910049Y-112018591D02*
X167915053Y-112057738D01*
X167915053Y-112057738D02*
X167921422Y-112113095D01*
X167921422Y-112113095D02*
X167928894Y-112182219D01*
X167928894Y-112182219D02*
X167937211Y-112262670D01*
X167937211Y-112262670D02*
X167946113Y-112352008D01*
X167946113Y-112352008D02*
X167955338Y-112447790D01*
X167955338Y-112447790D02*
X167960825Y-112506306D01*
X167960825Y-112506306D02*
X167974416Y-112651873D01*
X167974416Y-112651873D02*
X167986436Y-112778554D01*
X167986436Y-112778554D02*
X167997119Y-112888562D01*
X167997119Y-112888562D02*
X168006702Y-112984107D01*
X168006702Y-112984107D02*
X168015418Y-113067404D01*
X168015418Y-113067404D02*
X168023504Y-113140663D01*
X168023504Y-113140663D02*
X168031194Y-113206097D01*
X168031194Y-113206097D02*
X168038723Y-113265919D01*
X168038723Y-113265919D02*
X168046327Y-113322340D01*
X168046327Y-113322340D02*
X168051236Y-113356962D01*
X168051236Y-113356962D02*
X168057630Y-113403544D01*
X168057630Y-113403544D02*
X168062231Y-113441621D01*
X168062231Y-113441621D02*
X168064551Y-113466811D01*
X168064551Y-113466811D02*
X168064385Y-113474800D01*
X168064385Y-113474800D02*
X168053838Y-113480797D01*
X168053838Y-113480797D02*
X168029955Y-113493271D01*
X168029955Y-113493271D02*
X168004421Y-113506236D01*
X168004421Y-113506236D02*
X167948585Y-113539817D01*
X167948585Y-113539817D02*
X167900173Y-113579438D01*
X167900173Y-113579438D02*
X167863432Y-113621039D01*
X167863432Y-113621039D02*
X167842610Y-113660555D01*
X167842610Y-113660555D02*
X167842410Y-113661212D01*
X167842410Y-113661212D02*
X167836826Y-113701160D01*
X167836826Y-113701160D02*
X167848158Y-113731025D01*
X167848158Y-113731025D02*
X167877618Y-113752397D01*
X167877618Y-113752397D02*
X167922349Y-113766046D01*
X167922349Y-113766046D02*
X167947347Y-113770729D01*
X167947347Y-113770729D02*
X167970104Y-113773113D01*
X167970104Y-113773113D02*
X167994723Y-113772815D01*
X167994723Y-113772815D02*
X168025310Y-113769452D01*
X168025310Y-113769452D02*
X168065967Y-113762642D01*
X168065967Y-113762642D02*
X168120800Y-113752003D01*
X168120800Y-113752003D02*
X168161546Y-113743757D01*
X168161546Y-113743757D02*
X168244214Y-113730949D01*
X168244214Y-113730949D02*
X168345984Y-113722071D01*
X168345984Y-113722071D02*
X168465154Y-113717113D01*
X168465154Y-113717113D02*
X168600020Y-113716064D01*
X168600020Y-113716064D02*
X168748880Y-113718911D01*
X168748880Y-113718911D02*
X168910030Y-113725643D01*
X168910030Y-113725643D02*
X169081768Y-113736249D01*
X169081768Y-113736249D02*
X169262390Y-113750717D01*
X169262390Y-113750717D02*
X169267965Y-113751214D01*
X169267965Y-113751214D02*
X169445762Y-113768521D01*
X169445762Y-113768521D02*
X169602601Y-113786780D01*
X169602601Y-113786780D02*
X169738449Y-113805986D01*
X169738449Y-113805986D02*
X169853270Y-113826132D01*
X169853270Y-113826132D02*
X169947028Y-113847213D01*
X169947028Y-113847213D02*
X170019687Y-113869222D01*
X170019687Y-113869222D02*
X170054133Y-113883335D01*
X170054133Y-113883335D02*
X170126210Y-113908634D01*
X170126210Y-113908634D02*
X170194136Y-113913970D01*
X170194136Y-113913970D02*
X170260613Y-113899415D01*
X170260613Y-113899415D02*
X170284389Y-113889471D01*
X170284389Y-113889471D02*
X170345233Y-113852793D01*
X170345233Y-113852793D02*
X170404820Y-113802272D01*
X170404820Y-113802272D02*
X170459021Y-113742719D01*
X170459021Y-113742719D02*
X170503707Y-113678949D01*
X170503707Y-113678949D02*
X170534750Y-113615773D01*
X170534750Y-113615773D02*
X170543510Y-113587415D01*
X170543510Y-113587415D02*
X170550216Y-113550405D01*
X170550216Y-113550405D02*
X170549238Y-113518241D01*
X170549238Y-113518241D02*
X170540134Y-113479176D01*
X170540134Y-113479176D02*
X170539322Y-113476363D01*
X170539322Y-113476363D02*
X170525393Y-113439624D01*
X170525393Y-113439624D02*
X170506515Y-113403844D01*
X170506515Y-113403844D02*
X170486130Y-113374322D01*
X170486130Y-113374322D02*
X170467682Y-113356360D01*
X170467682Y-113356360D02*
X170459388Y-113353326D01*
X170459388Y-113353326D02*
X170450711Y-113362086D01*
X170450711Y-113362086D02*
X170436509Y-113384897D01*
X170436509Y-113384897D02*
X170422085Y-113412392D01*
X170422085Y-113412392D02*
X170379752Y-113481462D01*
X170379752Y-113481462D02*
X170327455Y-113533737D01*
X170327455Y-113533737D02*
X170262648Y-113571051D01*
X170262648Y-113571051D02*
X170182786Y-113595237D01*
X170182786Y-113595237D02*
X170163025Y-113598965D01*
X170163025Y-113598965D02*
X170147047Y-113601217D01*
X170147047Y-113601217D02*
X170127732Y-113602859D01*
X170127732Y-113602859D02*
X170103620Y-113603834D01*
X170103620Y-113603834D02*
X170073250Y-113604081D01*
X170073250Y-113604081D02*
X170035163Y-113603542D01*
X170035163Y-113603542D02*
X169987897Y-113602159D01*
X169987897Y-113602159D02*
X169929994Y-113599872D01*
X169929994Y-113599872D02*
X169859992Y-113596622D01*
X169859992Y-113596622D02*
X169776431Y-113592352D01*
X169776431Y-113592352D02*
X169677851Y-113587001D01*
X169677851Y-113587001D02*
X169562792Y-113580512D01*
X169562792Y-113580512D02*
X169429794Y-113572826D01*
X169429794Y-113572826D02*
X169277396Y-113563882D01*
X169277396Y-113563882D02*
X169246537Y-113562061D01*
X169246537Y-113562061D02*
X169077066Y-113551940D01*
X169077066Y-113551940D02*
X168927934Y-113542796D01*
X168927934Y-113542796D02*
X168798330Y-113534570D01*
X168798330Y-113534570D02*
X168687444Y-113527202D01*
X168687444Y-113527202D02*
X168594464Y-113520632D01*
X168594464Y-113520632D02*
X168518579Y-113514800D01*
X168518579Y-113514800D02*
X168458979Y-113509646D01*
X168458979Y-113509646D02*
X168414852Y-113505111D01*
X168414852Y-113505111D02*
X168385387Y-113501134D01*
X168385387Y-113501134D02*
X168369774Y-113497656D01*
X168369774Y-113497656D02*
X168368951Y-113497337D01*
X168368951Y-113497337D02*
X168339708Y-113478497D01*
X168339708Y-113478497D02*
X168327014Y-113452244D01*
X168327014Y-113452244D02*
X168321801Y-113419076D01*
X168321801Y-113419076D02*
X168315521Y-113367071D01*
X168315521Y-113367071D02*
X168308356Y-113298528D01*
X168308356Y-113298528D02*
X168300485Y-113215748D01*
X168300485Y-113215748D02*
X168292088Y-113121031D01*
X168292088Y-113121031D02*
X168283347Y-113016680D01*
X168283347Y-113016680D02*
X168274440Y-112904993D01*
X168274440Y-112904993D02*
X168265550Y-112788272D01*
X168265550Y-112788272D02*
X168256856Y-112668817D01*
X168256856Y-112668817D02*
X168248538Y-112548929D01*
X168248538Y-112548929D02*
X168240777Y-112430909D01*
X168240777Y-112430909D02*
X168233753Y-112317057D01*
X168233753Y-112317057D02*
X168227647Y-112209674D01*
X168227647Y-112209674D02*
X168223870Y-112136648D01*
X168223870Y-112136648D02*
X168211163Y-111878161D01*
X168211163Y-111878161D02*
X168236190Y-111857895D01*
X168236190Y-111857895D02*
X168250740Y-111848234D01*
X168250740Y-111848234D02*
X168268244Y-111842846D01*
X168268244Y-111842846D02*
X168293935Y-111841127D01*
X168293935Y-111841127D02*
X168333048Y-111842474D01*
X168333048Y-111842474D02*
X168356962Y-111843954D01*
X168356962Y-111843954D02*
X168579318Y-111858929D01*
X168579318Y-111858929D02*
X168781515Y-111873175D01*
X168781515Y-111873175D02*
X168964556Y-111886799D01*
X168964556Y-111886799D02*
X169129440Y-111899908D01*
X169129440Y-111899908D02*
X169277170Y-111912606D01*
X169277170Y-111912606D02*
X169408746Y-111925000D01*
X169408746Y-111925000D02*
X169525169Y-111937196D01*
X169525169Y-111937196D02*
X169627441Y-111949300D01*
X169627441Y-111949300D02*
X169716563Y-111961418D01*
X169716563Y-111961418D02*
X169793534Y-111973657D01*
X169793534Y-111973657D02*
X169859358Y-111986121D01*
X169859358Y-111986121D02*
X169915034Y-111998918D01*
X169915034Y-111998918D02*
X169961564Y-112012153D01*
X169961564Y-112012153D02*
X169969561Y-112014762D01*
X169969561Y-112014762D02*
X170017386Y-112029827D01*
X170017386Y-112029827D02*
X170060611Y-112041834D01*
X170060611Y-112041834D02*
X170093585Y-112049301D01*
X170093585Y-112049301D02*
X170107770Y-112051033D01*
X170107770Y-112051033D02*
X170152530Y-112042068D01*
X170152530Y-112042068D02*
X170203597Y-112017287D01*
X170203597Y-112017287D02*
X170257907Y-111979865D01*
X170257907Y-111979865D02*
X170312393Y-111932974D01*
X170312393Y-111932974D02*
X170363991Y-111879786D01*
X170363991Y-111879786D02*
X170409635Y-111823476D01*
X170409635Y-111823476D02*
X170446259Y-111767215D01*
X170446259Y-111767215D02*
X170470797Y-111714177D01*
X170470797Y-111714177D02*
X170480186Y-111667535D01*
X170480186Y-111667535D02*
X170480203Y-111665536D01*
X170480203Y-111665536D02*
X170475772Y-111620013D01*
X170475772Y-111620013D02*
X170464102Y-111576948D01*
X170464102Y-111576948D02*
X170447379Y-111541231D01*
X170447379Y-111541231D02*
X170427792Y-111517751D01*
X170427792Y-111517751D02*
X170411085Y-111511058D01*
X170411085Y-111511058D02*
X170398461Y-111519860D01*
X170398461Y-111519860D02*
X170398461Y-111519860D01*
G36*
X170427792Y-111517751D02*
G01*
X170447379Y-111541231D01*
X170464102Y-111576948D01*
X170475772Y-111620013D01*
X170480203Y-111665536D01*
X170480186Y-111667535D01*
X170470797Y-111714177D01*
X170446259Y-111767215D01*
X170409635Y-111823476D01*
X170363991Y-111879786D01*
X170312393Y-111932974D01*
X170257907Y-111979865D01*
X170203597Y-112017287D01*
X170152530Y-112042068D01*
X170107770Y-112051033D01*
X170093585Y-112049301D01*
X170060611Y-112041834D01*
X170017386Y-112029827D01*
X169969561Y-112014762D01*
X169961564Y-112012153D01*
X169915034Y-111998918D01*
X169859358Y-111986121D01*
X169793534Y-111973657D01*
X169716563Y-111961418D01*
X169627441Y-111949300D01*
X169525169Y-111937196D01*
X169408746Y-111925000D01*
X169277170Y-111912606D01*
X169129440Y-111899908D01*
X168964556Y-111886799D01*
X168781515Y-111873175D01*
X168579318Y-111858929D01*
X168356962Y-111843954D01*
X168333048Y-111842474D01*
X168293935Y-111841127D01*
X168268244Y-111842846D01*
X168250740Y-111848234D01*
X168236190Y-111857895D01*
X168211163Y-111878161D01*
X168223870Y-112136648D01*
X168227647Y-112209674D01*
X168233753Y-112317057D01*
X168240777Y-112430909D01*
X168248538Y-112548929D01*
X168256856Y-112668817D01*
X168265550Y-112788272D01*
X168274440Y-112904993D01*
X168283347Y-113016680D01*
X168292088Y-113121031D01*
X168300485Y-113215748D01*
X168308356Y-113298528D01*
X168315521Y-113367071D01*
X168321801Y-113419076D01*
X168327014Y-113452244D01*
X168339708Y-113478497D01*
X168368951Y-113497337D01*
X168369774Y-113497656D01*
X168385387Y-113501134D01*
X168414852Y-113505111D01*
X168458979Y-113509646D01*
X168518579Y-113514800D01*
X168594464Y-113520632D01*
X168687444Y-113527202D01*
X168798330Y-113534570D01*
X168927934Y-113542796D01*
X169077066Y-113551940D01*
X169246537Y-113562061D01*
X169277396Y-113563882D01*
X169429794Y-113572826D01*
X169562792Y-113580512D01*
X169677851Y-113587001D01*
X169776431Y-113592352D01*
X169859992Y-113596622D01*
X169929994Y-113599872D01*
X169987897Y-113602159D01*
X170035163Y-113603542D01*
X170073250Y-113604081D01*
X170103620Y-113603834D01*
X170127732Y-113602859D01*
X170147047Y-113601217D01*
X170163025Y-113598965D01*
X170182786Y-113595237D01*
X170262648Y-113571051D01*
X170327455Y-113533737D01*
X170379752Y-113481462D01*
X170422085Y-113412392D01*
X170436509Y-113384897D01*
X170450711Y-113362086D01*
X170459388Y-113353326D01*
X170467682Y-113356360D01*
X170486130Y-113374322D01*
X170506515Y-113403844D01*
X170525393Y-113439624D01*
X170539322Y-113476363D01*
X170540134Y-113479176D01*
X170549238Y-113518241D01*
X170550216Y-113550405D01*
X170543510Y-113587415D01*
X170534750Y-113615773D01*
X170503707Y-113678949D01*
X170459021Y-113742719D01*
X170404820Y-113802272D01*
X170345233Y-113852793D01*
X170284389Y-113889471D01*
X170260613Y-113899415D01*
X170194136Y-113913970D01*
X170126210Y-113908634D01*
X170054133Y-113883335D01*
X170019687Y-113869222D01*
X169947028Y-113847213D01*
X169853270Y-113826132D01*
X169738449Y-113805986D01*
X169602601Y-113786780D01*
X169445762Y-113768521D01*
X169267965Y-113751214D01*
X169262390Y-113750717D01*
X169081768Y-113736249D01*
X168910030Y-113725643D01*
X168748880Y-113718911D01*
X168600020Y-113716064D01*
X168465154Y-113717113D01*
X168345984Y-113722071D01*
X168244214Y-113730949D01*
X168161546Y-113743757D01*
X168120800Y-113752003D01*
X168065967Y-113762642D01*
X168025310Y-113769452D01*
X167994723Y-113772815D01*
X167970104Y-113773113D01*
X167947347Y-113770729D01*
X167922349Y-113766046D01*
X167877618Y-113752397D01*
X167848158Y-113731025D01*
X167836826Y-113701160D01*
X167842410Y-113661212D01*
X167842610Y-113660555D01*
X167863432Y-113621039D01*
X167900173Y-113579438D01*
X167948585Y-113539817D01*
X168004421Y-113506236D01*
X168029955Y-113493271D01*
X168053838Y-113480797D01*
X168064385Y-113474800D01*
X168064551Y-113466811D01*
X168062231Y-113441621D01*
X168057630Y-113403544D01*
X168051236Y-113356962D01*
X168046327Y-113322340D01*
X168038723Y-113265919D01*
X168031194Y-113206097D01*
X168023504Y-113140663D01*
X168015418Y-113067404D01*
X168006702Y-112984107D01*
X167997119Y-112888562D01*
X167986436Y-112778554D01*
X167974416Y-112651873D01*
X167960825Y-112506306D01*
X167955338Y-112447790D01*
X167946113Y-112352008D01*
X167937211Y-112262670D01*
X167928894Y-112182219D01*
X167921422Y-112113095D01*
X167915053Y-112057738D01*
X167910049Y-112018591D01*
X167906670Y-111998094D01*
X167890766Y-111952476D01*
X167865389Y-111920198D01*
X167826528Y-111897565D01*
X167787401Y-111875384D01*
X167758761Y-111844226D01*
X167748624Y-111809259D01*
X167756112Y-111784433D01*
X167779136Y-111750404D01*
X167814519Y-111711788D01*
X167859032Y-111671489D01*
X167909447Y-111632414D01*
X167962534Y-111597466D01*
X168015063Y-111569553D01*
X168057401Y-111553508D01*
X168092517Y-111550692D01*
X168125817Y-111562934D01*
X168164432Y-111591270D01*
X168170491Y-111596327D01*
X168195441Y-111615716D01*
X168219995Y-111631085D01*
X168247227Y-111643185D01*
X168280216Y-111652769D01*
X168322038Y-111660591D01*
X168375769Y-111667401D01*
X168444485Y-111673954D01*
X168531264Y-111681002D01*
X168767259Y-111698009D01*
X169014975Y-111713119D01*
X169261172Y-111725477D01*
X169499407Y-111734761D01*
X169723238Y-111740649D01*
X169755407Y-111741244D01*
X169853709Y-111742683D01*
X169934305Y-111742972D01*
X169999873Y-111741841D01*
X170053090Y-111739024D01*
X170096634Y-111734254D01*
X170133184Y-111727263D01*
X170165417Y-111717783D01*
X170196011Y-111705548D01*
X170227645Y-111690290D01*
X170254525Y-111674321D01*
X170295541Y-111643443D01*
X170334629Y-111607742D01*
X170366319Y-111572355D01*
X170385139Y-111542417D01*
X170385667Y-111541169D01*
X170398461Y-111519860D01*
X170411085Y-111511058D01*
X170427792Y-111517751D01*
G37*
X170427792Y-111517751D02*
X170447379Y-111541231D01*
X170464102Y-111576948D01*
X170475772Y-111620013D01*
X170480203Y-111665536D01*
X170480186Y-111667535D01*
X170470797Y-111714177D01*
X170446259Y-111767215D01*
X170409635Y-111823476D01*
X170363991Y-111879786D01*
X170312393Y-111932974D01*
X170257907Y-111979865D01*
X170203597Y-112017287D01*
X170152530Y-112042068D01*
X170107770Y-112051033D01*
X170093585Y-112049301D01*
X170060611Y-112041834D01*
X170017386Y-112029827D01*
X169969561Y-112014762D01*
X169961564Y-112012153D01*
X169915034Y-111998918D01*
X169859358Y-111986121D01*
X169793534Y-111973657D01*
X169716563Y-111961418D01*
X169627441Y-111949300D01*
X169525169Y-111937196D01*
X169408746Y-111925000D01*
X169277170Y-111912606D01*
X169129440Y-111899908D01*
X168964556Y-111886799D01*
X168781515Y-111873175D01*
X168579318Y-111858929D01*
X168356962Y-111843954D01*
X168333048Y-111842474D01*
X168293935Y-111841127D01*
X168268244Y-111842846D01*
X168250740Y-111848234D01*
X168236190Y-111857895D01*
X168211163Y-111878161D01*
X168223870Y-112136648D01*
X168227647Y-112209674D01*
X168233753Y-112317057D01*
X168240777Y-112430909D01*
X168248538Y-112548929D01*
X168256856Y-112668817D01*
X168265550Y-112788272D01*
X168274440Y-112904993D01*
X168283347Y-113016680D01*
X168292088Y-113121031D01*
X168300485Y-113215748D01*
X168308356Y-113298528D01*
X168315521Y-113367071D01*
X168321801Y-113419076D01*
X168327014Y-113452244D01*
X168339708Y-113478497D01*
X168368951Y-113497337D01*
X168369774Y-113497656D01*
X168385387Y-113501134D01*
X168414852Y-113505111D01*
X168458979Y-113509646D01*
X168518579Y-113514800D01*
X168594464Y-113520632D01*
X168687444Y-113527202D01*
X168798330Y-113534570D01*
X168927934Y-113542796D01*
X169077066Y-113551940D01*
X169246537Y-113562061D01*
X169277396Y-113563882D01*
X169429794Y-113572826D01*
X169562792Y-113580512D01*
X169677851Y-113587001D01*
X169776431Y-113592352D01*
X169859992Y-113596622D01*
X169929994Y-113599872D01*
X169987897Y-113602159D01*
X170035163Y-113603542D01*
X170073250Y-113604081D01*
X170103620Y-113603834D01*
X170127732Y-113602859D01*
X170147047Y-113601217D01*
X170163025Y-113598965D01*
X170182786Y-113595237D01*
X170262648Y-113571051D01*
X170327455Y-113533737D01*
X170379752Y-113481462D01*
X170422085Y-113412392D01*
X170436509Y-113384897D01*
X170450711Y-113362086D01*
X170459388Y-113353326D01*
X170467682Y-113356360D01*
X170486130Y-113374322D01*
X170506515Y-113403844D01*
X170525393Y-113439624D01*
X170539322Y-113476363D01*
X170540134Y-113479176D01*
X170549238Y-113518241D01*
X170550216Y-113550405D01*
X170543510Y-113587415D01*
X170534750Y-113615773D01*
X170503707Y-113678949D01*
X170459021Y-113742719D01*
X170404820Y-113802272D01*
X170345233Y-113852793D01*
X170284389Y-113889471D01*
X170260613Y-113899415D01*
X170194136Y-113913970D01*
X170126210Y-113908634D01*
X170054133Y-113883335D01*
X170019687Y-113869222D01*
X169947028Y-113847213D01*
X169853270Y-113826132D01*
X169738449Y-113805986D01*
X169602601Y-113786780D01*
X169445762Y-113768521D01*
X169267965Y-113751214D01*
X169262390Y-113750717D01*
X169081768Y-113736249D01*
X168910030Y-113725643D01*
X168748880Y-113718911D01*
X168600020Y-113716064D01*
X168465154Y-113717113D01*
X168345984Y-113722071D01*
X168244214Y-113730949D01*
X168161546Y-113743757D01*
X168120800Y-113752003D01*
X168065967Y-113762642D01*
X168025310Y-113769452D01*
X167994723Y-113772815D01*
X167970104Y-113773113D01*
X167947347Y-113770729D01*
X167922349Y-113766046D01*
X167877618Y-113752397D01*
X167848158Y-113731025D01*
X167836826Y-113701160D01*
X167842410Y-113661212D01*
X167842610Y-113660555D01*
X167863432Y-113621039D01*
X167900173Y-113579438D01*
X167948585Y-113539817D01*
X168004421Y-113506236D01*
X168029955Y-113493271D01*
X168053838Y-113480797D01*
X168064385Y-113474800D01*
X168064551Y-113466811D01*
X168062231Y-113441621D01*
X168057630Y-113403544D01*
X168051236Y-113356962D01*
X168046327Y-113322340D01*
X168038723Y-113265919D01*
X168031194Y-113206097D01*
X168023504Y-113140663D01*
X168015418Y-113067404D01*
X168006702Y-112984107D01*
X167997119Y-112888562D01*
X167986436Y-112778554D01*
X167974416Y-112651873D01*
X167960825Y-112506306D01*
X167955338Y-112447790D01*
X167946113Y-112352008D01*
X167937211Y-112262670D01*
X167928894Y-112182219D01*
X167921422Y-112113095D01*
X167915053Y-112057738D01*
X167910049Y-112018591D01*
X167906670Y-111998094D01*
X167890766Y-111952476D01*
X167865389Y-111920198D01*
X167826528Y-111897565D01*
X167787401Y-111875384D01*
X167758761Y-111844226D01*
X167748624Y-111809259D01*
X167756112Y-111784433D01*
X167779136Y-111750404D01*
X167814519Y-111711788D01*
X167859032Y-111671489D01*
X167909447Y-111632414D01*
X167962534Y-111597466D01*
X168015063Y-111569553D01*
X168057401Y-111553508D01*
X168092517Y-111550692D01*
X168125817Y-111562934D01*
X168164432Y-111591270D01*
X168170491Y-111596327D01*
X168195441Y-111615716D01*
X168219995Y-111631085D01*
X168247227Y-111643185D01*
X168280216Y-111652769D01*
X168322038Y-111660591D01*
X168375769Y-111667401D01*
X168444485Y-111673954D01*
X168531264Y-111681002D01*
X168767259Y-111698009D01*
X169014975Y-111713119D01*
X169261172Y-111725477D01*
X169499407Y-111734761D01*
X169723238Y-111740649D01*
X169755407Y-111741244D01*
X169853709Y-111742683D01*
X169934305Y-111742972D01*
X169999873Y-111741841D01*
X170053090Y-111739024D01*
X170096634Y-111734254D01*
X170133184Y-111727263D01*
X170165417Y-111717783D01*
X170196011Y-111705548D01*
X170227645Y-111690290D01*
X170254525Y-111674321D01*
X170295541Y-111643443D01*
X170334629Y-111607742D01*
X170366319Y-111572355D01*
X170385139Y-111542417D01*
X170385667Y-111541169D01*
X170398461Y-111519860D01*
X170411085Y-111511058D01*
X170427792Y-111517751D01*
X163632005Y-111644618D02*
X163606290Y-111660979D01*
X163606290Y-111660979D02*
X163590278Y-111673141D01*
X163590278Y-111673141D02*
X163587640Y-111676580D01*
X163587640Y-111676580D02*
X163592140Y-111687447D01*
X163592140Y-111687447D02*
X163604569Y-111713888D01*
X163604569Y-111713888D02*
X163623317Y-111752567D01*
X163623317Y-111752567D02*
X163646775Y-111800151D01*
X163646775Y-111800151D02*
X163662721Y-111832149D01*
X163662721Y-111832149D02*
X163808109Y-112099197D01*
X163808109Y-112099197D02*
X163971321Y-112355034D01*
X163971321Y-112355034D02*
X164152008Y-112599320D01*
X164152008Y-112599320D02*
X164349823Y-112831716D01*
X164349823Y-112831716D02*
X164564419Y-113051884D01*
X164564419Y-113051884D02*
X164795449Y-113259484D01*
X164795449Y-113259484D02*
X165042564Y-113454178D01*
X165042564Y-113454178D02*
X165305417Y-113635626D01*
X165305417Y-113635626D02*
X165583661Y-113803490D01*
X165583661Y-113803490D02*
X165805743Y-113922045D01*
X165805743Y-113922045D02*
X165877303Y-113958949D01*
X165877303Y-113958949D02*
X165933072Y-113989597D01*
X165933072Y-113989597D02*
X165976651Y-114016228D01*
X165976651Y-114016228D02*
X166011646Y-114041085D01*
X166011646Y-114041085D02*
X166041660Y-114066409D01*
X166041660Y-114066409D02*
X166049262Y-114073508D01*
X166049262Y-114073508D02*
X166092824Y-114113408D01*
X166092824Y-114113408D02*
X166126548Y-114139348D01*
X166126548Y-114139348D02*
X166154710Y-114153154D01*
X166154710Y-114153154D02*
X166181586Y-114156651D01*
X166181586Y-114156651D02*
X166211454Y-114151662D01*
X166211454Y-114151662D02*
X166223988Y-114148072D01*
X166223988Y-114148072D02*
X166289963Y-114120050D01*
X166289963Y-114120050D02*
X166359985Y-114076267D01*
X166359985Y-114076267D02*
X166428861Y-114020017D01*
X166428861Y-114020017D02*
X166435012Y-114014280D01*
X166435012Y-114014280D02*
X166505390Y-113939726D01*
X166505390Y-113939726D02*
X166556202Y-113867603D01*
X166556202Y-113867603D02*
X166587293Y-113798510D01*
X166587293Y-113798510D02*
X166598504Y-113733046D01*
X166598504Y-113733046D02*
X166589680Y-113671809D01*
X166589680Y-113671809D02*
X166560662Y-113615399D01*
X166560662Y-113615399D02*
X166544694Y-113595780D01*
X166544694Y-113595780D02*
X166506555Y-113553565D01*
X166506555Y-113553565D02*
X166476315Y-113616571D01*
X166476315Y-113616571D02*
X166434302Y-113684382D01*
X166434302Y-113684382D02*
X166382410Y-113734033D01*
X166382410Y-113734033D02*
X166321402Y-113764994D01*
X166321402Y-113764994D02*
X166252042Y-113776738D01*
X166252042Y-113776738D02*
X166244742Y-113776835D01*
X166244742Y-113776835D02*
X166191418Y-113770734D01*
X166191418Y-113770734D02*
X166123000Y-113753066D01*
X166123000Y-113753066D02*
X166041476Y-113724780D01*
X166041476Y-113724780D02*
X165948831Y-113686828D01*
X165948831Y-113686828D02*
X165847051Y-113640161D01*
X165847051Y-113640161D02*
X165738121Y-113585729D01*
X165738121Y-113585729D02*
X165624029Y-113524484D01*
X165624029Y-113524484D02*
X165506760Y-113457376D01*
X165506760Y-113457376D02*
X165388299Y-113385356D01*
X165388299Y-113385356D02*
X165276385Y-113313199D01*
X165276385Y-113313199D02*
X165108660Y-113197215D01*
X165108660Y-113197215D02*
X164948751Y-113076672D01*
X164948751Y-113076672D02*
X164792513Y-112948134D01*
X164792513Y-112948134D02*
X164635802Y-112808167D01*
X164635802Y-112808167D02*
X164474475Y-112653333D01*
X164474475Y-112653333D02*
X164444583Y-112623576D01*
X164444583Y-112623576D02*
X164299093Y-112473442D01*
X164299093Y-112473442D02*
X164169261Y-112329319D01*
X164169261Y-112329319D02*
X164052027Y-112187320D01*
X164052027Y-112187320D02*
X163944330Y-112043558D01*
X163944330Y-112043558D02*
X163843109Y-111894146D01*
X163843109Y-111894146D02*
X163746165Y-111736661D01*
X163746165Y-111736661D02*
X163676370Y-111618162D01*
X163676370Y-111618162D02*
X163632005Y-111644618D01*
X163632005Y-111644618D02*
X163632005Y-111644618D01*
G36*
X163746165Y-111736661D02*
G01*
X163843109Y-111894146D01*
X163944330Y-112043558D01*
X164052027Y-112187320D01*
X164169261Y-112329319D01*
X164299093Y-112473442D01*
X164444583Y-112623576D01*
X164474475Y-112653333D01*
X164635802Y-112808167D01*
X164792513Y-112948134D01*
X164948751Y-113076672D01*
X165108660Y-113197215D01*
X165276385Y-113313199D01*
X165388299Y-113385356D01*
X165506760Y-113457376D01*
X165624029Y-113524484D01*
X165738121Y-113585729D01*
X165847051Y-113640161D01*
X165948831Y-113686828D01*
X166041476Y-113724780D01*
X166123000Y-113753066D01*
X166191418Y-113770734D01*
X166244742Y-113776835D01*
X166252042Y-113776738D01*
X166321402Y-113764994D01*
X166382410Y-113734033D01*
X166434302Y-113684382D01*
X166476315Y-113616571D01*
X166506555Y-113553565D01*
X166544694Y-113595780D01*
X166560662Y-113615399D01*
X166589680Y-113671809D01*
X166598504Y-113733046D01*
X166587293Y-113798510D01*
X166556202Y-113867603D01*
X166505390Y-113939726D01*
X166435012Y-114014280D01*
X166428861Y-114020017D01*
X166359985Y-114076267D01*
X166289963Y-114120050D01*
X166223988Y-114148072D01*
X166211454Y-114151662D01*
X166181586Y-114156651D01*
X166154710Y-114153154D01*
X166126548Y-114139348D01*
X166092824Y-114113408D01*
X166049262Y-114073508D01*
X166041660Y-114066409D01*
X166011646Y-114041085D01*
X165976651Y-114016228D01*
X165933072Y-113989597D01*
X165877303Y-113958949D01*
X165805743Y-113922045D01*
X165583661Y-113803490D01*
X165305417Y-113635626D01*
X165042564Y-113454178D01*
X164795449Y-113259484D01*
X164564419Y-113051884D01*
X164349823Y-112831716D01*
X164152008Y-112599320D01*
X163971321Y-112355034D01*
X163808109Y-112099197D01*
X163662721Y-111832149D01*
X163646775Y-111800151D01*
X163623317Y-111752567D01*
X163604569Y-111713888D01*
X163592140Y-111687447D01*
X163587640Y-111676580D01*
X163590278Y-111673141D01*
X163606290Y-111660979D01*
X163632005Y-111644618D01*
X163676370Y-111618162D01*
X163746165Y-111736661D01*
G37*
X163746165Y-111736661D02*
X163843109Y-111894146D01*
X163944330Y-112043558D01*
X164052027Y-112187320D01*
X164169261Y-112329319D01*
X164299093Y-112473442D01*
X164444583Y-112623576D01*
X164474475Y-112653333D01*
X164635802Y-112808167D01*
X164792513Y-112948134D01*
X164948751Y-113076672D01*
X165108660Y-113197215D01*
X165276385Y-113313199D01*
X165388299Y-113385356D01*
X165506760Y-113457376D01*
X165624029Y-113524484D01*
X165738121Y-113585729D01*
X165847051Y-113640161D01*
X165948831Y-113686828D01*
X166041476Y-113724780D01*
X166123000Y-113753066D01*
X166191418Y-113770734D01*
X166244742Y-113776835D01*
X166252042Y-113776738D01*
X166321402Y-113764994D01*
X166382410Y-113734033D01*
X166434302Y-113684382D01*
X166476315Y-113616571D01*
X166506555Y-113553565D01*
X166544694Y-113595780D01*
X166560662Y-113615399D01*
X166589680Y-113671809D01*
X166598504Y-113733046D01*
X166587293Y-113798510D01*
X166556202Y-113867603D01*
X166505390Y-113939726D01*
X166435012Y-114014280D01*
X166428861Y-114020017D01*
X166359985Y-114076267D01*
X166289963Y-114120050D01*
X166223988Y-114148072D01*
X166211454Y-114151662D01*
X166181586Y-114156651D01*
X166154710Y-114153154D01*
X166126548Y-114139348D01*
X166092824Y-114113408D01*
X166049262Y-114073508D01*
X166041660Y-114066409D01*
X166011646Y-114041085D01*
X165976651Y-114016228D01*
X165933072Y-113989597D01*
X165877303Y-113958949D01*
X165805743Y-113922045D01*
X165583661Y-113803490D01*
X165305417Y-113635626D01*
X165042564Y-113454178D01*
X164795449Y-113259484D01*
X164564419Y-113051884D01*
X164349823Y-112831716D01*
X164152008Y-112599320D01*
X163971321Y-112355034D01*
X163808109Y-112099197D01*
X163662721Y-111832149D01*
X163646775Y-111800151D01*
X163623317Y-111752567D01*
X163604569Y-111713888D01*
X163592140Y-111687447D01*
X163587640Y-111676580D01*
X163590278Y-111673141D01*
X163606290Y-111660979D01*
X163632005Y-111644618D01*
X163676370Y-111618162D01*
X163746165Y-111736661D01*
X173695950Y-110994733D02*
X173616134Y-111003756D01*
X173616134Y-111003756D02*
X173539613Y-111021081D01*
X173539613Y-111021081D02*
X173468860Y-111045293D01*
X173468860Y-111045293D02*
X173406348Y-111074976D01*
X173406348Y-111074976D02*
X173354550Y-111108716D01*
X173354550Y-111108716D02*
X173315939Y-111145097D01*
X173315939Y-111145097D02*
X173292989Y-111182703D01*
X173292989Y-111182703D02*
X173288172Y-111220120D01*
X173288172Y-111220120D02*
X173289567Y-111227313D01*
X173289567Y-111227313D02*
X173302013Y-111248917D01*
X173302013Y-111248917D02*
X173325940Y-111273343D01*
X173325940Y-111273343D02*
X173339563Y-111283844D01*
X173339563Y-111283844D02*
X173356919Y-111296618D01*
X173356919Y-111296618D02*
X173371784Y-111310277D01*
X173371784Y-111310277D02*
X173385736Y-111327592D01*
X173385736Y-111327592D02*
X173400353Y-111351336D01*
X173400353Y-111351336D02*
X173417213Y-111384281D01*
X173417213Y-111384281D02*
X173437895Y-111429199D01*
X173437895Y-111429199D02*
X173463977Y-111488861D01*
X173463977Y-111488861D02*
X173487458Y-111543608D01*
X173487458Y-111543608D02*
X173517834Y-111612652D01*
X173517834Y-111612652D02*
X173553348Y-111690200D01*
X173553348Y-111690200D02*
X173589747Y-111767126D01*
X173589747Y-111767126D02*
X173622775Y-111834301D01*
X173622775Y-111834301D02*
X173625179Y-111839049D01*
X173625179Y-111839049D02*
X173650126Y-111888776D01*
X173650126Y-111888776D02*
X173670936Y-111931387D01*
X173670936Y-111931387D02*
X173686025Y-111963549D01*
X173686025Y-111963549D02*
X173693812Y-111981930D01*
X173693812Y-111981930D02*
X173694457Y-111984927D01*
X173694457Y-111984927D02*
X173683215Y-111987497D01*
X173683215Y-111987497D02*
X173656048Y-111991573D01*
X173656048Y-111991573D02*
X173618088Y-111996410D01*
X173618088Y-111996410D02*
X173603875Y-111998068D01*
X173603875Y-111998068D02*
X173548013Y-112001577D01*
X173548013Y-112001577D02*
X173472725Y-112001765D01*
X173472725Y-112001765D02*
X173379484Y-111998744D01*
X173379484Y-111998744D02*
X173269759Y-111992628D01*
X173269759Y-111992628D02*
X173145021Y-111983530D01*
X173145021Y-111983530D02*
X173006741Y-111971564D01*
X173006741Y-111971564D02*
X172856388Y-111956841D01*
X172856388Y-111956841D02*
X172695435Y-111939477D01*
X172695435Y-111939477D02*
X172525350Y-111919582D01*
X172525350Y-111919582D02*
X172428407Y-111907599D01*
X172428407Y-111907599D02*
X172317531Y-111892765D01*
X172317531Y-111892765D02*
X172224796Y-111878213D01*
X172224796Y-111878213D02*
X172147193Y-111863180D01*
X172147193Y-111863180D02*
X172081713Y-111846900D01*
X172081713Y-111846900D02*
X172025349Y-111828609D01*
X172025349Y-111828609D02*
X171975091Y-111807543D01*
X171975091Y-111807543D02*
X171927931Y-111782936D01*
X171927931Y-111782936D02*
X171920195Y-111778458D01*
X171920195Y-111778458D02*
X171892007Y-111764114D01*
X171892007Y-111764114D02*
X171864031Y-111755997D01*
X171864031Y-111755997D02*
X171831965Y-111754166D01*
X171831965Y-111754166D02*
X171791509Y-111758682D01*
X171791509Y-111758682D02*
X171738360Y-111769607D01*
X171738360Y-111769607D02*
X171688803Y-111781733D01*
X171688803Y-111781733D02*
X171604947Y-111807021D01*
X171604947Y-111807021D02*
X171540663Y-111835758D01*
X171540663Y-111835758D02*
X171494497Y-111868881D01*
X171494497Y-111868881D02*
X171464994Y-111907331D01*
X171464994Y-111907331D02*
X171454855Y-111932751D01*
X171454855Y-111932751D02*
X171451073Y-111961733D01*
X171451073Y-111961733D02*
X171461731Y-111986082D01*
X171461731Y-111986082D02*
X171465977Y-111991736D01*
X171465977Y-111991736D02*
X171480055Y-112005244D01*
X171480055Y-112005244D02*
X171500365Y-112016120D01*
X171500365Y-112016120D02*
X171529300Y-112024742D01*
X171529300Y-112024742D02*
X171569251Y-112031487D01*
X171569251Y-112031487D02*
X171622610Y-112036731D01*
X171622610Y-112036731D02*
X171691769Y-112040852D01*
X171691769Y-112040852D02*
X171779120Y-112044227D01*
X171779120Y-112044227D02*
X171803730Y-112044988D01*
X171803730Y-112044988D02*
X171866182Y-112047173D01*
X171866182Y-112047173D02*
X171938094Y-112050232D01*
X171938094Y-112050232D02*
X172016537Y-112053989D01*
X172016537Y-112053989D02*
X172098583Y-112058265D01*
X172098583Y-112058265D02*
X172181305Y-112062886D01*
X172181305Y-112062886D02*
X172261774Y-112067674D01*
X172261774Y-112067674D02*
X172337063Y-112072451D01*
X172337063Y-112072451D02*
X172404244Y-112077043D01*
X172404244Y-112077043D02*
X172460388Y-112081272D01*
X172460388Y-112081272D02*
X172502567Y-112084960D01*
X172502567Y-112084960D02*
X172527854Y-112087933D01*
X172527854Y-112087933D02*
X172532976Y-112089000D01*
X172532976Y-112089000D02*
X172535154Y-112097265D01*
X172535154Y-112097265D02*
X172518931Y-112113954D01*
X172518931Y-112113954D02*
X172506095Y-112123776D01*
X172506095Y-112123776D02*
X172457328Y-112168444D01*
X172457328Y-112168444D02*
X172428597Y-112217699D01*
X172428597Y-112217699D02*
X172421190Y-112246119D01*
X172421190Y-112246119D02*
X172420682Y-112272916D01*
X172420682Y-112272916D02*
X172431489Y-112297113D01*
X172431489Y-112297113D02*
X172446995Y-112316731D01*
X172446995Y-112316731D02*
X172480868Y-112361465D01*
X172480868Y-112361465D02*
X172503765Y-112407995D01*
X172503765Y-112407995D02*
X172519464Y-112464657D01*
X172519464Y-112464657D02*
X172523459Y-112485580D01*
X172523459Y-112485580D02*
X172530678Y-112521721D01*
X172530678Y-112521721D02*
X172541870Y-112572148D01*
X172541870Y-112572148D02*
X172555609Y-112630669D01*
X172555609Y-112630669D02*
X172570473Y-112691093D01*
X172570473Y-112691093D02*
X172573281Y-112702179D01*
X172573281Y-112702179D02*
X172640757Y-112929665D01*
X172640757Y-112929665D02*
X172723732Y-113142794D01*
X172723732Y-113142794D02*
X172822340Y-113341781D01*
X172822340Y-113341781D02*
X172936713Y-113526841D01*
X172936713Y-113526841D02*
X173066986Y-113698186D01*
X173066986Y-113698186D02*
X173213291Y-113856033D01*
X173213291Y-113856033D02*
X173375763Y-114000593D01*
X173375763Y-114000593D02*
X173388619Y-114010918D01*
X173388619Y-114010918D02*
X173435946Y-114046986D01*
X173435946Y-114046986D02*
X173491894Y-114086925D01*
X173491894Y-114086925D02*
X173553659Y-114128999D01*
X173553659Y-114128999D02*
X173618437Y-114171473D01*
X173618437Y-114171473D02*
X173683425Y-114212610D01*
X173683425Y-114212610D02*
X173745817Y-114250677D01*
X173745817Y-114250677D02*
X173802810Y-114283936D01*
X173802810Y-114283936D02*
X173851599Y-114310653D01*
X173851599Y-114310653D02*
X173889381Y-114329091D01*
X173889381Y-114329091D02*
X173913351Y-114337517D01*
X173913351Y-114337517D02*
X173916866Y-114337855D01*
X173916866Y-114337855D02*
X173928114Y-114329652D01*
X173928114Y-114329652D02*
X173944732Y-114309231D01*
X173944732Y-114309231D02*
X173951153Y-114299791D01*
X173951153Y-114299791D02*
X173965438Y-114276139D01*
X173965438Y-114276139D02*
X173972349Y-114261435D01*
X173972349Y-114261435D02*
X173972328Y-114259432D01*
X173972328Y-114259432D02*
X173962763Y-114252750D01*
X173962763Y-114252750D02*
X173939619Y-114236617D01*
X173939619Y-114236617D02*
X173906694Y-114213681D01*
X173906694Y-114213681D02*
X173878928Y-114194345D01*
X173878928Y-114194345D02*
X173693371Y-114052563D01*
X173693371Y-114052563D02*
X173523531Y-113896873D01*
X173523531Y-113896873D02*
X173369918Y-113728103D01*
X173369918Y-113728103D02*
X173233041Y-113547084D01*
X173233041Y-113547084D02*
X173113412Y-113354643D01*
X173113412Y-113354643D02*
X173011539Y-113151610D01*
X173011539Y-113151610D02*
X172927935Y-112938814D01*
X172927935Y-112938814D02*
X172863108Y-112717083D01*
X172863108Y-112717083D02*
X172817570Y-112487246D01*
X172817570Y-112487246D02*
X172814218Y-112464696D01*
X172814218Y-112464696D02*
X172803399Y-112372313D01*
X172803399Y-112372313D02*
X172800601Y-112297663D01*
X172800601Y-112297663D02*
X172806195Y-112238736D01*
X172806195Y-112238736D02*
X172820547Y-112193521D01*
X172820547Y-112193521D02*
X172844027Y-112160008D01*
X172844027Y-112160008D02*
X172874113Y-112137725D01*
X172874113Y-112137725D02*
X172896670Y-112131322D01*
X172896670Y-112131322D02*
X172935242Y-112128350D01*
X172935242Y-112128350D02*
X172990719Y-112128846D01*
X172990719Y-112128846D02*
X173063990Y-112132852D01*
X173063990Y-112132852D02*
X173155948Y-112140406D01*
X173155948Y-112140406D02*
X173267482Y-112151547D01*
X173267482Y-112151547D02*
X173323071Y-112157605D01*
X173323071Y-112157605D02*
X173413945Y-112167023D01*
X173413945Y-112167023D02*
X173487294Y-112172728D01*
X173487294Y-112172728D02*
X173546471Y-112174543D01*
X173546471Y-112174543D02*
X173594829Y-112172290D01*
X173594829Y-112172290D02*
X173635723Y-112165791D01*
X173635723Y-112165791D02*
X173672505Y-112154869D01*
X173672505Y-112154869D02*
X173708529Y-112139345D01*
X173708529Y-112139345D02*
X173713466Y-112136912D01*
X173713466Y-112136912D02*
X173778344Y-112104553D01*
X173778344Y-112104553D02*
X173799520Y-112133239D01*
X173799520Y-112133239D02*
X173911657Y-112279095D01*
X173911657Y-112279095D02*
X174026575Y-112417061D01*
X174026575Y-112417061D02*
X174141263Y-112543735D01*
X174141263Y-112543735D02*
X174252710Y-112655717D01*
X174252710Y-112655717D02*
X174304217Y-112703294D01*
X174304217Y-112703294D02*
X174360137Y-112752415D01*
X174360137Y-112752415D02*
X174416010Y-112799806D01*
X174416010Y-112799806D02*
X174469269Y-112843449D01*
X174469269Y-112843449D02*
X174517342Y-112881325D01*
X174517342Y-112881325D02*
X174557660Y-112911416D01*
X174557660Y-112911416D02*
X174587655Y-112931703D01*
X174587655Y-112931703D02*
X174604756Y-112940167D01*
X174604756Y-112940167D02*
X174605894Y-112940293D01*
X174605894Y-112940293D02*
X174620032Y-112932888D01*
X174620032Y-112932888D02*
X174639878Y-112914351D01*
X174639878Y-112914351D02*
X174645335Y-112908141D01*
X174645335Y-112908141D02*
X174672481Y-112875879D01*
X174672481Y-112875879D02*
X174558024Y-112761422D01*
X174558024Y-112761422D02*
X174382242Y-112572577D01*
X174382242Y-112572577D02*
X174222418Y-112373942D01*
X174222418Y-112373942D02*
X174080044Y-112167572D01*
X174080044Y-112167572D02*
X173956610Y-111955524D01*
X173956610Y-111955524D02*
X173916184Y-111876335D01*
X173916184Y-111876335D02*
X173864097Y-111765190D01*
X173864097Y-111765190D02*
X173818729Y-111657994D01*
X173818729Y-111657994D02*
X173780608Y-111556648D01*
X173780608Y-111556648D02*
X173750261Y-111463051D01*
X173750261Y-111463051D02*
X173728218Y-111379103D01*
X173728218Y-111379103D02*
X173715005Y-111306705D01*
X173715005Y-111306705D02*
X173711152Y-111247755D01*
X173711152Y-111247755D02*
X173717186Y-111204153D01*
X173717186Y-111204153D02*
X173724732Y-111187675D01*
X173724732Y-111187675D02*
X173754999Y-111158242D01*
X173754999Y-111158242D02*
X173799853Y-111135506D01*
X173799853Y-111135506D02*
X173853105Y-111122066D01*
X173853105Y-111122066D02*
X173886869Y-111119544D01*
X173886869Y-111119544D02*
X173922800Y-111117148D01*
X173922800Y-111117148D02*
X173939650Y-111109143D01*
X173939650Y-111109143D02*
X173937858Y-111093733D01*
X173937858Y-111093733D02*
X173917860Y-111069121D01*
X173917860Y-111069121D02*
X173902750Y-111054291D01*
X173902750Y-111054291D02*
X173867903Y-111024970D01*
X173867903Y-111024970D02*
X173833768Y-111006096D01*
X173833768Y-111006096D02*
X173794647Y-110996030D01*
X173794647Y-110996030D02*
X173744844Y-110993131D01*
X173744844Y-110993131D02*
X173695950Y-110994733D01*
X173695950Y-110994733D02*
X173695950Y-110994733D01*
G36*
X173794647Y-110996030D02*
G01*
X173833768Y-111006096D01*
X173867903Y-111024970D01*
X173902750Y-111054291D01*
X173917860Y-111069121D01*
X173937858Y-111093733D01*
X173939650Y-111109143D01*
X173922800Y-111117148D01*
X173886869Y-111119544D01*
X173853105Y-111122066D01*
X173799853Y-111135506D01*
X173754999Y-111158242D01*
X173724732Y-111187675D01*
X173717186Y-111204153D01*
X173711152Y-111247755D01*
X173715005Y-111306705D01*
X173728218Y-111379103D01*
X173750261Y-111463051D01*
X173780608Y-111556648D01*
X173818729Y-111657994D01*
X173864097Y-111765190D01*
X173916184Y-111876335D01*
X173956610Y-111955524D01*
X174080044Y-112167572D01*
X174222418Y-112373942D01*
X174382242Y-112572577D01*
X174558024Y-112761422D01*
X174672481Y-112875879D01*
X174645335Y-112908141D01*
X174639878Y-112914351D01*
X174620032Y-112932888D01*
X174605894Y-112940293D01*
X174604756Y-112940167D01*
X174587655Y-112931703D01*
X174557660Y-112911416D01*
X174517342Y-112881325D01*
X174469269Y-112843449D01*
X174416010Y-112799806D01*
X174360137Y-112752415D01*
X174304217Y-112703294D01*
X174252710Y-112655717D01*
X174141263Y-112543735D01*
X174026575Y-112417061D01*
X173911657Y-112279095D01*
X173799520Y-112133239D01*
X173778344Y-112104553D01*
X173713466Y-112136912D01*
X173708529Y-112139345D01*
X173672505Y-112154869D01*
X173635723Y-112165791D01*
X173594829Y-112172290D01*
X173546471Y-112174543D01*
X173487294Y-112172728D01*
X173413945Y-112167023D01*
X173323071Y-112157605D01*
X173267482Y-112151547D01*
X173155948Y-112140406D01*
X173063990Y-112132852D01*
X172990719Y-112128846D01*
X172935242Y-112128350D01*
X172896670Y-112131322D01*
X172874113Y-112137725D01*
X172844027Y-112160008D01*
X172820547Y-112193521D01*
X172806195Y-112238736D01*
X172800601Y-112297663D01*
X172803399Y-112372313D01*
X172814218Y-112464696D01*
X172817570Y-112487246D01*
X172863108Y-112717083D01*
X172927935Y-112938814D01*
X173011539Y-113151610D01*
X173113412Y-113354643D01*
X173233041Y-113547084D01*
X173369918Y-113728103D01*
X173523531Y-113896873D01*
X173693371Y-114052563D01*
X173878928Y-114194345D01*
X173906694Y-114213681D01*
X173939619Y-114236617D01*
X173962763Y-114252750D01*
X173972328Y-114259432D01*
X173972349Y-114261435D01*
X173965438Y-114276139D01*
X173951153Y-114299791D01*
X173944732Y-114309231D01*
X173928114Y-114329652D01*
X173916866Y-114337855D01*
X173913351Y-114337517D01*
X173889381Y-114329091D01*
X173851599Y-114310653D01*
X173802810Y-114283936D01*
X173745817Y-114250677D01*
X173683425Y-114212610D01*
X173618437Y-114171473D01*
X173553659Y-114128999D01*
X173491894Y-114086925D01*
X173435946Y-114046986D01*
X173388619Y-114010918D01*
X173375763Y-114000593D01*
X173213291Y-113856033D01*
X173066986Y-113698186D01*
X172936713Y-113526841D01*
X172822340Y-113341781D01*
X172723732Y-113142794D01*
X172640757Y-112929665D01*
X172573281Y-112702179D01*
X172570473Y-112691093D01*
X172555609Y-112630669D01*
X172541870Y-112572148D01*
X172530678Y-112521721D01*
X172523459Y-112485580D01*
X172519464Y-112464657D01*
X172503765Y-112407995D01*
X172480868Y-112361465D01*
X172446995Y-112316731D01*
X172431489Y-112297113D01*
X172420682Y-112272916D01*
X172421190Y-112246119D01*
X172428597Y-112217699D01*
X172457328Y-112168444D01*
X172506095Y-112123776D01*
X172518931Y-112113954D01*
X172535154Y-112097265D01*
X172532976Y-112089000D01*
X172527854Y-112087933D01*
X172502567Y-112084960D01*
X172460388Y-112081272D01*
X172404244Y-112077043D01*
X172337063Y-112072451D01*
X172261774Y-112067674D01*
X172181305Y-112062886D01*
X172098583Y-112058265D01*
X172016537Y-112053989D01*
X171938094Y-112050232D01*
X171866182Y-112047173D01*
X171803730Y-112044988D01*
X171779120Y-112044227D01*
X171691769Y-112040852D01*
X171622610Y-112036731D01*
X171569251Y-112031487D01*
X171529300Y-112024742D01*
X171500365Y-112016120D01*
X171480055Y-112005244D01*
X171465977Y-111991736D01*
X171461731Y-111986082D01*
X171451073Y-111961733D01*
X171454855Y-111932751D01*
X171464994Y-111907331D01*
X171494497Y-111868881D01*
X171540663Y-111835758D01*
X171604947Y-111807021D01*
X171688803Y-111781733D01*
X171738360Y-111769607D01*
X171791509Y-111758682D01*
X171831965Y-111754166D01*
X171864031Y-111755997D01*
X171892007Y-111764114D01*
X171920195Y-111778458D01*
X171927931Y-111782936D01*
X171975091Y-111807543D01*
X172025349Y-111828609D01*
X172081713Y-111846900D01*
X172147193Y-111863180D01*
X172224796Y-111878213D01*
X172317531Y-111892765D01*
X172428407Y-111907599D01*
X172525350Y-111919582D01*
X172695435Y-111939477D01*
X172856388Y-111956841D01*
X173006741Y-111971564D01*
X173145021Y-111983530D01*
X173269759Y-111992628D01*
X173379484Y-111998744D01*
X173472725Y-112001765D01*
X173548013Y-112001577D01*
X173603875Y-111998068D01*
X173618088Y-111996410D01*
X173656048Y-111991573D01*
X173683215Y-111987497D01*
X173694457Y-111984927D01*
X173693812Y-111981930D01*
X173686025Y-111963549D01*
X173670936Y-111931387D01*
X173650126Y-111888776D01*
X173625179Y-111839049D01*
X173622775Y-111834301D01*
X173589747Y-111767126D01*
X173553348Y-111690200D01*
X173517834Y-111612652D01*
X173487458Y-111543608D01*
X173463977Y-111488861D01*
X173437895Y-111429199D01*
X173417213Y-111384281D01*
X173400353Y-111351336D01*
X173385736Y-111327592D01*
X173371784Y-111310277D01*
X173356919Y-111296618D01*
X173339563Y-111283844D01*
X173325940Y-111273343D01*
X173302013Y-111248917D01*
X173289567Y-111227313D01*
X173288172Y-111220120D01*
X173292989Y-111182703D01*
X173315939Y-111145097D01*
X173354550Y-111108716D01*
X173406348Y-111074976D01*
X173468860Y-111045293D01*
X173539613Y-111021081D01*
X173616134Y-111003756D01*
X173695950Y-110994733D01*
X173744844Y-110993131D01*
X173794647Y-110996030D01*
G37*
X173794647Y-110996030D02*
X173833768Y-111006096D01*
X173867903Y-111024970D01*
X173902750Y-111054291D01*
X173917860Y-111069121D01*
X173937858Y-111093733D01*
X173939650Y-111109143D01*
X173922800Y-111117148D01*
X173886869Y-111119544D01*
X173853105Y-111122066D01*
X173799853Y-111135506D01*
X173754999Y-111158242D01*
X173724732Y-111187675D01*
X173717186Y-111204153D01*
X173711152Y-111247755D01*
X173715005Y-111306705D01*
X173728218Y-111379103D01*
X173750261Y-111463051D01*
X173780608Y-111556648D01*
X173818729Y-111657994D01*
X173864097Y-111765190D01*
X173916184Y-111876335D01*
X173956610Y-111955524D01*
X174080044Y-112167572D01*
X174222418Y-112373942D01*
X174382242Y-112572577D01*
X174558024Y-112761422D01*
X174672481Y-112875879D01*
X174645335Y-112908141D01*
X174639878Y-112914351D01*
X174620032Y-112932888D01*
X174605894Y-112940293D01*
X174604756Y-112940167D01*
X174587655Y-112931703D01*
X174557660Y-112911416D01*
X174517342Y-112881325D01*
X174469269Y-112843449D01*
X174416010Y-112799806D01*
X174360137Y-112752415D01*
X174304217Y-112703294D01*
X174252710Y-112655717D01*
X174141263Y-112543735D01*
X174026575Y-112417061D01*
X173911657Y-112279095D01*
X173799520Y-112133239D01*
X173778344Y-112104553D01*
X173713466Y-112136912D01*
X173708529Y-112139345D01*
X173672505Y-112154869D01*
X173635723Y-112165791D01*
X173594829Y-112172290D01*
X173546471Y-112174543D01*
X173487294Y-112172728D01*
X173413945Y-112167023D01*
X173323071Y-112157605D01*
X173267482Y-112151547D01*
X173155948Y-112140406D01*
X173063990Y-112132852D01*
X172990719Y-112128846D01*
X172935242Y-112128350D01*
X172896670Y-112131322D01*
X172874113Y-112137725D01*
X172844027Y-112160008D01*
X172820547Y-112193521D01*
X172806195Y-112238736D01*
X172800601Y-112297663D01*
X172803399Y-112372313D01*
X172814218Y-112464696D01*
X172817570Y-112487246D01*
X172863108Y-112717083D01*
X172927935Y-112938814D01*
X173011539Y-113151610D01*
X173113412Y-113354643D01*
X173233041Y-113547084D01*
X173369918Y-113728103D01*
X173523531Y-113896873D01*
X173693371Y-114052563D01*
X173878928Y-114194345D01*
X173906694Y-114213681D01*
X173939619Y-114236617D01*
X173962763Y-114252750D01*
X173972328Y-114259432D01*
X173972349Y-114261435D01*
X173965438Y-114276139D01*
X173951153Y-114299791D01*
X173944732Y-114309231D01*
X173928114Y-114329652D01*
X173916866Y-114337855D01*
X173913351Y-114337517D01*
X173889381Y-114329091D01*
X173851599Y-114310653D01*
X173802810Y-114283936D01*
X173745817Y-114250677D01*
X173683425Y-114212610D01*
X173618437Y-114171473D01*
X173553659Y-114128999D01*
X173491894Y-114086925D01*
X173435946Y-114046986D01*
X173388619Y-114010918D01*
X173375763Y-114000593D01*
X173213291Y-113856033D01*
X173066986Y-113698186D01*
X172936713Y-113526841D01*
X172822340Y-113341781D01*
X172723732Y-113142794D01*
X172640757Y-112929665D01*
X172573281Y-112702179D01*
X172570473Y-112691093D01*
X172555609Y-112630669D01*
X172541870Y-112572148D01*
X172530678Y-112521721D01*
X172523459Y-112485580D01*
X172519464Y-112464657D01*
X172503765Y-112407995D01*
X172480868Y-112361465D01*
X172446995Y-112316731D01*
X172431489Y-112297113D01*
X172420682Y-112272916D01*
X172421190Y-112246119D01*
X172428597Y-112217699D01*
X172457328Y-112168444D01*
X172506095Y-112123776D01*
X172518931Y-112113954D01*
X172535154Y-112097265D01*
X172532976Y-112089000D01*
X172527854Y-112087933D01*
X172502567Y-112084960D01*
X172460388Y-112081272D01*
X172404244Y-112077043D01*
X172337063Y-112072451D01*
X172261774Y-112067674D01*
X172181305Y-112062886D01*
X172098583Y-112058265D01*
X172016537Y-112053989D01*
X171938094Y-112050232D01*
X171866182Y-112047173D01*
X171803730Y-112044988D01*
X171779120Y-112044227D01*
X171691769Y-112040852D01*
X171622610Y-112036731D01*
X171569251Y-112031487D01*
X171529300Y-112024742D01*
X171500365Y-112016120D01*
X171480055Y-112005244D01*
X171465977Y-111991736D01*
X171461731Y-111986082D01*
X171451073Y-111961733D01*
X171454855Y-111932751D01*
X171464994Y-111907331D01*
X171494497Y-111868881D01*
X171540663Y-111835758D01*
X171604947Y-111807021D01*
X171688803Y-111781733D01*
X171738360Y-111769607D01*
X171791509Y-111758682D01*
X171831965Y-111754166D01*
X171864031Y-111755997D01*
X171892007Y-111764114D01*
X171920195Y-111778458D01*
X171927931Y-111782936D01*
X171975091Y-111807543D01*
X172025349Y-111828609D01*
X172081713Y-111846900D01*
X172147193Y-111863180D01*
X172224796Y-111878213D01*
X172317531Y-111892765D01*
X172428407Y-111907599D01*
X172525350Y-111919582D01*
X172695435Y-111939477D01*
X172856388Y-111956841D01*
X173006741Y-111971564D01*
X173145021Y-111983530D01*
X173269759Y-111992628D01*
X173379484Y-111998744D01*
X173472725Y-112001765D01*
X173548013Y-112001577D01*
X173603875Y-111998068D01*
X173618088Y-111996410D01*
X173656048Y-111991573D01*
X173683215Y-111987497D01*
X173694457Y-111984927D01*
X173693812Y-111981930D01*
X173686025Y-111963549D01*
X173670936Y-111931387D01*
X173650126Y-111888776D01*
X173625179Y-111839049D01*
X173622775Y-111834301D01*
X173589747Y-111767126D01*
X173553348Y-111690200D01*
X173517834Y-111612652D01*
X173487458Y-111543608D01*
X173463977Y-111488861D01*
X173437895Y-111429199D01*
X173417213Y-111384281D01*
X173400353Y-111351336D01*
X173385736Y-111327592D01*
X173371784Y-111310277D01*
X173356919Y-111296618D01*
X173339563Y-111283844D01*
X173325940Y-111273343D01*
X173302013Y-111248917D01*
X173289567Y-111227313D01*
X173288172Y-111220120D01*
X173292989Y-111182703D01*
X173315939Y-111145097D01*
X173354550Y-111108716D01*
X173406348Y-111074976D01*
X173468860Y-111045293D01*
X173539613Y-111021081D01*
X173616134Y-111003756D01*
X173695950Y-110994733D01*
X173744844Y-110993131D01*
X173794647Y-110996030D01*
X175610973Y-110819418D02*
X175523215Y-110842936D01*
X175523215Y-110842936D02*
X175443988Y-110883953D01*
X175443988Y-110883953D02*
X175375237Y-110940891D01*
X175375237Y-110940891D02*
X175318910Y-111012167D01*
X175318910Y-111012167D02*
X175276952Y-111096201D01*
X175276952Y-111096201D02*
X175252915Y-111182346D01*
X175252915Y-111182346D02*
X175248012Y-111263845D01*
X175248012Y-111263845D02*
X175261432Y-111347404D01*
X175261432Y-111347404D02*
X175291239Y-111428928D01*
X175291239Y-111428928D02*
X175335495Y-111504322D01*
X175335495Y-111504322D02*
X175392263Y-111569489D01*
X175392263Y-111569489D02*
X175459606Y-111620336D01*
X175459606Y-111620336D02*
X175460273Y-111620726D01*
X175460273Y-111620726D02*
X175542101Y-111656918D01*
X175542101Y-111656918D02*
X175631904Y-111676193D01*
X175631904Y-111676193D02*
X175724175Y-111677960D01*
X175724175Y-111677960D02*
X175813404Y-111661629D01*
X175813404Y-111661629D02*
X175820751Y-111659362D01*
X175820751Y-111659362D02*
X175905279Y-111621930D01*
X175905279Y-111621930D02*
X175978531Y-111568639D01*
X175978531Y-111568639D02*
X176038658Y-111502192D01*
X176038658Y-111502192D02*
X176083810Y-111425291D01*
X176083810Y-111425291D02*
X176112136Y-111340640D01*
X176112136Y-111340640D02*
X176121787Y-111250941D01*
X176121787Y-111250941D02*
X176121490Y-111243489D01*
X176121490Y-111243489D02*
X175985889Y-111243489D01*
X175985889Y-111243489D02*
X175981201Y-111311820D01*
X175981201Y-111311820D02*
X175965601Y-111368198D01*
X175965601Y-111368198D02*
X175936783Y-111420020D01*
X175936783Y-111420020D02*
X175926472Y-111434144D01*
X175926472Y-111434144D02*
X175874623Y-111485467D01*
X175874623Y-111485467D02*
X175810883Y-111522211D01*
X175810883Y-111522211D02*
X175739612Y-111543377D01*
X175739612Y-111543377D02*
X175665167Y-111547964D01*
X175665167Y-111547964D02*
X175591909Y-111534971D01*
X175591909Y-111534971D02*
X175553292Y-111519773D01*
X175553292Y-111519773D02*
X175488199Y-111477882D01*
X175488199Y-111477882D02*
X175438703Y-111424650D01*
X175438703Y-111424650D02*
X175404797Y-111363050D01*
X175404797Y-111363050D02*
X175386473Y-111296055D01*
X175386473Y-111296055D02*
X175383723Y-111226639D01*
X175383723Y-111226639D02*
X175396539Y-111157773D01*
X175396539Y-111157773D02*
X175424914Y-111092432D01*
X175424914Y-111092432D02*
X175468840Y-111033588D01*
X175468840Y-111033588D02*
X175528309Y-110984213D01*
X175528309Y-110984213D02*
X175554720Y-110968691D01*
X175554720Y-110968691D02*
X175604162Y-110951508D01*
X175604162Y-110951508D02*
X175664354Y-110943800D01*
X175664354Y-110943800D02*
X175727110Y-110945566D01*
X175727110Y-110945566D02*
X175784246Y-110956806D01*
X175784246Y-110956806D02*
X175813544Y-110968684D01*
X175813544Y-110968684D02*
X175884435Y-111015646D01*
X175884435Y-111015646D02*
X175936287Y-111071591D01*
X175936287Y-111071591D02*
X175969572Y-111137271D01*
X175969572Y-111137271D02*
X175984760Y-111213438D01*
X175984760Y-111213438D02*
X175985889Y-111243489D01*
X175985889Y-111243489D02*
X176121490Y-111243489D01*
X176121490Y-111243489D02*
X176120600Y-111221232D01*
X176120600Y-111221232D02*
X176109176Y-111140159D01*
X176109176Y-111140159D02*
X176086691Y-111071870D01*
X176086691Y-111071870D02*
X176050209Y-111010017D01*
X176050209Y-111010017D02*
X175996795Y-110948252D01*
X175996795Y-110948252D02*
X175992188Y-110943609D01*
X175992188Y-110943609D02*
X175931419Y-110889489D01*
X175931419Y-110889489D02*
X175871866Y-110852231D01*
X175871866Y-110852231D02*
X175807139Y-110828972D01*
X175807139Y-110828972D02*
X175730849Y-110816845D01*
X175730849Y-110816845D02*
X175705314Y-110814982D01*
X175705314Y-110814982D02*
X175610973Y-110819418D01*
X175610973Y-110819418D02*
X175610973Y-110819418D01*
G36*
X176112136Y-111340640D02*
G01*
X176083810Y-111425291D01*
X176038658Y-111502192D01*
X175978531Y-111568639D01*
X175905279Y-111621930D01*
X175820751Y-111659362D01*
X175813404Y-111661629D01*
X175724175Y-111677960D01*
X175631904Y-111676193D01*
X175542101Y-111656918D01*
X175460273Y-111620726D01*
X175459606Y-111620336D01*
X175392263Y-111569489D01*
X175335495Y-111504322D01*
X175291239Y-111428928D01*
X175261432Y-111347404D01*
X175248012Y-111263845D01*
X175250250Y-111226639D01*
X175383723Y-111226639D01*
X175386473Y-111296055D01*
X175404797Y-111363050D01*
X175438703Y-111424650D01*
X175488199Y-111477882D01*
X175553292Y-111519773D01*
X175591909Y-111534971D01*
X175665167Y-111547964D01*
X175739612Y-111543377D01*
X175810883Y-111522211D01*
X175874623Y-111485467D01*
X175926472Y-111434144D01*
X175936783Y-111420020D01*
X175965601Y-111368198D01*
X175981201Y-111311820D01*
X175985889Y-111243489D01*
X175984760Y-111213438D01*
X175969572Y-111137271D01*
X175936287Y-111071591D01*
X175884435Y-111015646D01*
X175813544Y-110968684D01*
X175784246Y-110956806D01*
X175727110Y-110945566D01*
X175664354Y-110943800D01*
X175604162Y-110951508D01*
X175554720Y-110968691D01*
X175528309Y-110984213D01*
X175468840Y-111033588D01*
X175424914Y-111092432D01*
X175396539Y-111157773D01*
X175383723Y-111226639D01*
X175250250Y-111226639D01*
X175252915Y-111182346D01*
X175276952Y-111096201D01*
X175318910Y-111012167D01*
X175375237Y-110940891D01*
X175443988Y-110883953D01*
X175523215Y-110842936D01*
X175610973Y-110819418D01*
X175705314Y-110814982D01*
X175730849Y-110816845D01*
X175807139Y-110828972D01*
X175871866Y-110852231D01*
X175931419Y-110889489D01*
X175992188Y-110943609D01*
X175996795Y-110948252D01*
X176050209Y-111010017D01*
X176086691Y-111071870D01*
X176109176Y-111140159D01*
X176120600Y-111221232D01*
X176121490Y-111243489D01*
X176121787Y-111250941D01*
X176112136Y-111340640D01*
G37*
X176112136Y-111340640D02*
X176083810Y-111425291D01*
X176038658Y-111502192D01*
X175978531Y-111568639D01*
X175905279Y-111621930D01*
X175820751Y-111659362D01*
X175813404Y-111661629D01*
X175724175Y-111677960D01*
X175631904Y-111676193D01*
X175542101Y-111656918D01*
X175460273Y-111620726D01*
X175459606Y-111620336D01*
X175392263Y-111569489D01*
X175335495Y-111504322D01*
X175291239Y-111428928D01*
X175261432Y-111347404D01*
X175248012Y-111263845D01*
X175250250Y-111226639D01*
X175383723Y-111226639D01*
X175386473Y-111296055D01*
X175404797Y-111363050D01*
X175438703Y-111424650D01*
X175488199Y-111477882D01*
X175553292Y-111519773D01*
X175591909Y-111534971D01*
X175665167Y-111547964D01*
X175739612Y-111543377D01*
X175810883Y-111522211D01*
X175874623Y-111485467D01*
X175926472Y-111434144D01*
X175936783Y-111420020D01*
X175965601Y-111368198D01*
X175981201Y-111311820D01*
X175985889Y-111243489D01*
X175984760Y-111213438D01*
X175969572Y-111137271D01*
X175936287Y-111071591D01*
X175884435Y-111015646D01*
X175813544Y-110968684D01*
X175784246Y-110956806D01*
X175727110Y-110945566D01*
X175664354Y-110943800D01*
X175604162Y-110951508D01*
X175554720Y-110968691D01*
X175528309Y-110984213D01*
X175468840Y-111033588D01*
X175424914Y-111092432D01*
X175396539Y-111157773D01*
X175383723Y-111226639D01*
X175250250Y-111226639D01*
X175252915Y-111182346D01*
X175276952Y-111096201D01*
X175318910Y-111012167D01*
X175375237Y-110940891D01*
X175443988Y-110883953D01*
X175523215Y-110842936D01*
X175610973Y-110819418D01*
X175705314Y-110814982D01*
X175730849Y-110816845D01*
X175807139Y-110828972D01*
X175871866Y-110852231D01*
X175931419Y-110889489D01*
X175992188Y-110943609D01*
X175996795Y-110948252D01*
X176050209Y-111010017D01*
X176086691Y-111071870D01*
X176109176Y-111140159D01*
X176120600Y-111221232D01*
X176121490Y-111243489D01*
X176121787Y-111250941D01*
X176112136Y-111340640D01*
X177658753Y-112784512D02*
X177666190Y-112950268D01*
X177666190Y-112950268D02*
X177688652Y-113101388D01*
X177688652Y-113101388D02*
X177726369Y-113238383D01*
X177726369Y-113238383D02*
X177779569Y-113361766D01*
X177779569Y-113361766D02*
X177848481Y-113472048D01*
X177848481Y-113472048D02*
X177933335Y-113569740D01*
X177933335Y-113569740D02*
X178034357Y-113655355D01*
X178034357Y-113655355D02*
X178054583Y-113669734D01*
X178054583Y-113669734D02*
X178127197Y-113712032D01*
X178127197Y-113712032D02*
X178203655Y-113742442D01*
X178203655Y-113742442D02*
X178279368Y-113759837D01*
X178279368Y-113759837D02*
X178349749Y-113763091D01*
X178349749Y-113763091D02*
X178399895Y-113754527D01*
X178399895Y-113754527D02*
X178433557Y-113739148D01*
X178433557Y-113739148D02*
X178465151Y-113716848D01*
X178465151Y-113716848D02*
X178467032Y-113715122D01*
X178467032Y-113715122D02*
X178485193Y-113695408D01*
X178485193Y-113695408D02*
X178493015Y-113675900D01*
X178493015Y-113675900D02*
X178493312Y-113647590D01*
X178493312Y-113647590D02*
X178492214Y-113634530D01*
X178492214Y-113634530D02*
X178480650Y-113588567D01*
X178480650Y-113588567D02*
X178454106Y-113552170D01*
X178454106Y-113552170D02*
X178410331Y-113522945D01*
X178410331Y-113522945D02*
X178372199Y-113506887D01*
X178372199Y-113506887D02*
X178242421Y-113451755D01*
X178242421Y-113451755D02*
X178130270Y-113385965D01*
X178130270Y-113385965D02*
X178034394Y-113308256D01*
X178034394Y-113308256D02*
X177953445Y-113217368D01*
X177953445Y-113217368D02*
X177886073Y-113112042D01*
X177886073Y-113112042D02*
X177837416Y-113007588D01*
X177837416Y-113007588D02*
X177819860Y-112958115D01*
X177819860Y-112958115D02*
X177802540Y-112899603D01*
X177802540Y-112899603D02*
X177786925Y-112838177D01*
X177786925Y-112838177D02*
X177774484Y-112779960D01*
X177774484Y-112779960D02*
X177766686Y-112731074D01*
X177766686Y-112731074D02*
X177764769Y-112704826D01*
X177764769Y-112704826D02*
X177763280Y-112687575D01*
X177763280Y-112687575D02*
X177755387Y-112678971D01*
X177755387Y-112678971D02*
X177735626Y-112676019D01*
X177735626Y-112676019D02*
X177711692Y-112675710D01*
X177711692Y-112675710D02*
X177658753Y-112675710D01*
X177658753Y-112675710D02*
X177658753Y-112784512D01*
X177658753Y-112784512D02*
X177658753Y-112784512D01*
G36*
X177735626Y-112676019D02*
G01*
X177755387Y-112678971D01*
X177763280Y-112687575D01*
X177764769Y-112704826D01*
X177766686Y-112731074D01*
X177774484Y-112779960D01*
X177786925Y-112838177D01*
X177802540Y-112899603D01*
X177819860Y-112958115D01*
X177837416Y-113007588D01*
X177886073Y-113112042D01*
X177953445Y-113217368D01*
X178034394Y-113308256D01*
X178130270Y-113385965D01*
X178242421Y-113451755D01*
X178372199Y-113506887D01*
X178410331Y-113522945D01*
X178454106Y-113552170D01*
X178480650Y-113588567D01*
X178492214Y-113634530D01*
X178493312Y-113647590D01*
X178493015Y-113675900D01*
X178485193Y-113695408D01*
X178467032Y-113715122D01*
X178465151Y-113716848D01*
X178433557Y-113739148D01*
X178399895Y-113754527D01*
X178349749Y-113763091D01*
X178279368Y-113759837D01*
X178203655Y-113742442D01*
X178127197Y-113712032D01*
X178054583Y-113669734D01*
X178034357Y-113655355D01*
X177933335Y-113569740D01*
X177848481Y-113472048D01*
X177779569Y-113361766D01*
X177726369Y-113238383D01*
X177688652Y-113101388D01*
X177666190Y-112950268D01*
X177658753Y-112784512D01*
X177658753Y-112675710D01*
X177711692Y-112675710D01*
X177735626Y-112676019D01*
G37*
X177735626Y-112676019D02*
X177755387Y-112678971D01*
X177763280Y-112687575D01*
X177764769Y-112704826D01*
X177766686Y-112731074D01*
X177774484Y-112779960D01*
X177786925Y-112838177D01*
X177802540Y-112899603D01*
X177819860Y-112958115D01*
X177837416Y-113007588D01*
X177886073Y-113112042D01*
X177953445Y-113217368D01*
X178034394Y-113308256D01*
X178130270Y-113385965D01*
X178242421Y-113451755D01*
X178372199Y-113506887D01*
X178410331Y-113522945D01*
X178454106Y-113552170D01*
X178480650Y-113588567D01*
X178492214Y-113634530D01*
X178493312Y-113647590D01*
X178493015Y-113675900D01*
X178485193Y-113695408D01*
X178467032Y-113715122D01*
X178465151Y-113716848D01*
X178433557Y-113739148D01*
X178399895Y-113754527D01*
X178349749Y-113763091D01*
X178279368Y-113759837D01*
X178203655Y-113742442D01*
X178127197Y-113712032D01*
X178054583Y-113669734D01*
X178034357Y-113655355D01*
X177933335Y-113569740D01*
X177848481Y-113472048D01*
X177779569Y-113361766D01*
X177726369Y-113238383D01*
X177688652Y-113101388D01*
X177666190Y-112950268D01*
X177658753Y-112784512D01*
X177658753Y-112675710D01*
X177711692Y-112675710D01*
X177735626Y-112676019D01*
%TD*%
D12*
%TO.C,U1*%
X179980000Y-87035000D03*
X178630000Y-87035000D03*
X179800000Y-78135000D03*
X177260000Y-78135000D03*
X175990000Y-78135000D03*
X174720000Y-78135000D03*
X173450000Y-78135000D03*
X172180000Y-78135000D03*
X170910000Y-78135000D03*
X169640000Y-78135000D03*
X168370000Y-78135000D03*
X167100000Y-78135000D03*
X165830000Y-78135000D03*
X164560000Y-78135000D03*
X163290000Y-78135000D03*
X162020000Y-78135000D03*
X160750000Y-78135000D03*
X159480000Y-78135000D03*
X158210000Y-78135000D03*
X156940000Y-78135000D03*
X155670000Y-78135000D03*
X154400000Y-78135000D03*
X153130000Y-78135000D03*
X151860000Y-78135000D03*
X150590000Y-78135000D03*
X149320000Y-78135000D03*
X148050000Y-78135000D03*
X146780000Y-78135000D03*
X145510000Y-78135000D03*
X144240000Y-78135000D03*
X142970000Y-78135000D03*
X141700000Y-78135000D03*
X140430000Y-78135000D03*
X139160000Y-78135000D03*
X137890000Y-78135000D03*
X136620000Y-78135000D03*
X135230000Y-87035000D03*
X134080000Y-78135000D03*
X133930000Y-87025000D03*
%TD*%
%TO.C,SP1*%
X133460000Y-94505000D03*
X133460000Y-91330000D03*
D13*
X133460000Y-92870000D03*
%TD*%
D12*
%TO.C,SP2*%
X137270000Y-91330000D03*
D13*
X137270000Y-92870000D03*
D12*
X137270000Y-94505000D03*
%TD*%
%TO.C,SP3*%
X133460000Y-102760000D03*
D13*
X133460000Y-104300000D03*
D12*
X133460000Y-105935000D03*
%TD*%
%TO.C,SP4*%
X136000000Y-102760000D03*
D13*
X136000000Y-104300000D03*
D12*
X136000000Y-105935000D03*
%TD*%
D13*
%TO.C,SP5*%
X138540000Y-104300000D03*
D12*
X138540000Y-102760000D03*
X138540000Y-105935000D03*
%TD*%
%TO.C,SP6*%
X141080000Y-105935000D03*
D13*
X141080000Y-104300000D03*
D12*
X141080000Y-102760000D03*
%TD*%
%TO.C,SP7*%
X143620000Y-105935000D03*
X143620000Y-102760000D03*
D13*
X143620000Y-104300000D03*
%TD*%
D12*
%TO.C,SP8*%
X146160000Y-102760000D03*
X146160000Y-105935000D03*
D13*
X146160000Y-104300000D03*
%TD*%
D12*
%TO.C,SP9*%
X148700000Y-105935000D03*
D13*
X148700000Y-104300000D03*
D12*
X148700000Y-102760000D03*
%TD*%
%TO.C,SP10*%
X151240000Y-105935000D03*
D13*
X151240000Y-104300000D03*
D12*
X151240000Y-102760000D03*
%TD*%
D13*
%TO.C,SP11*%
X153780000Y-104300000D03*
D12*
X153780000Y-105935000D03*
X153780000Y-102760000D03*
%TD*%
%TO.C,SP12*%
X133460000Y-111650000D03*
X133460000Y-114825000D03*
D13*
X133460000Y-113190000D03*
%TD*%
%TO.C,SP13*%
X136000000Y-113190000D03*
D12*
X136000000Y-111650000D03*
X136000000Y-114825000D03*
%TD*%
D13*
%TO.C,SP14*%
X138540000Y-113190000D03*
D12*
X138540000Y-111650000D03*
X138540000Y-114825000D03*
%TD*%
D13*
%TO.C,SP15*%
X141080000Y-113190000D03*
D12*
X141080000Y-114825000D03*
X141080000Y-111650000D03*
%TD*%
D13*
%TO.C,SP16*%
X143620000Y-113190000D03*
D12*
X143620000Y-111650000D03*
X143620000Y-114825000D03*
%TD*%
%TO.C,SP17*%
X146160000Y-111650000D03*
X146160000Y-114825000D03*
D13*
X146160000Y-113190000D03*
%TD*%
D12*
%TO.C,SP18*%
X148700000Y-111650000D03*
X148700000Y-114825000D03*
D13*
X148700000Y-113190000D03*
%TD*%
D12*
%TO.C,SP19*%
X151240000Y-111650000D03*
X151240000Y-114825000D03*
D13*
X151240000Y-113190000D03*
%TD*%
%TO.C,SP20*%
X153780000Y-113190000D03*
D12*
X153780000Y-111650000D03*
X153780000Y-114825000D03*
%TD*%
D13*
%TO.C,SP21*%
X158860000Y-104300000D03*
D12*
X158860000Y-105935000D03*
X158860000Y-102760000D03*
%TD*%
D13*
%TO.C,SP22*%
X161400000Y-104300000D03*
D12*
X161400000Y-105935000D03*
X161400000Y-102760000D03*
%TD*%
%TO.C,SP23*%
X163940000Y-105935000D03*
D13*
X163940000Y-104300000D03*
D12*
X163940000Y-102760000D03*
%TD*%
%TO.C,SP24*%
X166480000Y-102760000D03*
D13*
X166480000Y-104300000D03*
D12*
X166480000Y-105935000D03*
%TD*%
%TO.C,SP25*%
X169020000Y-105935000D03*
D13*
X169020000Y-104300000D03*
D12*
X169020000Y-102760000D03*
%TD*%
%TO.C,SP26*%
X171560000Y-102760000D03*
X171560000Y-105935000D03*
D13*
X171560000Y-104300000D03*
%TD*%
D12*
%TO.C,SP27*%
X174100000Y-102760000D03*
X174100000Y-105935000D03*
D13*
X174100000Y-104300000D03*
%TD*%
D12*
%TO.C,SP28*%
X176640000Y-102760000D03*
D13*
X176640000Y-104300000D03*
D12*
X176640000Y-105935000D03*
%TD*%
%TO.C,SP29*%
X174100000Y-91330000D03*
X174100000Y-94505000D03*
D13*
X174100000Y-92870000D03*
%TD*%
%TO.C,SP30*%
X177910000Y-92870000D03*
D12*
X177910000Y-91330000D03*
X177910000Y-94505000D03*
%TD*%
%TO.C,SP31*%
X158860000Y-114825000D03*
D13*
X158860000Y-113190000D03*
D12*
X158860000Y-111650000D03*
%TD*%
%TO.C,SP32*%
X181720000Y-105935000D03*
D13*
X181720000Y-104300000D03*
D12*
X181720000Y-102760000D03*
%TD*%
M02*
