%TF.GenerationSoftware,KiCad,Pcbnew,(5.99.0-11763-gc80efb0f98)*%
%TF.CreationDate,2021-08-26T10:07:41+03:00*%
%TF.ProjectId,E500_MCBB,45353030-5f4d-4434-9242-2e6b69636164,rev?*%
%TF.SameCoordinates,Original*%
%TF.FileFunction,Legend,Top*%
%TF.FilePolarity,Positive*%
%FSLAX46Y46*%
G04 Gerber Fmt 4.6, Leading zero omitted, Abs format (unit mm)*
G04 Created by KiCad (PCBNEW (5.99.0-11763-gc80efb0f98)) date 2021-08-26 10:07:41*
%MOMM*%
%LPD*%
G01*
G04 APERTURE LIST*
G04 Aperture macros list*
%AMFreePoly0*
4,1,36,0.011777,10.205564,0.021898,10.204949,0.028362,10.197649,0.037165,10.193448,0.487165,9.693448,0.493142,9.676557,0.500000,9.660000,0.500000,0.360000,0.496429,0.351379,0.496667,0.342051,0.489395,0.334397,0.485355,0.324645,0.476736,0.321075,0.470307,0.314309,0.300000,0.238617,0.300000,-0.400000,-0.300000,-0.400000,-0.300000,0.150906,-1.456832,0.310469,-1.470608,0.318536,
-1.485355,0.324645,-1.486737,0.327982,-1.489854,0.329807,-1.493890,0.345251,-1.500000,0.360000,-1.500000,9.660000,-1.495640,9.670526,-1.494949,9.681898,-1.488600,9.687520,-1.485355,9.695355,-1.474831,9.699715,-1.466300,9.707269,-0.016300,10.207269,-0.006564,10.206678,0.002628,10.209930,0.011777,10.205564,0.011777,10.205564,$1*%
%AMFreePoly1*
4,1,40,0.018323,10.204236,0.024807,10.203412,0.374807,10.003412,0.379012,9.997983,0.385355,9.995355,0.390310,9.983394,0.398238,9.973156,0.397372,9.966344,0.400000,9.960000,0.400000,0.360000,0.397372,0.353656,0.398238,0.346844,0.390310,0.336606,0.385355,0.324645,0.379012,0.322017,0.374807,0.316588,0.300000,0.273841,0.300000,-0.400000,-0.300000,-0.400000,-0.300000,0.273841,
-0.374807,0.316588,-0.379012,0.322017,-0.385355,0.324645,-0.390310,0.336606,-0.398238,0.346844,-0.397372,0.353656,-0.400000,0.360000,-0.400000,9.960000,-0.397372,9.966344,-0.398238,9.973156,-0.390310,9.983394,-0.385355,9.995355,-0.379012,9.997983,-0.374807,10.003412,-0.024807,10.203412,-0.018323,10.204236,-0.013156,10.208238,0.000000,10.206566,0.013156,10.208238,0.018323,10.204236,
0.018323,10.204236,$1*%
%AMFreePoly2*
4,1,36,0.006564,10.206678,0.016300,10.207269,1.466299,9.707269,1.474829,9.699715,1.485355,9.695355,1.488601,9.687520,1.494949,9.681898,1.495639,9.670527,1.500000,9.660000,1.500000,0.360000,1.493890,0.345251,1.489854,0.329807,1.486737,0.327982,1.485355,0.324645,1.470608,0.318536,1.456832,0.310469,0.300000,0.150906,0.300000,-0.400000,-0.300000,-0.400000,-0.300000,0.238617,
-0.470307,0.314309,-0.476736,0.321075,-0.485355,0.324645,-0.489395,0.334397,-0.496667,0.342051,-0.496429,0.351379,-0.500000,0.360000,-0.500000,9.660000,-0.493142,9.676557,-0.487165,9.693448,-0.037165,10.193448,-0.028363,10.197648,-0.021898,10.204949,-0.011777,10.205564,-0.002628,10.209930,0.006564,10.206678,0.006564,10.206678,$1*%
G04 Aperture macros list end*
%ADD10C,0.370000*%
%ADD11C,0.150000*%
%ADD12C,0.300000*%
%ADD13C,0.010000*%
%ADD14C,0.600000*%
%ADD15FreePoly0,0.000000*%
%ADD16FreePoly1,0.000000*%
%ADD17FreePoly2,0.000000*%
G04 APERTURE END LIST*
D10*
X175645645Y-107939318D02*
X175645645Y-109939318D01*
X174978979Y-108510746D01*
X174312312Y-109939318D01*
X174312312Y-107939318D01*
X172598026Y-108034556D02*
X172788502Y-107939318D01*
X173169455Y-107939318D01*
X173359931Y-108034556D01*
X173455169Y-108225032D01*
X173455169Y-108986937D01*
X173359931Y-109177413D01*
X173169455Y-109272651D01*
X172788502Y-109272651D01*
X172598026Y-109177413D01*
X172502788Y-108986937D01*
X172502788Y-108796460D01*
X173455169Y-108605984D01*
X171645645Y-107939318D02*
X171645645Y-109272651D01*
X171645645Y-109082175D02*
X171550407Y-109177413D01*
X171359931Y-109272651D01*
X171074217Y-109272651D01*
X170883740Y-109177413D01*
X170788502Y-108986937D01*
X170788502Y-107939318D01*
X170788502Y-108986937D02*
X170693264Y-109177413D01*
X170502788Y-109272651D01*
X170217074Y-109272651D01*
X170026598Y-109177413D01*
X169931360Y-108986937D01*
X169931360Y-107939318D01*
X167836121Y-108129794D02*
X167931360Y-108034556D01*
X168217074Y-107939318D01*
X168407550Y-107939318D01*
X168693264Y-108034556D01*
X168883740Y-108225032D01*
X168978979Y-108415508D01*
X169074217Y-108796460D01*
X169074217Y-109082175D01*
X168978979Y-109463127D01*
X168883740Y-109653603D01*
X168693264Y-109844080D01*
X168407550Y-109939318D01*
X168217074Y-109939318D01*
X167931360Y-109844080D01*
X167836121Y-109748841D01*
X166121836Y-107939318D02*
X166121836Y-108986937D01*
X166217074Y-109177413D01*
X166407550Y-109272651D01*
X166788502Y-109272651D01*
X166978979Y-109177413D01*
X166121836Y-108034556D02*
X166312312Y-107939318D01*
X166788502Y-107939318D01*
X166978979Y-108034556D01*
X167074217Y-108225032D01*
X167074217Y-108415508D01*
X166978979Y-108605984D01*
X166788502Y-108701222D01*
X166312312Y-108701222D01*
X166121836Y-108796460D01*
X165169455Y-107939318D02*
X165169455Y-109272651D01*
X165169455Y-108891699D02*
X165074217Y-109082175D01*
X164978979Y-109177413D01*
X164788502Y-109272651D01*
X164598026Y-109272651D01*
X163074217Y-107939318D02*
X163074217Y-109939318D01*
X163074217Y-108034556D02*
X163264693Y-107939318D01*
X163645645Y-107939318D01*
X163836121Y-108034556D01*
X163931360Y-108129794D01*
X164026598Y-108320270D01*
X164026598Y-108891699D01*
X163931360Y-109082175D01*
X163836121Y-109177413D01*
X163645645Y-109272651D01*
X163264693Y-109272651D01*
X163074217Y-109177413D01*
X159931360Y-108986937D02*
X159645645Y-108891699D01*
X159550407Y-108796460D01*
X159455169Y-108605984D01*
X159455169Y-108320270D01*
X159550407Y-108129794D01*
X159645645Y-108034556D01*
X159836121Y-107939318D01*
X160598026Y-107939318D01*
X160598026Y-109939318D01*
X159931360Y-109939318D01*
X159740883Y-109844080D01*
X159645645Y-109748841D01*
X159550407Y-109558365D01*
X159550407Y-109367889D01*
X159645645Y-109177413D01*
X159740883Y-109082175D01*
X159931360Y-108986937D01*
X160598026Y-108986937D01*
X158598026Y-107939318D02*
X158598026Y-109272651D01*
X158598026Y-108891699D02*
X158502788Y-109082175D01*
X158407550Y-109177413D01*
X158217074Y-109272651D01*
X158026598Y-109272651D01*
X156598026Y-108034556D02*
X156788502Y-107939318D01*
X157169455Y-107939318D01*
X157359931Y-108034556D01*
X157455169Y-108225032D01*
X157455169Y-108986937D01*
X157359931Y-109177413D01*
X157169455Y-109272651D01*
X156788502Y-109272651D01*
X156598026Y-109177413D01*
X156502788Y-108986937D01*
X156502788Y-108796460D01*
X157455169Y-108605984D01*
X154788502Y-107939318D02*
X154788502Y-108986937D01*
X154883740Y-109177413D01*
X155074217Y-109272651D01*
X155455169Y-109272651D01*
X155645645Y-109177413D01*
X154788502Y-108034556D02*
X154978979Y-107939318D01*
X155455169Y-107939318D01*
X155645645Y-108034556D01*
X155740883Y-108225032D01*
X155740883Y-108415508D01*
X155645645Y-108605984D01*
X155455169Y-108701222D01*
X154978979Y-108701222D01*
X154788502Y-108796460D01*
X153836121Y-107939318D02*
X153836121Y-109939318D01*
X153645645Y-108701222D02*
X153074217Y-107939318D01*
X153074217Y-109272651D02*
X153836121Y-108510746D01*
X151931360Y-107939318D02*
X152121836Y-108034556D01*
X152217074Y-108129794D01*
X152312312Y-108320270D01*
X152312312Y-108891699D01*
X152217074Y-109082175D01*
X152121836Y-109177413D01*
X151931360Y-109272651D01*
X151645645Y-109272651D01*
X151455169Y-109177413D01*
X151359931Y-109082175D01*
X151264693Y-108891699D01*
X151264693Y-108320270D01*
X151359931Y-108129794D01*
X151455169Y-108034556D01*
X151645645Y-107939318D01*
X151931360Y-107939318D01*
X149550407Y-109272651D02*
X149550407Y-107939318D01*
X150407550Y-109272651D02*
X150407550Y-108225032D01*
X150312312Y-108034556D01*
X150121836Y-107939318D01*
X149836121Y-107939318D01*
X149645645Y-108034556D01*
X149550407Y-108129794D01*
X148883740Y-109272651D02*
X148121836Y-109272651D01*
X148598026Y-109939318D02*
X148598026Y-108225032D01*
X148502788Y-108034556D01*
X148312312Y-107939318D01*
X148121836Y-107939318D01*
X145264693Y-108986937D02*
X144978979Y-108891699D01*
X144883740Y-108796460D01*
X144788502Y-108605984D01*
X144788502Y-108320270D01*
X144883740Y-108129794D01*
X144978979Y-108034556D01*
X145169455Y-107939318D01*
X145931360Y-107939318D01*
X145931360Y-109939318D01*
X145264693Y-109939318D01*
X145074217Y-109844080D01*
X144978979Y-109748841D01*
X144883740Y-109558365D01*
X144883740Y-109367889D01*
X144978979Y-109177413D01*
X145074217Y-109082175D01*
X145264693Y-108986937D01*
X145931360Y-108986937D01*
X143645645Y-107939318D02*
X143836121Y-108034556D01*
X143931360Y-108129794D01*
X144026598Y-108320270D01*
X144026598Y-108891699D01*
X143931360Y-109082175D01*
X143836121Y-109177413D01*
X143645645Y-109272651D01*
X143359931Y-109272651D01*
X143169455Y-109177413D01*
X143074217Y-109082175D01*
X142978979Y-108891699D01*
X142978979Y-108320270D01*
X143074217Y-108129794D01*
X143169455Y-108034556D01*
X143359931Y-107939318D01*
X143645645Y-107939318D01*
X141264693Y-107939318D02*
X141264693Y-108986937D01*
X141359931Y-109177413D01*
X141550407Y-109272651D01*
X141931360Y-109272651D01*
X142121836Y-109177413D01*
X141264693Y-108034556D02*
X141455169Y-107939318D01*
X141931360Y-107939318D01*
X142121836Y-108034556D01*
X142217074Y-108225032D01*
X142217074Y-108415508D01*
X142121836Y-108605984D01*
X141931360Y-108701222D01*
X141455169Y-108701222D01*
X141264693Y-108796460D01*
X140312312Y-107939318D02*
X140312312Y-109272651D01*
X140312312Y-108891699D02*
X140217074Y-109082175D01*
X140121836Y-109177413D01*
X139931360Y-109272651D01*
X139740883Y-109272651D01*
X138217074Y-107939318D02*
X138217074Y-109939318D01*
X138217074Y-108034556D02*
X138407550Y-107939318D01*
X138788502Y-107939318D01*
X138978979Y-108034556D01*
X139074217Y-108129794D01*
X139169455Y-108320270D01*
X139169455Y-108891699D01*
X139074217Y-109082175D01*
X138978979Y-109177413D01*
X138788502Y-109272651D01*
X138407550Y-109272651D01*
X138217074Y-109177413D01*
D11*
X183435239Y-88367812D02*
X182720953Y-88367812D01*
X182578096Y-88320193D01*
X182482858Y-88224955D01*
X182435239Y-88082098D01*
X182435239Y-87986860D01*
X182435239Y-89320193D02*
X182435239Y-88844002D01*
X183435239Y-88844002D01*
X182530477Y-90224955D02*
X182482858Y-90177336D01*
X182435239Y-90034479D01*
X182435239Y-89939240D01*
X182482858Y-89796383D01*
X182578096Y-89701145D01*
X182673334Y-89653526D01*
X182863810Y-89605907D01*
X183006667Y-89605907D01*
X183197143Y-89653526D01*
X183292381Y-89701145D01*
X183387620Y-89796383D01*
X183435239Y-89939240D01*
X183435239Y-90034479D01*
X183387620Y-90177336D01*
X183340000Y-90224955D01*
X183435239Y-90939240D02*
X182720953Y-90939240D01*
X182578096Y-90891621D01*
X182482858Y-90796383D01*
X182435239Y-90653526D01*
X182435239Y-90558288D01*
X182435239Y-91891621D02*
X182435239Y-91415431D01*
X183435239Y-91415431D01*
X182530477Y-92796383D02*
X182482858Y-92748764D01*
X182435239Y-92605907D01*
X182435239Y-92510669D01*
X182482858Y-92367812D01*
X182578096Y-92272574D01*
X182673334Y-92224955D01*
X182863810Y-92177336D01*
X183006667Y-92177336D01*
X183197143Y-92224955D01*
X183292381Y-92272574D01*
X183387620Y-92367812D01*
X183435239Y-92510669D01*
X183435239Y-92605907D01*
X183387620Y-92748764D01*
X183340000Y-92796383D01*
X183435239Y-93510669D02*
X182720953Y-93510669D01*
X182578096Y-93463050D01*
X182482858Y-93367812D01*
X182435239Y-93224955D01*
X182435239Y-93129717D01*
X182435239Y-94463050D02*
X182435239Y-93986860D01*
X183435239Y-93986860D01*
X182530477Y-95367812D02*
X182482858Y-95320193D01*
X182435239Y-95177336D01*
X182435239Y-95082098D01*
X182482858Y-94939240D01*
X182578096Y-94844002D01*
X182673334Y-94796383D01*
X182863810Y-94748764D01*
X183006667Y-94748764D01*
X183197143Y-94796383D01*
X183292381Y-94844002D01*
X183387620Y-94939240D01*
X183435239Y-95082098D01*
X183435239Y-95177336D01*
X183387620Y-95320193D01*
X183340000Y-95367812D01*
X183435239Y-96082098D02*
X182720953Y-96082098D01*
X182578096Y-96034479D01*
X182482858Y-95939240D01*
X182435239Y-95796383D01*
X182435239Y-95701145D01*
X182435239Y-97034479D02*
X182435239Y-96558288D01*
X183435239Y-96558288D01*
X182530477Y-97939240D02*
X182482858Y-97891621D01*
X182435239Y-97748764D01*
X182435239Y-97653526D01*
X182482858Y-97510669D01*
X182578096Y-97415431D01*
X182673334Y-97367812D01*
X182863810Y-97320193D01*
X183006667Y-97320193D01*
X183197143Y-97367812D01*
X183292381Y-97415431D01*
X183387620Y-97510669D01*
X183435239Y-97653526D01*
X183435239Y-97748764D01*
X183387620Y-97891621D01*
X183340000Y-97939240D01*
X167619047Y-89547619D02*
X167619047Y-90547619D01*
X167619047Y-90166666D02*
X167523809Y-90214285D01*
X167333333Y-90214285D01*
X167238095Y-90166666D01*
X167190476Y-90119047D01*
X167142857Y-90023809D01*
X167142857Y-89738095D01*
X167190476Y-89642857D01*
X167238095Y-89595238D01*
X167333333Y-89547619D01*
X167523809Y-89547619D01*
X167619047Y-89595238D01*
X166809523Y-90214285D02*
X166571428Y-89547619D01*
X166333333Y-90214285D02*
X166571428Y-89547619D01*
X166666666Y-89309523D01*
X166714285Y-89261904D01*
X166809523Y-89214285D01*
X165190476Y-89547619D02*
X165190476Y-90547619D01*
X165190476Y-90071428D02*
X164619047Y-90071428D01*
X164619047Y-89547619D02*
X164619047Y-90547619D01*
X164238095Y-90547619D02*
X164000000Y-89547619D01*
X163809523Y-90261904D01*
X163619047Y-89547619D01*
X163380952Y-90547619D01*
X162428571Y-89547619D02*
X162761904Y-90023809D01*
X163000000Y-89547619D02*
X163000000Y-90547619D01*
X162619047Y-90547619D01*
X162523809Y-90500000D01*
X162476190Y-90452380D01*
X162428571Y-90357142D01*
X162428571Y-90214285D01*
X162476190Y-90119047D01*
X162523809Y-90071428D01*
X162619047Y-90023809D01*
X163000000Y-90023809D01*
X161809523Y-90547619D02*
X161714285Y-90547619D01*
X161619047Y-90500000D01*
X161571428Y-90452380D01*
X161523809Y-90357142D01*
X161476190Y-90166666D01*
X161476190Y-89928571D01*
X161523809Y-89738095D01*
X161571428Y-89642857D01*
X161619047Y-89595238D01*
X161714285Y-89547619D01*
X161809523Y-89547619D01*
X161904761Y-89595238D01*
X161952380Y-89642857D01*
X162000000Y-89738095D01*
X162047619Y-89928571D01*
X162047619Y-90166666D01*
X162000000Y-90357142D01*
X161952380Y-90452380D01*
X161904761Y-90500000D01*
X161809523Y-90547619D01*
X159523809Y-90214285D02*
X160285714Y-89928571D01*
X159523809Y-89642857D01*
X158666666Y-89595238D02*
X158761904Y-89547619D01*
X158952380Y-89547619D01*
X159047619Y-89595238D01*
X159095238Y-89690476D01*
X159095238Y-90071428D01*
X159047619Y-90166666D01*
X158952380Y-90214285D01*
X158761904Y-90214285D01*
X158666666Y-90166666D01*
X158619047Y-90071428D01*
X158619047Y-89976190D01*
X159095238Y-89880952D01*
X158285714Y-90214285D02*
X158047619Y-89547619D01*
X157809523Y-90214285D01*
X157428571Y-89547619D02*
X157428571Y-90214285D01*
X157428571Y-90547619D02*
X157476190Y-90500000D01*
X157428571Y-90452380D01*
X157380952Y-90500000D01*
X157428571Y-90547619D01*
X157428571Y-90452380D01*
X156809523Y-89547619D02*
X156904761Y-89595238D01*
X156952380Y-89690476D01*
X156952380Y-90547619D01*
X156428571Y-89547619D02*
X156428571Y-90547619D01*
X156000000Y-89547619D02*
X156000000Y-90071428D01*
X156047619Y-90166666D01*
X156142857Y-90214285D01*
X156285714Y-90214285D01*
X156380952Y-90166666D01*
X156428571Y-90119047D01*
X155095238Y-89547619D02*
X155095238Y-90071428D01*
X155142857Y-90166666D01*
X155238095Y-90214285D01*
X155428571Y-90214285D01*
X155523809Y-90166666D01*
X155095238Y-89595238D02*
X155190476Y-89547619D01*
X155428571Y-89547619D01*
X155523809Y-89595238D01*
X155571428Y-89690476D01*
X155571428Y-89785714D01*
X155523809Y-89880952D01*
X155428571Y-89928571D01*
X155190476Y-89928571D01*
X155095238Y-89976190D01*
X154619047Y-89547619D02*
X154619047Y-90214285D01*
X154619047Y-90023809D02*
X154571428Y-90119047D01*
X154523809Y-90166666D01*
X154428571Y-90214285D01*
X154333333Y-90214285D01*
X153571428Y-89547619D02*
X153571428Y-90547619D01*
X153571428Y-89595238D02*
X153666666Y-89547619D01*
X153857142Y-89547619D01*
X153952380Y-89595238D01*
X154000000Y-89642857D01*
X154047619Y-89738095D01*
X154047619Y-90023809D01*
X154000000Y-90119047D01*
X153952380Y-90166666D01*
X153857142Y-90214285D01*
X153666666Y-90214285D01*
X153571428Y-90166666D01*
X153190476Y-90214285D02*
X153000000Y-89547619D01*
X152809523Y-90023809D01*
X152619047Y-89547619D01*
X152428571Y-90214285D01*
X151619047Y-89547619D02*
X151619047Y-90071428D01*
X151666666Y-90166666D01*
X151761904Y-90214285D01*
X151952380Y-90214285D01*
X152047619Y-90166666D01*
X151619047Y-89595238D02*
X151714285Y-89547619D01*
X151952380Y-89547619D01*
X152047619Y-89595238D01*
X152095238Y-89690476D01*
X152095238Y-89785714D01*
X152047619Y-89880952D01*
X151952380Y-89928571D01*
X151714285Y-89928571D01*
X151619047Y-89976190D01*
X151142857Y-89547619D02*
X151142857Y-90214285D01*
X151142857Y-90023809D02*
X151095238Y-90119047D01*
X151047619Y-90166666D01*
X150952380Y-90214285D01*
X150857142Y-90214285D01*
X150142857Y-89595238D02*
X150238095Y-89547619D01*
X150428571Y-89547619D01*
X150523809Y-89595238D01*
X150571428Y-89690476D01*
X150571428Y-90071428D01*
X150523809Y-90166666D01*
X150428571Y-90214285D01*
X150238095Y-90214285D01*
X150142857Y-90166666D01*
X150095238Y-90071428D01*
X150095238Y-89976190D01*
X150571428Y-89880952D01*
X149047619Y-90023809D02*
X149095238Y-90071428D01*
X149190476Y-90119047D01*
X149285714Y-90119047D01*
X149380952Y-90071428D01*
X149428571Y-90023809D01*
X149476190Y-89928571D01*
X149476190Y-89833333D01*
X149428571Y-89738095D01*
X149380952Y-89690476D01*
X149285714Y-89642857D01*
X149190476Y-89642857D01*
X149095238Y-89690476D01*
X149047619Y-89738095D01*
X149047619Y-90119047D02*
X149047619Y-89738095D01*
X149000000Y-89690476D01*
X148952380Y-89690476D01*
X148857142Y-89738095D01*
X148809523Y-89833333D01*
X148809523Y-90071428D01*
X148904761Y-90214285D01*
X149047619Y-90309523D01*
X149238095Y-90357142D01*
X149428571Y-90309523D01*
X149571428Y-90214285D01*
X149666666Y-90071428D01*
X149714285Y-89880952D01*
X149666666Y-89690476D01*
X149571428Y-89547619D01*
X149428571Y-89452380D01*
X149238095Y-89404761D01*
X149047619Y-89452380D01*
X148904761Y-89547619D01*
X148380952Y-89547619D02*
X148380952Y-90214285D01*
X148380952Y-90119047D02*
X148333333Y-90166666D01*
X148238095Y-90214285D01*
X148095238Y-90214285D01*
X148000000Y-90166666D01*
X147952380Y-90071428D01*
X147952380Y-89547619D01*
X147952380Y-90071428D02*
X147904761Y-90166666D01*
X147809523Y-90214285D01*
X147666666Y-90214285D01*
X147571428Y-90166666D01*
X147523809Y-90071428D01*
X147523809Y-89547619D01*
X146619047Y-89547619D02*
X146619047Y-90071428D01*
X146666666Y-90166666D01*
X146761904Y-90214285D01*
X146952380Y-90214285D01*
X147047619Y-90166666D01*
X146619047Y-89595238D02*
X146714285Y-89547619D01*
X146952380Y-89547619D01*
X147047619Y-89595238D01*
X147095238Y-89690476D01*
X147095238Y-89785714D01*
X147047619Y-89880952D01*
X146952380Y-89928571D01*
X146714285Y-89928571D01*
X146619047Y-89976190D01*
X146142857Y-89547619D02*
X146142857Y-90214285D01*
X146142857Y-90547619D02*
X146190476Y-90500000D01*
X146142857Y-90452380D01*
X146095238Y-90500000D01*
X146142857Y-90547619D01*
X146142857Y-90452380D01*
X145523809Y-89547619D02*
X145619047Y-89595238D01*
X145666666Y-89690476D01*
X145666666Y-90547619D01*
X145142857Y-89642857D02*
X145095238Y-89595238D01*
X145142857Y-89547619D01*
X145190476Y-89595238D01*
X145142857Y-89642857D01*
X145142857Y-89547619D01*
X144666666Y-89547619D02*
X144666666Y-90214285D01*
X144666666Y-90023809D02*
X144619047Y-90119047D01*
X144571428Y-90166666D01*
X144476190Y-90214285D01*
X144380952Y-90214285D01*
X143619047Y-90214285D02*
X143619047Y-89547619D01*
X144047619Y-90214285D02*
X144047619Y-89690476D01*
X144000000Y-89595238D01*
X143904761Y-89547619D01*
X143761904Y-89547619D01*
X143666666Y-89595238D01*
X143619047Y-89642857D01*
X143142857Y-90214285D02*
X142380952Y-89928571D01*
X143142857Y-89642857D01*
D12*
X183188095Y-116190476D02*
X182945238Y-116095238D01*
X182540476Y-116095238D01*
X182378571Y-116190476D01*
X182297619Y-116285714D01*
X182216666Y-116476190D01*
X182216666Y-116666666D01*
X182297619Y-116857142D01*
X182378571Y-116952380D01*
X182540476Y-117047619D01*
X182864285Y-117142857D01*
X183026190Y-117238095D01*
X183107142Y-117333333D01*
X183188095Y-117523809D01*
X183188095Y-117714285D01*
X183107142Y-117904761D01*
X183026190Y-118000000D01*
X182864285Y-118095238D01*
X182459523Y-118095238D01*
X182216666Y-118000000D01*
X181488095Y-116095238D02*
X181488095Y-118095238D01*
X181488095Y-117142857D02*
X180516666Y-117142857D01*
X180516666Y-116095238D02*
X180516666Y-118095238D01*
X179788095Y-116666666D02*
X178978571Y-116666666D01*
X179950000Y-116095238D02*
X179383333Y-118095238D01*
X178816666Y-116095238D01*
X177278571Y-116095238D02*
X177845238Y-117047619D01*
X178250000Y-116095238D02*
X178250000Y-118095238D01*
X177602380Y-118095238D01*
X177440476Y-118000000D01*
X177359523Y-117904761D01*
X177278571Y-117714285D01*
X177278571Y-117428571D01*
X177359523Y-117238095D01*
X177440476Y-117142857D01*
X177602380Y-117047619D01*
X178250000Y-117047619D01*
X176550000Y-116095238D02*
X176550000Y-118095238D01*
X175902380Y-118095238D01*
X175740476Y-118000000D01*
X175659523Y-117904761D01*
X175578571Y-117714285D01*
X175578571Y-117428571D01*
X175659523Y-117238095D01*
X175740476Y-117142857D01*
X175902380Y-117047619D01*
X176550000Y-117047619D01*
X173554761Y-116095238D02*
X173554761Y-118095238D01*
X172907142Y-118095238D01*
X172745238Y-118000000D01*
X172664285Y-117904761D01*
X172583333Y-117714285D01*
X172583333Y-117428571D01*
X172664285Y-117238095D01*
X172745238Y-117142857D01*
X172907142Y-117047619D01*
X173554761Y-117047619D01*
X170883333Y-116285714D02*
X170964285Y-116190476D01*
X171207142Y-116095238D01*
X171369047Y-116095238D01*
X171611904Y-116190476D01*
X171773809Y-116380952D01*
X171854761Y-116571428D01*
X171935714Y-116952380D01*
X171935714Y-117238095D01*
X171854761Y-117619047D01*
X171773809Y-117809523D01*
X171611904Y-118000000D01*
X171369047Y-118095238D01*
X171207142Y-118095238D01*
X170964285Y-118000000D01*
X170883333Y-117904761D01*
X170154761Y-116857142D02*
X168859523Y-116857142D01*
X167159523Y-116095238D02*
X168130952Y-116095238D01*
X167645238Y-116095238D02*
X167645238Y-118095238D01*
X167807142Y-117809523D01*
X167969047Y-117619047D01*
X168130952Y-117523809D01*
X165702380Y-117428571D02*
X165702380Y-116095238D01*
X166107142Y-118190476D02*
X166511904Y-116761904D01*
X165459523Y-116761904D01*
X164569047Y-117238095D02*
X164730952Y-117333333D01*
X164811904Y-117428571D01*
X164892857Y-117619047D01*
X164892857Y-117714285D01*
X164811904Y-117904761D01*
X164730952Y-118000000D01*
X164569047Y-118095238D01*
X164245238Y-118095238D01*
X164083333Y-118000000D01*
X164002380Y-117904761D01*
X163921428Y-117714285D01*
X163921428Y-117619047D01*
X164002380Y-117428571D01*
X164083333Y-117333333D01*
X164245238Y-117238095D01*
X164569047Y-117238095D01*
X164730952Y-117142857D01*
X164811904Y-117047619D01*
X164892857Y-116857142D01*
X164892857Y-116476190D01*
X164811904Y-116285714D01*
X164730952Y-116190476D01*
X164569047Y-116095238D01*
X164245238Y-116095238D01*
X164083333Y-116190476D01*
X164002380Y-116285714D01*
X163921428Y-116476190D01*
X163921428Y-116857142D01*
X164002380Y-117047619D01*
X164083333Y-117142857D01*
X164245238Y-117238095D01*
X162869047Y-118095238D02*
X162707142Y-118095238D01*
X162545238Y-118000000D01*
X162464285Y-117904761D01*
X162383333Y-117714285D01*
X162302380Y-117333333D01*
X162302380Y-116857142D01*
X162383333Y-116476190D01*
X162464285Y-116285714D01*
X162545238Y-116190476D01*
X162707142Y-116095238D01*
X162869047Y-116095238D01*
X163030952Y-116190476D01*
X163111904Y-116285714D01*
X163192857Y-116476190D01*
X163273809Y-116857142D01*
X163273809Y-117333333D01*
X163192857Y-117714285D01*
X163111904Y-117904761D01*
X163030952Y-118000000D01*
X162869047Y-118095238D01*
X160359523Y-118190476D02*
X161816666Y-115619047D01*
X159792857Y-117142857D02*
X159226190Y-117142857D01*
X158983333Y-116095238D02*
X159792857Y-116095238D01*
X159792857Y-118095238D01*
X158983333Y-118095238D01*
X157445238Y-118095238D02*
X158254761Y-118095238D01*
X158335714Y-117142857D01*
X158254761Y-117238095D01*
X158092857Y-117333333D01*
X157688095Y-117333333D01*
X157526190Y-117238095D01*
X157445238Y-117142857D01*
X157364285Y-116952380D01*
X157364285Y-116476190D01*
X157445238Y-116285714D01*
X157526190Y-116190476D01*
X157688095Y-116095238D01*
X158092857Y-116095238D01*
X158254761Y-116190476D01*
X158335714Y-116285714D01*
X156311904Y-118095238D02*
X156150000Y-118095238D01*
X155988095Y-118000000D01*
X155907142Y-117904761D01*
X155826190Y-117714285D01*
X155745238Y-117333333D01*
X155745238Y-116857142D01*
X155826190Y-116476190D01*
X155907142Y-116285714D01*
X155988095Y-116190476D01*
X156150000Y-116095238D01*
X156311904Y-116095238D01*
X156473809Y-116190476D01*
X156554761Y-116285714D01*
X156635714Y-116476190D01*
X156716666Y-116857142D01*
X156716666Y-117333333D01*
X156635714Y-117714285D01*
X156554761Y-117904761D01*
X156473809Y-118000000D01*
X156311904Y-118095238D01*
X154692857Y-118095238D02*
X154530952Y-118095238D01*
X154369047Y-118000000D01*
X154288095Y-117904761D01*
X154207142Y-117714285D01*
X154126190Y-117333333D01*
X154126190Y-116857142D01*
X154207142Y-116476190D01*
X154288095Y-116285714D01*
X154369047Y-116190476D01*
X154530952Y-116095238D01*
X154692857Y-116095238D01*
X154854761Y-116190476D01*
X154935714Y-116285714D01*
X155016666Y-116476190D01*
X155097619Y-116857142D01*
X155097619Y-117333333D01*
X155016666Y-117714285D01*
X154935714Y-117904761D01*
X154854761Y-118000000D01*
X154692857Y-118095238D01*
X152183333Y-118190476D02*
X153640476Y-115619047D01*
X150807142Y-118095238D02*
X151616666Y-118095238D01*
X151697619Y-117142857D01*
X151616666Y-117238095D01*
X151454761Y-117333333D01*
X151050000Y-117333333D01*
X150888095Y-117238095D01*
X150807142Y-117142857D01*
X150726190Y-116952380D01*
X150726190Y-116476190D01*
X150807142Y-116285714D01*
X150888095Y-116190476D01*
X151050000Y-116095238D01*
X151454761Y-116095238D01*
X151616666Y-116190476D01*
X151697619Y-116285714D01*
X149188095Y-118095238D02*
X149997619Y-118095238D01*
X150078571Y-117142857D01*
X149997619Y-117238095D01*
X149835714Y-117333333D01*
X149430952Y-117333333D01*
X149269047Y-117238095D01*
X149188095Y-117142857D01*
X149107142Y-116952380D01*
X149107142Y-116476190D01*
X149188095Y-116285714D01*
X149269047Y-116190476D01*
X149430952Y-116095238D01*
X149835714Y-116095238D01*
X149997619Y-116190476D01*
X150078571Y-116285714D01*
X148054761Y-118095238D02*
X147892857Y-118095238D01*
X147730952Y-118000000D01*
X147650000Y-117904761D01*
X147569047Y-117714285D01*
X147488095Y-117333333D01*
X147488095Y-116857142D01*
X147569047Y-116476190D01*
X147650000Y-116285714D01*
X147730952Y-116190476D01*
X147892857Y-116095238D01*
X148054761Y-116095238D01*
X148216666Y-116190476D01*
X148297619Y-116285714D01*
X148378571Y-116476190D01*
X148459523Y-116857142D01*
X148459523Y-117333333D01*
X148378571Y-117714285D01*
X148297619Y-117904761D01*
X148216666Y-118000000D01*
X148054761Y-118095238D01*
X145545238Y-118190476D02*
X147002380Y-115619047D01*
X144250000Y-118095238D02*
X144573809Y-118095238D01*
X144735714Y-118000000D01*
X144816666Y-117904761D01*
X144978571Y-117619047D01*
X145059523Y-117238095D01*
X145059523Y-116476190D01*
X144978571Y-116285714D01*
X144897619Y-116190476D01*
X144735714Y-116095238D01*
X144411904Y-116095238D01*
X144250000Y-116190476D01*
X144169047Y-116285714D01*
X144088095Y-116476190D01*
X144088095Y-116952380D01*
X144169047Y-117142857D01*
X144250000Y-117238095D01*
X144411904Y-117333333D01*
X144735714Y-117333333D01*
X144897619Y-117238095D01*
X144978571Y-117142857D01*
X145059523Y-116952380D01*
X142550000Y-118095238D02*
X143359523Y-118095238D01*
X143440476Y-117142857D01*
X143359523Y-117238095D01*
X143197619Y-117333333D01*
X142792857Y-117333333D01*
X142630952Y-117238095D01*
X142550000Y-117142857D01*
X142469047Y-116952380D01*
X142469047Y-116476190D01*
X142550000Y-116285714D01*
X142630952Y-116190476D01*
X142792857Y-116095238D01*
X143197619Y-116095238D01*
X143359523Y-116190476D01*
X143440476Y-116285714D01*
X141416666Y-118095238D02*
X141254761Y-118095238D01*
X141092857Y-118000000D01*
X141011904Y-117904761D01*
X140930952Y-117714285D01*
X140850000Y-117333333D01*
X140850000Y-116857142D01*
X140930952Y-116476190D01*
X141011904Y-116285714D01*
X141092857Y-116190476D01*
X141254761Y-116095238D01*
X141416666Y-116095238D01*
X141578571Y-116190476D01*
X141659523Y-116285714D01*
X141740476Y-116476190D01*
X141821428Y-116857142D01*
X141821428Y-117333333D01*
X141740476Y-117714285D01*
X141659523Y-117904761D01*
X141578571Y-118000000D01*
X141416666Y-118095238D01*
X138907142Y-118190476D02*
X140364285Y-115619047D01*
X138340476Y-118095238D02*
X138340476Y-116476190D01*
X138259523Y-116285714D01*
X138178571Y-116190476D01*
X138016666Y-116095238D01*
X137692857Y-116095238D01*
X137530952Y-116190476D01*
X137450000Y-116285714D01*
X137369047Y-116476190D01*
X137369047Y-118095238D01*
X135830952Y-118095238D02*
X136154761Y-118095238D01*
X136316666Y-118000000D01*
X136397619Y-117904761D01*
X136559523Y-117619047D01*
X136640476Y-117238095D01*
X136640476Y-116476190D01*
X136559523Y-116285714D01*
X136478571Y-116190476D01*
X136316666Y-116095238D01*
X135992857Y-116095238D01*
X135830952Y-116190476D01*
X135750000Y-116285714D01*
X135669047Y-116476190D01*
X135669047Y-116952380D01*
X135750000Y-117142857D01*
X135830952Y-117238095D01*
X135992857Y-117333333D01*
X136316666Y-117333333D01*
X136478571Y-117238095D01*
X136559523Y-117142857D01*
X136640476Y-116952380D01*
X134616666Y-118095238D02*
X134454761Y-118095238D01*
X134292857Y-118000000D01*
X134211904Y-117904761D01*
X134130952Y-117714285D01*
X134050000Y-117333333D01*
X134050000Y-116857142D01*
X134130952Y-116476190D01*
X134211904Y-116285714D01*
X134292857Y-116190476D01*
X134454761Y-116095238D01*
X134616666Y-116095238D01*
X134778571Y-116190476D01*
X134859523Y-116285714D01*
X134940476Y-116476190D01*
X135021428Y-116857142D01*
X135021428Y-117333333D01*
X134940476Y-117714285D01*
X134859523Y-117904761D01*
X134778571Y-118000000D01*
X134616666Y-118095238D01*
X132997619Y-118095238D02*
X132835714Y-118095238D01*
X132673809Y-118000000D01*
X132592857Y-117904761D01*
X132511904Y-117714285D01*
X132430952Y-117333333D01*
X132430952Y-116857142D01*
X132511904Y-116476190D01*
X132592857Y-116285714D01*
X132673809Y-116190476D01*
X132835714Y-116095238D01*
X132997619Y-116095238D01*
X133159523Y-116190476D01*
X133240476Y-116285714D01*
X133321428Y-116476190D01*
X133402380Y-116857142D01*
X133402380Y-117333333D01*
X133321428Y-117714285D01*
X133240476Y-117904761D01*
X133159523Y-118000000D01*
X132997619Y-118095238D01*
X131378571Y-118095238D02*
X131216666Y-118095238D01*
X131054761Y-118000000D01*
X130973809Y-117904761D01*
X130892857Y-117714285D01*
X130811904Y-117333333D01*
X130811904Y-116857142D01*
X130892857Y-116476190D01*
X130973809Y-116285714D01*
X131054761Y-116190476D01*
X131216666Y-116095238D01*
X131378571Y-116095238D01*
X131540476Y-116190476D01*
X131621428Y-116285714D01*
X131702380Y-116476190D01*
X131783333Y-116857142D01*
X131783333Y-117333333D01*
X131702380Y-117714285D01*
X131621428Y-117904761D01*
X131540476Y-118000000D01*
X131378571Y-118095238D01*
%LPC*%
D13*
%TO.C,G\u002A\u002A\u002A*%
X169927781Y-113640980D02*
X169914987Y-113619671D01*
X169914987Y-113619671D02*
X169914459Y-113618423D01*
X169914459Y-113618423D02*
X169895639Y-113588485D01*
X169895639Y-113588485D02*
X169863949Y-113553098D01*
X169863949Y-113553098D02*
X169824861Y-113517397D01*
X169824861Y-113517397D02*
X169783845Y-113486519D01*
X169783845Y-113486519D02*
X169756965Y-113470550D01*
X169756965Y-113470550D02*
X169725331Y-113455292D01*
X169725331Y-113455292D02*
X169694737Y-113443057D01*
X169694737Y-113443057D02*
X169662504Y-113433577D01*
X169662504Y-113433577D02*
X169625954Y-113426586D01*
X169625954Y-113426586D02*
X169582410Y-113421816D01*
X169582410Y-113421816D02*
X169529193Y-113418999D01*
X169529193Y-113418999D02*
X169463625Y-113417868D01*
X169463625Y-113417868D02*
X169383029Y-113418157D01*
X169383029Y-113418157D02*
X169284727Y-113419596D01*
X169284727Y-113419596D02*
X169252558Y-113420191D01*
X169252558Y-113420191D02*
X169028727Y-113426079D01*
X169028727Y-113426079D02*
X168790492Y-113435363D01*
X168790492Y-113435363D02*
X168544295Y-113447721D01*
X168544295Y-113447721D02*
X168296579Y-113462831D01*
X168296579Y-113462831D02*
X168060584Y-113479838D01*
X168060584Y-113479838D02*
X167973805Y-113486886D01*
X167973805Y-113486886D02*
X167905089Y-113493439D01*
X167905089Y-113493439D02*
X167851358Y-113500249D01*
X167851358Y-113500249D02*
X167809536Y-113508071D01*
X167809536Y-113508071D02*
X167776547Y-113517655D01*
X167776547Y-113517655D02*
X167749315Y-113529755D01*
X167749315Y-113529755D02*
X167724761Y-113545124D01*
X167724761Y-113545124D02*
X167699811Y-113564513D01*
X167699811Y-113564513D02*
X167693752Y-113569570D01*
X167693752Y-113569570D02*
X167655137Y-113597906D01*
X167655137Y-113597906D02*
X167621837Y-113610148D01*
X167621837Y-113610148D02*
X167586721Y-113607332D01*
X167586721Y-113607332D02*
X167544383Y-113591287D01*
X167544383Y-113591287D02*
X167491854Y-113563374D01*
X167491854Y-113563374D02*
X167438767Y-113528426D01*
X167438767Y-113528426D02*
X167388352Y-113489351D01*
X167388352Y-113489351D02*
X167343839Y-113449052D01*
X167343839Y-113449052D02*
X167308456Y-113410436D01*
X167308456Y-113410436D02*
X167285432Y-113376407D01*
X167285432Y-113376407D02*
X167277944Y-113351581D01*
X167277944Y-113351581D02*
X167288081Y-113316614D01*
X167288081Y-113316614D02*
X167316721Y-113285456D01*
X167316721Y-113285456D02*
X167355848Y-113263275D01*
X167355848Y-113263275D02*
X167394709Y-113240642D01*
X167394709Y-113240642D02*
X167420086Y-113208364D01*
X167420086Y-113208364D02*
X167435990Y-113162746D01*
X167435990Y-113162746D02*
X167439369Y-113142249D01*
X167439369Y-113142249D02*
X167444373Y-113103102D01*
X167444373Y-113103102D02*
X167450742Y-113047745D01*
X167450742Y-113047745D02*
X167458214Y-112978621D01*
X167458214Y-112978621D02*
X167466531Y-112898170D01*
X167466531Y-112898170D02*
X167475433Y-112808832D01*
X167475433Y-112808832D02*
X167484658Y-112713050D01*
X167484658Y-112713050D02*
X167490145Y-112654534D01*
X167490145Y-112654534D02*
X167503736Y-112508967D01*
X167503736Y-112508967D02*
X167515756Y-112382286D01*
X167515756Y-112382286D02*
X167526439Y-112272278D01*
X167526439Y-112272278D02*
X167536022Y-112176733D01*
X167536022Y-112176733D02*
X167544738Y-112093436D01*
X167544738Y-112093436D02*
X167552824Y-112020177D01*
X167552824Y-112020177D02*
X167560514Y-111954743D01*
X167560514Y-111954743D02*
X167568043Y-111894921D01*
X167568043Y-111894921D02*
X167575647Y-111838500D01*
X167575647Y-111838500D02*
X167580556Y-111803878D01*
X167580556Y-111803878D02*
X167586950Y-111757296D01*
X167586950Y-111757296D02*
X167591551Y-111719219D01*
X167591551Y-111719219D02*
X167593871Y-111694029D01*
X167593871Y-111694029D02*
X167593705Y-111686040D01*
X167593705Y-111686040D02*
X167583158Y-111680043D01*
X167583158Y-111680043D02*
X167559275Y-111667569D01*
X167559275Y-111667569D02*
X167533741Y-111654604D01*
X167533741Y-111654604D02*
X167477905Y-111621023D01*
X167477905Y-111621023D02*
X167429493Y-111581402D01*
X167429493Y-111581402D02*
X167392752Y-111539801D01*
X167392752Y-111539801D02*
X167371930Y-111500285D01*
X167371930Y-111500285D02*
X167371730Y-111499628D01*
X167371730Y-111499628D02*
X167366146Y-111459680D01*
X167366146Y-111459680D02*
X167377478Y-111429815D01*
X167377478Y-111429815D02*
X167406938Y-111408443D01*
X167406938Y-111408443D02*
X167451669Y-111394794D01*
X167451669Y-111394794D02*
X167476667Y-111390111D01*
X167476667Y-111390111D02*
X167499424Y-111387727D01*
X167499424Y-111387727D02*
X167524043Y-111388025D01*
X167524043Y-111388025D02*
X167554630Y-111391388D01*
X167554630Y-111391388D02*
X167595287Y-111398198D01*
X167595287Y-111398198D02*
X167650120Y-111408837D01*
X167650120Y-111408837D02*
X167690866Y-111417083D01*
X167690866Y-111417083D02*
X167773534Y-111429891D01*
X167773534Y-111429891D02*
X167875304Y-111438769D01*
X167875304Y-111438769D02*
X167994474Y-111443727D01*
X167994474Y-111443727D02*
X168129340Y-111444776D01*
X168129340Y-111444776D02*
X168278200Y-111441929D01*
X168278200Y-111441929D02*
X168439350Y-111435197D01*
X168439350Y-111435197D02*
X168611088Y-111424591D01*
X168611088Y-111424591D02*
X168791710Y-111410123D01*
X168791710Y-111410123D02*
X168797285Y-111409626D01*
X168797285Y-111409626D02*
X168975082Y-111392319D01*
X168975082Y-111392319D02*
X169131921Y-111374060D01*
X169131921Y-111374060D02*
X169267769Y-111354854D01*
X169267769Y-111354854D02*
X169382590Y-111334708D01*
X169382590Y-111334708D02*
X169476348Y-111313627D01*
X169476348Y-111313627D02*
X169549007Y-111291618D01*
X169549007Y-111291618D02*
X169583453Y-111277505D01*
X169583453Y-111277505D02*
X169655530Y-111252206D01*
X169655530Y-111252206D02*
X169723456Y-111246870D01*
X169723456Y-111246870D02*
X169789933Y-111261425D01*
X169789933Y-111261425D02*
X169813709Y-111271369D01*
X169813709Y-111271369D02*
X169874553Y-111308047D01*
X169874553Y-111308047D02*
X169934140Y-111358568D01*
X169934140Y-111358568D02*
X169988341Y-111418121D01*
X169988341Y-111418121D02*
X170033027Y-111481891D01*
X170033027Y-111481891D02*
X170064070Y-111545067D01*
X170064070Y-111545067D02*
X170072830Y-111573425D01*
X170072830Y-111573425D02*
X170079536Y-111610435D01*
X170079536Y-111610435D02*
X170078558Y-111642599D01*
X170078558Y-111642599D02*
X170069454Y-111681664D01*
X170069454Y-111681664D02*
X170068642Y-111684477D01*
X170068642Y-111684477D02*
X170054713Y-111721216D01*
X170054713Y-111721216D02*
X170035835Y-111756996D01*
X170035835Y-111756996D02*
X170015450Y-111786518D01*
X170015450Y-111786518D02*
X169997002Y-111804480D01*
X169997002Y-111804480D02*
X169988708Y-111807514D01*
X169988708Y-111807514D02*
X169980031Y-111798754D01*
X169980031Y-111798754D02*
X169965829Y-111775943D01*
X169965829Y-111775943D02*
X169951405Y-111748448D01*
X169951405Y-111748448D02*
X169909072Y-111679378D01*
X169909072Y-111679378D02*
X169856775Y-111627103D01*
X169856775Y-111627103D02*
X169791968Y-111589789D01*
X169791968Y-111589789D02*
X169712106Y-111565603D01*
X169712106Y-111565603D02*
X169692345Y-111561875D01*
X169692345Y-111561875D02*
X169676367Y-111559623D01*
X169676367Y-111559623D02*
X169657052Y-111557981D01*
X169657052Y-111557981D02*
X169632940Y-111557006D01*
X169632940Y-111557006D02*
X169602570Y-111556759D01*
X169602570Y-111556759D02*
X169564483Y-111557298D01*
X169564483Y-111557298D02*
X169517217Y-111558681D01*
X169517217Y-111558681D02*
X169459314Y-111560968D01*
X169459314Y-111560968D02*
X169389312Y-111564218D01*
X169389312Y-111564218D02*
X169305751Y-111568488D01*
X169305751Y-111568488D02*
X169207171Y-111573839D01*
X169207171Y-111573839D02*
X169092112Y-111580328D01*
X169092112Y-111580328D02*
X168959114Y-111588014D01*
X168959114Y-111588014D02*
X168806716Y-111596958D01*
X168806716Y-111596958D02*
X168775857Y-111598779D01*
X168775857Y-111598779D02*
X168606386Y-111608900D01*
X168606386Y-111608900D02*
X168457254Y-111618044D01*
X168457254Y-111618044D02*
X168327650Y-111626270D01*
X168327650Y-111626270D02*
X168216764Y-111633638D01*
X168216764Y-111633638D02*
X168123784Y-111640208D01*
X168123784Y-111640208D02*
X168047899Y-111646040D01*
X168047899Y-111646040D02*
X167988299Y-111651194D01*
X167988299Y-111651194D02*
X167944172Y-111655729D01*
X167944172Y-111655729D02*
X167914707Y-111659706D01*
X167914707Y-111659706D02*
X167899094Y-111663184D01*
X167899094Y-111663184D02*
X167898271Y-111663503D01*
X167898271Y-111663503D02*
X167869028Y-111682343D01*
X167869028Y-111682343D02*
X167856334Y-111708596D01*
X167856334Y-111708596D02*
X167851121Y-111741764D01*
X167851121Y-111741764D02*
X167844841Y-111793769D01*
X167844841Y-111793769D02*
X167837676Y-111862312D01*
X167837676Y-111862312D02*
X167829805Y-111945092D01*
X167829805Y-111945092D02*
X167821408Y-112039809D01*
X167821408Y-112039809D02*
X167812667Y-112144160D01*
X167812667Y-112144160D02*
X167803760Y-112255847D01*
X167803760Y-112255847D02*
X167794870Y-112372568D01*
X167794870Y-112372568D02*
X167786176Y-112492023D01*
X167786176Y-112492023D02*
X167777858Y-112611911D01*
X167777858Y-112611911D02*
X167770097Y-112729931D01*
X167770097Y-112729931D02*
X167763073Y-112843783D01*
X167763073Y-112843783D02*
X167756967Y-112951166D01*
X167756967Y-112951166D02*
X167753190Y-113024192D01*
X167753190Y-113024192D02*
X167740483Y-113282679D01*
X167740483Y-113282679D02*
X167765510Y-113302945D01*
X167765510Y-113302945D02*
X167780060Y-113312606D01*
X167780060Y-113312606D02*
X167797564Y-113317994D01*
X167797564Y-113317994D02*
X167823255Y-113319713D01*
X167823255Y-113319713D02*
X167862368Y-113318366D01*
X167862368Y-113318366D02*
X167886282Y-113316886D01*
X167886282Y-113316886D02*
X168108638Y-113301911D01*
X168108638Y-113301911D02*
X168310835Y-113287665D01*
X168310835Y-113287665D02*
X168493876Y-113274041D01*
X168493876Y-113274041D02*
X168658760Y-113260932D01*
X168658760Y-113260932D02*
X168806490Y-113248234D01*
X168806490Y-113248234D02*
X168938066Y-113235840D01*
X168938066Y-113235840D02*
X169054489Y-113223644D01*
X169054489Y-113223644D02*
X169156761Y-113211540D01*
X169156761Y-113211540D02*
X169245883Y-113199422D01*
X169245883Y-113199422D02*
X169322854Y-113187183D01*
X169322854Y-113187183D02*
X169388678Y-113174719D01*
X169388678Y-113174719D02*
X169444354Y-113161922D01*
X169444354Y-113161922D02*
X169490884Y-113148687D01*
X169490884Y-113148687D02*
X169498881Y-113146078D01*
X169498881Y-113146078D02*
X169546706Y-113131013D01*
X169546706Y-113131013D02*
X169589931Y-113119006D01*
X169589931Y-113119006D02*
X169622905Y-113111539D01*
X169622905Y-113111539D02*
X169637090Y-113109807D01*
X169637090Y-113109807D02*
X169681850Y-113118772D01*
X169681850Y-113118772D02*
X169732917Y-113143553D01*
X169732917Y-113143553D02*
X169787227Y-113180975D01*
X169787227Y-113180975D02*
X169841713Y-113227866D01*
X169841713Y-113227866D02*
X169893311Y-113281054D01*
X169893311Y-113281054D02*
X169938955Y-113337364D01*
X169938955Y-113337364D02*
X169975579Y-113393625D01*
X169975579Y-113393625D02*
X170000117Y-113446663D01*
X170000117Y-113446663D02*
X170009506Y-113493305D01*
X170009506Y-113493305D02*
X170009523Y-113495304D01*
X170009523Y-113495304D02*
X170005092Y-113540827D01*
X170005092Y-113540827D02*
X169993422Y-113583892D01*
X169993422Y-113583892D02*
X169976699Y-113619609D01*
X169976699Y-113619609D02*
X169957112Y-113643089D01*
X169957112Y-113643089D02*
X169940405Y-113649782D01*
X169940405Y-113649782D02*
X169927781Y-113640980D01*
X169927781Y-113640980D02*
X169927781Y-113640980D01*
G36*
X169789933Y-111261425D02*
G01*
X169813709Y-111271369D01*
X169874553Y-111308047D01*
X169934140Y-111358568D01*
X169988341Y-111418121D01*
X170033027Y-111481891D01*
X170064070Y-111545067D01*
X170072830Y-111573425D01*
X170079536Y-111610435D01*
X170078558Y-111642599D01*
X170069454Y-111681664D01*
X170068642Y-111684477D01*
X170054713Y-111721216D01*
X170035835Y-111756996D01*
X170015450Y-111786518D01*
X169997002Y-111804480D01*
X169988708Y-111807514D01*
X169980031Y-111798754D01*
X169965829Y-111775943D01*
X169951405Y-111748448D01*
X169909072Y-111679378D01*
X169856775Y-111627103D01*
X169791968Y-111589789D01*
X169712106Y-111565603D01*
X169692345Y-111561875D01*
X169676367Y-111559623D01*
X169657052Y-111557981D01*
X169632940Y-111557006D01*
X169602570Y-111556759D01*
X169564483Y-111557298D01*
X169517217Y-111558681D01*
X169459314Y-111560968D01*
X169389312Y-111564218D01*
X169305751Y-111568488D01*
X169207171Y-111573839D01*
X169092112Y-111580328D01*
X168959114Y-111588014D01*
X168806716Y-111596958D01*
X168775857Y-111598779D01*
X168606386Y-111608900D01*
X168457254Y-111618044D01*
X168327650Y-111626270D01*
X168216764Y-111633638D01*
X168123784Y-111640208D01*
X168047899Y-111646040D01*
X167988299Y-111651194D01*
X167944172Y-111655729D01*
X167914707Y-111659706D01*
X167899094Y-111663184D01*
X167898271Y-111663503D01*
X167869028Y-111682343D01*
X167856334Y-111708596D01*
X167851121Y-111741764D01*
X167844841Y-111793769D01*
X167837676Y-111862312D01*
X167829805Y-111945092D01*
X167821408Y-112039809D01*
X167812667Y-112144160D01*
X167803760Y-112255847D01*
X167794870Y-112372568D01*
X167786176Y-112492023D01*
X167777858Y-112611911D01*
X167770097Y-112729931D01*
X167763073Y-112843783D01*
X167756967Y-112951166D01*
X167753190Y-113024192D01*
X167740483Y-113282679D01*
X167765510Y-113302945D01*
X167780060Y-113312606D01*
X167797564Y-113317994D01*
X167823255Y-113319713D01*
X167862368Y-113318366D01*
X167886282Y-113316886D01*
X168108638Y-113301911D01*
X168310835Y-113287665D01*
X168493876Y-113274041D01*
X168658760Y-113260932D01*
X168806490Y-113248234D01*
X168938066Y-113235840D01*
X169054489Y-113223644D01*
X169156761Y-113211540D01*
X169245883Y-113199422D01*
X169322854Y-113187183D01*
X169388678Y-113174719D01*
X169444354Y-113161922D01*
X169490884Y-113148687D01*
X169498881Y-113146078D01*
X169546706Y-113131013D01*
X169589931Y-113119006D01*
X169622905Y-113111539D01*
X169637090Y-113109807D01*
X169681850Y-113118772D01*
X169732917Y-113143553D01*
X169787227Y-113180975D01*
X169841713Y-113227866D01*
X169893311Y-113281054D01*
X169938955Y-113337364D01*
X169975579Y-113393625D01*
X170000117Y-113446663D01*
X170009506Y-113493305D01*
X170009523Y-113495304D01*
X170005092Y-113540827D01*
X169993422Y-113583892D01*
X169976699Y-113619609D01*
X169957112Y-113643089D01*
X169940405Y-113649782D01*
X169927781Y-113640980D01*
X169914987Y-113619671D01*
X169914459Y-113618423D01*
X169895639Y-113588485D01*
X169863949Y-113553098D01*
X169824861Y-113517397D01*
X169783845Y-113486519D01*
X169756965Y-113470550D01*
X169725331Y-113455292D01*
X169694737Y-113443057D01*
X169662504Y-113433577D01*
X169625954Y-113426586D01*
X169582410Y-113421816D01*
X169529193Y-113418999D01*
X169463625Y-113417868D01*
X169383029Y-113418157D01*
X169284727Y-113419596D01*
X169252558Y-113420191D01*
X169028727Y-113426079D01*
X168790492Y-113435363D01*
X168544295Y-113447721D01*
X168296579Y-113462831D01*
X168060584Y-113479838D01*
X167973805Y-113486886D01*
X167905089Y-113493439D01*
X167851358Y-113500249D01*
X167809536Y-113508071D01*
X167776547Y-113517655D01*
X167749315Y-113529755D01*
X167724761Y-113545124D01*
X167699811Y-113564513D01*
X167693752Y-113569570D01*
X167655137Y-113597906D01*
X167621837Y-113610148D01*
X167586721Y-113607332D01*
X167544383Y-113591287D01*
X167491854Y-113563374D01*
X167438767Y-113528426D01*
X167388352Y-113489351D01*
X167343839Y-113449052D01*
X167308456Y-113410436D01*
X167285432Y-113376407D01*
X167277944Y-113351581D01*
X167288081Y-113316614D01*
X167316721Y-113285456D01*
X167355848Y-113263275D01*
X167394709Y-113240642D01*
X167420086Y-113208364D01*
X167435990Y-113162746D01*
X167439369Y-113142249D01*
X167444373Y-113103102D01*
X167450742Y-113047745D01*
X167458214Y-112978621D01*
X167466531Y-112898170D01*
X167475433Y-112808832D01*
X167484658Y-112713050D01*
X167490145Y-112654534D01*
X167503736Y-112508967D01*
X167515756Y-112382286D01*
X167526439Y-112272278D01*
X167536022Y-112176733D01*
X167544738Y-112093436D01*
X167552824Y-112020177D01*
X167560514Y-111954743D01*
X167568043Y-111894921D01*
X167575647Y-111838500D01*
X167580556Y-111803878D01*
X167586950Y-111757296D01*
X167591551Y-111719219D01*
X167593871Y-111694029D01*
X167593705Y-111686040D01*
X167583158Y-111680043D01*
X167559275Y-111667569D01*
X167533741Y-111654604D01*
X167477905Y-111621023D01*
X167429493Y-111581402D01*
X167392752Y-111539801D01*
X167371930Y-111500285D01*
X167371730Y-111499628D01*
X167366146Y-111459680D01*
X167377478Y-111429815D01*
X167406938Y-111408443D01*
X167451669Y-111394794D01*
X167476667Y-111390111D01*
X167499424Y-111387727D01*
X167524043Y-111388025D01*
X167554630Y-111391388D01*
X167595287Y-111398198D01*
X167650120Y-111408837D01*
X167690866Y-111417083D01*
X167773534Y-111429891D01*
X167875304Y-111438769D01*
X167994474Y-111443727D01*
X168129340Y-111444776D01*
X168278200Y-111441929D01*
X168439350Y-111435197D01*
X168611088Y-111424591D01*
X168791710Y-111410123D01*
X168797285Y-111409626D01*
X168975082Y-111392319D01*
X169131921Y-111374060D01*
X169267769Y-111354854D01*
X169382590Y-111334708D01*
X169476348Y-111313627D01*
X169549007Y-111291618D01*
X169583453Y-111277505D01*
X169655530Y-111252206D01*
X169723456Y-111246870D01*
X169789933Y-111261425D01*
G37*
X169789933Y-111261425D02*
X169813709Y-111271369D01*
X169874553Y-111308047D01*
X169934140Y-111358568D01*
X169988341Y-111418121D01*
X170033027Y-111481891D01*
X170064070Y-111545067D01*
X170072830Y-111573425D01*
X170079536Y-111610435D01*
X170078558Y-111642599D01*
X170069454Y-111681664D01*
X170068642Y-111684477D01*
X170054713Y-111721216D01*
X170035835Y-111756996D01*
X170015450Y-111786518D01*
X169997002Y-111804480D01*
X169988708Y-111807514D01*
X169980031Y-111798754D01*
X169965829Y-111775943D01*
X169951405Y-111748448D01*
X169909072Y-111679378D01*
X169856775Y-111627103D01*
X169791968Y-111589789D01*
X169712106Y-111565603D01*
X169692345Y-111561875D01*
X169676367Y-111559623D01*
X169657052Y-111557981D01*
X169632940Y-111557006D01*
X169602570Y-111556759D01*
X169564483Y-111557298D01*
X169517217Y-111558681D01*
X169459314Y-111560968D01*
X169389312Y-111564218D01*
X169305751Y-111568488D01*
X169207171Y-111573839D01*
X169092112Y-111580328D01*
X168959114Y-111588014D01*
X168806716Y-111596958D01*
X168775857Y-111598779D01*
X168606386Y-111608900D01*
X168457254Y-111618044D01*
X168327650Y-111626270D01*
X168216764Y-111633638D01*
X168123784Y-111640208D01*
X168047899Y-111646040D01*
X167988299Y-111651194D01*
X167944172Y-111655729D01*
X167914707Y-111659706D01*
X167899094Y-111663184D01*
X167898271Y-111663503D01*
X167869028Y-111682343D01*
X167856334Y-111708596D01*
X167851121Y-111741764D01*
X167844841Y-111793769D01*
X167837676Y-111862312D01*
X167829805Y-111945092D01*
X167821408Y-112039809D01*
X167812667Y-112144160D01*
X167803760Y-112255847D01*
X167794870Y-112372568D01*
X167786176Y-112492023D01*
X167777858Y-112611911D01*
X167770097Y-112729931D01*
X167763073Y-112843783D01*
X167756967Y-112951166D01*
X167753190Y-113024192D01*
X167740483Y-113282679D01*
X167765510Y-113302945D01*
X167780060Y-113312606D01*
X167797564Y-113317994D01*
X167823255Y-113319713D01*
X167862368Y-113318366D01*
X167886282Y-113316886D01*
X168108638Y-113301911D01*
X168310835Y-113287665D01*
X168493876Y-113274041D01*
X168658760Y-113260932D01*
X168806490Y-113248234D01*
X168938066Y-113235840D01*
X169054489Y-113223644D01*
X169156761Y-113211540D01*
X169245883Y-113199422D01*
X169322854Y-113187183D01*
X169388678Y-113174719D01*
X169444354Y-113161922D01*
X169490884Y-113148687D01*
X169498881Y-113146078D01*
X169546706Y-113131013D01*
X169589931Y-113119006D01*
X169622905Y-113111539D01*
X169637090Y-113109807D01*
X169681850Y-113118772D01*
X169732917Y-113143553D01*
X169787227Y-113180975D01*
X169841713Y-113227866D01*
X169893311Y-113281054D01*
X169938955Y-113337364D01*
X169975579Y-113393625D01*
X170000117Y-113446663D01*
X170009506Y-113493305D01*
X170009523Y-113495304D01*
X170005092Y-113540827D01*
X169993422Y-113583892D01*
X169976699Y-113619609D01*
X169957112Y-113643089D01*
X169940405Y-113649782D01*
X169927781Y-113640980D01*
X169914987Y-113619671D01*
X169914459Y-113618423D01*
X169895639Y-113588485D01*
X169863949Y-113553098D01*
X169824861Y-113517397D01*
X169783845Y-113486519D01*
X169756965Y-113470550D01*
X169725331Y-113455292D01*
X169694737Y-113443057D01*
X169662504Y-113433577D01*
X169625954Y-113426586D01*
X169582410Y-113421816D01*
X169529193Y-113418999D01*
X169463625Y-113417868D01*
X169383029Y-113418157D01*
X169284727Y-113419596D01*
X169252558Y-113420191D01*
X169028727Y-113426079D01*
X168790492Y-113435363D01*
X168544295Y-113447721D01*
X168296579Y-113462831D01*
X168060584Y-113479838D01*
X167973805Y-113486886D01*
X167905089Y-113493439D01*
X167851358Y-113500249D01*
X167809536Y-113508071D01*
X167776547Y-113517655D01*
X167749315Y-113529755D01*
X167724761Y-113545124D01*
X167699811Y-113564513D01*
X167693752Y-113569570D01*
X167655137Y-113597906D01*
X167621837Y-113610148D01*
X167586721Y-113607332D01*
X167544383Y-113591287D01*
X167491854Y-113563374D01*
X167438767Y-113528426D01*
X167388352Y-113489351D01*
X167343839Y-113449052D01*
X167308456Y-113410436D01*
X167285432Y-113376407D01*
X167277944Y-113351581D01*
X167288081Y-113316614D01*
X167316721Y-113285456D01*
X167355848Y-113263275D01*
X167394709Y-113240642D01*
X167420086Y-113208364D01*
X167435990Y-113162746D01*
X167439369Y-113142249D01*
X167444373Y-113103102D01*
X167450742Y-113047745D01*
X167458214Y-112978621D01*
X167466531Y-112898170D01*
X167475433Y-112808832D01*
X167484658Y-112713050D01*
X167490145Y-112654534D01*
X167503736Y-112508967D01*
X167515756Y-112382286D01*
X167526439Y-112272278D01*
X167536022Y-112176733D01*
X167544738Y-112093436D01*
X167552824Y-112020177D01*
X167560514Y-111954743D01*
X167568043Y-111894921D01*
X167575647Y-111838500D01*
X167580556Y-111803878D01*
X167586950Y-111757296D01*
X167591551Y-111719219D01*
X167593871Y-111694029D01*
X167593705Y-111686040D01*
X167583158Y-111680043D01*
X167559275Y-111667569D01*
X167533741Y-111654604D01*
X167477905Y-111621023D01*
X167429493Y-111581402D01*
X167392752Y-111539801D01*
X167371930Y-111500285D01*
X167371730Y-111499628D01*
X167366146Y-111459680D01*
X167377478Y-111429815D01*
X167406938Y-111408443D01*
X167451669Y-111394794D01*
X167476667Y-111390111D01*
X167499424Y-111387727D01*
X167524043Y-111388025D01*
X167554630Y-111391388D01*
X167595287Y-111398198D01*
X167650120Y-111408837D01*
X167690866Y-111417083D01*
X167773534Y-111429891D01*
X167875304Y-111438769D01*
X167994474Y-111443727D01*
X168129340Y-111444776D01*
X168278200Y-111441929D01*
X168439350Y-111435197D01*
X168611088Y-111424591D01*
X168791710Y-111410123D01*
X168797285Y-111409626D01*
X168975082Y-111392319D01*
X169131921Y-111374060D01*
X169267769Y-111354854D01*
X169382590Y-111334708D01*
X169476348Y-111313627D01*
X169549007Y-111291618D01*
X169583453Y-111277505D01*
X169655530Y-111252206D01*
X169723456Y-111246870D01*
X169789933Y-111261425D01*
X177188073Y-112376328D02*
X177195510Y-112210572D01*
X177195510Y-112210572D02*
X177217972Y-112059452D01*
X177217972Y-112059452D02*
X177255689Y-111922457D01*
X177255689Y-111922457D02*
X177308889Y-111799074D01*
X177308889Y-111799074D02*
X177377801Y-111688792D01*
X177377801Y-111688792D02*
X177462655Y-111591100D01*
X177462655Y-111591100D02*
X177563677Y-111505485D01*
X177563677Y-111505485D02*
X177583903Y-111491106D01*
X177583903Y-111491106D02*
X177656517Y-111448808D01*
X177656517Y-111448808D02*
X177732975Y-111418398D01*
X177732975Y-111418398D02*
X177808688Y-111401003D01*
X177808688Y-111401003D02*
X177879069Y-111397749D01*
X177879069Y-111397749D02*
X177929215Y-111406313D01*
X177929215Y-111406313D02*
X177962877Y-111421692D01*
X177962877Y-111421692D02*
X177994471Y-111443992D01*
X177994471Y-111443992D02*
X177996352Y-111445718D01*
X177996352Y-111445718D02*
X178014513Y-111465432D01*
X178014513Y-111465432D02*
X178022335Y-111484940D01*
X178022335Y-111484940D02*
X178022632Y-111513250D01*
X178022632Y-111513250D02*
X178021534Y-111526310D01*
X178021534Y-111526310D02*
X178009970Y-111572273D01*
X178009970Y-111572273D02*
X177983426Y-111608670D01*
X177983426Y-111608670D02*
X177939651Y-111637895D01*
X177939651Y-111637895D02*
X177901519Y-111653953D01*
X177901519Y-111653953D02*
X177771741Y-111709085D01*
X177771741Y-111709085D02*
X177659590Y-111774875D01*
X177659590Y-111774875D02*
X177563714Y-111852584D01*
X177563714Y-111852584D02*
X177482765Y-111943472D01*
X177482765Y-111943472D02*
X177415393Y-112048798D01*
X177415393Y-112048798D02*
X177366736Y-112153252D01*
X177366736Y-112153252D02*
X177349180Y-112202725D01*
X177349180Y-112202725D02*
X177331860Y-112261237D01*
X177331860Y-112261237D02*
X177316245Y-112322663D01*
X177316245Y-112322663D02*
X177303804Y-112380880D01*
X177303804Y-112380880D02*
X177296006Y-112429766D01*
X177296006Y-112429766D02*
X177294089Y-112456014D01*
X177294089Y-112456014D02*
X177292600Y-112473265D01*
X177292600Y-112473265D02*
X177284707Y-112481869D01*
X177284707Y-112481869D02*
X177264946Y-112484821D01*
X177264946Y-112484821D02*
X177241012Y-112485130D01*
X177241012Y-112485130D02*
X177188073Y-112485130D01*
X177188073Y-112485130D02*
X177188073Y-112376328D01*
X177188073Y-112376328D02*
X177188073Y-112376328D01*
G36*
X177929215Y-111406313D02*
G01*
X177962877Y-111421692D01*
X177994471Y-111443992D01*
X177996352Y-111445718D01*
X178014513Y-111465432D01*
X178022335Y-111484940D01*
X178022632Y-111513250D01*
X178021534Y-111526310D01*
X178009970Y-111572273D01*
X177983426Y-111608670D01*
X177939651Y-111637895D01*
X177901519Y-111653953D01*
X177771741Y-111709085D01*
X177659590Y-111774875D01*
X177563714Y-111852584D01*
X177482765Y-111943472D01*
X177415393Y-112048798D01*
X177366736Y-112153252D01*
X177349180Y-112202725D01*
X177331860Y-112261237D01*
X177316245Y-112322663D01*
X177303804Y-112380880D01*
X177296006Y-112429766D01*
X177294089Y-112456014D01*
X177292600Y-112473265D01*
X177284707Y-112481869D01*
X177264946Y-112484821D01*
X177241012Y-112485130D01*
X177188073Y-112485130D01*
X177188073Y-112376328D01*
X177195510Y-112210572D01*
X177217972Y-112059452D01*
X177255689Y-111922457D01*
X177308889Y-111799074D01*
X177377801Y-111688792D01*
X177462655Y-111591100D01*
X177563677Y-111505485D01*
X177583903Y-111491106D01*
X177656517Y-111448808D01*
X177732975Y-111418398D01*
X177808688Y-111401003D01*
X177879069Y-111397749D01*
X177929215Y-111406313D01*
G37*
X177929215Y-111406313D02*
X177962877Y-111421692D01*
X177994471Y-111443992D01*
X177996352Y-111445718D01*
X178014513Y-111465432D01*
X178022335Y-111484940D01*
X178022632Y-111513250D01*
X178021534Y-111526310D01*
X178009970Y-111572273D01*
X177983426Y-111608670D01*
X177939651Y-111637895D01*
X177901519Y-111653953D01*
X177771741Y-111709085D01*
X177659590Y-111774875D01*
X177563714Y-111852584D01*
X177482765Y-111943472D01*
X177415393Y-112048798D01*
X177366736Y-112153252D01*
X177349180Y-112202725D01*
X177331860Y-112261237D01*
X177316245Y-112322663D01*
X177303804Y-112380880D01*
X177296006Y-112429766D01*
X177294089Y-112456014D01*
X177292600Y-112473265D01*
X177284707Y-112481869D01*
X177264946Y-112484821D01*
X177241012Y-112485130D01*
X177188073Y-112485130D01*
X177188073Y-112376328D01*
X177195510Y-112210572D01*
X177217972Y-112059452D01*
X177255689Y-111922457D01*
X177308889Y-111799074D01*
X177377801Y-111688792D01*
X177462655Y-111591100D01*
X177563677Y-111505485D01*
X177583903Y-111491106D01*
X177656517Y-111448808D01*
X177732975Y-111418398D01*
X177808688Y-111401003D01*
X177879069Y-111397749D01*
X177929215Y-111406313D01*
X166057715Y-113770843D02*
X166030883Y-113766160D01*
X166030883Y-113766160D02*
X165883576Y-113735011D01*
X165883576Y-113735011D02*
X165741207Y-113695798D01*
X165741207Y-113695798D02*
X165606217Y-113649599D01*
X165606217Y-113649599D02*
X165481047Y-113597497D01*
X165481047Y-113597497D02*
X165368136Y-113540570D01*
X165368136Y-113540570D02*
X165269925Y-113479899D01*
X165269925Y-113479899D02*
X165188855Y-113416565D01*
X165188855Y-113416565D02*
X165146754Y-113374757D01*
X165146754Y-113374757D02*
X165099841Y-113316106D01*
X165099841Y-113316106D02*
X165069564Y-113261015D01*
X165069564Y-113261015D02*
X165053509Y-113203798D01*
X165053509Y-113203798D02*
X165049223Y-113145070D01*
X165049223Y-113145070D02*
X165050175Y-113103267D01*
X165050175Y-113103267D02*
X165054155Y-113075939D01*
X165054155Y-113075939D02*
X165062846Y-113056427D01*
X165062846Y-113056427D02*
X165075693Y-113040475D01*
X165075693Y-113040475D02*
X165108133Y-113013582D01*
X165108133Y-113013582D02*
X165146779Y-112993056D01*
X165146779Y-112993056D02*
X165182726Y-112983395D01*
X165182726Y-112983395D02*
X165189171Y-112983169D01*
X165189171Y-112983169D02*
X165212071Y-112987606D01*
X165212071Y-112987606D02*
X165239803Y-112997459D01*
X165239803Y-112997459D02*
X165279721Y-113020314D01*
X165279721Y-113020314D02*
X165321437Y-113055673D01*
X165321437Y-113055673D02*
X165367603Y-113106022D01*
X165367603Y-113106022D02*
X165403603Y-113151016D01*
X165403603Y-113151016D02*
X165511398Y-113275372D01*
X165511398Y-113275372D02*
X165636588Y-113391465D01*
X165636588Y-113391465D02*
X165776268Y-113497061D01*
X165776268Y-113497061D02*
X165927533Y-113589927D01*
X165927533Y-113589927D02*
X166060353Y-113655985D01*
X166060353Y-113655985D02*
X166105577Y-113676619D01*
X166105577Y-113676619D02*
X166134660Y-113691578D01*
X166134660Y-113691578D02*
X166150989Y-113703379D01*
X166150989Y-113703379D02*
X166157949Y-113714541D01*
X166157949Y-113714541D02*
X166158927Y-113727581D01*
X166158927Y-113727581D02*
X166158816Y-113729216D01*
X166158816Y-113729216D02*
X166155347Y-113754024D01*
X166155347Y-113754024D02*
X166147043Y-113769569D01*
X166147043Y-113769569D02*
X166130363Y-113776872D01*
X166130363Y-113776872D02*
X166101767Y-113776956D01*
X166101767Y-113776956D02*
X166057715Y-113770843D01*
X166057715Y-113770843D02*
X166057715Y-113770843D01*
G36*
X165212071Y-112987606D02*
G01*
X165239803Y-112997459D01*
X165279721Y-113020314D01*
X165321437Y-113055673D01*
X165367603Y-113106022D01*
X165403603Y-113151016D01*
X165511398Y-113275372D01*
X165636588Y-113391465D01*
X165776268Y-113497061D01*
X165927533Y-113589927D01*
X166060353Y-113655985D01*
X166105577Y-113676619D01*
X166134660Y-113691578D01*
X166150989Y-113703379D01*
X166157949Y-113714541D01*
X166158927Y-113727581D01*
X166158816Y-113729216D01*
X166155347Y-113754024D01*
X166147043Y-113769569D01*
X166130363Y-113776872D01*
X166101767Y-113776956D01*
X166057715Y-113770843D01*
X166030883Y-113766160D01*
X165883576Y-113735011D01*
X165741207Y-113695798D01*
X165606217Y-113649599D01*
X165481047Y-113597497D01*
X165368136Y-113540570D01*
X165269925Y-113479899D01*
X165188855Y-113416565D01*
X165146754Y-113374757D01*
X165099841Y-113316106D01*
X165069564Y-113261015D01*
X165053509Y-113203798D01*
X165049223Y-113145070D01*
X165050175Y-113103267D01*
X165054155Y-113075939D01*
X165062846Y-113056427D01*
X165075693Y-113040475D01*
X165108133Y-113013582D01*
X165146779Y-112993056D01*
X165182726Y-112983395D01*
X165189171Y-112983169D01*
X165212071Y-112987606D01*
G37*
X165212071Y-112987606D02*
X165239803Y-112997459D01*
X165279721Y-113020314D01*
X165321437Y-113055673D01*
X165367603Y-113106022D01*
X165403603Y-113151016D01*
X165511398Y-113275372D01*
X165636588Y-113391465D01*
X165776268Y-113497061D01*
X165927533Y-113589927D01*
X166060353Y-113655985D01*
X166105577Y-113676619D01*
X166134660Y-113691578D01*
X166150989Y-113703379D01*
X166157949Y-113714541D01*
X166158927Y-113727581D01*
X166158816Y-113729216D01*
X166155347Y-113754024D01*
X166147043Y-113769569D01*
X166130363Y-113776872D01*
X166101767Y-113776956D01*
X166057715Y-113770843D01*
X166030883Y-113766160D01*
X165883576Y-113735011D01*
X165741207Y-113695798D01*
X165606217Y-113649599D01*
X165481047Y-113597497D01*
X165368136Y-113540570D01*
X165269925Y-113479899D01*
X165188855Y-113416565D01*
X165146754Y-113374757D01*
X165099841Y-113316106D01*
X165069564Y-113261015D01*
X165053509Y-113203798D01*
X165049223Y-113145070D01*
X165050175Y-113103267D01*
X165054155Y-113075939D01*
X165062846Y-113056427D01*
X165075693Y-113040475D01*
X165108133Y-113013582D01*
X165146779Y-112993056D01*
X165182726Y-112983395D01*
X165189171Y-112983169D01*
X165212071Y-112987606D01*
X176597081Y-114069171D02*
X176518411Y-114053537D01*
X176518411Y-114053537D02*
X176441423Y-114029537D01*
X176441423Y-114029537D02*
X176370802Y-113998216D01*
X176370802Y-113998216D02*
X176311234Y-113960620D01*
X176311234Y-113960620D02*
X176289858Y-113942478D01*
X176289858Y-113942478D02*
X176251032Y-113899888D01*
X176251032Y-113899888D02*
X176230408Y-113859922D01*
X176230408Y-113859922D02*
X176227418Y-113818182D01*
X176227418Y-113818182D02*
X176241492Y-113770273D01*
X176241492Y-113770273D02*
X176262217Y-113728871D01*
X176262217Y-113728871D02*
X176299846Y-113661584D01*
X176299846Y-113661584D02*
X176311399Y-113427819D01*
X176311399Y-113427819D02*
X176314571Y-113359825D01*
X176314571Y-113359825D02*
X176317036Y-113299310D01*
X176317036Y-113299310D02*
X176318697Y-113249342D01*
X176318697Y-113249342D02*
X176319460Y-113212989D01*
X176319460Y-113212989D02*
X176319228Y-113193318D01*
X176319228Y-113193318D02*
X176318768Y-113190721D01*
X176318768Y-113190721D02*
X176307049Y-113190252D01*
X176307049Y-113190252D02*
X176277556Y-113191424D01*
X176277556Y-113191424D02*
X176233606Y-113193979D01*
X176233606Y-113193979D02*
X176178516Y-113197657D01*
X176178516Y-113197657D02*
X176115602Y-113202201D01*
X176115602Y-113202201D02*
X176048182Y-113207351D01*
X176048182Y-113207351D02*
X175979571Y-113212850D01*
X175979571Y-113212850D02*
X175913087Y-113218437D01*
X175913087Y-113218437D02*
X175852046Y-113223856D01*
X175852046Y-113223856D02*
X175799765Y-113228846D01*
X175799765Y-113228846D02*
X175759559Y-113233150D01*
X175759559Y-113233150D02*
X175737552Y-113236045D01*
X175737552Y-113236045D02*
X175654671Y-113252345D01*
X175654671Y-113252345D02*
X175589896Y-113272661D01*
X175589896Y-113272661D02*
X175540364Y-113298035D01*
X175540364Y-113298035D02*
X175515942Y-113316866D01*
X175515942Y-113316866D02*
X175492169Y-113336149D01*
X175492169Y-113336149D02*
X175469273Y-113347719D01*
X175469273Y-113347719D02*
X175442780Y-113351817D01*
X175442780Y-113351817D02*
X175408216Y-113348686D01*
X175408216Y-113348686D02*
X175361107Y-113338567D01*
X175361107Y-113338567D02*
X175318624Y-113327552D01*
X175318624Y-113327552D02*
X175227550Y-113299441D01*
X175227550Y-113299441D02*
X175150644Y-113268160D01*
X175150644Y-113268160D02*
X175088819Y-113234636D01*
X175088819Y-113234636D02*
X175042986Y-113199796D01*
X175042986Y-113199796D02*
X175014058Y-113164569D01*
X175014058Y-113164569D02*
X175002947Y-113129880D01*
X175002947Y-113129880D02*
X175010565Y-113096658D01*
X175010565Y-113096658D02*
X175037824Y-113065829D01*
X175037824Y-113065829D02*
X175051629Y-113056120D01*
X175051629Y-113056120D02*
X175067828Y-113046933D01*
X175067828Y-113046933D02*
X175084811Y-113041028D01*
X175084811Y-113041028D02*
X175107040Y-113037985D01*
X175107040Y-113037985D02*
X175138978Y-113037379D01*
X175138978Y-113037379D02*
X175185088Y-113038789D01*
X175185088Y-113038789D02*
X175218752Y-113040301D01*
X175218752Y-113040301D02*
X175286712Y-113043884D01*
X175286712Y-113043884D02*
X175363267Y-113048512D01*
X175363267Y-113048512D02*
X175437167Y-113053482D01*
X175437167Y-113053482D02*
X175478152Y-113056539D01*
X175478152Y-113056539D02*
X175523471Y-113058767D01*
X175523471Y-113058767D02*
X175586028Y-113059935D01*
X175586028Y-113059935D02*
X175661916Y-113060127D01*
X175661916Y-113060127D02*
X175747228Y-113059429D01*
X175747228Y-113059429D02*
X175838058Y-113057925D01*
X175838058Y-113057925D02*
X175930499Y-113055698D01*
X175930499Y-113055698D02*
X176020644Y-113052835D01*
X176020644Y-113052835D02*
X176104587Y-113049418D01*
X176104587Y-113049418D02*
X176178421Y-113045533D01*
X176178421Y-113045533D02*
X176238239Y-113041264D01*
X176238239Y-113041264D02*
X176254575Y-113039752D01*
X176254575Y-113039752D02*
X176321619Y-113033040D01*
X176321619Y-113033040D02*
X176316650Y-112248226D01*
X176316650Y-112248226D02*
X176315615Y-112094635D01*
X176315615Y-112094635D02*
X176314560Y-111960693D01*
X176314560Y-111960693D02*
X176313448Y-111844876D01*
X176313448Y-111844876D02*
X176312242Y-111745658D01*
X176312242Y-111745658D02*
X176310904Y-111661514D01*
X176310904Y-111661514D02*
X176309396Y-111590918D01*
X176309396Y-111590918D02*
X176307680Y-111532345D01*
X176307680Y-111532345D02*
X176305720Y-111484269D01*
X176305720Y-111484269D02*
X176303477Y-111445165D01*
X176303477Y-111445165D02*
X176300914Y-111413507D01*
X176300914Y-111413507D02*
X176297994Y-111387770D01*
X176297994Y-111387770D02*
X176294979Y-111368123D01*
X176294979Y-111368123D02*
X176283327Y-111290010D01*
X176283327Y-111290010D02*
X176278955Y-111226037D01*
X176278955Y-111226037D02*
X176281935Y-111170434D01*
X176281935Y-111170434D02*
X176292343Y-111117429D01*
X176292343Y-111117429D02*
X176298449Y-111096155D01*
X176298449Y-111096155D02*
X176328147Y-111022039D01*
X176328147Y-111022039D02*
X176366735Y-110960360D01*
X176366735Y-110960360D02*
X176411788Y-110914681D01*
X176411788Y-110914681D02*
X176430480Y-110902036D01*
X176430480Y-110902036D02*
X176476752Y-110880941D01*
X176476752Y-110880941D02*
X176515056Y-110877878D01*
X176515056Y-110877878D02*
X176548643Y-110892922D01*
X176548643Y-110892922D02*
X176562508Y-110905039D01*
X176562508Y-110905039D02*
X176582203Y-110931156D01*
X176582203Y-110931156D02*
X176602673Y-110968220D01*
X176602673Y-110968220D02*
X176615367Y-110997682D01*
X176615367Y-110997682D02*
X176635947Y-111044249D01*
X176635947Y-111044249D02*
X176661800Y-111083175D01*
X176661800Y-111083175D02*
X176697477Y-111120035D01*
X176697477Y-111120035D02*
X176747528Y-111160402D01*
X176747528Y-111160402D02*
X176749204Y-111161654D01*
X176749204Y-111161654D02*
X176794001Y-111192503D01*
X176794001Y-111192503D02*
X176853051Y-111229414D01*
X176853051Y-111229414D02*
X176921392Y-111269549D01*
X176921392Y-111269549D02*
X176994060Y-111310073D01*
X176994060Y-111310073D02*
X177066095Y-111348149D01*
X177066095Y-111348149D02*
X177132532Y-111380940D01*
X177132532Y-111380940D02*
X177134140Y-111381696D01*
X177134140Y-111381696D02*
X177176119Y-111401519D01*
X177176119Y-111401519D02*
X177210324Y-111417862D01*
X177210324Y-111417862D02*
X177232630Y-111428744D01*
X177232630Y-111428744D02*
X177239099Y-111432149D01*
X177239099Y-111432149D02*
X177239927Y-111444024D01*
X177239927Y-111444024D02*
X177233889Y-111466060D01*
X177233889Y-111466060D02*
X177224034Y-111490679D01*
X177224034Y-111490679D02*
X177213415Y-111510302D01*
X177213415Y-111510302D02*
X177205081Y-111517347D01*
X177205081Y-111517347D02*
X177204837Y-111517260D01*
X177204837Y-111517260D02*
X177189337Y-111511661D01*
X177189337Y-111511661D02*
X177157287Y-111500858D01*
X177157287Y-111500858D02*
X177112334Y-111486024D01*
X177112334Y-111486024D02*
X177058120Y-111468335D01*
X177058120Y-111468335D02*
X176998290Y-111448961D01*
X176998290Y-111448961D02*
X176936488Y-111429077D01*
X176936488Y-111429077D02*
X176876359Y-111409856D01*
X176876359Y-111409856D02*
X176821546Y-111392471D01*
X176821546Y-111392471D02*
X176775693Y-111378095D01*
X176775693Y-111378095D02*
X176742445Y-111367902D01*
X176742445Y-111367902D02*
X176727506Y-111363583D01*
X176727506Y-111363583D02*
X176687240Y-111356009D01*
X176687240Y-111356009D02*
X176644902Y-111352358D01*
X176644902Y-111352358D02*
X176640401Y-111352301D01*
X176640401Y-111352301D02*
X176617785Y-111353170D01*
X176617785Y-111353170D02*
X176599993Y-111357404D01*
X176599993Y-111357404D02*
X176586305Y-111367335D01*
X176586305Y-111367335D02*
X176576001Y-111385299D01*
X176576001Y-111385299D02*
X176568360Y-111413632D01*
X176568360Y-111413632D02*
X176562661Y-111454667D01*
X176562661Y-111454667D02*
X176558184Y-111510741D01*
X176558184Y-111510741D02*
X176554208Y-111584187D01*
X176554208Y-111584187D02*
X176551662Y-111639850D01*
X176551662Y-111639850D02*
X176549793Y-111693002D01*
X176549793Y-111693002D02*
X176548210Y-111760248D01*
X176548210Y-111760248D02*
X176546906Y-111839451D01*
X176546906Y-111839451D02*
X176545874Y-111928472D01*
X176545874Y-111928472D02*
X176545110Y-112025174D01*
X176545110Y-112025174D02*
X176544606Y-112127419D01*
X176544606Y-112127419D02*
X176544357Y-112233070D01*
X176544357Y-112233070D02*
X176544357Y-112339989D01*
X176544357Y-112339989D02*
X176544598Y-112446037D01*
X176544598Y-112446037D02*
X176545077Y-112549078D01*
X176545077Y-112549078D02*
X176545785Y-112646974D01*
X176545785Y-112646974D02*
X176546718Y-112737586D01*
X176546718Y-112737586D02*
X176547868Y-112818778D01*
X176547868Y-112818778D02*
X176549230Y-112888411D01*
X176549230Y-112888411D02*
X176550799Y-112944347D01*
X176550799Y-112944347D02*
X176552567Y-112984450D01*
X176552567Y-112984450D02*
X176554528Y-113006581D01*
X176554528Y-113006581D02*
X176555576Y-113010235D01*
X176555576Y-113010235D02*
X176568908Y-113012267D01*
X176568908Y-113012267D02*
X176600270Y-113011911D01*
X176600270Y-113011911D02*
X176646684Y-113009455D01*
X176646684Y-113009455D02*
X176705175Y-113005188D01*
X176705175Y-113005188D02*
X176772766Y-112999397D01*
X176772766Y-112999397D02*
X176846481Y-112992371D01*
X176846481Y-112992371D02*
X176923343Y-112984398D01*
X176923343Y-112984398D02*
X177000375Y-112975767D01*
X177000375Y-112975767D02*
X177074602Y-112966765D01*
X177074602Y-112966765D02*
X177143047Y-112957682D01*
X177143047Y-112957682D02*
X177202734Y-112948804D01*
X177202734Y-112948804D02*
X177221074Y-112945787D01*
X177221074Y-112945787D02*
X177277224Y-112933731D01*
X177277224Y-112933731D02*
X177338651Y-112916663D01*
X177338651Y-112916663D02*
X177392556Y-112898161D01*
X177392556Y-112898161D02*
X177395125Y-112897141D01*
X177395125Y-112897141D02*
X177444955Y-112878928D01*
X177444955Y-112878928D02*
X177483153Y-112869682D01*
X177483153Y-112869682D02*
X177516513Y-112867935D01*
X177516513Y-112867935D02*
X177526731Y-112868667D01*
X177526731Y-112868667D02*
X177590979Y-112882826D01*
X177590979Y-112882826D02*
X177654744Y-112911147D01*
X177654744Y-112911147D02*
X177715048Y-112950700D01*
X177715048Y-112950700D02*
X177768917Y-112998554D01*
X177768917Y-112998554D02*
X177813375Y-113051779D01*
X177813375Y-113051779D02*
X177845446Y-113107446D01*
X177845446Y-113107446D02*
X177862156Y-113162623D01*
X177862156Y-113162623D02*
X177863064Y-113199874D01*
X177863064Y-113199874D02*
X177855734Y-113235819D01*
X177855734Y-113235819D02*
X177844029Y-113267209D01*
X177844029Y-113267209D02*
X177840293Y-113273764D01*
X177840293Y-113273764D02*
X177822702Y-113291255D01*
X177822702Y-113291255D02*
X177802514Y-113299825D01*
X177802514Y-113299825D02*
X177786429Y-113297988D01*
X177786429Y-113297988D02*
X177780987Y-113286917D01*
X177780987Y-113286917D02*
X177773043Y-113266336D01*
X177773043Y-113266336D02*
X177752464Y-113238999D01*
X177752464Y-113238999D02*
X177724125Y-113210052D01*
X177724125Y-113210052D02*
X177692906Y-113184645D01*
X177692906Y-113184645D02*
X177671740Y-113171615D01*
X177671740Y-113171615D02*
X177638354Y-113155975D01*
X177638354Y-113155975D02*
X177603695Y-113143071D01*
X177603695Y-113143071D02*
X177565888Y-113132846D01*
X177565888Y-113132846D02*
X177523059Y-113125246D01*
X177523059Y-113125246D02*
X177473331Y-113120212D01*
X177473331Y-113120212D02*
X177414831Y-113117690D01*
X177414831Y-113117690D02*
X177345682Y-113117624D01*
X177345682Y-113117624D02*
X177264010Y-113119956D01*
X177264010Y-113119956D02*
X177167939Y-113124632D01*
X177167939Y-113124632D02*
X177055595Y-113131594D01*
X177055595Y-113131594D02*
X176925102Y-113140788D01*
X176925102Y-113140788D02*
X176843971Y-113146846D01*
X176843971Y-113146846D02*
X176776422Y-113152121D01*
X176776422Y-113152121D02*
X176713635Y-113157312D01*
X176713635Y-113157312D02*
X176659605Y-113162066D01*
X176659605Y-113162066D02*
X176618330Y-113166030D01*
X176618330Y-113166030D02*
X176593805Y-113168852D01*
X176593805Y-113168852D02*
X176592512Y-113169045D01*
X176592512Y-113169045D02*
X176552808Y-113175195D01*
X176552808Y-113175195D02*
X176553035Y-113272201D01*
X176553035Y-113272201D02*
X176554142Y-113337364D01*
X176554142Y-113337364D02*
X176556961Y-113410828D01*
X176556961Y-113410828D02*
X176561152Y-113487704D01*
X176561152Y-113487704D02*
X176566375Y-113563102D01*
X176566375Y-113563102D02*
X176572290Y-113632132D01*
X176572290Y-113632132D02*
X176578557Y-113689906D01*
X176578557Y-113689906D02*
X176584837Y-113731534D01*
X176584837Y-113731534D02*
X176585011Y-113732424D01*
X176585011Y-113732424D02*
X176604516Y-113802905D01*
X176604516Y-113802905D02*
X176633023Y-113855582D01*
X176633023Y-113855582D02*
X176672720Y-113892205D01*
X176672720Y-113892205D02*
X176725792Y-113914521D01*
X176725792Y-113914521D02*
X176794425Y-113924282D01*
X176794425Y-113924282D02*
X176825753Y-113925063D01*
X176825753Y-113925063D02*
X176868787Y-113925308D01*
X176868787Y-113925308D02*
X176894521Y-113926798D01*
X176894521Y-113926798D02*
X176906827Y-113930670D01*
X176906827Y-113930670D02*
X176909580Y-113938059D01*
X176909580Y-113938059D02*
X176907022Y-113948886D01*
X176907022Y-113948886D02*
X176887197Y-113984881D01*
X176887197Y-113984881D02*
X176852248Y-114020311D01*
X176852248Y-114020311D02*
X176807689Y-114049867D01*
X176807689Y-114049867D02*
X176796326Y-114055429D01*
X176796326Y-114055429D02*
X176740723Y-114071162D01*
X176740723Y-114071162D02*
X176672746Y-114075394D01*
X176672746Y-114075394D02*
X176597081Y-114069171D01*
X176597081Y-114069171D02*
X176597081Y-114069171D01*
G36*
X176548643Y-110892922D02*
G01*
X176562508Y-110905039D01*
X176582203Y-110931156D01*
X176602673Y-110968220D01*
X176615367Y-110997682D01*
X176635947Y-111044249D01*
X176661800Y-111083175D01*
X176697477Y-111120035D01*
X176747528Y-111160402D01*
X176749204Y-111161654D01*
X176794001Y-111192503D01*
X176853051Y-111229414D01*
X176921392Y-111269549D01*
X176994060Y-111310073D01*
X177066095Y-111348149D01*
X177132532Y-111380940D01*
X177134140Y-111381696D01*
X177176119Y-111401519D01*
X177210324Y-111417862D01*
X177232630Y-111428744D01*
X177239099Y-111432149D01*
X177239927Y-111444024D01*
X177233889Y-111466060D01*
X177224034Y-111490679D01*
X177213415Y-111510302D01*
X177205081Y-111517347D01*
X177204837Y-111517260D01*
X177189337Y-111511661D01*
X177157287Y-111500858D01*
X177112334Y-111486024D01*
X177058120Y-111468335D01*
X176998290Y-111448961D01*
X176936488Y-111429077D01*
X176876359Y-111409856D01*
X176821546Y-111392471D01*
X176775693Y-111378095D01*
X176742445Y-111367902D01*
X176727506Y-111363583D01*
X176687240Y-111356009D01*
X176644902Y-111352358D01*
X176640401Y-111352301D01*
X176617785Y-111353170D01*
X176599993Y-111357404D01*
X176586305Y-111367335D01*
X176576001Y-111385299D01*
X176568360Y-111413632D01*
X176562661Y-111454667D01*
X176558184Y-111510741D01*
X176554208Y-111584187D01*
X176551662Y-111639850D01*
X176549793Y-111693002D01*
X176548210Y-111760248D01*
X176546906Y-111839451D01*
X176545874Y-111928472D01*
X176545110Y-112025174D01*
X176544606Y-112127419D01*
X176544357Y-112233070D01*
X176544357Y-112339989D01*
X176544598Y-112446037D01*
X176545077Y-112549078D01*
X176545785Y-112646974D01*
X176546718Y-112737586D01*
X176547868Y-112818778D01*
X176549230Y-112888411D01*
X176550799Y-112944347D01*
X176552567Y-112984450D01*
X176554528Y-113006581D01*
X176555576Y-113010235D01*
X176568908Y-113012267D01*
X176600270Y-113011911D01*
X176646684Y-113009455D01*
X176705175Y-113005188D01*
X176772766Y-112999397D01*
X176846481Y-112992371D01*
X176923343Y-112984398D01*
X177000375Y-112975767D01*
X177074602Y-112966765D01*
X177143047Y-112957682D01*
X177202734Y-112948804D01*
X177221074Y-112945787D01*
X177277224Y-112933731D01*
X177338651Y-112916663D01*
X177392556Y-112898161D01*
X177395125Y-112897141D01*
X177444955Y-112878928D01*
X177483153Y-112869682D01*
X177516513Y-112867935D01*
X177526731Y-112868667D01*
X177590979Y-112882826D01*
X177654744Y-112911147D01*
X177715048Y-112950700D01*
X177768917Y-112998554D01*
X177813375Y-113051779D01*
X177845446Y-113107446D01*
X177862156Y-113162623D01*
X177863064Y-113199874D01*
X177855734Y-113235819D01*
X177844029Y-113267209D01*
X177840293Y-113273764D01*
X177822702Y-113291255D01*
X177802514Y-113299825D01*
X177786429Y-113297988D01*
X177780987Y-113286917D01*
X177773043Y-113266336D01*
X177752464Y-113238999D01*
X177724125Y-113210052D01*
X177692906Y-113184645D01*
X177671740Y-113171615D01*
X177638354Y-113155975D01*
X177603695Y-113143071D01*
X177565888Y-113132846D01*
X177523059Y-113125246D01*
X177473331Y-113120212D01*
X177414831Y-113117690D01*
X177345682Y-113117624D01*
X177264010Y-113119956D01*
X177167939Y-113124632D01*
X177055595Y-113131594D01*
X176925102Y-113140788D01*
X176843971Y-113146846D01*
X176776422Y-113152121D01*
X176713635Y-113157312D01*
X176659605Y-113162066D01*
X176618330Y-113166030D01*
X176593805Y-113168852D01*
X176592512Y-113169045D01*
X176552808Y-113175195D01*
X176553035Y-113272201D01*
X176554142Y-113337364D01*
X176556961Y-113410828D01*
X176561152Y-113487704D01*
X176566375Y-113563102D01*
X176572290Y-113632132D01*
X176578557Y-113689906D01*
X176584837Y-113731534D01*
X176585011Y-113732424D01*
X176604516Y-113802905D01*
X176633023Y-113855582D01*
X176672720Y-113892205D01*
X176725792Y-113914521D01*
X176794425Y-113924282D01*
X176825753Y-113925063D01*
X176868787Y-113925308D01*
X176894521Y-113926798D01*
X176906827Y-113930670D01*
X176909580Y-113938059D01*
X176907022Y-113948886D01*
X176887197Y-113984881D01*
X176852248Y-114020311D01*
X176807689Y-114049867D01*
X176796326Y-114055429D01*
X176740723Y-114071162D01*
X176672746Y-114075394D01*
X176597081Y-114069171D01*
X176518411Y-114053537D01*
X176441423Y-114029537D01*
X176370802Y-113998216D01*
X176311234Y-113960620D01*
X176289858Y-113942478D01*
X176251032Y-113899888D01*
X176230408Y-113859922D01*
X176227418Y-113818182D01*
X176241492Y-113770273D01*
X176262217Y-113728871D01*
X176299846Y-113661584D01*
X176311399Y-113427819D01*
X176314571Y-113359825D01*
X176317036Y-113299310D01*
X176318697Y-113249342D01*
X176319460Y-113212989D01*
X176319228Y-113193318D01*
X176318768Y-113190721D01*
X176307049Y-113190252D01*
X176277556Y-113191424D01*
X176233606Y-113193979D01*
X176178516Y-113197657D01*
X176115602Y-113202201D01*
X176048182Y-113207351D01*
X175979571Y-113212850D01*
X175913087Y-113218437D01*
X175852046Y-113223856D01*
X175799765Y-113228846D01*
X175759559Y-113233150D01*
X175737552Y-113236045D01*
X175654671Y-113252345D01*
X175589896Y-113272661D01*
X175540364Y-113298035D01*
X175515942Y-113316866D01*
X175492169Y-113336149D01*
X175469273Y-113347719D01*
X175442780Y-113351817D01*
X175408216Y-113348686D01*
X175361107Y-113338567D01*
X175318624Y-113327552D01*
X175227550Y-113299441D01*
X175150644Y-113268160D01*
X175088819Y-113234636D01*
X175042986Y-113199796D01*
X175014058Y-113164569D01*
X175002947Y-113129880D01*
X175010565Y-113096658D01*
X175037824Y-113065829D01*
X175051629Y-113056120D01*
X175067828Y-113046933D01*
X175084811Y-113041028D01*
X175107040Y-113037985D01*
X175138978Y-113037379D01*
X175185088Y-113038789D01*
X175218752Y-113040301D01*
X175286712Y-113043884D01*
X175363267Y-113048512D01*
X175437167Y-113053482D01*
X175478152Y-113056539D01*
X175523471Y-113058767D01*
X175586028Y-113059935D01*
X175661916Y-113060127D01*
X175747228Y-113059429D01*
X175838058Y-113057925D01*
X175930499Y-113055698D01*
X176020644Y-113052835D01*
X176104587Y-113049418D01*
X176178421Y-113045533D01*
X176238239Y-113041264D01*
X176254575Y-113039752D01*
X176321619Y-113033040D01*
X176316650Y-112248226D01*
X176315615Y-112094635D01*
X176314560Y-111960693D01*
X176313448Y-111844876D01*
X176312242Y-111745658D01*
X176310904Y-111661514D01*
X176309396Y-111590918D01*
X176307680Y-111532345D01*
X176305720Y-111484269D01*
X176303477Y-111445165D01*
X176300914Y-111413507D01*
X176297994Y-111387770D01*
X176294979Y-111368123D01*
X176283327Y-111290010D01*
X176278955Y-111226037D01*
X176281935Y-111170434D01*
X176292343Y-111117429D01*
X176298449Y-111096155D01*
X176328147Y-111022039D01*
X176366735Y-110960360D01*
X176411788Y-110914681D01*
X176430480Y-110902036D01*
X176476752Y-110880941D01*
X176515056Y-110877878D01*
X176548643Y-110892922D01*
G37*
X176548643Y-110892922D02*
X176562508Y-110905039D01*
X176582203Y-110931156D01*
X176602673Y-110968220D01*
X176615367Y-110997682D01*
X176635947Y-111044249D01*
X176661800Y-111083175D01*
X176697477Y-111120035D01*
X176747528Y-111160402D01*
X176749204Y-111161654D01*
X176794001Y-111192503D01*
X176853051Y-111229414D01*
X176921392Y-111269549D01*
X176994060Y-111310073D01*
X177066095Y-111348149D01*
X177132532Y-111380940D01*
X177134140Y-111381696D01*
X177176119Y-111401519D01*
X177210324Y-111417862D01*
X177232630Y-111428744D01*
X177239099Y-111432149D01*
X177239927Y-111444024D01*
X177233889Y-111466060D01*
X177224034Y-111490679D01*
X177213415Y-111510302D01*
X177205081Y-111517347D01*
X177204837Y-111517260D01*
X177189337Y-111511661D01*
X177157287Y-111500858D01*
X177112334Y-111486024D01*
X177058120Y-111468335D01*
X176998290Y-111448961D01*
X176936488Y-111429077D01*
X176876359Y-111409856D01*
X176821546Y-111392471D01*
X176775693Y-111378095D01*
X176742445Y-111367902D01*
X176727506Y-111363583D01*
X176687240Y-111356009D01*
X176644902Y-111352358D01*
X176640401Y-111352301D01*
X176617785Y-111353170D01*
X176599993Y-111357404D01*
X176586305Y-111367335D01*
X176576001Y-111385299D01*
X176568360Y-111413632D01*
X176562661Y-111454667D01*
X176558184Y-111510741D01*
X176554208Y-111584187D01*
X176551662Y-111639850D01*
X176549793Y-111693002D01*
X176548210Y-111760248D01*
X176546906Y-111839451D01*
X176545874Y-111928472D01*
X176545110Y-112025174D01*
X176544606Y-112127419D01*
X176544357Y-112233070D01*
X176544357Y-112339989D01*
X176544598Y-112446037D01*
X176545077Y-112549078D01*
X176545785Y-112646974D01*
X176546718Y-112737586D01*
X176547868Y-112818778D01*
X176549230Y-112888411D01*
X176550799Y-112944347D01*
X176552567Y-112984450D01*
X176554528Y-113006581D01*
X176555576Y-113010235D01*
X176568908Y-113012267D01*
X176600270Y-113011911D01*
X176646684Y-113009455D01*
X176705175Y-113005188D01*
X176772766Y-112999397D01*
X176846481Y-112992371D01*
X176923343Y-112984398D01*
X177000375Y-112975767D01*
X177074602Y-112966765D01*
X177143047Y-112957682D01*
X177202734Y-112948804D01*
X177221074Y-112945787D01*
X177277224Y-112933731D01*
X177338651Y-112916663D01*
X177392556Y-112898161D01*
X177395125Y-112897141D01*
X177444955Y-112878928D01*
X177483153Y-112869682D01*
X177516513Y-112867935D01*
X177526731Y-112868667D01*
X177590979Y-112882826D01*
X177654744Y-112911147D01*
X177715048Y-112950700D01*
X177768917Y-112998554D01*
X177813375Y-113051779D01*
X177845446Y-113107446D01*
X177862156Y-113162623D01*
X177863064Y-113199874D01*
X177855734Y-113235819D01*
X177844029Y-113267209D01*
X177840293Y-113273764D01*
X177822702Y-113291255D01*
X177802514Y-113299825D01*
X177786429Y-113297988D01*
X177780987Y-113286917D01*
X177773043Y-113266336D01*
X177752464Y-113238999D01*
X177724125Y-113210052D01*
X177692906Y-113184645D01*
X177671740Y-113171615D01*
X177638354Y-113155975D01*
X177603695Y-113143071D01*
X177565888Y-113132846D01*
X177523059Y-113125246D01*
X177473331Y-113120212D01*
X177414831Y-113117690D01*
X177345682Y-113117624D01*
X177264010Y-113119956D01*
X177167939Y-113124632D01*
X177055595Y-113131594D01*
X176925102Y-113140788D01*
X176843971Y-113146846D01*
X176776422Y-113152121D01*
X176713635Y-113157312D01*
X176659605Y-113162066D01*
X176618330Y-113166030D01*
X176593805Y-113168852D01*
X176592512Y-113169045D01*
X176552808Y-113175195D01*
X176553035Y-113272201D01*
X176554142Y-113337364D01*
X176556961Y-113410828D01*
X176561152Y-113487704D01*
X176566375Y-113563102D01*
X176572290Y-113632132D01*
X176578557Y-113689906D01*
X176584837Y-113731534D01*
X176585011Y-113732424D01*
X176604516Y-113802905D01*
X176633023Y-113855582D01*
X176672720Y-113892205D01*
X176725792Y-113914521D01*
X176794425Y-113924282D01*
X176825753Y-113925063D01*
X176868787Y-113925308D01*
X176894521Y-113926798D01*
X176906827Y-113930670D01*
X176909580Y-113938059D01*
X176907022Y-113948886D01*
X176887197Y-113984881D01*
X176852248Y-114020311D01*
X176807689Y-114049867D01*
X176796326Y-114055429D01*
X176740723Y-114071162D01*
X176672746Y-114075394D01*
X176597081Y-114069171D01*
X176518411Y-114053537D01*
X176441423Y-114029537D01*
X176370802Y-113998216D01*
X176311234Y-113960620D01*
X176289858Y-113942478D01*
X176251032Y-113899888D01*
X176230408Y-113859922D01*
X176227418Y-113818182D01*
X176241492Y-113770273D01*
X176262217Y-113728871D01*
X176299846Y-113661584D01*
X176311399Y-113427819D01*
X176314571Y-113359825D01*
X176317036Y-113299310D01*
X176318697Y-113249342D01*
X176319460Y-113212989D01*
X176319228Y-113193318D01*
X176318768Y-113190721D01*
X176307049Y-113190252D01*
X176277556Y-113191424D01*
X176233606Y-113193979D01*
X176178516Y-113197657D01*
X176115602Y-113202201D01*
X176048182Y-113207351D01*
X175979571Y-113212850D01*
X175913087Y-113218437D01*
X175852046Y-113223856D01*
X175799765Y-113228846D01*
X175759559Y-113233150D01*
X175737552Y-113236045D01*
X175654671Y-113252345D01*
X175589896Y-113272661D01*
X175540364Y-113298035D01*
X175515942Y-113316866D01*
X175492169Y-113336149D01*
X175469273Y-113347719D01*
X175442780Y-113351817D01*
X175408216Y-113348686D01*
X175361107Y-113338567D01*
X175318624Y-113327552D01*
X175227550Y-113299441D01*
X175150644Y-113268160D01*
X175088819Y-113234636D01*
X175042986Y-113199796D01*
X175014058Y-113164569D01*
X175002947Y-113129880D01*
X175010565Y-113096658D01*
X175037824Y-113065829D01*
X175051629Y-113056120D01*
X175067828Y-113046933D01*
X175084811Y-113041028D01*
X175107040Y-113037985D01*
X175138978Y-113037379D01*
X175185088Y-113038789D01*
X175218752Y-113040301D01*
X175286712Y-113043884D01*
X175363267Y-113048512D01*
X175437167Y-113053482D01*
X175478152Y-113056539D01*
X175523471Y-113058767D01*
X175586028Y-113059935D01*
X175661916Y-113060127D01*
X175747228Y-113059429D01*
X175838058Y-113057925D01*
X175930499Y-113055698D01*
X176020644Y-113052835D01*
X176104587Y-113049418D01*
X176178421Y-113045533D01*
X176238239Y-113041264D01*
X176254575Y-113039752D01*
X176321619Y-113033040D01*
X176316650Y-112248226D01*
X176315615Y-112094635D01*
X176314560Y-111960693D01*
X176313448Y-111844876D01*
X176312242Y-111745658D01*
X176310904Y-111661514D01*
X176309396Y-111590918D01*
X176307680Y-111532345D01*
X176305720Y-111484269D01*
X176303477Y-111445165D01*
X176300914Y-111413507D01*
X176297994Y-111387770D01*
X176294979Y-111368123D01*
X176283327Y-111290010D01*
X176278955Y-111226037D01*
X176281935Y-111170434D01*
X176292343Y-111117429D01*
X176298449Y-111096155D01*
X176328147Y-111022039D01*
X176366735Y-110960360D01*
X176411788Y-110914681D01*
X176430480Y-110902036D01*
X176476752Y-110880941D01*
X176515056Y-110877878D01*
X176548643Y-110892922D01*
X173225270Y-114166107D02*
X173145454Y-114157084D01*
X173145454Y-114157084D02*
X173068933Y-114139759D01*
X173068933Y-114139759D02*
X172998180Y-114115547D01*
X172998180Y-114115547D02*
X172935668Y-114085864D01*
X172935668Y-114085864D02*
X172883870Y-114052124D01*
X172883870Y-114052124D02*
X172845259Y-114015743D01*
X172845259Y-114015743D02*
X172822309Y-113978137D01*
X172822309Y-113978137D02*
X172817492Y-113940720D01*
X172817492Y-113940720D02*
X172818887Y-113933527D01*
X172818887Y-113933527D02*
X172831333Y-113911923D01*
X172831333Y-113911923D02*
X172855260Y-113887497D01*
X172855260Y-113887497D02*
X172868883Y-113876996D01*
X172868883Y-113876996D02*
X172886239Y-113864222D01*
X172886239Y-113864222D02*
X172901104Y-113850563D01*
X172901104Y-113850563D02*
X172915056Y-113833248D01*
X172915056Y-113833248D02*
X172929673Y-113809504D01*
X172929673Y-113809504D02*
X172946533Y-113776559D01*
X172946533Y-113776559D02*
X172967215Y-113731641D01*
X172967215Y-113731641D02*
X172993297Y-113671979D01*
X172993297Y-113671979D02*
X173016778Y-113617232D01*
X173016778Y-113617232D02*
X173047154Y-113548188D01*
X173047154Y-113548188D02*
X173082668Y-113470640D01*
X173082668Y-113470640D02*
X173119067Y-113393714D01*
X173119067Y-113393714D02*
X173152095Y-113326539D01*
X173152095Y-113326539D02*
X173154499Y-113321791D01*
X173154499Y-113321791D02*
X173179446Y-113272064D01*
X173179446Y-113272064D02*
X173200256Y-113229453D01*
X173200256Y-113229453D02*
X173215345Y-113197291D01*
X173215345Y-113197291D02*
X173223132Y-113178910D01*
X173223132Y-113178910D02*
X173223777Y-113175913D01*
X173223777Y-113175913D02*
X173212535Y-113173343D01*
X173212535Y-113173343D02*
X173185368Y-113169267D01*
X173185368Y-113169267D02*
X173147408Y-113164430D01*
X173147408Y-113164430D02*
X173133195Y-113162772D01*
X173133195Y-113162772D02*
X173077333Y-113159263D01*
X173077333Y-113159263D02*
X173002045Y-113159075D01*
X173002045Y-113159075D02*
X172908804Y-113162096D01*
X172908804Y-113162096D02*
X172799079Y-113168212D01*
X172799079Y-113168212D02*
X172674341Y-113177310D01*
X172674341Y-113177310D02*
X172536061Y-113189276D01*
X172536061Y-113189276D02*
X172385708Y-113203999D01*
X172385708Y-113203999D02*
X172224755Y-113221363D01*
X172224755Y-113221363D02*
X172054670Y-113241258D01*
X172054670Y-113241258D02*
X171957727Y-113253241D01*
X171957727Y-113253241D02*
X171846851Y-113268075D01*
X171846851Y-113268075D02*
X171754116Y-113282627D01*
X171754116Y-113282627D02*
X171676513Y-113297660D01*
X171676513Y-113297660D02*
X171611033Y-113313940D01*
X171611033Y-113313940D02*
X171554669Y-113332231D01*
X171554669Y-113332231D02*
X171504411Y-113353297D01*
X171504411Y-113353297D02*
X171457251Y-113377904D01*
X171457251Y-113377904D02*
X171449515Y-113382382D01*
X171449515Y-113382382D02*
X171421327Y-113396726D01*
X171421327Y-113396726D02*
X171393351Y-113404843D01*
X171393351Y-113404843D02*
X171361285Y-113406674D01*
X171361285Y-113406674D02*
X171320829Y-113402158D01*
X171320829Y-113402158D02*
X171267680Y-113391233D01*
X171267680Y-113391233D02*
X171218123Y-113379107D01*
X171218123Y-113379107D02*
X171134267Y-113353819D01*
X171134267Y-113353819D02*
X171069983Y-113325082D01*
X171069983Y-113325082D02*
X171023817Y-113291959D01*
X171023817Y-113291959D02*
X170994314Y-113253509D01*
X170994314Y-113253509D02*
X170984175Y-113228089D01*
X170984175Y-113228089D02*
X170980393Y-113199107D01*
X170980393Y-113199107D02*
X170991051Y-113174758D01*
X170991051Y-113174758D02*
X170995297Y-113169104D01*
X170995297Y-113169104D02*
X171009375Y-113155596D01*
X171009375Y-113155596D02*
X171029685Y-113144720D01*
X171029685Y-113144720D02*
X171058620Y-113136098D01*
X171058620Y-113136098D02*
X171098571Y-113129353D01*
X171098571Y-113129353D02*
X171151930Y-113124109D01*
X171151930Y-113124109D02*
X171221089Y-113119988D01*
X171221089Y-113119988D02*
X171308440Y-113116613D01*
X171308440Y-113116613D02*
X171333050Y-113115852D01*
X171333050Y-113115852D02*
X171395502Y-113113667D01*
X171395502Y-113113667D02*
X171467414Y-113110608D01*
X171467414Y-113110608D02*
X171545857Y-113106851D01*
X171545857Y-113106851D02*
X171627903Y-113102575D01*
X171627903Y-113102575D02*
X171710625Y-113097954D01*
X171710625Y-113097954D02*
X171791094Y-113093166D01*
X171791094Y-113093166D02*
X171866383Y-113088389D01*
X171866383Y-113088389D02*
X171933564Y-113083797D01*
X171933564Y-113083797D02*
X171989708Y-113079568D01*
X171989708Y-113079568D02*
X172031887Y-113075880D01*
X172031887Y-113075880D02*
X172057174Y-113072907D01*
X172057174Y-113072907D02*
X172062296Y-113071840D01*
X172062296Y-113071840D02*
X172064474Y-113063575D01*
X172064474Y-113063575D02*
X172048251Y-113046886D01*
X172048251Y-113046886D02*
X172035415Y-113037064D01*
X172035415Y-113037064D02*
X171986648Y-112992396D01*
X171986648Y-112992396D02*
X171957917Y-112943141D01*
X171957917Y-112943141D02*
X171950510Y-112914721D01*
X171950510Y-112914721D02*
X171950002Y-112887924D01*
X171950002Y-112887924D02*
X171960809Y-112863727D01*
X171960809Y-112863727D02*
X171976315Y-112844109D01*
X171976315Y-112844109D02*
X172010188Y-112799375D01*
X172010188Y-112799375D02*
X172033085Y-112752845D01*
X172033085Y-112752845D02*
X172048784Y-112696183D01*
X172048784Y-112696183D02*
X172052779Y-112675260D01*
X172052779Y-112675260D02*
X172059998Y-112639119D01*
X172059998Y-112639119D02*
X172071190Y-112588692D01*
X172071190Y-112588692D02*
X172084929Y-112530171D01*
X172084929Y-112530171D02*
X172099793Y-112469747D01*
X172099793Y-112469747D02*
X172102601Y-112458661D01*
X172102601Y-112458661D02*
X172170077Y-112231175D01*
X172170077Y-112231175D02*
X172253052Y-112018046D01*
X172253052Y-112018046D02*
X172351660Y-111819059D01*
X172351660Y-111819059D02*
X172466033Y-111633999D01*
X172466033Y-111633999D02*
X172596306Y-111462654D01*
X172596306Y-111462654D02*
X172742611Y-111304807D01*
X172742611Y-111304807D02*
X172905083Y-111160247D01*
X172905083Y-111160247D02*
X172917939Y-111149922D01*
X172917939Y-111149922D02*
X172965266Y-111113854D01*
X172965266Y-111113854D02*
X173021214Y-111073915D01*
X173021214Y-111073915D02*
X173082979Y-111031841D01*
X173082979Y-111031841D02*
X173147757Y-110989367D01*
X173147757Y-110989367D02*
X173212745Y-110948230D01*
X173212745Y-110948230D02*
X173275137Y-110910163D01*
X173275137Y-110910163D02*
X173332130Y-110876904D01*
X173332130Y-110876904D02*
X173380919Y-110850187D01*
X173380919Y-110850187D02*
X173418701Y-110831749D01*
X173418701Y-110831749D02*
X173442671Y-110823323D01*
X173442671Y-110823323D02*
X173446186Y-110822985D01*
X173446186Y-110822985D02*
X173457434Y-110831188D01*
X173457434Y-110831188D02*
X173474052Y-110851609D01*
X173474052Y-110851609D02*
X173480473Y-110861049D01*
X173480473Y-110861049D02*
X173494758Y-110884701D01*
X173494758Y-110884701D02*
X173501669Y-110899405D01*
X173501669Y-110899405D02*
X173501648Y-110901408D01*
X173501648Y-110901408D02*
X173492083Y-110908090D01*
X173492083Y-110908090D02*
X173468939Y-110924223D01*
X173468939Y-110924223D02*
X173436014Y-110947159D01*
X173436014Y-110947159D02*
X173408248Y-110966495D01*
X173408248Y-110966495D02*
X173222691Y-111108277D01*
X173222691Y-111108277D02*
X173052851Y-111263967D01*
X173052851Y-111263967D02*
X172899238Y-111432737D01*
X172899238Y-111432737D02*
X172762361Y-111613756D01*
X172762361Y-111613756D02*
X172642732Y-111806197D01*
X172642732Y-111806197D02*
X172540859Y-112009230D01*
X172540859Y-112009230D02*
X172457255Y-112222026D01*
X172457255Y-112222026D02*
X172392428Y-112443757D01*
X172392428Y-112443757D02*
X172346890Y-112673594D01*
X172346890Y-112673594D02*
X172343538Y-112696144D01*
X172343538Y-112696144D02*
X172332719Y-112788527D01*
X172332719Y-112788527D02*
X172329921Y-112863177D01*
X172329921Y-112863177D02*
X172335515Y-112922104D01*
X172335515Y-112922104D02*
X172349867Y-112967319D01*
X172349867Y-112967319D02*
X172373347Y-113000832D01*
X172373347Y-113000832D02*
X172403433Y-113023115D01*
X172403433Y-113023115D02*
X172425990Y-113029518D01*
X172425990Y-113029518D02*
X172464562Y-113032490D01*
X172464562Y-113032490D02*
X172520039Y-113031994D01*
X172520039Y-113031994D02*
X172593310Y-113027988D01*
X172593310Y-113027988D02*
X172685268Y-113020434D01*
X172685268Y-113020434D02*
X172796802Y-113009293D01*
X172796802Y-113009293D02*
X172852391Y-113003235D01*
X172852391Y-113003235D02*
X172943265Y-112993817D01*
X172943265Y-112993817D02*
X173016614Y-112988112D01*
X173016614Y-112988112D02*
X173075791Y-112986297D01*
X173075791Y-112986297D02*
X173124149Y-112988550D01*
X173124149Y-112988550D02*
X173165043Y-112995049D01*
X173165043Y-112995049D02*
X173201825Y-113005971D01*
X173201825Y-113005971D02*
X173237849Y-113021495D01*
X173237849Y-113021495D02*
X173242786Y-113023928D01*
X173242786Y-113023928D02*
X173307664Y-113056287D01*
X173307664Y-113056287D02*
X173328840Y-113027601D01*
X173328840Y-113027601D02*
X173440977Y-112881745D01*
X173440977Y-112881745D02*
X173555895Y-112743779D01*
X173555895Y-112743779D02*
X173670583Y-112617105D01*
X173670583Y-112617105D02*
X173782030Y-112505123D01*
X173782030Y-112505123D02*
X173833537Y-112457546D01*
X173833537Y-112457546D02*
X173889457Y-112408425D01*
X173889457Y-112408425D02*
X173945330Y-112361034D01*
X173945330Y-112361034D02*
X173998589Y-112317391D01*
X173998589Y-112317391D02*
X174046662Y-112279515D01*
X174046662Y-112279515D02*
X174086980Y-112249424D01*
X174086980Y-112249424D02*
X174116975Y-112229137D01*
X174116975Y-112229137D02*
X174134076Y-112220673D01*
X174134076Y-112220673D02*
X174135214Y-112220547D01*
X174135214Y-112220547D02*
X174149352Y-112227952D01*
X174149352Y-112227952D02*
X174169198Y-112246489D01*
X174169198Y-112246489D02*
X174174655Y-112252699D01*
X174174655Y-112252699D02*
X174201801Y-112284961D01*
X174201801Y-112284961D02*
X174087344Y-112399418D01*
X174087344Y-112399418D02*
X173911562Y-112588263D01*
X173911562Y-112588263D02*
X173751738Y-112786898D01*
X173751738Y-112786898D02*
X173609364Y-112993268D01*
X173609364Y-112993268D02*
X173485930Y-113205316D01*
X173485930Y-113205316D02*
X173445504Y-113284505D01*
X173445504Y-113284505D02*
X173393417Y-113395650D01*
X173393417Y-113395650D02*
X173348049Y-113502846D01*
X173348049Y-113502846D02*
X173309928Y-113604192D01*
X173309928Y-113604192D02*
X173279581Y-113697789D01*
X173279581Y-113697789D02*
X173257538Y-113781737D01*
X173257538Y-113781737D02*
X173244325Y-113854135D01*
X173244325Y-113854135D02*
X173240472Y-113913085D01*
X173240472Y-113913085D02*
X173246506Y-113956687D01*
X173246506Y-113956687D02*
X173254052Y-113973165D01*
X173254052Y-113973165D02*
X173284319Y-114002598D01*
X173284319Y-114002598D02*
X173329173Y-114025334D01*
X173329173Y-114025334D02*
X173382425Y-114038774D01*
X173382425Y-114038774D02*
X173416189Y-114041296D01*
X173416189Y-114041296D02*
X173452120Y-114043692D01*
X173452120Y-114043692D02*
X173468970Y-114051697D01*
X173468970Y-114051697D02*
X173467178Y-114067107D01*
X173467178Y-114067107D02*
X173447180Y-114091719D01*
X173447180Y-114091719D02*
X173432070Y-114106549D01*
X173432070Y-114106549D02*
X173397223Y-114135870D01*
X173397223Y-114135870D02*
X173363088Y-114154744D01*
X173363088Y-114154744D02*
X173323967Y-114164810D01*
X173323967Y-114164810D02*
X173274164Y-114167709D01*
X173274164Y-114167709D02*
X173225270Y-114166107D01*
X173225270Y-114166107D02*
X173225270Y-114166107D01*
G36*
X173457434Y-110831188D02*
G01*
X173474052Y-110851609D01*
X173480473Y-110861049D01*
X173494758Y-110884701D01*
X173501669Y-110899405D01*
X173501648Y-110901408D01*
X173492083Y-110908090D01*
X173468939Y-110924223D01*
X173436014Y-110947159D01*
X173408248Y-110966495D01*
X173222691Y-111108277D01*
X173052851Y-111263967D01*
X172899238Y-111432737D01*
X172762361Y-111613756D01*
X172642732Y-111806197D01*
X172540859Y-112009230D01*
X172457255Y-112222026D01*
X172392428Y-112443757D01*
X172346890Y-112673594D01*
X172343538Y-112696144D01*
X172332719Y-112788527D01*
X172329921Y-112863177D01*
X172335515Y-112922104D01*
X172349867Y-112967319D01*
X172373347Y-113000832D01*
X172403433Y-113023115D01*
X172425990Y-113029518D01*
X172464562Y-113032490D01*
X172520039Y-113031994D01*
X172593310Y-113027988D01*
X172685268Y-113020434D01*
X172796802Y-113009293D01*
X172852391Y-113003235D01*
X172943265Y-112993817D01*
X173016614Y-112988112D01*
X173075791Y-112986297D01*
X173124149Y-112988550D01*
X173165043Y-112995049D01*
X173201825Y-113005971D01*
X173237849Y-113021495D01*
X173242786Y-113023928D01*
X173307664Y-113056287D01*
X173328840Y-113027601D01*
X173440977Y-112881745D01*
X173555895Y-112743779D01*
X173670583Y-112617105D01*
X173782030Y-112505123D01*
X173833537Y-112457546D01*
X173889457Y-112408425D01*
X173945330Y-112361034D01*
X173998589Y-112317391D01*
X174046662Y-112279515D01*
X174086980Y-112249424D01*
X174116975Y-112229137D01*
X174134076Y-112220673D01*
X174135214Y-112220547D01*
X174149352Y-112227952D01*
X174169198Y-112246489D01*
X174174655Y-112252699D01*
X174201801Y-112284961D01*
X174087344Y-112399418D01*
X173911562Y-112588263D01*
X173751738Y-112786898D01*
X173609364Y-112993268D01*
X173485930Y-113205316D01*
X173445504Y-113284505D01*
X173393417Y-113395650D01*
X173348049Y-113502846D01*
X173309928Y-113604192D01*
X173279581Y-113697789D01*
X173257538Y-113781737D01*
X173244325Y-113854135D01*
X173240472Y-113913085D01*
X173246506Y-113956687D01*
X173254052Y-113973165D01*
X173284319Y-114002598D01*
X173329173Y-114025334D01*
X173382425Y-114038774D01*
X173416189Y-114041296D01*
X173452120Y-114043692D01*
X173468970Y-114051697D01*
X173467178Y-114067107D01*
X173447180Y-114091719D01*
X173432070Y-114106549D01*
X173397223Y-114135870D01*
X173363088Y-114154744D01*
X173323967Y-114164810D01*
X173274164Y-114167709D01*
X173225270Y-114166107D01*
X173145454Y-114157084D01*
X173068933Y-114139759D01*
X172998180Y-114115547D01*
X172935668Y-114085864D01*
X172883870Y-114052124D01*
X172845259Y-114015743D01*
X172822309Y-113978137D01*
X172817492Y-113940720D01*
X172818887Y-113933527D01*
X172831333Y-113911923D01*
X172855260Y-113887497D01*
X172868883Y-113876996D01*
X172886239Y-113864222D01*
X172901104Y-113850563D01*
X172915056Y-113833248D01*
X172929673Y-113809504D01*
X172946533Y-113776559D01*
X172967215Y-113731641D01*
X172993297Y-113671979D01*
X173016778Y-113617232D01*
X173047154Y-113548188D01*
X173082668Y-113470640D01*
X173119067Y-113393714D01*
X173152095Y-113326539D01*
X173154499Y-113321791D01*
X173179446Y-113272064D01*
X173200256Y-113229453D01*
X173215345Y-113197291D01*
X173223132Y-113178910D01*
X173223777Y-113175913D01*
X173212535Y-113173343D01*
X173185368Y-113169267D01*
X173147408Y-113164430D01*
X173133195Y-113162772D01*
X173077333Y-113159263D01*
X173002045Y-113159075D01*
X172908804Y-113162096D01*
X172799079Y-113168212D01*
X172674341Y-113177310D01*
X172536061Y-113189276D01*
X172385708Y-113203999D01*
X172224755Y-113221363D01*
X172054670Y-113241258D01*
X171957727Y-113253241D01*
X171846851Y-113268075D01*
X171754116Y-113282627D01*
X171676513Y-113297660D01*
X171611033Y-113313940D01*
X171554669Y-113332231D01*
X171504411Y-113353297D01*
X171457251Y-113377904D01*
X171449515Y-113382382D01*
X171421327Y-113396726D01*
X171393351Y-113404843D01*
X171361285Y-113406674D01*
X171320829Y-113402158D01*
X171267680Y-113391233D01*
X171218123Y-113379107D01*
X171134267Y-113353819D01*
X171069983Y-113325082D01*
X171023817Y-113291959D01*
X170994314Y-113253509D01*
X170984175Y-113228089D01*
X170980393Y-113199107D01*
X170991051Y-113174758D01*
X170995297Y-113169104D01*
X171009375Y-113155596D01*
X171029685Y-113144720D01*
X171058620Y-113136098D01*
X171098571Y-113129353D01*
X171151930Y-113124109D01*
X171221089Y-113119988D01*
X171308440Y-113116613D01*
X171333050Y-113115852D01*
X171395502Y-113113667D01*
X171467414Y-113110608D01*
X171545857Y-113106851D01*
X171627903Y-113102575D01*
X171710625Y-113097954D01*
X171791094Y-113093166D01*
X171866383Y-113088389D01*
X171933564Y-113083797D01*
X171989708Y-113079568D01*
X172031887Y-113075880D01*
X172057174Y-113072907D01*
X172062296Y-113071840D01*
X172064474Y-113063575D01*
X172048251Y-113046886D01*
X172035415Y-113037064D01*
X171986648Y-112992396D01*
X171957917Y-112943141D01*
X171950510Y-112914721D01*
X171950002Y-112887924D01*
X171960809Y-112863727D01*
X171976315Y-112844109D01*
X172010188Y-112799375D01*
X172033085Y-112752845D01*
X172048784Y-112696183D01*
X172052779Y-112675260D01*
X172059998Y-112639119D01*
X172071190Y-112588692D01*
X172084929Y-112530171D01*
X172099793Y-112469747D01*
X172102601Y-112458661D01*
X172170077Y-112231175D01*
X172253052Y-112018046D01*
X172351660Y-111819059D01*
X172466033Y-111633999D01*
X172596306Y-111462654D01*
X172742611Y-111304807D01*
X172905083Y-111160247D01*
X172917939Y-111149922D01*
X172965266Y-111113854D01*
X173021214Y-111073915D01*
X173082979Y-111031841D01*
X173147757Y-110989367D01*
X173212745Y-110948230D01*
X173275137Y-110910163D01*
X173332130Y-110876904D01*
X173380919Y-110850187D01*
X173418701Y-110831749D01*
X173442671Y-110823323D01*
X173446186Y-110822985D01*
X173457434Y-110831188D01*
G37*
X173457434Y-110831188D02*
X173474052Y-110851609D01*
X173480473Y-110861049D01*
X173494758Y-110884701D01*
X173501669Y-110899405D01*
X173501648Y-110901408D01*
X173492083Y-110908090D01*
X173468939Y-110924223D01*
X173436014Y-110947159D01*
X173408248Y-110966495D01*
X173222691Y-111108277D01*
X173052851Y-111263967D01*
X172899238Y-111432737D01*
X172762361Y-111613756D01*
X172642732Y-111806197D01*
X172540859Y-112009230D01*
X172457255Y-112222026D01*
X172392428Y-112443757D01*
X172346890Y-112673594D01*
X172343538Y-112696144D01*
X172332719Y-112788527D01*
X172329921Y-112863177D01*
X172335515Y-112922104D01*
X172349867Y-112967319D01*
X172373347Y-113000832D01*
X172403433Y-113023115D01*
X172425990Y-113029518D01*
X172464562Y-113032490D01*
X172520039Y-113031994D01*
X172593310Y-113027988D01*
X172685268Y-113020434D01*
X172796802Y-113009293D01*
X172852391Y-113003235D01*
X172943265Y-112993817D01*
X173016614Y-112988112D01*
X173075791Y-112986297D01*
X173124149Y-112988550D01*
X173165043Y-112995049D01*
X173201825Y-113005971D01*
X173237849Y-113021495D01*
X173242786Y-113023928D01*
X173307664Y-113056287D01*
X173328840Y-113027601D01*
X173440977Y-112881745D01*
X173555895Y-112743779D01*
X173670583Y-112617105D01*
X173782030Y-112505123D01*
X173833537Y-112457546D01*
X173889457Y-112408425D01*
X173945330Y-112361034D01*
X173998589Y-112317391D01*
X174046662Y-112279515D01*
X174086980Y-112249424D01*
X174116975Y-112229137D01*
X174134076Y-112220673D01*
X174135214Y-112220547D01*
X174149352Y-112227952D01*
X174169198Y-112246489D01*
X174174655Y-112252699D01*
X174201801Y-112284961D01*
X174087344Y-112399418D01*
X173911562Y-112588263D01*
X173751738Y-112786898D01*
X173609364Y-112993268D01*
X173485930Y-113205316D01*
X173445504Y-113284505D01*
X173393417Y-113395650D01*
X173348049Y-113502846D01*
X173309928Y-113604192D01*
X173279581Y-113697789D01*
X173257538Y-113781737D01*
X173244325Y-113854135D01*
X173240472Y-113913085D01*
X173246506Y-113956687D01*
X173254052Y-113973165D01*
X173284319Y-114002598D01*
X173329173Y-114025334D01*
X173382425Y-114038774D01*
X173416189Y-114041296D01*
X173452120Y-114043692D01*
X173468970Y-114051697D01*
X173467178Y-114067107D01*
X173447180Y-114091719D01*
X173432070Y-114106549D01*
X173397223Y-114135870D01*
X173363088Y-114154744D01*
X173323967Y-114164810D01*
X173274164Y-114167709D01*
X173225270Y-114166107D01*
X173145454Y-114157084D01*
X173068933Y-114139759D01*
X172998180Y-114115547D01*
X172935668Y-114085864D01*
X172883870Y-114052124D01*
X172845259Y-114015743D01*
X172822309Y-113978137D01*
X172817492Y-113940720D01*
X172818887Y-113933527D01*
X172831333Y-113911923D01*
X172855260Y-113887497D01*
X172868883Y-113876996D01*
X172886239Y-113864222D01*
X172901104Y-113850563D01*
X172915056Y-113833248D01*
X172929673Y-113809504D01*
X172946533Y-113776559D01*
X172967215Y-113731641D01*
X172993297Y-113671979D01*
X173016778Y-113617232D01*
X173047154Y-113548188D01*
X173082668Y-113470640D01*
X173119067Y-113393714D01*
X173152095Y-113326539D01*
X173154499Y-113321791D01*
X173179446Y-113272064D01*
X173200256Y-113229453D01*
X173215345Y-113197291D01*
X173223132Y-113178910D01*
X173223777Y-113175913D01*
X173212535Y-113173343D01*
X173185368Y-113169267D01*
X173147408Y-113164430D01*
X173133195Y-113162772D01*
X173077333Y-113159263D01*
X173002045Y-113159075D01*
X172908804Y-113162096D01*
X172799079Y-113168212D01*
X172674341Y-113177310D01*
X172536061Y-113189276D01*
X172385708Y-113203999D01*
X172224755Y-113221363D01*
X172054670Y-113241258D01*
X171957727Y-113253241D01*
X171846851Y-113268075D01*
X171754116Y-113282627D01*
X171676513Y-113297660D01*
X171611033Y-113313940D01*
X171554669Y-113332231D01*
X171504411Y-113353297D01*
X171457251Y-113377904D01*
X171449515Y-113382382D01*
X171421327Y-113396726D01*
X171393351Y-113404843D01*
X171361285Y-113406674D01*
X171320829Y-113402158D01*
X171267680Y-113391233D01*
X171218123Y-113379107D01*
X171134267Y-113353819D01*
X171069983Y-113325082D01*
X171023817Y-113291959D01*
X170994314Y-113253509D01*
X170984175Y-113228089D01*
X170980393Y-113199107D01*
X170991051Y-113174758D01*
X170995297Y-113169104D01*
X171009375Y-113155596D01*
X171029685Y-113144720D01*
X171058620Y-113136098D01*
X171098571Y-113129353D01*
X171151930Y-113124109D01*
X171221089Y-113119988D01*
X171308440Y-113116613D01*
X171333050Y-113115852D01*
X171395502Y-113113667D01*
X171467414Y-113110608D01*
X171545857Y-113106851D01*
X171627903Y-113102575D01*
X171710625Y-113097954D01*
X171791094Y-113093166D01*
X171866383Y-113088389D01*
X171933564Y-113083797D01*
X171989708Y-113079568D01*
X172031887Y-113075880D01*
X172057174Y-113072907D01*
X172062296Y-113071840D01*
X172064474Y-113063575D01*
X172048251Y-113046886D01*
X172035415Y-113037064D01*
X171986648Y-112992396D01*
X171957917Y-112943141D01*
X171950510Y-112914721D01*
X171950002Y-112887924D01*
X171960809Y-112863727D01*
X171976315Y-112844109D01*
X172010188Y-112799375D01*
X172033085Y-112752845D01*
X172048784Y-112696183D01*
X172052779Y-112675260D01*
X172059998Y-112639119D01*
X172071190Y-112588692D01*
X172084929Y-112530171D01*
X172099793Y-112469747D01*
X172102601Y-112458661D01*
X172170077Y-112231175D01*
X172253052Y-112018046D01*
X172351660Y-111819059D01*
X172466033Y-111633999D01*
X172596306Y-111462654D01*
X172742611Y-111304807D01*
X172905083Y-111160247D01*
X172917939Y-111149922D01*
X172965266Y-111113854D01*
X173021214Y-111073915D01*
X173082979Y-111031841D01*
X173147757Y-110989367D01*
X173212745Y-110948230D01*
X173275137Y-110910163D01*
X173332130Y-110876904D01*
X173380919Y-110850187D01*
X173418701Y-110831749D01*
X173442671Y-110823323D01*
X173446186Y-110822985D01*
X173457434Y-110831188D01*
X163161325Y-113516222D02*
X163135610Y-113499861D01*
X163135610Y-113499861D02*
X163119598Y-113487699D01*
X163119598Y-113487699D02*
X163116960Y-113484260D01*
X163116960Y-113484260D02*
X163121460Y-113473393D01*
X163121460Y-113473393D02*
X163133889Y-113446952D01*
X163133889Y-113446952D02*
X163152637Y-113408273D01*
X163152637Y-113408273D02*
X163176095Y-113360689D01*
X163176095Y-113360689D02*
X163192041Y-113328691D01*
X163192041Y-113328691D02*
X163337429Y-113061643D01*
X163337429Y-113061643D02*
X163500641Y-112805806D01*
X163500641Y-112805806D02*
X163681328Y-112561520D01*
X163681328Y-112561520D02*
X163879143Y-112329124D01*
X163879143Y-112329124D02*
X164093739Y-112108956D01*
X164093739Y-112108956D02*
X164324769Y-111901356D01*
X164324769Y-111901356D02*
X164571884Y-111706662D01*
X164571884Y-111706662D02*
X164834737Y-111525214D01*
X164834737Y-111525214D02*
X165112981Y-111357350D01*
X165112981Y-111357350D02*
X165335063Y-111238795D01*
X165335063Y-111238795D02*
X165406623Y-111201891D01*
X165406623Y-111201891D02*
X165462392Y-111171243D01*
X165462392Y-111171243D02*
X165505971Y-111144612D01*
X165505971Y-111144612D02*
X165540966Y-111119755D01*
X165540966Y-111119755D02*
X165570980Y-111094431D01*
X165570980Y-111094431D02*
X165578582Y-111087332D01*
X165578582Y-111087332D02*
X165622144Y-111047432D01*
X165622144Y-111047432D02*
X165655868Y-111021492D01*
X165655868Y-111021492D02*
X165684030Y-111007686D01*
X165684030Y-111007686D02*
X165710906Y-111004189D01*
X165710906Y-111004189D02*
X165740774Y-111009178D01*
X165740774Y-111009178D02*
X165753308Y-111012768D01*
X165753308Y-111012768D02*
X165819283Y-111040790D01*
X165819283Y-111040790D02*
X165889305Y-111084573D01*
X165889305Y-111084573D02*
X165958181Y-111140823D01*
X165958181Y-111140823D02*
X165964332Y-111146560D01*
X165964332Y-111146560D02*
X166034710Y-111221114D01*
X166034710Y-111221114D02*
X166085522Y-111293237D01*
X166085522Y-111293237D02*
X166116613Y-111362330D01*
X166116613Y-111362330D02*
X166127824Y-111427794D01*
X166127824Y-111427794D02*
X166119000Y-111489031D01*
X166119000Y-111489031D02*
X166089982Y-111545441D01*
X166089982Y-111545441D02*
X166074014Y-111565060D01*
X166074014Y-111565060D02*
X166035875Y-111607275D01*
X166035875Y-111607275D02*
X166005635Y-111544269D01*
X166005635Y-111544269D02*
X165963622Y-111476458D01*
X165963622Y-111476458D02*
X165911730Y-111426807D01*
X165911730Y-111426807D02*
X165850722Y-111395846D01*
X165850722Y-111395846D02*
X165781362Y-111384102D01*
X165781362Y-111384102D02*
X165774062Y-111384005D01*
X165774062Y-111384005D02*
X165720738Y-111390106D01*
X165720738Y-111390106D02*
X165652320Y-111407774D01*
X165652320Y-111407774D02*
X165570796Y-111436060D01*
X165570796Y-111436060D02*
X165478151Y-111474012D01*
X165478151Y-111474012D02*
X165376371Y-111520679D01*
X165376371Y-111520679D02*
X165267441Y-111575111D01*
X165267441Y-111575111D02*
X165153349Y-111636356D01*
X165153349Y-111636356D02*
X165036080Y-111703464D01*
X165036080Y-111703464D02*
X164917619Y-111775484D01*
X164917619Y-111775484D02*
X164805705Y-111847641D01*
X164805705Y-111847641D02*
X164637980Y-111963625D01*
X164637980Y-111963625D02*
X164478071Y-112084168D01*
X164478071Y-112084168D02*
X164321833Y-112212706D01*
X164321833Y-112212706D02*
X164165122Y-112352673D01*
X164165122Y-112352673D02*
X164003795Y-112507507D01*
X164003795Y-112507507D02*
X163973903Y-112537264D01*
X163973903Y-112537264D02*
X163828413Y-112687398D01*
X163828413Y-112687398D02*
X163698581Y-112831521D01*
X163698581Y-112831521D02*
X163581347Y-112973520D01*
X163581347Y-112973520D02*
X163473650Y-113117282D01*
X163473650Y-113117282D02*
X163372429Y-113266694D01*
X163372429Y-113266694D02*
X163275485Y-113424179D01*
X163275485Y-113424179D02*
X163205690Y-113542678D01*
X163205690Y-113542678D02*
X163161325Y-113516222D01*
X163161325Y-113516222D02*
X163161325Y-113516222D01*
G36*
X165740774Y-111009178D02*
G01*
X165753308Y-111012768D01*
X165819283Y-111040790D01*
X165889305Y-111084573D01*
X165958181Y-111140823D01*
X165964332Y-111146560D01*
X166034710Y-111221114D01*
X166085522Y-111293237D01*
X166116613Y-111362330D01*
X166127824Y-111427794D01*
X166119000Y-111489031D01*
X166089982Y-111545441D01*
X166074014Y-111565060D01*
X166035875Y-111607275D01*
X166005635Y-111544269D01*
X165963622Y-111476458D01*
X165911730Y-111426807D01*
X165850722Y-111395846D01*
X165781362Y-111384102D01*
X165774062Y-111384005D01*
X165720738Y-111390106D01*
X165652320Y-111407774D01*
X165570796Y-111436060D01*
X165478151Y-111474012D01*
X165376371Y-111520679D01*
X165267441Y-111575111D01*
X165153349Y-111636356D01*
X165036080Y-111703464D01*
X164917619Y-111775484D01*
X164805705Y-111847641D01*
X164637980Y-111963625D01*
X164478071Y-112084168D01*
X164321833Y-112212706D01*
X164165122Y-112352673D01*
X164003795Y-112507507D01*
X163973903Y-112537264D01*
X163828413Y-112687398D01*
X163698581Y-112831521D01*
X163581347Y-112973520D01*
X163473650Y-113117282D01*
X163372429Y-113266694D01*
X163275485Y-113424179D01*
X163205690Y-113542678D01*
X163161325Y-113516222D01*
X163135610Y-113499861D01*
X163119598Y-113487699D01*
X163116960Y-113484260D01*
X163121460Y-113473393D01*
X163133889Y-113446952D01*
X163152637Y-113408273D01*
X163176095Y-113360689D01*
X163192041Y-113328691D01*
X163337429Y-113061643D01*
X163500641Y-112805806D01*
X163681328Y-112561520D01*
X163879143Y-112329124D01*
X164093739Y-112108956D01*
X164324769Y-111901356D01*
X164571884Y-111706662D01*
X164834737Y-111525214D01*
X165112981Y-111357350D01*
X165335063Y-111238795D01*
X165406623Y-111201891D01*
X165462392Y-111171243D01*
X165505971Y-111144612D01*
X165540966Y-111119755D01*
X165570980Y-111094431D01*
X165578582Y-111087332D01*
X165622144Y-111047432D01*
X165655868Y-111021492D01*
X165684030Y-111007686D01*
X165710906Y-111004189D01*
X165740774Y-111009178D01*
G37*
X165740774Y-111009178D02*
X165753308Y-111012768D01*
X165819283Y-111040790D01*
X165889305Y-111084573D01*
X165958181Y-111140823D01*
X165964332Y-111146560D01*
X166034710Y-111221114D01*
X166085522Y-111293237D01*
X166116613Y-111362330D01*
X166127824Y-111427794D01*
X166119000Y-111489031D01*
X166089982Y-111545441D01*
X166074014Y-111565060D01*
X166035875Y-111607275D01*
X166005635Y-111544269D01*
X165963622Y-111476458D01*
X165911730Y-111426807D01*
X165850722Y-111395846D01*
X165781362Y-111384102D01*
X165774062Y-111384005D01*
X165720738Y-111390106D01*
X165652320Y-111407774D01*
X165570796Y-111436060D01*
X165478151Y-111474012D01*
X165376371Y-111520679D01*
X165267441Y-111575111D01*
X165153349Y-111636356D01*
X165036080Y-111703464D01*
X164917619Y-111775484D01*
X164805705Y-111847641D01*
X164637980Y-111963625D01*
X164478071Y-112084168D01*
X164321833Y-112212706D01*
X164165122Y-112352673D01*
X164003795Y-112507507D01*
X163973903Y-112537264D01*
X163828413Y-112687398D01*
X163698581Y-112831521D01*
X163581347Y-112973520D01*
X163473650Y-113117282D01*
X163372429Y-113266694D01*
X163275485Y-113424179D01*
X163205690Y-113542678D01*
X163161325Y-113516222D01*
X163135610Y-113499861D01*
X163119598Y-113487699D01*
X163116960Y-113484260D01*
X163121460Y-113473393D01*
X163133889Y-113446952D01*
X163152637Y-113408273D01*
X163176095Y-113360689D01*
X163192041Y-113328691D01*
X163337429Y-113061643D01*
X163500641Y-112805806D01*
X163681328Y-112561520D01*
X163879143Y-112329124D01*
X164093739Y-112108956D01*
X164324769Y-111901356D01*
X164571884Y-111706662D01*
X164834737Y-111525214D01*
X165112981Y-111357350D01*
X165335063Y-111238795D01*
X165406623Y-111201891D01*
X165462392Y-111171243D01*
X165505971Y-111144612D01*
X165540966Y-111119755D01*
X165570980Y-111094431D01*
X165578582Y-111087332D01*
X165622144Y-111047432D01*
X165655868Y-111021492D01*
X165684030Y-111007686D01*
X165710906Y-111004189D01*
X165740774Y-111009178D01*
X175140293Y-114341422D02*
X175052535Y-114317904D01*
X175052535Y-114317904D02*
X174973308Y-114276887D01*
X174973308Y-114276887D02*
X174904557Y-114219949D01*
X174904557Y-114219949D02*
X174848230Y-114148673D01*
X174848230Y-114148673D02*
X174806272Y-114064639D01*
X174806272Y-114064639D02*
X174782235Y-113978494D01*
X174782235Y-113978494D02*
X174777332Y-113896995D01*
X174777332Y-113896995D02*
X174790752Y-113813436D01*
X174790752Y-113813436D02*
X174820559Y-113731912D01*
X174820559Y-113731912D02*
X174864815Y-113656518D01*
X174864815Y-113656518D02*
X174921583Y-113591351D01*
X174921583Y-113591351D02*
X174988926Y-113540504D01*
X174988926Y-113540504D02*
X174989593Y-113540114D01*
X174989593Y-113540114D02*
X175071421Y-113503922D01*
X175071421Y-113503922D02*
X175161224Y-113484647D01*
X175161224Y-113484647D02*
X175253495Y-113482880D01*
X175253495Y-113482880D02*
X175342724Y-113499211D01*
X175342724Y-113499211D02*
X175350071Y-113501478D01*
X175350071Y-113501478D02*
X175434599Y-113538910D01*
X175434599Y-113538910D02*
X175507851Y-113592201D01*
X175507851Y-113592201D02*
X175567978Y-113658648D01*
X175567978Y-113658648D02*
X175613130Y-113735549D01*
X175613130Y-113735549D02*
X175641456Y-113820200D01*
X175641456Y-113820200D02*
X175651107Y-113909899D01*
X175651107Y-113909899D02*
X175650810Y-113917351D01*
X175650810Y-113917351D02*
X175515209Y-113917351D01*
X175515209Y-113917351D02*
X175510521Y-113849020D01*
X175510521Y-113849020D02*
X175494921Y-113792642D01*
X175494921Y-113792642D02*
X175466103Y-113740820D01*
X175466103Y-113740820D02*
X175455792Y-113726696D01*
X175455792Y-113726696D02*
X175403943Y-113675373D01*
X175403943Y-113675373D02*
X175340203Y-113638629D01*
X175340203Y-113638629D02*
X175268932Y-113617463D01*
X175268932Y-113617463D02*
X175194487Y-113612876D01*
X175194487Y-113612876D02*
X175121229Y-113625869D01*
X175121229Y-113625869D02*
X175082612Y-113641067D01*
X175082612Y-113641067D02*
X175017519Y-113682958D01*
X175017519Y-113682958D02*
X174968023Y-113736190D01*
X174968023Y-113736190D02*
X174934117Y-113797790D01*
X174934117Y-113797790D02*
X174915793Y-113864785D01*
X174915793Y-113864785D02*
X174913043Y-113934201D01*
X174913043Y-113934201D02*
X174925859Y-114003067D01*
X174925859Y-114003067D02*
X174954234Y-114068408D01*
X174954234Y-114068408D02*
X174998160Y-114127252D01*
X174998160Y-114127252D02*
X175057629Y-114176627D01*
X175057629Y-114176627D02*
X175084040Y-114192149D01*
X175084040Y-114192149D02*
X175133482Y-114209332D01*
X175133482Y-114209332D02*
X175193674Y-114217040D01*
X175193674Y-114217040D02*
X175256430Y-114215274D01*
X175256430Y-114215274D02*
X175313566Y-114204034D01*
X175313566Y-114204034D02*
X175342864Y-114192156D01*
X175342864Y-114192156D02*
X175413755Y-114145194D01*
X175413755Y-114145194D02*
X175465607Y-114089249D01*
X175465607Y-114089249D02*
X175498892Y-114023569D01*
X175498892Y-114023569D02*
X175514080Y-113947402D01*
X175514080Y-113947402D02*
X175515209Y-113917351D01*
X175515209Y-113917351D02*
X175650810Y-113917351D01*
X175650810Y-113917351D02*
X175649920Y-113939608D01*
X175649920Y-113939608D02*
X175638496Y-114020681D01*
X175638496Y-114020681D02*
X175616011Y-114088970D01*
X175616011Y-114088970D02*
X175579529Y-114150823D01*
X175579529Y-114150823D02*
X175526115Y-114212588D01*
X175526115Y-114212588D02*
X175521508Y-114217231D01*
X175521508Y-114217231D02*
X175460739Y-114271351D01*
X175460739Y-114271351D02*
X175401186Y-114308609D01*
X175401186Y-114308609D02*
X175336459Y-114331868D01*
X175336459Y-114331868D02*
X175260169Y-114343995D01*
X175260169Y-114343995D02*
X175234634Y-114345858D01*
X175234634Y-114345858D02*
X175140293Y-114341422D01*
X175140293Y-114341422D02*
X175140293Y-114341422D01*
G36*
X175638496Y-114020681D02*
G01*
X175616011Y-114088970D01*
X175579529Y-114150823D01*
X175526115Y-114212588D01*
X175521508Y-114217231D01*
X175460739Y-114271351D01*
X175401186Y-114308609D01*
X175336459Y-114331868D01*
X175260169Y-114343995D01*
X175234634Y-114345858D01*
X175140293Y-114341422D01*
X175052535Y-114317904D01*
X174973308Y-114276887D01*
X174904557Y-114219949D01*
X174848230Y-114148673D01*
X174806272Y-114064639D01*
X174782235Y-113978494D01*
X174779570Y-113934201D01*
X174913043Y-113934201D01*
X174925859Y-114003067D01*
X174954234Y-114068408D01*
X174998160Y-114127252D01*
X175057629Y-114176627D01*
X175084040Y-114192149D01*
X175133482Y-114209332D01*
X175193674Y-114217040D01*
X175256430Y-114215274D01*
X175313566Y-114204034D01*
X175342864Y-114192156D01*
X175413755Y-114145194D01*
X175465607Y-114089249D01*
X175498892Y-114023569D01*
X175514080Y-113947402D01*
X175515209Y-113917351D01*
X175510521Y-113849020D01*
X175494921Y-113792642D01*
X175466103Y-113740820D01*
X175455792Y-113726696D01*
X175403943Y-113675373D01*
X175340203Y-113638629D01*
X175268932Y-113617463D01*
X175194487Y-113612876D01*
X175121229Y-113625869D01*
X175082612Y-113641067D01*
X175017519Y-113682958D01*
X174968023Y-113736190D01*
X174934117Y-113797790D01*
X174915793Y-113864785D01*
X174913043Y-113934201D01*
X174779570Y-113934201D01*
X174777332Y-113896995D01*
X174790752Y-113813436D01*
X174820559Y-113731912D01*
X174864815Y-113656518D01*
X174921583Y-113591351D01*
X174988926Y-113540504D01*
X174989593Y-113540114D01*
X175071421Y-113503922D01*
X175161224Y-113484647D01*
X175253495Y-113482880D01*
X175342724Y-113499211D01*
X175350071Y-113501478D01*
X175434599Y-113538910D01*
X175507851Y-113592201D01*
X175567978Y-113658648D01*
X175613130Y-113735549D01*
X175641456Y-113820200D01*
X175651107Y-113909899D01*
X175650810Y-113917351D01*
X175649920Y-113939608D01*
X175638496Y-114020681D01*
G37*
X175638496Y-114020681D02*
X175616011Y-114088970D01*
X175579529Y-114150823D01*
X175526115Y-114212588D01*
X175521508Y-114217231D01*
X175460739Y-114271351D01*
X175401186Y-114308609D01*
X175336459Y-114331868D01*
X175260169Y-114343995D01*
X175234634Y-114345858D01*
X175140293Y-114341422D01*
X175052535Y-114317904D01*
X174973308Y-114276887D01*
X174904557Y-114219949D01*
X174848230Y-114148673D01*
X174806272Y-114064639D01*
X174782235Y-113978494D01*
X174779570Y-113934201D01*
X174913043Y-113934201D01*
X174925859Y-114003067D01*
X174954234Y-114068408D01*
X174998160Y-114127252D01*
X175057629Y-114176627D01*
X175084040Y-114192149D01*
X175133482Y-114209332D01*
X175193674Y-114217040D01*
X175256430Y-114215274D01*
X175313566Y-114204034D01*
X175342864Y-114192156D01*
X175413755Y-114145194D01*
X175465607Y-114089249D01*
X175498892Y-114023569D01*
X175514080Y-113947402D01*
X175515209Y-113917351D01*
X175510521Y-113849020D01*
X175494921Y-113792642D01*
X175466103Y-113740820D01*
X175455792Y-113726696D01*
X175403943Y-113675373D01*
X175340203Y-113638629D01*
X175268932Y-113617463D01*
X175194487Y-113612876D01*
X175121229Y-113625869D01*
X175082612Y-113641067D01*
X175017519Y-113682958D01*
X174968023Y-113736190D01*
X174934117Y-113797790D01*
X174915793Y-113864785D01*
X174913043Y-113934201D01*
X174779570Y-113934201D01*
X174777332Y-113896995D01*
X174790752Y-113813436D01*
X174820559Y-113731912D01*
X174864815Y-113656518D01*
X174921583Y-113591351D01*
X174988926Y-113540504D01*
X174989593Y-113540114D01*
X175071421Y-113503922D01*
X175161224Y-113484647D01*
X175253495Y-113482880D01*
X175342724Y-113499211D01*
X175350071Y-113501478D01*
X175434599Y-113538910D01*
X175507851Y-113592201D01*
X175567978Y-113658648D01*
X175613130Y-113735549D01*
X175641456Y-113820200D01*
X175651107Y-113909899D01*
X175650810Y-113917351D01*
X175649920Y-113939608D01*
X175638496Y-114020681D01*
X175647147Y-112505170D02*
X175495341Y-112414370D01*
X175495341Y-112414370D02*
X175358746Y-112318266D01*
X175358746Y-112318266D02*
X175231411Y-112212300D01*
X175231411Y-112212300D02*
X175107385Y-112091913D01*
X175107385Y-112091913D02*
X175106804Y-112091309D01*
X175106804Y-112091309D02*
X175014236Y-111986580D01*
X175014236Y-111986580D02*
X174942244Y-111886035D01*
X174942244Y-111886035D02*
X174890698Y-111789430D01*
X174890698Y-111789430D02*
X174859470Y-111696518D01*
X174859470Y-111696518D02*
X174848427Y-111607055D01*
X174848427Y-111607055D02*
X174848405Y-111603915D01*
X174848405Y-111603915D02*
X174853552Y-111536531D01*
X174853552Y-111536531D02*
X174868894Y-111482873D01*
X174868894Y-111482873D02*
X174893593Y-111445201D01*
X174893593Y-111445201D02*
X174912494Y-111431243D01*
X174912494Y-111431243D02*
X174956033Y-111418437D01*
X174956033Y-111418437D02*
X175005176Y-111418329D01*
X175005176Y-111418329D02*
X175048982Y-111430839D01*
X175048982Y-111430839D02*
X175051637Y-111432224D01*
X175051637Y-111432224D02*
X175076616Y-111452480D01*
X175076616Y-111452480D02*
X175102123Y-111487279D01*
X175102123Y-111487279D02*
X175129254Y-111538499D01*
X175129254Y-111538499D02*
X175159107Y-111608021D01*
X175159107Y-111608021D02*
X175169069Y-111633539D01*
X175169069Y-111633539D02*
X175237093Y-111788100D01*
X175237093Y-111788100D02*
X175321139Y-111937264D01*
X175321139Y-111937264D02*
X175423319Y-112084644D01*
X175423319Y-112084644D02*
X175461979Y-112134254D01*
X175461979Y-112134254D02*
X175513070Y-112194746D01*
X175513070Y-112194746D02*
X175571444Y-112258373D01*
X175571444Y-112258373D02*
X175632863Y-112320920D01*
X175632863Y-112320920D02*
X175693085Y-112378176D01*
X175693085Y-112378176D02*
X175747870Y-112425928D01*
X175747870Y-112425928D02*
X175782550Y-112452762D01*
X175782550Y-112452762D02*
X175809559Y-112473131D01*
X175809559Y-112473131D02*
X175827814Y-112488923D01*
X175827814Y-112488923D02*
X175832842Y-112495436D01*
X175832842Y-112495436D02*
X175825893Y-112506184D01*
X175825893Y-112506184D02*
X175808322Y-112525616D01*
X175808322Y-112525616D02*
X175798022Y-112535900D01*
X175798022Y-112535900D02*
X175763203Y-112569648D01*
X175763203Y-112569648D02*
X175647147Y-112505170D01*
X175647147Y-112505170D02*
X175647147Y-112505170D01*
G36*
X175048982Y-111430839D02*
G01*
X175051637Y-111432224D01*
X175076616Y-111452480D01*
X175102123Y-111487279D01*
X175129254Y-111538499D01*
X175159107Y-111608021D01*
X175169069Y-111633539D01*
X175237093Y-111788100D01*
X175321139Y-111937264D01*
X175423319Y-112084644D01*
X175461979Y-112134254D01*
X175513070Y-112194746D01*
X175571444Y-112258373D01*
X175632863Y-112320920D01*
X175693085Y-112378176D01*
X175747870Y-112425928D01*
X175782550Y-112452762D01*
X175809559Y-112473131D01*
X175827814Y-112488923D01*
X175832842Y-112495436D01*
X175825893Y-112506184D01*
X175808322Y-112525616D01*
X175798022Y-112535900D01*
X175763203Y-112569648D01*
X175647147Y-112505170D01*
X175495341Y-112414370D01*
X175358746Y-112318266D01*
X175231411Y-112212300D01*
X175107385Y-112091913D01*
X175106804Y-112091309D01*
X175014236Y-111986580D01*
X174942244Y-111886035D01*
X174890698Y-111789430D01*
X174859470Y-111696518D01*
X174848427Y-111607055D01*
X174848405Y-111603915D01*
X174853552Y-111536531D01*
X174868894Y-111482873D01*
X174893593Y-111445201D01*
X174912494Y-111431243D01*
X174956033Y-111418437D01*
X175005176Y-111418329D01*
X175048982Y-111430839D01*
G37*
X175048982Y-111430839D02*
X175051637Y-111432224D01*
X175076616Y-111452480D01*
X175102123Y-111487279D01*
X175129254Y-111538499D01*
X175159107Y-111608021D01*
X175169069Y-111633539D01*
X175237093Y-111788100D01*
X175321139Y-111937264D01*
X175423319Y-112084644D01*
X175461979Y-112134254D01*
X175513070Y-112194746D01*
X175571444Y-112258373D01*
X175632863Y-112320920D01*
X175693085Y-112378176D01*
X175747870Y-112425928D01*
X175782550Y-112452762D01*
X175809559Y-112473131D01*
X175827814Y-112488923D01*
X175832842Y-112495436D01*
X175825893Y-112506184D01*
X175808322Y-112525616D01*
X175798022Y-112535900D01*
X175763203Y-112569648D01*
X175647147Y-112505170D01*
X175495341Y-112414370D01*
X175358746Y-112318266D01*
X175231411Y-112212300D01*
X175107385Y-112091913D01*
X175106804Y-112091309D01*
X175014236Y-111986580D01*
X174942244Y-111886035D01*
X174890698Y-111789430D01*
X174859470Y-111696518D01*
X174848427Y-111607055D01*
X174848405Y-111603915D01*
X174853552Y-111536531D01*
X174868894Y-111482873D01*
X174893593Y-111445201D01*
X174912494Y-111431243D01*
X174956033Y-111418437D01*
X175005176Y-111418329D01*
X175048982Y-111430839D01*
%TD*%
D14*
%TO.C,U1*%
X179980000Y-87035000D03*
X178630000Y-87035000D03*
D15*
X179800000Y-87660000D03*
D14*
X179800000Y-78135000D03*
D16*
X177260000Y-87660000D03*
D14*
X177260000Y-78135000D03*
D16*
X175990000Y-87660000D03*
D14*
X175990000Y-78135000D03*
X174720000Y-78135000D03*
D16*
X174720000Y-87660000D03*
X173450000Y-87660000D03*
D14*
X173450000Y-78135000D03*
D16*
X172180000Y-87660000D03*
D14*
X172180000Y-78135000D03*
X170910000Y-78135000D03*
D16*
X170910000Y-87660000D03*
X169640000Y-87660000D03*
D14*
X169640000Y-78135000D03*
X168370000Y-78135000D03*
D16*
X168370000Y-87660000D03*
D14*
X167100000Y-78135000D03*
D16*
X167100000Y-87660000D03*
X165830000Y-87660000D03*
D14*
X165830000Y-78135000D03*
D16*
X164560000Y-87660000D03*
D14*
X164560000Y-78135000D03*
D16*
X163290000Y-87660000D03*
D14*
X163290000Y-78135000D03*
X162020000Y-78135000D03*
D16*
X162020000Y-87660000D03*
D14*
X160750000Y-78135000D03*
D16*
X160750000Y-87660000D03*
D14*
X159480000Y-78135000D03*
D16*
X159480000Y-87660000D03*
X158210000Y-87660000D03*
D14*
X158210000Y-78135000D03*
X156940000Y-78135000D03*
D16*
X156940000Y-87660000D03*
D14*
X155670000Y-78135000D03*
D16*
X155670000Y-87660000D03*
X154400000Y-87660000D03*
D14*
X154400000Y-78135000D03*
D16*
X153130000Y-87660000D03*
D14*
X153130000Y-78135000D03*
X151860000Y-78135000D03*
D16*
X151860000Y-87660000D03*
D14*
X150590000Y-78135000D03*
D16*
X150590000Y-87660000D03*
X149320000Y-87660000D03*
D14*
X149320000Y-78135000D03*
D16*
X148050000Y-87660000D03*
D14*
X148050000Y-78135000D03*
X146780000Y-78135000D03*
D16*
X146780000Y-87660000D03*
D14*
X145510000Y-78135000D03*
D16*
X145510000Y-87660000D03*
D14*
X144240000Y-78135000D03*
D16*
X144240000Y-87660000D03*
X142970000Y-87660000D03*
D14*
X142970000Y-78135000D03*
X141700000Y-78135000D03*
D16*
X141700000Y-87660000D03*
X140430000Y-87660000D03*
D14*
X140430000Y-78135000D03*
D16*
X139160000Y-87660000D03*
D14*
X139160000Y-78135000D03*
X137890000Y-78135000D03*
D16*
X137890000Y-87660000D03*
X136620000Y-87660000D03*
D14*
X136620000Y-78135000D03*
X135230000Y-87035000D03*
X134080000Y-78135000D03*
D17*
X134080000Y-87660000D03*
D14*
X133930000Y-87025000D03*
%TD*%
%TO.C,SP1*%
X133460000Y-94505000D03*
X133460000Y-91330000D03*
%TD*%
%TO.C,SP2*%
X137270000Y-91330000D03*
X137270000Y-94505000D03*
%TD*%
%TO.C,SP3*%
X133460000Y-102760000D03*
X133460000Y-105935000D03*
%TD*%
%TO.C,SP4*%
X136000000Y-102760000D03*
X136000000Y-105935000D03*
%TD*%
%TO.C,SP5*%
X138540000Y-102760000D03*
X138540000Y-105935000D03*
%TD*%
%TO.C,SP6*%
X141080000Y-105935000D03*
X141080000Y-102760000D03*
%TD*%
%TO.C,SP7*%
X143620000Y-105935000D03*
X143620000Y-102760000D03*
%TD*%
%TO.C,SP8*%
X146160000Y-102760000D03*
X146160000Y-105935000D03*
%TD*%
%TO.C,SP9*%
X148700000Y-105935000D03*
X148700000Y-102760000D03*
%TD*%
%TO.C,SP10*%
X151240000Y-105935000D03*
X151240000Y-102760000D03*
%TD*%
%TO.C,SP11*%
X153780000Y-105935000D03*
X153780000Y-102760000D03*
%TD*%
%TO.C,SP12*%
X133460000Y-111650000D03*
X133460000Y-114825000D03*
%TD*%
%TO.C,SP13*%
X136000000Y-111650000D03*
X136000000Y-114825000D03*
%TD*%
%TO.C,SP14*%
X138540000Y-111650000D03*
X138540000Y-114825000D03*
%TD*%
%TO.C,SP15*%
X141080000Y-114825000D03*
X141080000Y-111650000D03*
%TD*%
%TO.C,SP16*%
X143620000Y-111650000D03*
X143620000Y-114825000D03*
%TD*%
%TO.C,SP17*%
X146160000Y-111650000D03*
X146160000Y-114825000D03*
%TD*%
%TO.C,SP18*%
X148700000Y-111650000D03*
X148700000Y-114825000D03*
%TD*%
%TO.C,SP19*%
X151240000Y-111650000D03*
X151240000Y-114825000D03*
%TD*%
%TO.C,SP20*%
X153780000Y-111650000D03*
X153780000Y-114825000D03*
%TD*%
%TO.C,SP21*%
X158860000Y-105935000D03*
X158860000Y-102760000D03*
%TD*%
%TO.C,SP22*%
X161400000Y-105935000D03*
X161400000Y-102760000D03*
%TD*%
%TO.C,SP23*%
X163940000Y-105935000D03*
X163940000Y-102760000D03*
%TD*%
%TO.C,SP24*%
X166480000Y-102760000D03*
X166480000Y-105935000D03*
%TD*%
%TO.C,SP25*%
X169020000Y-105935000D03*
X169020000Y-102760000D03*
%TD*%
%TO.C,SP26*%
X171560000Y-102760000D03*
X171560000Y-105935000D03*
%TD*%
%TO.C,SP27*%
X174100000Y-102760000D03*
X174100000Y-105935000D03*
%TD*%
%TO.C,SP28*%
X176640000Y-102760000D03*
X176640000Y-105935000D03*
%TD*%
%TO.C,SP29*%
X174100000Y-91330000D03*
X174100000Y-94505000D03*
%TD*%
%TO.C,SP30*%
X177910000Y-91330000D03*
X177910000Y-94505000D03*
%TD*%
%TO.C,SP31*%
X158860000Y-114825000D03*
X158860000Y-111650000D03*
%TD*%
%TO.C,SP32*%
X181720000Y-105935000D03*
X181720000Y-102760000D03*
%TD*%
M02*
