M48
; DRILL file {KiCad (5.99.0-11763-gc80efb0f98)} date Thu Aug 26 10:07:43 2021
; FORMAT={-:-/ absolute / inch / decimal}
; #@! TF.CreationDate,2021-08-26T10:07:43+03:00
; #@! TF.GenerationSoftware,Kicad,Pcbnew,(5.99.0-11763-gc80efb0f98)
; #@! TF.FileFunction,Plated,1,2,PTH
FMAT,2
INCH
; #@! TA.AperFunction,Plated,PTH,ViaDrill
T1C0.0118
; #@! TA.AperFunction,Plated,PTH,ComponentDrill
T2C0.0118
%
G90
G05
T1
X5.1593Y-4.2457
X5.1593Y-4.6307
X5.1643Y-3.5007
X5.1993Y-3.8257
X5.3143Y-4.6357
X5.4433Y-3.5472
X5.9279Y-3.4899
X5.9765Y-3.4897
X6.0279Y-3.4879
X6.0783Y-3.4876
X6.1278Y-3.4903
X6.1543Y-4.4907
X6.1787Y-3.4904
X6.1993Y-3.7507
X6.2272Y-3.49
X6.2443Y-4.2907
X6.277Y-3.4896
X6.5693Y-4.6657
X6.6143Y-4.2807
X6.7743Y-4.5457
X7.0493Y-4.2857
X7.1543Y-3.5207
X7.1543Y-3.8407
X7.1743Y-4.3757
X7.1743Y-4.6307
T2
X5.2543Y-3.5957
X5.2543Y-3.7207
X5.2543Y-4.0457
X5.2543Y-4.1707
X5.2543Y-4.3957
X5.2543Y-4.5207
X5.2728Y-3.4262
X5.2787Y-3.0762
X5.324Y-3.4266
X5.3543Y-4.0457
X5.3543Y-4.1707
X5.3543Y-4.3957
X5.3543Y-4.5207
X5.3787Y-3.0762
X5.4043Y-3.5957
X5.4043Y-3.7207
X5.4287Y-3.0762
X5.4543Y-4.0457
X5.4543Y-4.1707
X5.4543Y-4.3957
X5.4543Y-4.5207
X5.4787Y-3.0762
X5.5287Y-3.0762
X5.5543Y-4.0457
X5.5543Y-4.1707
X5.5543Y-4.3957
X5.5543Y-4.5207
X5.5787Y-3.0762
X5.6287Y-3.0762
X5.6543Y-4.0457
X5.6543Y-4.1707
X5.6543Y-4.3957
X5.6543Y-4.5207
X5.6787Y-3.0762
X5.7287Y-3.0762
X5.7543Y-4.0457
X5.7543Y-4.1707
X5.7543Y-4.3957
X5.7543Y-4.5207
X5.7787Y-3.0762
X5.8287Y-3.0762
X5.8543Y-4.0457
X5.8543Y-4.1707
X5.8543Y-4.3957
X5.8543Y-4.5207
X5.8787Y-3.0762
X5.9287Y-3.0762
X5.9543Y-4.0457
X5.9543Y-4.1707
X5.9543Y-4.3957
X5.9543Y-4.5207
X5.9787Y-3.0762
X6.0287Y-3.0762
X6.0543Y-4.0457
X6.0543Y-4.1707
X6.0543Y-4.3957
X6.0543Y-4.5207
X6.0787Y-3.0762
X6.1287Y-3.0762
X6.1787Y-3.0762
X6.2287Y-3.0762
X6.2543Y-4.0457
X6.2543Y-4.1707
X6.2543Y-4.3957
X6.2543Y-4.5207
X6.2787Y-3.0762
X6.3287Y-3.0762
X6.3543Y-4.0457
X6.3543Y-4.1707
X6.3787Y-3.0762
X6.4287Y-3.0762
X6.4543Y-4.0457
X6.4543Y-4.1707
X6.4787Y-3.0762
X6.5287Y-3.0762
X6.5543Y-4.0457
X6.5543Y-4.1707
X6.5787Y-3.0762
X6.6287Y-3.0762
X6.6543Y-4.0457
X6.6543Y-4.1707
X6.6787Y-3.0762
X6.7287Y-3.0762
X6.7543Y-4.0457
X6.7543Y-4.1707
X6.7787Y-3.0762
X6.8287Y-3.0762
X6.8543Y-3.5957
X6.8543Y-3.7207
X6.8543Y-4.0457
X6.8543Y-4.1707
X6.8787Y-3.0762
X6.9287Y-3.0762
X6.9543Y-4.0457
X6.9543Y-4.1707
X6.9787Y-3.0762
X7.0043Y-3.5957
X7.0043Y-3.7207
X7.0327Y-3.4266
X7.0787Y-3.0762
X7.0858Y-3.4266
X7.1543Y-4.0457
X7.1543Y-4.1707
T0
M30
